<svg width="154" height="154" xmlns="http://www.w3.org/2000/svg"><path d="M14.269 57.779A65.584 65.584 0 0011.407 77c0 36.226 29.367 65.593 65.593 65.593S142.593 113.226 142.593 77c0-28.892-18.68-53.421-44.622-62.169-6.913.503-8.46 2.592-8.877 7.613-.04.507-.04.507-.079 1.034-.607 8.378-3.473 11.94-13.598 11.94-18.044 0-23.485 5.132-23.485 18.26 0 11.299-13.056 11.902-37.663 4.1zm1.909-5.382c20.503 6.488 30.027 6.176 30.027 1.282 0-16.352 8.073-23.967 29.212-23.967 6.701 0 7.474-.96 7.886-6.645.039-.535.039-.535.083-1.093.36-4.339 1.633-7.543 4.413-9.682A66.045 66.045 0 0077 11.407c-27.525 0-51.09 16.955-60.822 40.99zM77 154c-42.526 0-77-34.474-77-77S34.474 0 77 0s77 34.474 77 77-34.474 77-77 77zM62.22 99.247c.067-.82.06-1.46.004-1.885-6.744-.377-10.945-7.2-13.178-19.516L49 77.338C49 60.919 55.66 52 68.63 52c8.3 0 12.404 2.218 13.947 6.714.202.59.266.84.53 1.961.286 1.22.032.926.72.926C93.233 61.6 105 73.23 105 84.253c0 5.055-1.206 7.488-4.529 9.46-.545.323-2.778 1.517-2.613 1.427a33.256 33.256 0 00-3.094 1.895c-2.761 1.912-5.6 4.528-8.777 8.302-5.064 6.017-13.607 18.761-14.419 19.668-2.453 2.742-5.083 3.995-8.746 3.995-4.129 0-5.423-3.308-5.032-8.013.223-2.687.77-5.22 2.289-11.322 1.433-5.756 1.953-8.164 2.14-10.418zm6.41-41.573c-9.375 0-13.918 6.005-13.975 19.409 1.864 10.086 4.79 14.622 8.167 14.622 4.128 0 5.423 3.308 5.032 8.013-.223 2.687-.77 5.22-2.29 11.322-1.432 5.756-1.952 8.164-2.14 10.418-.065.798-.06 1.426-.008 1.85 1.646-.103 2.679-.679 3.945-2.094.476-.532 8.955-13.18 14.306-19.537 3.492-4.15 6.702-7.107 9.885-9.311 1.917-1.327 7.059-4.141 6.04-3.537 1.488-.882 1.753-1.418 1.753-4.576 0-7.87-9.216-16.978-15.518-16.978-3.848 0-5.406-1.81-6.225-5.3-.212-.904-.257-1.08-.372-1.414-.649-1.892-2.49-2.887-8.6-2.887z"/></svg>