<svg width="185" height="126" viewBox="0 0 185 126" fill="none" xmlns="http://www.w3.org/2000/svg">
<path d="M27 17H154V120C154 123.314 151.314 126 148 126H33C29.6863 126 27 123.314 27 120V17Z" fill="url(#paint0_linear_185_4068)"/>
<rect x="34" y="21.8335" width="113.268" height="96.0758" rx="5" fill="url(#paint1_linear_185_4068)"/>
<path d="M69.8226 60.9748C70.9102 53.8792 73.1558 46.9401 76.5203 40.4625C74.9554 41.1666 73.4218 41.9958 71.9352 42.9502C66.8337 46.236 62.8824 50.6248 60.1908 55.6081C63.2188 57.7986 66.4503 59.5901 69.8226 60.9748ZM75.5579 86.9633C85.4479 90.3899 96.3865 90.4446 106.566 86.7834C107.732 79.6878 107.63 72.4748 106.261 65.4496C100.236 67.8122 93.914 68.9935 87.5997 68.9935C82.905 68.9935 78.226 68.3364 73.6879 67.0612C73.2497 73.7344 73.8678 80.4701 75.5579 86.9633ZM109.375 59.0894C112.943 57.204 116.237 54.8884 119.187 52.1894C114.242 45.1486 107.114 40.4781 99.3206 38.4989C103.929 44.8669 107.294 51.8374 109.375 59.0894ZM111.198 63.2279C110.963 63.353 110.721 63.4547 110.486 63.5721C111.949 70.5191 112.27 77.6616 111.417 84.7259C112.176 84.3504 112.919 83.9671 113.663 83.5524C118.107 81.0569 122.058 77.9041 125.446 74.1725C125.798 68.0704 124.554 61.8275 121.565 56.1088C118.428 58.886 114.954 61.2799 111.198 63.2279ZM74.1573 62.5081C84.2586 65.5357 95.2363 65.0976 105.228 61.0217C103.1 53.2377 99.3989 45.7822 94.1409 39.1169C93.7105 38.5693 93.2645 38.0217 92.8107 37.4819C89.5401 37.2863 86.2304 37.5444 82.9833 38.2876C78.3043 45.7431 75.3466 54.0122 74.1573 62.5081ZM105.494 91.8919C100.674 93.3392 95.7292 94.0511 90.8077 94.0511C86.1913 94.0511 81.6062 93.4253 77.1697 92.197C78.8441 96.8909 81.0976 101.421 83.9378 105.645C84.0943 105.88 84.2586 106.107 84.4151 106.333C89.5792 107.296 94.9702 107.092 100.15 105.637C102.521 101.217 104.289 96.6015 105.494 91.8919ZM70.4407 84.8511C69.1341 78.5221 68.7428 72.0289 69.2827 65.6061C65.4331 64.1354 61.74 62.1874 58.2816 59.7779C56.5681 64.2762 55.8013 69.1031 56.0438 73.9378C60.1829 78.5926 65.0888 82.2538 70.4407 84.8511ZM115.877 87.4875C114.132 88.4654 112.348 89.3259 110.541 90.0848C109.618 94.5518 108.209 98.9641 106.323 103.243C107.419 102.688 108.506 102.078 109.563 101.397C116.965 96.6328 121.949 89.5293 124.179 81.6749C121.62 83.8732 118.85 85.8212 115.877 87.4875ZM71.8335 90.4055C66.5755 88.3011 61.6383 85.2892 57.241 81.448C58.1564 84.7416 59.5726 87.9569 61.5209 90.9844C65.5974 97.3134 71.3875 101.874 77.8896 104.456C75.3075 99.9889 73.2888 95.2637 71.8335 90.4055Z" fill="url(#paint2_linear_185_4068)"/>
<g filter="url(#filter0_d_185_4068)">
<rect x="10" y="31.157" width="164.174" height="26.3637" rx="8" fill="white"/>
</g>
<path d="M41.1313 39.6566H42.9414L45.3654 45.5732H45.4611L47.8851 39.6566H49.6952V47.8218H48.2759V42.2122H48.2001L45.9435 47.7979H44.883L42.6264 42.2003H42.5507V47.8218H41.1313V39.6566Z" fill="url(#paint3_linear_185_4068)"/>
<path d="M39.7329 43.7396C39.7329 44.6194 39.5681 45.3729 39.2385 46.0002C38.9116 46.6248 38.4651 47.1033 37.8989 47.4355C37.3354 47.7677 36.6962 47.9339 35.9812 47.9339C35.2662 47.9339 34.6257 47.7677 34.0595 47.4355C33.496 47.1006 33.0495 46.6208 32.7199 45.9962C32.393 45.369 32.2295 44.6168 32.2295 43.7396C32.2295 42.8599 32.393 42.1077 32.7199 41.483C33.0495 40.8558 33.496 40.376 34.0595 40.0438C34.6257 39.7115 35.2662 39.5454 35.9812 39.5454C36.6962 39.5454 37.3354 39.7115 37.8989 40.0438C38.4651 40.376 38.9116 40.8558 39.2385 41.483C39.5681 42.1077 39.7329 42.8599 39.7329 43.7396ZM38.2458 43.7396C38.2458 43.1203 38.1488 42.5981 37.9547 42.1728C37.7634 41.7449 37.4976 41.4219 37.1574 41.204C36.8171 40.9834 36.4251 40.8731 35.9812 40.8731C35.5373 40.8731 35.1453 40.9834 34.8051 41.204C34.4649 41.4219 34.1977 41.7449 34.0037 42.1728C33.8123 42.5981 33.7167 43.1203 33.7167 43.7396C33.7167 44.3589 33.8123 44.8826 34.0037 45.3105C34.1977 45.7358 34.4649 46.0587 34.8051 46.2793C35.1453 46.4973 35.5373 46.6062 35.9812 46.6062C36.4251 46.6062 36.8171 46.4973 37.1574 46.2793C37.4976 46.0587 37.7634 45.7358 37.9547 45.3105C38.1488 44.8826 38.2458 44.3589 38.2458 43.7396Z" fill="url(#paint4_linear_185_4068)"/>
<path d="M31.0824 42.412H29.5913C29.5487 42.1675 29.4703 41.9508 29.356 41.7621C29.2417 41.5708 29.0995 41.4086 28.9294 41.2757C28.7593 41.1428 28.5653 41.0432 28.3473 40.9767C28.132 40.9076 27.8995 40.8731 27.6496 40.8731C27.2058 40.8731 26.8124 40.9847 26.4695 41.208C26.1266 41.4286 25.8582 41.7528 25.6641 42.1808C25.4701 42.606 25.3731 43.1257 25.3731 43.7396C25.3731 44.3643 25.4701 44.8905 25.6641 45.3185C25.8608 45.7437 26.1293 46.0653 26.4695 46.2833C26.8124 46.4986 27.2044 46.6062 27.6456 46.6062C27.8902 46.6062 28.1188 46.5743 28.3314 46.5105C28.5467 46.4441 28.7394 46.3471 28.9095 46.2195C29.0823 46.0919 29.2271 45.9351 29.3441 45.749C29.4637 45.563 29.5461 45.3503 29.5913 45.1111L31.0824 45.1191C31.0265 45.5072 30.9056 45.8713 30.7195 46.2115C30.5361 46.5517 30.2956 46.8521 29.9979 47.1126C29.7002 47.3704 29.352 47.5724 28.9533 47.7186C28.5547 47.8621 28.1121 47.9339 27.6257 47.9339C26.9081 47.9339 26.2675 47.7677 25.704 47.4355C25.1405 47.1033 24.6967 46.6235 24.3724 45.9962C24.0481 45.369 23.886 44.6168 23.886 43.7396C23.886 42.8599 24.0494 42.1077 24.3764 41.483C24.7033 40.8558 25.1485 40.376 25.712 40.0438C26.2755 39.7115 26.9134 39.5454 27.6257 39.5454C28.0802 39.5454 28.5028 39.6092 28.8935 39.7368C29.2843 39.8644 29.6325 40.0517 29.9381 40.2989C30.2438 40.5435 30.495 40.8438 30.6916 41.2C30.891 41.5535 31.0212 41.9575 31.0824 42.412Z" fill="url(#paint5_linear_185_4068)"/>
<path d="M21.6623 47.9099C21.4204 47.9099 21.2131 47.8248 21.0403 47.6547C20.8676 47.4846 20.7825 47.2773 20.7852 47.0328C20.7825 46.7936 20.8676 46.5889 21.0403 46.4188C21.2131 46.2487 21.4204 46.1636 21.6623 46.1636C21.8962 46.1636 22.0995 46.2487 22.2723 46.4188C22.4477 46.5889 22.5367 46.7936 22.5394 47.0328C22.5367 47.1949 22.4942 47.3424 22.4118 47.4753C22.3321 47.6082 22.2258 47.7145 22.0929 47.7943C21.9626 47.8714 21.8191 47.9099 21.6623 47.9099Z" fill="url(#paint6_linear_185_4068)"/>
<path d="M149.009 37.1489H163.389C163.601 37.1489 163.804 37.2331 163.954 37.3829C164.104 37.5327 164.188 37.7359 164.188 37.9478V50.7302C164.188 50.9421 164.104 51.1453 163.954 51.2951C163.804 51.445 163.601 51.5291 163.389 51.5291H149.009C148.797 51.5291 148.594 51.445 148.444 51.2951C148.294 51.1453 148.21 50.9421 148.21 50.7302V37.9478C148.21 37.7359 148.294 37.5327 148.444 37.3829C148.594 37.2331 148.797 37.1489 149.009 37.1489ZM162.59 42.7412H149.808V49.9313H162.59V42.7412ZM150.607 39.5456V41.1434H152.204V39.5456H150.607ZM153.802 39.5456V41.1434H155.4V39.5456H153.802Z" fill="url(#paint7_linear_185_4068)"/>
<path d="M27 5C27 2.23858 29.2386 0 32 0H149C151.761 0 154 2.23858 154 5V17H27V5Z" fill="url(#paint8_linear_185_4068)"/>
<circle cx="34.5662" cy="8.98758" r="2.99588" fill="url(#paint9_linear_185_4068)"/>
<circle cx="44.153" cy="8.98758" r="2.99588" fill="url(#paint10_linear_185_4068)"/>
<circle cx="53.7398" cy="8.98758" r="2.99588" fill="url(#paint11_linear_185_4068)"/>
<circle cx="58.5436" cy="44.4983" r="3.03397" fill="url(#paint12_linear_185_4068)"/>
<circle cx="140.461" cy="44.4983" r="3.03397" fill="url(#paint13_linear_185_4068)"/>
<path d="M66.3225 44.3391L131.033 44.3391" stroke="url(#paint14_linear_185_4068)" stroke-width="2" stroke-dasharray="2 2"/>
<g filter="url(#filter1_dii_185_4068)">
<path fill-rule="evenodd" clip-rule="evenodd" d="M133.044 54.9003C132.877 54.0072 132.362 53.2171 131.613 52.7038C130.863 52.1904 129.94 51.9958 129.047 52.1628C128.154 52.3298 127.364 52.8448 126.851 53.5944C126.337 54.3439 126.143 55.2667 126.31 56.1598L129.959 75.6698C130.018 75.9868 129.629 76.189 129.404 75.9581L125.882 72.3463C125.245 71.7052 124.381 71.3414 123.478 71.3342C122.575 71.3269 121.705 71.6766 121.059 72.3073C120.412 72.9381 120.041 73.7987 120.025 74.7018C120.01 75.605 120.352 76.4777 120.977 77.1298L135.181 91.6934C135.575 92.0972 136.062 92.3975 136.6 92.5677C137.137 92.738 137.709 92.7728 138.263 92.6692L155.693 89.4093C156.488 89.2608 157.204 88.8361 157.716 88.2104C158.227 87.5848 158.501 86.7984 158.489 85.9902L158.273 71.6807C158.269 71.4867 158.25 71.2941 158.214 71.1028L157.103 65.1607C156.936 64.2676 156.421 63.4775 155.672 62.9641C154.922 62.4507 153.999 62.2562 153.106 62.4232C152.213 62.5902 151.423 63.1052 150.91 63.8547C150.396 64.6043 150.202 65.5271 150.369 66.4202L150.48 67.0144C150.49 67.0669 150.478 67.1212 150.448 67.1653C150.418 67.2094 150.371 67.2397 150.319 67.2495C150.266 67.2593 150.212 67.2479 150.168 67.2177C150.124 67.1875 150.094 67.141 150.084 67.0885L149.676 64.9097C149.509 64.0166 148.994 63.2265 148.245 62.7131C147.495 62.1998 146.572 62.0052 145.679 62.1722C144.786 62.3392 143.996 62.8542 143.483 63.6038C142.969 64.3533 142.775 65.2761 142.942 66.1692L143.349 68.348C143.359 68.4005 143.348 68.4548 143.317 68.4989C143.287 68.543 143.241 68.5733 143.188 68.5831C143.136 68.5929 143.081 68.5815 143.037 68.5513C142.993 68.5211 142.963 68.4746 142.953 68.4221L142.249 64.6587C142.082 63.7657 141.567 62.9755 140.818 62.4622C140.068 61.9488 139.145 61.7542 138.252 61.9212C137.359 62.0883 136.569 62.6032 136.056 63.3528C135.542 64.1023 135.348 65.0252 135.515 65.9182L136.219 69.6816C136.229 69.7341 136.217 69.7884 136.187 69.8325C136.157 69.8766 136.11 69.9069 136.058 69.9167C136.005 69.9265 135.951 69.9151 135.907 69.8849C135.863 69.8547 135.832 69.8082 135.823 69.7557L133.044 54.9003Z" fill="url(#paint15_linear_185_4068)"/>
</g>
<defs>
<filter id="filter0_d_185_4068" x="0" y="25.157" width="184.174" height="46.3638" filterUnits="userSpaceOnUse" color-interpolation-filters="sRGB">
<feFlood flood-opacity="0" result="BackgroundImageFix"/>
<feColorMatrix in="SourceAlpha" type="matrix" values="0 0 0 0 0 0 0 0 0 0 0 0 0 0 0 0 0 0 127 0" result="hardAlpha"/>
<feOffset dy="4"/>
<feGaussianBlur stdDeviation="5"/>
<feComposite in2="hardAlpha" operator="out"/>
<feColorMatrix type="matrix" values="0 0 0 0 0.408458 0 0 0 0 0.521058 0 0 0 0 0.626394 0 0 0 0.67 0"/>
<feBlend mode="normal" in2="BackgroundImageFix" result="effect1_dropShadow_185_4068"/>
<feBlend mode="normal" in="SourceGraphic" in2="effect1_dropShadow_185_4068" result="shape"/>
</filter>
<filter id="filter1_dii_185_4068" x="116.325" y="49.1045" width="45.8644" height="51.323" filterUnits="userSpaceOnUse" color-interpolation-filters="sRGB">
<feFlood flood-opacity="0" result="BackgroundImageFix"/>
<feColorMatrix in="SourceAlpha" type="matrix" values="0 0 0 0 0 0 0 0 0 0 0 0 0 0 0 0 0 0 127 0" result="hardAlpha"/>
<feOffset dy="4"/>
<feGaussianBlur stdDeviation="1.85"/>
<feComposite in2="hardAlpha" operator="out"/>
<feColorMatrix type="matrix" values="0 0 0 0 0.20478 0 0 0 0 0.308777 0 0 0 0 0.412775 0 0 0 0.54 0"/>
<feBlend mode="normal" in2="BackgroundImageFix" result="effect1_dropShadow_185_4068"/>
<feBlend mode="normal" in="SourceGraphic" in2="effect1_dropShadow_185_4068" result="shape"/>
<feColorMatrix in="SourceAlpha" type="matrix" values="0 0 0 0 0 0 0 0 0 0 0 0 0 0 0 0 0 0 127 0" result="hardAlpha"/>
<feOffset dy="1"/>
<feGaussianBlur stdDeviation="2.15"/>
<feComposite in2="hardAlpha" operator="arithmetic" k2="-1" k3="1"/>
<feColorMatrix type="matrix" values="0 0 0 0 1 0 0 0 0 1 0 0 0 0 1 0 0 0 1 0"/>
<feBlend mode="normal" in2="shape" result="effect2_innerShadow_185_4068"/>
<feColorMatrix in="SourceAlpha" type="matrix" values="0 0 0 0 0 0 0 0 0 0 0 0 0 0 0 0 0 0 127 0" result="hardAlpha"/>
<feOffset dx="-1" dy="-3"/>
<feGaussianBlur stdDeviation="2"/>
<feComposite in2="hardAlpha" operator="arithmetic" k2="-1" k3="1"/>
<feColorMatrix type="matrix" values="0 0 0 0 0.392705 0 0 0 0 0.145407 0 0 0 0 0.0308052 0 0 0 0.25 0"/>
<feBlend mode="normal" in2="effect2_innerShadow_185_4068" result="effect3_innerShadow_185_4068"/>
</filter>
<linearGradient id="paint0_linear_185_4068" x1="90.5" y1="17" x2="90.5" y2="126" gradientUnits="userSpaceOnUse">
<stop stop-color="#CBEEFB"/>
<stop offset="1" stop-color="#7CCFF8"/>
</linearGradient>
<linearGradient id="paint1_linear_185_4068" x1="90.6342" y1="21.8335" x2="90.6342" y2="117.909" gradientUnits="userSpaceOnUse">
<stop stop-color="#40ACF0"/>
<stop offset="1" stop-color="#C0E2F6"/>
</linearGradient>
<linearGradient id="paint2_linear_185_4068" x1="90.7522" y1="37.4189" x2="90.7522" y2="106.923" gradientUnits="userSpaceOnUse">
<stop offset="0.224032" stop-color="#004793"/>
<stop offset="1" stop-color="#118EC3"/>
</linearGradient>
<linearGradient id="paint3_linear_185_4068" x1="20.7851" y1="43.7396" x2="49.6952" y2="43.7396" gradientUnits="userSpaceOnUse">
<stop stop-color="#0084FF"/>
<stop offset="1" stop-color="#192845"/>
</linearGradient>
<linearGradient id="paint4_linear_185_4068" x1="20.7851" y1="43.7396" x2="49.6952" y2="43.7396" gradientUnits="userSpaceOnUse">
<stop stop-color="#0084FF"/>
<stop offset="1" stop-color="#192845"/>
</linearGradient>
<linearGradient id="paint5_linear_185_4068" x1="20.7851" y1="43.7396" x2="49.6952" y2="43.7396" gradientUnits="userSpaceOnUse">
<stop stop-color="#0084FF"/>
<stop offset="1" stop-color="#192845"/>
</linearGradient>
<linearGradient id="paint6_linear_185_4068" x1="20.7851" y1="43.7396" x2="49.6952" y2="43.7396" gradientUnits="userSpaceOnUse">
<stop stop-color="#0084FF"/>
<stop offset="1" stop-color="#192845"/>
</linearGradient>
<linearGradient id="paint7_linear_185_4068" x1="156.199" y1="37.1489" x2="156.199" y2="51.5291" gradientUnits="userSpaceOnUse">
<stop stop-color="#489AFD"/>
<stop offset="1" stop-color="#02395E"/>
</linearGradient>
<linearGradient id="paint8_linear_185_4068" x1="79.717" y1="-8.5" x2="150.104" y2="21.7729" gradientUnits="userSpaceOnUse">
<stop stop-color="#B1DFF2"/>
<stop offset="1" stop-color="#6CACDB"/>
</linearGradient>
<linearGradient id="paint9_linear_185_4068" x1="34.5662" y1="5.9917" x2="34.5662" y2="11.9835" gradientUnits="userSpaceOnUse">
<stop stop-color="#F16D6D"/>
<stop offset="1" stop-color="#BB1818"/>
</linearGradient>
<linearGradient id="paint10_linear_185_4068" x1="44.153" y1="5.9917" x2="44.153" y2="11.9835" gradientUnits="userSpaceOnUse">
<stop stop-color="#FAB46B"/>
<stop offset="1" stop-color="#E87800"/>
</linearGradient>
<linearGradient id="paint11_linear_185_4068" x1="53.7398" y1="5.9917" x2="53.7398" y2="11.9835" gradientUnits="userSpaceOnUse">
<stop stop-color="#00E69B"/>
<stop offset="1" stop-color="#02A06C"/>
</linearGradient>
<linearGradient id="paint12_linear_185_4068" x1="55.5096" y1="44.658" x2="61.5775" y2="44.658" gradientUnits="userSpaceOnUse">
<stop stop-color="#0476E2"/>
<stop offset="1" stop-color="#182D4E"/>
</linearGradient>
<linearGradient id="paint13_linear_185_4068" x1="137.427" y1="44.658" x2="143.495" y2="44.658" gradientUnits="userSpaceOnUse">
<stop stop-color="#0476E2"/>
<stop offset="1" stop-color="#182D4E"/>
</linearGradient>
<linearGradient id="paint14_linear_185_4068" x1="66.3225" y1="44.8391" x2="131.033" y2="44.8391" gradientUnits="userSpaceOnUse">
<stop stop-color="#A8A8A8"/>
<stop offset="1" stop-color="#1B4A5E"/>
</linearGradient>
<linearGradient id="paint15_linear_185_4068" x1="134.998" y1="51.05" x2="142.629" y2="91.8527" gradientUnits="userSpaceOnUse">
<stop stop-color="#FBD253"/>
<stop offset="1" stop-color="#F9A200"/>
</linearGradient>
</defs>
</svg>
