<svg width="150" height="128" viewBox="0 0 150 128" fill="none" xmlns="http://www.w3.org/2000/svg">
<path d="M48.348 104.222H85.1426V122.209H48.348V104.222Z" fill="url(#paint0_linear_185_4092)"/>
<path d="M48.3479 91.3848H85.1424V109.372H48.3479V91.3848ZM94.203 127.642H39.3022C38.6903 127.642 38.1827 127.134 38.1827 126.522V124.836C38.1827 124.612 38.3619 124.433 38.5858 124.433H94.9344C95.1583 124.433 95.3374 124.612 95.3374 124.836V126.522C95.3225 127.149 94.8299 127.642 94.203 127.642Z" fill="url(#paint1_linear_185_4092)"/>
<path d="M94.7255 125.477H38.7649C38.1977 125.477 37.944 124.761 38.3918 124.418L48.3479 116.477H85.1425L95.0986 124.418C95.5464 124.761 95.2927 125.477 94.7255 125.477Z" fill="url(#paint2_linear_185_4092)"/>
<path d="M130.938 105.953H2.68682C1.20907 105.953 0 104.744 0 103.267V19.3631C0 17.8853 1.20907 16.6763 2.68682 16.6763H130.923C132.401 16.6763 133.61 17.8853 133.61 19.3631V103.282C133.625 104.759 132.416 105.953 130.938 105.953Z" fill="url(#paint3_radial_185_4092)"/>
<path d="M6.35669 21.9692H127.268V96.1131H6.35669V21.9692Z" fill="url(#paint4_linear_185_4092)"/>
<path d="M5.21594 21.9692H53.1243V96.1131H5.21594V21.9692Z" fill="url(#paint5_linear_185_4092)"/>
<path d="M91.8158 44.0908C91.7648 43.6131 91.5496 43.2411 91.1703 42.9748C90.7946 42.7086 90.3059 42.5755 89.7041 42.5755C89.2811 42.5755 88.9182 42.6393 88.6155 42.7669C88.3128 42.8946 88.0812 43.0678 87.9207 43.2866C87.7602 43.5055 87.6782 43.7553 87.6745 44.0361C87.6745 44.2695 87.7274 44.472 87.8332 44.6434C87.9426 44.8148 88.0903 44.9607 88.2763 45.081C88.4623 45.1977 88.6684 45.2962 88.8945 45.3764C89.1206 45.4567 89.3486 45.5241 89.5783 45.5788L90.6287 45.8414C91.0517 45.9399 91.4584 46.073 91.8486 46.2408C92.2425 46.4086 92.5945 46.6201 92.9045 46.8754C93.2181 47.1307 93.4661 47.4389 93.6485 47.7999C93.8308 48.161 93.922 48.5841 93.922 49.0691C93.922 49.7256 93.7543 50.3037 93.4187 50.8033C93.0832 51.2993 92.5981 51.6878 91.9635 51.9686C91.3326 52.2458 90.5685 52.3843 89.6713 52.3843C88.7997 52.3843 88.0429 52.2494 87.401 51.9795C86.7628 51.7096 86.2631 51.3157 85.902 50.7979C85.5446 50.28 85.3513 49.649 85.3221 48.905H87.3189C87.3481 49.2952 87.4685 49.6198 87.68 49.8788C87.8915 50.1377 88.1669 50.331 88.5061 50.4587C88.8489 50.5863 89.2318 50.6502 89.6549 50.6502C90.0962 50.6502 90.4828 50.5845 90.8147 50.4532C91.1502 50.3183 91.4128 50.1323 91.6025 49.8952C91.7921 49.6545 91.8888 49.3737 91.8924 49.0527C91.8888 48.7609 91.8031 48.5202 91.6353 48.3306C91.4675 48.1373 91.2323 47.9768 90.9296 47.8492C90.6305 47.7179 90.2804 47.6012 89.8792 47.499L88.6045 47.1708C87.6818 46.9337 86.9524 46.5745 86.4163 46.0931C85.8838 45.608 85.6176 44.9643 85.6176 44.1619C85.6176 43.5018 85.7963 42.9238 86.1537 42.4277C86.5147 41.9317 87.0053 41.547 87.6253 41.2734C88.2453 40.9963 88.9474 40.8577 89.7315 40.8577C90.5266 40.8577 91.2232 40.9963 91.8213 41.2734C92.4231 41.547 92.8954 41.9281 93.2382 42.4168C93.581 42.9019 93.7579 43.4599 93.7688 44.0908H91.8158Z" fill="#192845"/>
<path d="M71.7659 41.0105H74.2496L77.5757 49.129H77.707L81.0332 41.0105H83.5168V52.2144H81.5693V44.5172H81.4654L78.369 52.1816H76.9138L73.8174 44.5008H73.7134V52.2144H71.7659V41.0105Z" fill="#192845"/>
<path d="M69.9071 44.7911H67.8611C67.8028 44.4555 67.6952 44.1583 67.5383 43.8994C67.3815 43.6368 67.1864 43.4143 66.953 43.2319C66.7196 43.0496 66.4533 42.9128 66.1543 42.8216C65.8588 42.7268 65.5397 42.6794 65.1969 42.6794C64.5878 42.6794 64.0481 42.8326 63.5776 43.1389C63.1071 43.4416 62.7387 43.8866 62.4725 44.4738C62.2063 45.0573 62.0731 45.7703 62.0731 46.6128C62.0731 47.4699 62.2063 48.192 62.4725 48.7792C62.7424 49.3627 63.1108 49.804 63.5776 50.1031C64.0481 50.3985 64.586 50.5462 65.1914 50.5462C65.527 50.5462 65.8406 50.5024 66.1324 50.4149C66.4278 50.3237 66.6922 50.1906 66.9256 50.0156C67.1627 49.8405 67.3615 49.6253 67.5219 49.37C67.686 49.1147 67.7991 48.8229 67.8611 48.4947L69.9071 48.5057C69.8305 49.0381 69.6646 49.5378 69.4093 50.0046C69.1577 50.4714 68.8276 50.8836 68.4191 51.241C68.0106 51.5948 67.5329 51.8719 66.9858 52.0725C66.4387 52.2695 65.8315 52.3679 65.1641 52.3679C64.1794 52.3679 63.3004 52.14 62.5272 51.6841C61.754 51.2282 61.145 50.5699 60.7 49.7092C60.2551 48.8485 60.0326 47.8163 60.0326 46.6128C60.0326 45.4056 60.2569 44.3735 60.7055 43.5164C61.1541 42.6557 61.765 41.9974 62.5382 41.5415C63.3113 41.0856 64.1866 40.8577 65.1641 40.8577C65.7877 40.8577 66.3676 40.9452 66.9037 41.1203C67.4399 41.2953 67.9176 41.5524 68.3371 41.8916C68.7565 42.2272 69.1011 42.6393 69.371 43.128C69.6445 43.6131 69.8233 44.1674 69.9071 44.7911Z" fill="#192845"/>
<rect x="21.1853" y="68.7373" width="27.3762" height="2.28135" rx="1.14067" fill="#5586CE"/>
<rect x="21.1853" y="85.8472" width="27.3762" height="2.28135" rx="1.14067" fill="#5586CE"/>
<rect x="16.6227" y="74.4404" width="31.9389" height="2.28135" rx="1.14067" fill="#5586CE"/>
<rect x="16.6227" y="80.1438" width="31.9389" height="2.28135" rx="1.14067" fill="#5586CE"/>
<g filter="url(#filter0_d_185_4092)">
<circle cx="27.4591" cy="20.2584" r="14.2584" fill="white"/>
</g>
<path d="M27.4591 26.1282L25.2015 23.4191V20.71H29.7167V23.4191L27.4591 26.1282Z" fill="#FF9800"/>
<path d="M31.5228 18.904C32.0215 18.904 32.4258 18.4997 32.4258 18.0009C32.4258 17.5022 32.0215 17.0979 31.5228 17.0979C31.0241 17.0979 30.6198 17.5022 30.6198 18.0009C30.6198 18.4997 31.0241 18.904 31.5228 18.904Z" fill="#FFA726"/>
<path d="M23.3955 18.904C23.8942 18.904 24.2985 18.4997 24.2985 18.0009C24.2985 17.5022 23.8942 17.0979 23.3955 17.0979C22.8967 17.0979 22.4924 17.5022 22.4924 18.0009C22.4924 18.4997 22.8967 18.904 23.3955 18.904Z" fill="#FFA726"/>
<path d="M31.5227 15.2919C31.5227 11.8604 23.3954 13.0343 23.3954 15.2919V18.4525C23.3954 20.7101 25.2015 22.5162 27.459 22.5162C29.7166 22.5162 31.5227 20.7101 31.5227 18.4525V15.2919Z" fill="#FFB74D"/>
<path d="M27.4591 11.2283C24.7049 11.2283 22.944 13.4407 22.944 16.195V17.2334L23.847 18.001V15.7434L29.2652 13.9374L31.0713 15.7434V18.001L31.9743 17.2334V16.195C31.9743 14.3889 31.5228 12.5828 29.2652 12.1313L28.8137 11.2283H27.4591Z" fill="#FF5722"/>
<path d="M29.2652 18.4524C29.5146 18.4524 29.7168 18.2502 29.7168 18.0008C29.7168 17.7515 29.5146 17.5493 29.2652 17.5493C29.0159 17.5493 28.8137 17.7515 28.8137 18.0008C28.8137 18.2502 29.0159 18.4524 29.2652 18.4524Z" fill="#784719"/>
<path d="M25.6531 18.4524C25.9024 18.4524 26.1046 18.2502 26.1046 18.0008C26.1046 17.7515 25.9024 17.5493 25.6531 17.5493C25.4037 17.5493 25.2015 17.7515 25.2015 18.0008C25.2015 18.2502 25.4037 18.4524 25.6531 18.4524Z" fill="#784719"/>
<path d="M29.7167 23.4192L27.4591 23.8707L25.2015 23.4192C25.2015 23.4192 20.2349 24.3222 20.2349 29.2889H34.6834C34.6834 24.3222 29.7167 23.4192 29.7167 23.4192Z" fill="#CFD8DC"/>
<path d="M27.0075 25.2252L26.556 29.2888H28.3621L27.9106 25.2252L28.3621 24.7736L27.4591 23.8706L26.556 24.7736L27.0075 25.2252Z" fill="#3F51B5"/>
<path d="M103.744 65.1077C103.744 64.9592 103.775 64.8124 103.834 64.6765C103.894 64.5406 103.982 64.4187 104.091 64.3185C104.201 64.2183 104.33 64.142 104.471 64.0945C104.612 64.047 104.761 64.0293 104.909 64.0426C107.337 64.264 109.652 65.1729 111.583 66.6629C113.514 68.1528 114.98 70.162 115.81 72.4552C116.64 74.7484 116.799 77.2306 116.269 79.6111C115.739 81.9916 114.542 84.1717 112.817 85.8962C111.093 87.6206 108.913 88.818 106.532 89.348C104.152 89.8781 101.67 89.7188 99.3764 88.8889C97.0832 88.059 95.074 86.5928 93.584 84.662C92.0941 82.7313 91.1852 80.416 90.9638 77.9873C90.9505 77.8395 90.9682 77.6904 91.0157 77.5497C91.0632 77.409 91.1395 77.2798 91.2397 77.1702C91.3398 77.0606 91.4618 76.9731 91.5976 76.9132C91.7335 76.8534 91.8804 76.8224 92.0289 76.8224H103.744V65.1077Z" fill="url(#paint6_linear_185_4092)"/>
<path d="M101.28 61.4463C101.177 61.3466 101.056 61.2685 100.923 61.2165C100.789 61.1646 100.647 61.1399 100.504 61.144C97.2363 61.2427 94.1295 62.585 91.8178 64.8967C89.5061 67.2084 88.1638 70.3153 88.0651 73.583C88.0609 73.7261 88.0854 73.8685 88.1373 74.0019C88.1891 74.1353 88.2672 74.2569 88.367 74.3596C88.4667 74.4622 88.586 74.5438 88.7178 74.5995C88.8497 74.6552 88.9913 74.6838 89.1344 74.6838H100.535C100.819 74.6838 101.091 74.5711 101.292 74.3706C101.492 74.17 101.605 73.898 101.605 73.6144V62.2134C101.605 62.0703 101.576 61.9286 101.52 61.7968C101.464 61.6651 101.383 61.5459 101.28 61.4463Z" fill="url(#paint7_linear_185_4092)"/>
<g filter="url(#filter1_d_185_4092)">
<path d="M46.2413 61.8931C44.4365 61.8931 42.7056 62.61 41.4293 63.8863C40.1531 65.1625 39.4362 66.8934 39.4362 68.6982V95.0115C39.4362 96.8163 40.1531 98.5473 41.4293 99.8235C42.7056 101.1 44.4365 101.817 46.2413 101.817H72.5546C74.3594 101.817 76.0904 101.1 77.3666 99.8235C78.6428 98.5473 79.3597 96.8163 79.3597 95.0115V68.6982C79.3597 66.8934 78.6428 65.1625 77.3666 63.8863C76.0904 62.61 74.3594 61.8931 72.5546 61.8931H46.2413Z" fill="url(#paint8_linear_185_4092)"/>
<path d="M44.8802 72.7815C44.8802 71.8189 45.2626 70.8958 45.9433 70.2151C46.6239 69.5345 47.5471 69.1521 48.5097 69.1521H70.2862C71.2488 69.1521 72.1719 69.5345 72.8526 70.2151C73.5332 70.8958 73.9156 71.8189 73.9156 72.7815V76.4109C73.9156 77.3735 73.5332 78.2967 72.8526 78.9773C72.1719 79.658 71.2488 80.0404 70.2862 80.0404H48.5097C47.5471 80.0404 46.6239 79.658 45.9433 78.9773C45.2626 78.2967 44.8802 77.3735 44.8802 76.4109V72.7815ZM44.8802 85.0308C44.8802 84.6698 45.0236 84.3237 45.2789 84.0684C45.5341 83.8132 45.8803 83.6698 46.2413 83.6698H56.2222C56.5831 83.6698 56.9293 83.8132 57.1846 84.0684C57.4398 84.3237 57.5832 84.6698 57.5832 85.0308C57.5832 85.3918 57.4398 85.738 57.1846 85.9932C56.9293 86.2484 56.5831 86.3918 56.2222 86.3918H46.2413C45.8803 86.3918 45.5341 86.2484 45.2789 85.9932C45.0236 85.738 44.8802 85.3918 44.8802 85.0308ZM46.2413 90.4749C45.8803 90.4749 45.5341 90.6183 45.2789 90.8736C45.0236 91.1288 44.8802 91.475 44.8802 91.836C44.8802 92.1969 45.0236 92.5431 45.2789 92.7984C45.5341 93.0536 45.8803 93.197 46.2413 93.197H56.2222C56.5831 93.197 56.9293 93.0536 57.1846 92.7984C57.4398 92.5431 57.5832 92.1969 57.5832 91.836C57.5832 91.475 57.4398 91.1288 57.1846 90.8736C56.9293 90.6183 56.5831 90.4749 56.2222 90.4749H46.2413ZM62.12 85.9382C62.12 84.1851 63.5427 82.7624 65.2957 82.7624H70.7399C72.4929 82.7624 73.9156 84.1851 73.9156 85.9382V91.3823C73.9156 92.2245 73.581 93.0323 72.9854 93.6279C72.3899 94.2234 71.5821 94.558 70.7399 94.558H65.2957C64.4535 94.558 63.6457 94.2234 63.0501 93.6279C62.4546 93.0323 62.12 92.2245 62.12 91.3823V85.9382Z" fill="url(#paint9_linear_185_4092)"/>
</g>
<g filter="url(#filter2_d_185_4092)">
<circle cx="118.898" cy="30.9758" r="21.1025" fill="white"/>
</g>
<g clip-path="url(#clip0_185_4092)">
<path d="M133.213 39.236C133.316 38.9582 121.515 30.0478 121.515 30.0478C120.037 28.9575 119.26 28.9404 117.799 30.0478C117.799 30.0478 106.016 38.951 106.115 39.2249L106.113 39.227C106.114 39.2293 106.116 39.231 106.117 39.2332C106.217 39.5055 106.363 39.759 106.547 39.9828C106.625 40.0774 106.719 40.1566 106.81 40.2389L106.805 40.2423C106.813 40.2487 106.822 40.2517 106.829 40.2581C107.212 40.5998 107.696 40.8212 108.232 40.8844C108.241 40.8854 108.248 40.8898 108.256 40.8908H108.288C108.37 40.8986 108.448 40.9181 108.531 40.9181H130.809C131.906 40.9181 132.836 40.2283 133.205 39.2612C133.209 39.254 133.216 39.2488 133.22 39.2414L133.213 39.236Z" fill="#96A9B2"/>
<path d="M119.673 29.0251L106.175 39.1489V24.8068C106.175 23.4089 107.308 22.2759 108.706 22.2759H130.641C132.039 22.2759 133.172 23.4089 133.172 24.8068V39.1489L119.673 29.0251Z" fill="#B9C5C6"/>
<path d="M106.332 23.9269L117.857 32.979C119.312 34.0524 120.077 34.0693 121.515 32.979L133.022 23.9412C132.822 23.5793 132.523 23.2934 132.182 23.0655L132.34 22.9415C131.954 22.5898 131.46 22.3619 130.912 22.303L108.436 22.3038C107.889 22.3619 107.395 22.5906 107.009 22.9415L107.166 23.064C106.829 23.2887 106.532 23.5697 106.332 23.9269Z" fill="#EDECE6"/>
<path d="M106.329 23.9458C106.227 24.2193 117.846 32.9925 117.846 32.9925C119.301 34.0658 120.066 34.0828 121.504 32.9925C121.504 32.9925 133.106 24.2264 133.009 23.9567L133.011 23.9547C133.01 23.9524 133.008 23.9508 133.006 23.9486C132.908 23.6804 132.765 23.4309 132.583 23.2105C132.506 23.1174 132.414 23.0395 132.325 22.9583L132.329 22.955C132.322 22.9487 132.313 22.9457 132.306 22.9394C131.928 22.603 131.453 22.385 130.924 22.3228C130.916 22.3218 130.909 22.3175 130.901 22.3165H130.869C130.789 22.3088 130.712 22.2896 130.63 22.2896H108.695C107.615 22.2896 106.7 22.9688 106.337 23.921C106.332 23.928 106.326 23.9332 106.322 23.9404L106.329 23.9458Z" fill="#DCE2E2"/>
<path d="M121.541 24.9197H119.495C119.409 24.9197 119.326 24.954 119.265 25.0151C119.204 25.0762 119.169 25.1591 119.169 25.2456V26.3958C119.169 26.4822 119.204 26.5651 119.265 26.6263C119.326 26.6874 119.409 26.7217 119.495 26.7217H121.159C121.245 26.7217 121.328 26.7561 121.389 26.8172C121.45 26.8783 121.485 26.9612 121.485 27.0476V27.6627C121.485 27.7492 121.45 27.8321 121.389 27.8932C121.328 27.9543 121.245 27.9887 121.159 27.9887H119.495C119.409 27.9887 119.326 28.023 119.265 28.0841C119.204 28.1452 119.169 28.2281 119.169 28.3146V29.5631C119.169 29.6495 119.204 29.7324 119.265 29.7936C119.326 29.8547 119.409 29.889 119.495 29.889H121.683C121.769 29.889 121.852 29.9233 121.913 29.9845C121.975 30.0456 122.009 30.1285 122.009 30.2149V30.8737C122.009 30.9601 121.975 31.043 121.913 31.1042C121.852 31.1653 121.769 31.1996 121.683 31.1996H117.671C117.585 31.1996 117.502 31.1653 117.441 31.1042C117.38 31.043 117.345 30.9601 117.345 30.8737V23.9568C117.345 23.8703 117.38 23.7874 117.441 23.7263C117.502 23.6652 117.585 23.6309 117.671 23.6309H121.633C121.831 23.6309 121.984 23.8068 121.955 24.0033L121.864 24.6402C121.852 24.7178 121.814 24.7887 121.754 24.8401C121.695 24.8914 121.619 24.9197 121.541 24.9197Z" fill="#597B91"/>
</g>
<path fill-rule="evenodd" clip-rule="evenodd" d="M13.4621 56.5812C13.6912 56.6728 13.947 56.672 14.1755 56.5788L17.4693 55.0979C18.3942 56.5004 19.7485 57.1979 21.0352 57.4759C22.5067 57.7929 23.9806 57.5851 24.7995 57.2169L27.2564 56.1123C27.3705 56.061 27.4734 55.9878 27.5592 55.8967C27.645 55.8057 27.7121 55.6986 27.7565 55.5816C27.8009 55.4647 27.8218 55.3401 27.818 55.215C27.8143 55.09 27.7859 54.9669 27.7346 54.8528L23.6842 45.8445C23.5806 45.6144 23.3899 45.4348 23.1539 45.3452C22.918 45.2557 22.6561 45.2634 22.4259 45.3667L19.969 46.4713C19.1501 46.8395 18.016 47.8052 17.2764 49.1163C16.6304 50.2632 16.2522 51.7387 16.6875 53.3613L13.3949 54.8426C13.1735 54.9517 13.0031 55.1424 12.9196 55.3746C12.8361 55.6068 12.846 55.8624 12.9472 56.0875C13.0484 56.3125 13.233 56.4895 13.4621 56.5812Z" fill="url(#paint10_linear_185_4092)"/>
<path d="M28.0371 46.901C27.9224 46.9575 27.7975 46.9903 27.6698 46.9975C27.5421 47.0047 27.4143 46.9861 27.2939 46.9428C27.1736 46.8996 27.0632 46.8325 26.9693 46.7456C26.8754 46.6587 26.8 46.5538 26.7476 46.4372C26.6951 46.3205 26.6667 46.1945 26.664 46.0667C26.6613 45.9388 26.6844 45.8117 26.7319 45.693C26.7794 45.5742 26.8504 45.4662 26.9405 45.3755C27.0306 45.2848 27.1381 45.2131 27.2565 45.1648L29.6642 44.0823L29.3181 43.3125C29.2148 43.0823 29.207 42.8204 29.2966 42.5845C29.3862 42.3486 29.5658 42.1578 29.7959 42.0542L32.2527 40.9496C33.0716 40.5814 34.5455 40.3736 36.0171 40.6906C37.3038 40.9686 38.658 41.6661 39.583 43.0686L42.8756 41.5873C42.99 41.5334 43.1139 41.5028 43.2403 41.4973C43.3666 41.4918 43.4928 41.5116 43.6114 41.5554C43.7301 41.5992 43.8388 41.6662 43.9313 41.7524C44.0237 41.8387 44.0981 41.9425 44.15 42.0578C44.2019 42.1731 44.2303 42.2976 44.2336 42.4241C44.2369 42.5505 44.215 42.6763 44.1691 42.7941C44.1233 42.912 44.0544 43.0195 43.9665 43.1105C43.8787 43.2014 43.7736 43.2739 43.6574 43.3238L40.3643 44.8064C40.8 46.4278 40.4242 47.9042 39.7765 49.0519C39.0374 50.3617 37.9038 51.3263 37.0849 51.6944L34.628 52.799C34.3978 52.9024 34.1359 52.9101 33.9 52.8205C33.664 52.7309 33.4733 52.5514 33.3696 52.3212L33.0235 51.5514L30.6158 52.6339C30.5011 52.6905 30.3762 52.7233 30.2485 52.7305C30.1208 52.7377 29.993 52.7191 29.8726 52.6758C29.7522 52.6325 29.6418 52.5654 29.548 52.4786C29.4541 52.3917 29.3787 52.2868 29.3263 52.1702C29.2738 52.0535 29.2454 51.9275 29.2427 51.7996C29.24 51.6718 29.2631 51.5447 29.3106 51.4259C29.3581 51.3072 29.4291 51.1992 29.5192 51.1085C29.6093 51.0177 29.7168 50.9461 29.8352 50.8978L32.2429 49.8153L30.446 45.8189L28.0371 46.901Z" fill="url(#paint11_linear_185_4092)"/>
<defs>
<filter id="filter0_d_185_4092" x="3.20068" y="0" width="48.5168" height="48.5168" filterUnits="userSpaceOnUse" color-interpolation-filters="sRGB">
<feFlood flood-opacity="0" result="BackgroundImageFix"/>
<feColorMatrix in="SourceAlpha" type="matrix" values="0 0 0 0 0 0 0 0 0 0 0 0 0 0 0 0 0 0 127 0" result="hardAlpha"/>
<feOffset dy="4"/>
<feGaussianBlur stdDeviation="5"/>
<feComposite in2="hardAlpha" operator="out"/>
<feColorMatrix type="matrix" values="0 0 0 0 0.082098 0 0 0 0 0.23711 0 0 0 0 0.454126 0 0 0 0.43 0"/>
<feBlend mode="normal" in2="BackgroundImageFix" result="effect1_dropShadow_185_4092"/>
<feBlend mode="normal" in="SourceGraphic" in2="effect1_dropShadow_185_4092" result="shape"/>
</filter>
<filter id="filter1_d_185_4092" x="29.4362" y="55.8931" width="59.9236" height="59.9236" filterUnits="userSpaceOnUse" color-interpolation-filters="sRGB">
<feFlood flood-opacity="0" result="BackgroundImageFix"/>
<feColorMatrix in="SourceAlpha" type="matrix" values="0 0 0 0 0 0 0 0 0 0 0 0 0 0 0 0 0 0 127 0" result="hardAlpha"/>
<feOffset dy="4"/>
<feGaussianBlur stdDeviation="5"/>
<feComposite in2="hardAlpha" operator="out"/>
<feColorMatrix type="matrix" values="0 0 0 0 0.441452 0 0 0 0 0.481892 0 0 0 0 0.495372 0 0 0 0.67 0"/>
<feBlend mode="normal" in2="BackgroundImageFix" result="effect1_dropShadow_185_4092"/>
<feBlend mode="normal" in="SourceGraphic" in2="effect1_dropShadow_185_4092" result="shape"/>
</filter>
<filter id="filter2_d_185_4092" x="87.795" y="3.87329" width="62.205" height="62.2048" filterUnits="userSpaceOnUse" color-interpolation-filters="sRGB">
<feFlood flood-opacity="0" result="BackgroundImageFix"/>
<feColorMatrix in="SourceAlpha" type="matrix" values="0 0 0 0 0 0 0 0 0 0 0 0 0 0 0 0 0 0 127 0" result="hardAlpha"/>
<feOffset dy="4"/>
<feGaussianBlur stdDeviation="5"/>
<feComposite in2="hardAlpha" operator="out"/>
<feColorMatrix type="matrix" values="0 0 0 0 0.540144 0 0 0 0 0.550007 0 0 0 0 0.563815 0 0 0 0.43 0"/>
<feBlend mode="normal" in2="BackgroundImageFix" result="effect1_dropShadow_185_4092"/>
<feBlend mode="normal" in="SourceGraphic" in2="effect1_dropShadow_185_4092" result="shape"/>
</filter>
<linearGradient id="paint0_linear_185_4092" x1="85.1426" y1="113.215" x2="48.348" y2="113.215" gradientUnits="userSpaceOnUse">
<stop stop-color="#BBBBBB"/>
<stop offset="0.480769" stop-color="#999999"/>
<stop offset="1" stop-color="#BBBBBB"/>
</linearGradient>
<linearGradient id="paint1_linear_185_4092" x1="66.7601" y1="91.3848" x2="66.7601" y2="127.642" gradientUnits="userSpaceOnUse">
<stop stop-color="#989898"/>
<stop offset="1" stop-color="#9D9D9D"/>
</linearGradient>
<linearGradient id="paint2_linear_185_4092" x1="38.1627" y1="120.977" x2="95.3277" y2="120.977" gradientUnits="userSpaceOnUse">
<stop stop-color="#F5F5F5"/>
<stop offset="1" stop-color="#BEBEBE"/>
</linearGradient>
<radialGradient id="paint3_radial_185_4092" cx="0" cy="0" r="1" gradientUnits="userSpaceOnUse" gradientTransform="translate(66.8123 24.8211) rotate(90) scale(79.8472 119.497)">
<stop stop-color="#F2F2F2"/>
<stop offset="1" stop-color="#B4B4B4"/>
</radialGradient>
<linearGradient id="paint4_linear_185_4092" x1="66.8124" y1="21.9692" x2="66.8124" y2="96.1131" gradientUnits="userSpaceOnUse">
<stop stop-color="white"/>
<stop offset="1" stop-color="#DBDBDB"/>
</linearGradient>
<linearGradient id="paint5_linear_185_4092" x1="29.1701" y1="21.9692" x2="29.1701" y2="96.1131" gradientUnits="userSpaceOnUse">
<stop stop-color="#0289FF"/>
<stop offset="1" stop-color="#002B5F"/>
</linearGradient>
<linearGradient id="paint6_linear_185_4092" x1="90.9595" y1="89.655" x2="131.947" y2="48.6677" gradientUnits="userSpaceOnUse">
<stop stop-color="#3767CD"/>
<stop offset="0.641" stop-color="#EA71EF"/>
</linearGradient>
<linearGradient id="paint7_linear_185_4092" x1="89.1929" y1="72.2014" x2="98.8972" y2="61.144" gradientUnits="userSpaceOnUse">
<stop stop-color="#E23CB4"/>
<stop offset="1" stop-color="#EA71EF"/>
</linearGradient>
<linearGradient id="paint8_linear_185_4092" x1="53.6943" y1="61.8931" x2="68.9905" y2="99.6644" gradientUnits="userSpaceOnUse">
<stop stop-color="white"/>
<stop offset="1" stop-color="#C3D4E0"/>
</linearGradient>
<linearGradient id="paint9_linear_185_4092" x1="44.8802" y1="69.1521" x2="78.6846" y2="82.2815" gradientUnits="userSpaceOnUse">
<stop stop-color="#4CB8FA"/>
<stop offset="1" stop-color="#1454DD"/>
</linearGradient>
<linearGradient id="paint10_linear_185_4092" x1="32.9411" y1="37.504" x2="24.1562" y2="60.6417" gradientUnits="userSpaceOnUse">
<stop stop-color="#C9F8FF"/>
<stop offset="1" stop-color="#22BFFF"/>
</linearGradient>
<linearGradient id="paint11_linear_185_4092" x1="32.9411" y1="37.504" x2="24.1562" y2="60.6417" gradientUnits="userSpaceOnUse">
<stop stop-color="#FFC0FE"/>
<stop offset="1" stop-color="#FF00C6"/>
</linearGradient>
<clipPath id="clip0_185_4092">
<rect width="27.1115" height="27.1115" fill="white" transform="translate(106.111 16.731)"/>
</clipPath>
</defs>
</svg>
