<svg width="32" height="32" viewBox="0 0 32 32" fill="none" xmlns="http://www.w3.org/2000/svg">
<path d="M28.0932 10.8909C27.432 9.32781 26.4858 7.92428 25.2808 6.71928C24.0758 5.51428 22.6723 4.56806 21.1092 3.90694C19.4904 3.22219 17.7714 2.875 16 2.875C14.2287 2.875 12.5097 3.22219 10.8908 3.90691C9.32775 4.56803 7.92422 5.51425 6.71922 6.71925C5.51419 7.92425 4.568 9.32778 3.90688 10.8908C3.22213 12.5097 2.87497 14.2287 2.87497 16.0001C2.87497 17.7714 3.22216 19.4904 3.90688 21.1092C4.568 22.6723 5.51422 24.0758 6.71922 25.2808C7.92425 26.4858 9.32778 27.432 10.8908 28.0931C12.5097 28.7778 14.2287 29.125 16 29.125C17.7714 29.125 19.4904 28.7778 21.1092 28.0931C22.6723 27.432 24.0758 26.4858 25.2808 25.2808C26.4859 24.0758 27.4321 22.6723 28.0932 21.1093C28.7779 19.4904 29.1251 17.7714 29.1251 16.0001C29.1251 14.2288 28.7779 12.5097 28.0932 10.8909ZM22.3503 13.2483L15.2117 20.3869C14.9859 20.6127 14.69 20.7255 14.3941 20.7255C14.1704 20.7257 13.9515 20.6608 13.764 20.5388C13.762 20.5375 13.7599 20.5364 13.7579 20.535C13.739 20.5225 13.7204 20.5092 13.7021 20.4954C13.6577 20.4623 13.6157 20.426 13.5765 20.3869L9.64972 16.4601C9.19819 16.0085 9.19819 15.2764 9.64972 14.8249C10.1013 14.3733 10.8333 14.3733 11.2849 14.8249L14.3941 17.9341L20.7151 11.6131C21.1667 11.1616 21.8988 11.1616 22.3503 11.6131C22.8018 12.0647 22.8018 12.7968 22.3503 13.2483Z" fill="url(#paint0_linear_338_2680)"/>
<defs>
<linearGradient id="paint0_linear_338_2680" x1="16" y1="2.875" x2="16" y2="29.125" gradientUnits="userSpaceOnUse">
<stop stop-color="#17E09E"/>
<stop offset="1" stop-color="#0ABB0D"/>
</linearGradient>
</defs>
</svg>
