<svg width="32" height="32" viewBox="0 0 32 32" fill="none" xmlns="http://www.w3.org/2000/svg">
<g clip-path="url(#clip0_322_1927)">
<path fill-rule="evenodd" clip-rule="evenodd" d="M9.96093 14.2619C9.66297 14.2821 9.36767 14.3311 9.07918 14.4083L5.37414 15.4011C4.70305 15.581 4.09634 15.9466 3.62376 16.4559C3.15117 16.9652 2.83188 17.5975 2.70258 18.2801L1.78834 23.1154C1.76941 23.2152 1.77612 23.3182 1.80784 23.4147C1.83956 23.5111 1.89526 23.598 1.96971 23.6671C2.04417 23.7362 2.13494 23.7852 2.23353 23.8096C2.33211 23.8341 2.43529 23.833 2.53338 23.8067L2.53527 23.8062L8.21735 22.2837L9.76895 15.0421C9.82549 14.7798 9.88948 14.5198 9.96093 14.2619ZM14.1577 25.9766L15.5975 31.3487C15.6237 31.447 15.6745 31.5369 15.745 31.6102C15.8155 31.6835 15.9035 31.7376 16.0007 31.7676C16.0978 31.7976 16.201 31.8025 16.3006 31.7817C16.4001 31.761 16.4928 31.7153 16.5698 31.649L20.2981 28.4405C20.825 27.9873 21.2133 27.3945 21.4182 26.7303C21.6232 26.0662 21.6366 25.3577 21.4568 24.6864L20.464 20.9813C20.4133 20.7922 20.3512 20.608 20.2778 20.4288C20.1321 20.5728 19.9833 20.7136 19.8315 20.8511L14.1577 25.9766Z" fill="#F2C94C"/>
<path fill-rule="evenodd" clip-rule="evenodd" d="M22.5808 4.23779C22.6227 4.23012 22.6661 4.23763 22.7031 4.25897C22.74 4.28032 22.7682 4.31411 22.7826 4.35432L23.5026 6.39963C24.3838 8.90198 24.5055 11.609 23.8523 14.1803C23.1991 16.7516 21.8003 19.0724 19.8317 20.8509L12.253 27.6982C12.1934 27.7524 12.1181 27.7861 12.038 27.7945C11.9579 27.8029 11.8772 27.7855 11.8077 27.7449L7.81094 25.4374C7.74113 25.3974 7.68587 25.3362 7.65317 25.2628C7.62048 25.1893 7.61205 25.1073 7.62912 25.0287L9.76939 15.0414C10.3252 12.4473 11.6357 10.0755 13.5359 8.22415C15.4362 6.37284 17.8414 5.12469 20.4491 4.63667L22.5808 4.23779Z" fill="#EB5757"/>
<path d="M18.1165 9.80451C18.7526 9.80452 19.3625 10.0572 19.8122 10.5069C20.2619 10.9566 20.5146 11.5666 20.5146 12.2026C20.5146 12.8386 20.2619 13.4485 19.8122 13.8983C19.3624 14.348 18.7525 14.6006 18.1165 14.6006C17.4805 14.6006 16.8705 14.3479 16.4208 13.8982C15.9711 13.4485 15.7185 12.8385 15.7185 12.2025C15.7185 11.5665 15.9711 10.9566 16.4209 10.5069C16.8706 10.0571 17.4805 9.8045 18.1165 9.80451Z" fill="#F2F2F2"/>
</g>
<defs>
<clipPath id="clip0_322_1927">
<rect width="32" height="32" fill="white"/>
</clipPath>
</defs>
</svg>
