<svg width="40" height="40" viewBox="0 0 40 40" fill="none" xmlns="http://www.w3.org/2000/svg">
<path d="M16.2678 10.9861H22.6066L29.2227 4.36632C29.7109 3.87789 30.5023 3.87789 30.9905 4.36632C31.4786 4.85475 31.4786 5.64665 30.9905 6.13509L26.1421 10.9861H34.5C35.8807 10.9861 37 12.106 37 13.4875V33.4986C37 34.8801 35.8807 36 34.5 36H4.50002C3.11928 36 2 34.8801 2 33.4986V13.4875C2 12.106 3.11928 10.9861 4.50002 10.9861H12.7322L7.88393 6.13509C7.39572 5.64665 7.39572 4.85475 7.88393 4.36632C8.37204 3.87789 9.1635 3.87789 9.65166 4.36632L16.2678 10.9861ZM22.8643 24.6363C22.9364 24.5786 23.0019 24.5131 23.0596 24.441C23.4909 23.9016 23.4034 23.1145 22.8644 22.683L17.7809 18.6139C17.5592 18.4365 17.2838 18.3399 17 18.3399C16.3097 18.3399 15.75 18.8999 15.75 19.5906V27.7287C15.75 28.0127 15.8466 28.2883 16.0239 28.51C16.4552 29.0494 17.2418 29.1368 17.7809 28.7054L22.8644 24.6363H22.8643Z" fill="#192845"/>
</svg>
