<svg width="1512" height="730" viewBox="0 0 1512 730" fill="none" xmlns="http://www.w3.org/2000/svg">
<mask id="mask0_680_12429" style="mask-type:alpha" maskUnits="userSpaceOnUse" x="0" y="0" width="1512" height="730">
<rect width="1512" height="730" fill="#D9D9D9"/>
</mask>
<g mask="url(#mask0_680_12429)">
<path d="M784.227 293.765C925.894 261.909 1030.49 306.527 1116.57 352.38C1160.09 375.562 1197.26 398.081 1233.49 412.787C1269.16 427.265 1301.46 433.025 1334.04 423.939C1448.22 392.093 1501.36 327.018 1513.08 301.566L1538.51 313.282C1522.91 347.163 1462.58 417.155 1341.56 450.91C1300.64 462.324 1261.56 454.395 1222.96 438.732C1184.93 423.297 1144.95 399.223 1103.4 377.092C1019.36 332.32 922.202 291.438 790.369 321.082C741.221 332.134 704.746 346.306 678.395 361.446C688.758 365.819 698.1 370.754 706.361 376.12C731.93 392.728 749.208 414.994 750.595 439.048C752.062 464.502 735.602 485.578 707.538 498.193C651.069 523.575 591.428 491.13 590.861 436.319C590.646 415.463 599.413 393.65 618.01 373.226C573.107 365.544 514.877 367.096 445.465 385.935C346.839 412.702 231.649 406.957 128.606 389.477C25.3691 371.963 -67.0957 342.419 -121 320.383L-110.404 294.465C-58.3085 315.762 32.1767 344.718 133.289 361.871C234.596 379.058 345.157 384.146 438.131 358.912C521.363 336.323 591.571 336.88 644.249 350.14C675.126 327.885 720.636 308.064 784.227 293.765ZM650.278 380.945C626.459 401.239 618.704 420.961 618.859 436.03C619.169 465.968 653.528 491.772 696.059 472.655C717.494 463.019 723.221 450.72 722.642 440.659C721.981 429.197 712.978 413.807 691.109 399.602C680.164 392.493 666.497 386.063 650.278 380.945Z" fill="url(#paint0_linear_680_12429)"/>
<g filter="url(#filter0_f_680_12429)">
<path d="M148.423 485.87L145.705 469.389L178.04 464.056L180.758 480.537L148.423 485.87Z" fill="url(#paint1_linear_680_12429)"/>
<path d="M174.95 481.464L180.904 465.83L211.545 477.314L205.591 492.949L174.95 481.464Z" fill="url(#paint2_linear_680_12429)"/>
<path d="M173.92 464.896L184.58 477.791L209.91 457.076L199.251 444.181L173.92 464.896Z" fill="url(#paint3_linear_680_12429)"/>
<path d="M179.591 509.088L163.17 505.575L170.122 473.724L186.543 477.237L179.591 509.088Z" fill="url(#paint4_linear_680_12429)"/>
<path d="M169.409 437.019L154.985 445.619L171.797 473.55L186.22 464.951L169.409 437.019Z" fill="url(#paint5_linear_680_12429)"/>
</g>
<g filter="url(#filter1_f_680_12429)">
<path d="M1364 227.193L1389.35 247.009L1350.48 296.754L1325.12 276.937L1364 227.193Z" fill="url(#paint6_linear_680_12429)"/>
<path d="M1332.15 268.045L1344.1 297.975L1285.69 321.671L1273.73 291.741L1332.15 268.045Z" fill="url(#paint7_linear_680_12429)"/>
<path d="M1355.22 290.188L1323.29 285.816L1314.41 348.227L1346.34 352.598L1355.22 290.188Z" fill="url(#paint8_linear_680_12429)"/>
<path d="M1289.53 234.945L1317.39 218.501L1349.09 272.718L1321.23 289.162L1289.53 234.945Z" fill="url(#paint9_linear_680_12429)"/>
<path d="M1397.98 323.817L1407.21 292.81L1346.94 275.15L1337.71 306.157L1397.98 323.817Z" fill="url(#paint10_linear_680_12429)"/>
</g>
<g filter="url(#filter2_f_680_12429)">
<path d="M1267.74 445.576L1295.04 433.798L1318.15 487.369L1290.84 499.146L1267.74 445.576Z" fill="url(#paint11_linear_680_12429)"/>
<path d="M1286.75 489.509L1316.31 493.078L1309.64 550.947L1280.07 547.378L1286.75 489.509Z" fill="url(#paint12_linear_680_12429)"/>
<path d="M1314.93 480.613L1297.23 504.568L1343.9 539.428L1361.6 515.473L1314.93 480.613Z" fill="url(#paint13_linear_680_12429)"/>
<path d="M1241.02 509.397L1240.03 479.519L1298.04 477.844L1299.03 507.722L1241.02 509.397Z" fill="url(#paint14_linear_680_12429)"/>
<path d="M1361.15 460.841L1340.09 439.618L1299.06 480.662L1320.12 501.885L1361.15 460.841Z" fill="url(#paint15_linear_680_12429)"/>
</g>
<g filter="url(#filter3_f_680_12429)">
<path d="M138.555 241.365L153.214 215.493L203.974 244.253L189.314 270.126L138.555 241.365Z" fill="url(#paint16_linear_680_12429)"/>
<path d="M180.23 264.916L205.958 249.912L235.569 300.077L209.842 315.081L180.23 264.916Z" fill="url(#paint17_linear_680_12429)"/>
<path d="M197.327 240.812L197.679 270.593L255.93 270.211L255.578 240.431L197.327 240.812Z" fill="url(#paint18_linear_680_12429)"/>
<path d="M155.78 308.375L136.957 285.151L182.195 248.796L201.018 272.02L155.78 308.375Z" fill="url(#paint19_linear_680_12429)"/>
<path d="M222.24 197.147L192.644 192.937L184.71 250.427L214.306 254.638L222.24 197.147Z" fill="url(#paint20_linear_680_12429)"/>
</g>
</g>
<defs>
<filter id="filter0_f_680_12429" x="135.705" y="427.019" width="85.8398" height="92.0684" filterUnits="userSpaceOnUse" color-interpolation-filters="sRGB">
<feFlood flood-opacity="0" result="BackgroundImageFix"/>
<feBlend mode="normal" in="SourceGraphic" in2="BackgroundImageFix" result="shape"/>
<feGaussianBlur stdDeviation="5" result="effect1_foregroundBlur_680_12429"/>
</filter>
<filter id="filter1_f_680_12429" x="1263.73" y="208.501" width="153.48" height="154.098" filterUnits="userSpaceOnUse" color-interpolation-filters="sRGB">
<feFlood flood-opacity="0" result="BackgroundImageFix"/>
<feBlend mode="normal" in="SourceGraphic" in2="BackgroundImageFix" result="shape"/>
<feGaussianBlur stdDeviation="5" result="effect1_foregroundBlur_680_12429"/>
</filter>
<filter id="filter2_f_680_12429" x="1230.03" y="423.798" width="141.565" height="137.149" filterUnits="userSpaceOnUse" color-interpolation-filters="sRGB">
<feFlood flood-opacity="0" result="BackgroundImageFix"/>
<feBlend mode="normal" in="SourceGraphic" in2="BackgroundImageFix" result="shape"/>
<feGaussianBlur stdDeviation="5" result="effect1_foregroundBlur_680_12429"/>
</filter>
<filter id="filter3_f_680_12429" x="126.957" y="182.937" width="138.973" height="142.144" filterUnits="userSpaceOnUse" color-interpolation-filters="sRGB">
<feFlood flood-opacity="0" result="BackgroundImageFix"/>
<feBlend mode="normal" in="SourceGraphic" in2="BackgroundImageFix" result="shape"/>
<feGaussianBlur stdDeviation="5" result="effect1_foregroundBlur_680_12429"/>
</filter>
<linearGradient id="paint0_linear_680_12429" x1="-121" y1="394.984" x2="1538.51" y2="394.984" gradientUnits="userSpaceOnUse">
<stop stop-color="#9DC7FE"/>
<stop offset="0.0625" stop-color="#96CCFF"/>
<stop offset="0.125" stop-color="#8ED0FF"/>
<stop offset="0.1875" stop-color="#86D5FF"/>
<stop offset="0.25" stop-color="#7FD9FF"/>
<stop offset="0.3125" stop-color="#79DDFF"/>
<stop offset="0.375" stop-color="#74E1FE"/>
<stop offset="0.4375" stop-color="#70E5FB"/>
<stop offset="0.5" stop-color="#6DE9F7"/>
<stop offset="0.5625" stop-color="#6DEDF3"/>
<stop offset="0.625" stop-color="#6FF0ED"/>
<stop offset="0.6875" stop-color="#73F3E7"/>
<stop offset="0.75" stop-color="#79F6E1"/>
<stop offset="0.8125" stop-color="#80F9DA"/>
<stop offset="0.875" stop-color="#89FBD3"/>
<stop offset="0.9375" stop-color="#93FDCC"/>
<stop offset="1" stop-color="#9EFFC5"/>
</linearGradient>
<linearGradient id="paint1_linear_680_12429" x1="147.056" y1="477.58" x2="211.538" y2="466.945" gradientUnits="userSpaceOnUse">
<stop offset="0.214833" stop-color="#27B8FB"/>
<stop offset="0.542207" stop-color="#00E69B"/>
<stop offset="0.916556" stop-color="white"/>
</linearGradient>
<linearGradient id="paint2_linear_680_12429" x1="147.056" y1="477.58" x2="211.538" y2="466.945" gradientUnits="userSpaceOnUse">
<stop offset="0.214833" stop-color="#27B8FB"/>
<stop offset="0.542207" stop-color="#00E69B"/>
<stop offset="0.916556" stop-color="white"/>
</linearGradient>
<linearGradient id="paint3_linear_680_12429" x1="147.056" y1="477.58" x2="211.538" y2="466.945" gradientUnits="userSpaceOnUse">
<stop offset="0.214833" stop-color="#27B8FB"/>
<stop offset="0.542207" stop-color="#00E69B"/>
<stop offset="0.916556" stop-color="white"/>
</linearGradient>
<linearGradient id="paint4_linear_680_12429" x1="147.056" y1="477.58" x2="211.538" y2="466.945" gradientUnits="userSpaceOnUse">
<stop offset="0.214833" stop-color="#27B8FB"/>
<stop offset="0.542207" stop-color="#00E69B"/>
<stop offset="0.916556" stop-color="white"/>
</linearGradient>
<linearGradient id="paint5_linear_680_12429" x1="147.056" y1="477.58" x2="211.538" y2="466.945" gradientUnits="userSpaceOnUse">
<stop offset="0.214833" stop-color="#27B8FB"/>
<stop offset="0.542207" stop-color="#00E69B"/>
<stop offset="0.916556" stop-color="white"/>
</linearGradient>
<linearGradient id="paint6_linear_680_12429" x1="1376.75" y1="237.161" x2="1299.22" y2="336.36" gradientUnits="userSpaceOnUse">
<stop offset="0.214833" stop-color="#27B8FB"/>
<stop offset="0.542207" stop-color="#00E69B"/>
<stop offset="0.916556" stop-color="white"/>
</linearGradient>
<linearGradient id="paint7_linear_680_12429" x1="1376.75" y1="237.161" x2="1299.22" y2="336.36" gradientUnits="userSpaceOnUse">
<stop offset="0.214833" stop-color="#27B8FB"/>
<stop offset="0.542207" stop-color="#00E69B"/>
<stop offset="0.916556" stop-color="white"/>
</linearGradient>
<linearGradient id="paint8_linear_680_12429" x1="1376.75" y1="237.161" x2="1299.22" y2="336.36" gradientUnits="userSpaceOnUse">
<stop offset="0.214833" stop-color="#27B8FB"/>
<stop offset="0.542207" stop-color="#00E69B"/>
<stop offset="0.916556" stop-color="white"/>
</linearGradient>
<linearGradient id="paint9_linear_680_12429" x1="1376.75" y1="237.161" x2="1299.22" y2="336.36" gradientUnits="userSpaceOnUse">
<stop offset="0.214833" stop-color="#27B8FB"/>
<stop offset="0.542207" stop-color="#00E69B"/>
<stop offset="0.916556" stop-color="white"/>
</linearGradient>
<linearGradient id="paint10_linear_680_12429" x1="1376.75" y1="237.161" x2="1299.22" y2="336.36" gradientUnits="userSpaceOnUse">
<stop offset="0.214833" stop-color="#27B8FB"/>
<stop offset="0.542207" stop-color="#00E69B"/>
<stop offset="0.916556" stop-color="white"/>
</linearGradient>
<linearGradient id="paint11_linear_680_12429" x1="1281.47" y1="439.651" x2="1327.55" y2="546.48" gradientUnits="userSpaceOnUse">
<stop offset="0.214833" stop-color="#FCF884"/>
<stop offset="0.542207" stop-color="#C8FF6E"/>
<stop offset="0.916556" stop-color="white"/>
</linearGradient>
<linearGradient id="paint12_linear_680_12429" x1="1281.47" y1="439.651" x2="1327.55" y2="546.48" gradientUnits="userSpaceOnUse">
<stop offset="0.214833" stop-color="#FCF884"/>
<stop offset="0.542207" stop-color="#C8FF6E"/>
<stop offset="0.916556" stop-color="white"/>
</linearGradient>
<linearGradient id="paint13_linear_680_12429" x1="1281.47" y1="439.651" x2="1327.55" y2="546.48" gradientUnits="userSpaceOnUse">
<stop offset="0.214833" stop-color="#FCF884"/>
<stop offset="0.542207" stop-color="#C8FF6E"/>
<stop offset="0.916556" stop-color="white"/>
</linearGradient>
<linearGradient id="paint14_linear_680_12429" x1="1281.47" y1="439.651" x2="1327.55" y2="546.48" gradientUnits="userSpaceOnUse">
<stop offset="0.214833" stop-color="#FCF884"/>
<stop offset="0.542207" stop-color="#C8FF6E"/>
<stop offset="0.916556" stop-color="white"/>
</linearGradient>
<linearGradient id="paint15_linear_680_12429" x1="1281.47" y1="439.651" x2="1327.55" y2="546.48" gradientUnits="userSpaceOnUse">
<stop offset="0.214833" stop-color="#FCF884"/>
<stop offset="0.542207" stop-color="#C8FF6E"/>
<stop offset="0.916556" stop-color="white"/>
</linearGradient>
<linearGradient id="paint16_linear_680_12429" x1="145.929" y1="228.351" x2="247.152" y2="285.704" gradientUnits="userSpaceOnUse">
<stop offset="0.214833" stop-color="#FCF884"/>
<stop offset="0.542207" stop-color="#C8FF6E"/>
<stop offset="0.916556" stop-color="white"/>
</linearGradient>
<linearGradient id="paint17_linear_680_12429" x1="145.929" y1="228.351" x2="247.152" y2="285.704" gradientUnits="userSpaceOnUse">
<stop offset="0.214833" stop-color="#FCF884"/>
<stop offset="0.542207" stop-color="#C8FF6E"/>
<stop offset="0.916556" stop-color="white"/>
</linearGradient>
<linearGradient id="paint18_linear_680_12429" x1="145.929" y1="228.351" x2="247.152" y2="285.704" gradientUnits="userSpaceOnUse">
<stop offset="0.214833" stop-color="#FCF884"/>
<stop offset="0.542207" stop-color="#C8FF6E"/>
<stop offset="0.916556" stop-color="white"/>
</linearGradient>
<linearGradient id="paint19_linear_680_12429" x1="145.929" y1="228.351" x2="247.152" y2="285.704" gradientUnits="userSpaceOnUse">
<stop offset="0.214833" stop-color="#FCF884"/>
<stop offset="0.542207" stop-color="#C8FF6E"/>
<stop offset="0.916556" stop-color="white"/>
</linearGradient>
<linearGradient id="paint20_linear_680_12429" x1="145.929" y1="228.351" x2="247.152" y2="285.704" gradientUnits="userSpaceOnUse">
<stop offset="0.214833" stop-color="#FCF884"/>
<stop offset="0.542207" stop-color="#C8FF6E"/>
<stop offset="0.916556" stop-color="white"/>
</linearGradient>
</defs>
</svg>
