<svg width="173" height="158" viewBox="0 0 173 158" fill="none" xmlns="http://www.w3.org/2000/svg">
<g filter="url(#filter0_d_185_4051)">
<path d="M88.1971 67.7958C87.1223 67.2925 85.8794 67.2925 84.8045 67.7958L20.0021 98.1383C19.9999 98.1393 19.9999 98.1425 20.0021 98.1435L84.8043 128.491C85.8793 128.994 87.1224 128.994 88.1973 128.49L153 98.1409L88.1971 67.7958Z" fill="url(#paint0_linear_185_4051)"/>
<path d="M20.0021 98.1435L84.8043 128.491C85.8793 128.994 87.1224 128.994 88.1973 128.49L153 98.1409L153 99.2376C153 100.77 152.124 102.168 150.745 102.837L88.2468 133.156C87.1443 133.691 85.8574 133.691 84.7549 133.156L22.2563 102.837C20.8776 102.168 20.0021 100.77 20.0021 99.2376V98.1435Z" fill="url(#paint1_linear_185_4051)"/>
</g>
<g filter="url(#filter1_d_185_4051)">
<path d="M85.199 62.7984C84.1227 62.2935 82.8777 62.2934 81.8014 62.7983L30.0012 87.0967C29.9995 87.0975 29.9995 87.1001 30.0012 87.1009L81.8012 111.403C82.8776 111.908 84.1228 111.908 85.1992 111.403L136.999 87.0988L85.199 62.7984Z" fill="url(#paint2_linear_185_4051)"/>
<path d="M30.0012 87.1009L81.8012 111.403C82.8776 111.908 84.1228 111.908 85.1992 111.403L136.999 87.0988L136.999 87.4986C136.999 89.03 136.125 90.427 134.748 91.0963L85.2487 115.153C84.1448 115.689 82.8556 115.689 81.7517 115.153L32.2528 91.0963C30.8755 90.427 30.0012 89.03 30.0012 87.4986V87.1009Z" fill="url(#paint3_linear_185_4051)"/>
</g>
<g filter="url(#filter2_d_185_4051)">
<path d="M85.1528 57.6706C84.1504 57.243 83.0169 57.243 82.0144 57.6705L41.0844 75.1257C41.0831 75.1262 41.0831 75.1282 41.0844 75.1287L82.0142 92.5865C83.0168 93.0141 84.1505 93.0141 85.153 92.5864L126.083 75.1272L85.1528 57.6706Z" fill="url(#paint4_linear_185_4051)"/>
<path d="M41.0844 75.1287L82.0142 92.5865C83.0168 93.0141 84.1505 93.0141 85.153 92.5864L126.083 75.1272C126.083 76.4018 125.331 77.5563 124.165 78.0714L85.2003 95.2879C84.1705 95.7429 82.9967 95.7429 81.967 95.2879L43.0009 78.0708C41.836 77.556 41.0844 76.4024 41.0844 75.1287Z" fill="url(#paint5_linear_185_4051)"/>
</g>
<circle cx="81.9175" cy="24.0477" r="3.4354" fill="#D9D9D9"/>
<path d="M83.0627 25.193V92.7558" stroke="url(#paint6_linear_185_4051)" stroke-width="1.5" stroke-dasharray="2 2"/>
<path d="M83.0627 25.193H57.6931C48.3041 25.193 40.6928 32.8043 40.6928 42.1933V75.0017" stroke="url(#paint7_linear_185_4051)" stroke-width="1.5" stroke-dasharray="2 2"/>
<path d="M83.0626 25.193H107.287C116.676 25.193 124.287 32.8043 124.287 42.1933V70.9982" stroke="url(#paint8_linear_185_4051)" stroke-width="1.5" stroke-dasharray="2 2"/>
<g filter="url(#filter3_i_185_4051)">
<path d="M59.6313 0H105.532C106.209 0 106.857 0.269252 107.335 0.748522C107.814 1.22779 108.082 1.87782 108.082 2.55561V43.4454C108.082 44.1232 107.814 44.7733 107.335 45.2525C106.857 45.7318 106.209 46.001 105.532 46.001H59.6313C58.955 46.001 58.3063 45.7318 57.8281 45.2525C57.3499 44.7733 57.0812 44.1232 57.0812 43.4454V2.55561C57.0812 1.87782 57.3499 1.22779 57.8281 0.748522C58.3063 0.269252 58.955 0 59.6313 0ZM93.9678 32.0372L102.982 23.0005L93.9678 13.9639L90.3595 17.5826L95.7707 23.0005L90.3595 28.421L93.9678 32.0372ZM69.3929 23.0005L74.8041 17.5801L71.1983 13.9639L62.1813 23.0005L71.1983 32.0372L74.8041 28.4184L69.3929 23.0005ZM80.654 35.7786L89.9362 10.2225H84.5096L75.2274 35.7786H80.654Z" fill="url(#paint9_linear_185_4051)"/>
<path d="M69.3929 23.0005L74.8041 17.5801L71.1983 13.9639L62.1813 23.0005L71.1983 32.0372L74.8041 28.4184L69.3929 23.0005Z" fill="url(#paint10_linear_185_4051)"/>
<path d="M80.654 35.7786L89.9362 10.2225H84.5096L75.2274 35.7786H80.654Z" fill="url(#paint11_linear_185_4051)"/>
<path d="M93.9678 32.0372L102.982 23.0005L93.9678 13.9639L90.3595 17.5826L95.7707 23.0005L90.3595 28.421L93.9678 32.0372Z" fill="url(#paint12_linear_185_4051)"/>
</g>
<g filter="url(#filter4_i_185_4051)">
<path d="M114.715 73.163L103.02 70.8313C101.493 70.5269 100.749 68.7684 101.58 67.432L119.363 38.8442C119.603 38.4574 119.954 38.1532 120.368 37.9718C120.783 37.7903 121.241 37.7403 121.682 37.8283L141.293 41.7381C142.84 42.0466 143.578 43.8451 142.705 45.1807L132.583 60.6588L145.322 63.1985C147.195 63.572 147.749 66.0086 146.229 67.1886L107.809 97.0169C105.941 98.4673 103.429 96.3871 104.467 94.2502L114.715 73.163Z" fill="url(#paint13_linear_185_4051)"/>
</g>
<defs>
<filter id="filter0_d_185_4051" x="0" y="51.4179" width="173" height="106.14" filterUnits="userSpaceOnUse" color-interpolation-filters="sRGB">
<feFlood flood-opacity="0" result="BackgroundImageFix"/>
<feColorMatrix in="SourceAlpha" type="matrix" values="0 0 0 0 0 0 0 0 0 0 0 0 0 0 0 0 0 0 127 0" result="hardAlpha"/>
<feOffset dy="4"/>
<feGaussianBlur stdDeviation="10"/>
<feComposite in2="hardAlpha" operator="out"/>
<feColorMatrix type="matrix" values="0 0 0 0 0.665786 0 0 0 0 0.618461 0 0 0 0 0.476486 0 0 0 0.65 0"/>
<feBlend mode="normal" in2="BackgroundImageFix" result="effect1_dropShadow_185_4051"/>
<feBlend mode="normal" in="SourceGraphic" in2="effect1_dropShadow_185_4051" result="shape"/>
</filter>
<filter id="filter1_d_185_4051" x="19.8997" y="56.3195" width="127.2" height="73.3362" filterUnits="userSpaceOnUse" color-interpolation-filters="sRGB">
<feFlood flood-opacity="0" result="BackgroundImageFix"/>
<feColorMatrix in="SourceAlpha" type="matrix" values="0 0 0 0 0 0 0 0 0 0 0 0 0 0 0 0 0 0 127 0" result="hardAlpha"/>
<feOffset dy="4"/>
<feGaussianBlur stdDeviation="5.05"/>
<feComposite in2="hardAlpha" operator="out"/>
<feColorMatrix type="matrix" values="0 0 0 0 0.268161 0 0 0 0 0.441546 0 0 0 0 0.668281 0 0 0 0.41 0"/>
<feBlend mode="normal" in2="BackgroundImageFix" result="effect1_dropShadow_185_4051"/>
<feBlend mode="normal" in="SourceGraphic" in2="effect1_dropShadow_185_4051" result="shape"/>
</filter>
<filter id="filter2_d_185_4051" x="30.9832" y="51.2498" width="105.2" height="58.4797" filterUnits="userSpaceOnUse" color-interpolation-filters="sRGB">
<feFlood flood-opacity="0" result="BackgroundImageFix"/>
<feColorMatrix in="SourceAlpha" type="matrix" values="0 0 0 0 0 0 0 0 0 0 0 0 0 0 0 0 0 0 127 0" result="hardAlpha"/>
<feOffset dy="4"/>
<feGaussianBlur stdDeviation="5.05"/>
<feComposite in2="hardAlpha" operator="out"/>
<feColorMatrix type="matrix" values="0 0 0 0 0.175468 0 0 0 0 0.415928 0 0 0 0 0.527361 0 0 0 0.25 0"/>
<feBlend mode="normal" in2="BackgroundImageFix" result="effect1_dropShadow_185_4051"/>
<feBlend mode="normal" in="SourceGraphic" in2="effect1_dropShadow_185_4051" result="shape"/>
</filter>
<filter id="filter3_i_185_4051" x="56.0812" y="-2.00005" width="52.0012" height="48.0011" filterUnits="userSpaceOnUse" color-interpolation-filters="sRGB">
<feFlood flood-opacity="0" result="BackgroundImageFix"/>
<feBlend mode="normal" in="SourceGraphic" in2="BackgroundImageFix" result="shape"/>
<feColorMatrix in="SourceAlpha" type="matrix" values="0 0 0 0 0 0 0 0 0 0 0 0 0 0 0 0 0 0 127 0" result="hardAlpha"/>
<feOffset dx="-1" dy="-2"/>
<feGaussianBlur stdDeviation="1.95"/>
<feComposite in2="hardAlpha" operator="arithmetic" k2="-1" k3="1"/>
<feColorMatrix type="matrix" values="0 0 0 0 1 0 0 0 0 1 0 0 0 0 1 0 0 0 0.86 0"/>
<feBlend mode="normal" in2="shape" result="effect1_innerShadow_185_4051"/>
</filter>
<filter id="filter4_i_185_4051" x="99.6347" y="37.786" width="47.4712" height="59.7138" filterUnits="userSpaceOnUse" color-interpolation-filters="sRGB">
<feFlood flood-opacity="0" result="BackgroundImageFix"/>
<feBlend mode="normal" in="SourceGraphic" in2="BackgroundImageFix" result="shape"/>
<feColorMatrix in="SourceAlpha" type="matrix" values="0 0 0 0 0 0 0 0 0 0 0 0 0 0 0 0 0 0 127 0" result="hardAlpha"/>
<feOffset dx="-2"/>
<feGaussianBlur stdDeviation="0.8"/>
<feComposite in2="hardAlpha" operator="arithmetic" k2="-1" k3="1"/>
<feColorMatrix type="matrix" values="0 0 0 0 1 0 0 0 0 1 0 0 0 0 1 0 0 0 0.49 0"/>
<feBlend mode="normal" in2="shape" result="effect1_innerShadow_185_4051"/>
</filter>
<linearGradient id="paint0_linear_185_4051" x1="19.9965" y1="100.502" x2="153" y2="100.502" gradientUnits="userSpaceOnUse">
<stop stop-color="#C1EDFF"/>
<stop offset="1" stop-color="#367CC3"/>
</linearGradient>
<linearGradient id="paint1_linear_185_4051" x1="19.9965" y1="100.502" x2="153" y2="100.502" gradientUnits="userSpaceOnUse">
<stop stop-color="#48ACEA"/>
<stop offset="1" stop-color="#295884"/>
</linearGradient>
<linearGradient id="paint2_linear_185_4051" x1="29.9967" y1="89.002" x2="136.999" y2="89.002" gradientUnits="userSpaceOnUse">
<stop stop-color="#F9FEFF"/>
<stop offset="1" stop-color="#A2CAE2"/>
</linearGradient>
<linearGradient id="paint3_linear_185_4051" x1="29.9967" y1="89.002" x2="136.999" y2="89.002" gradientUnits="userSpaceOnUse">
<stop stop-color="#CCD4DB"/>
<stop offset="1" stop-color="#7BAABB"/>
</linearGradient>
<linearGradient id="paint4_linear_185_4051" x1="41.0809" y1="76.5017" x2="126.083" y2="76.5017" gradientUnits="userSpaceOnUse">
<stop stop-color="white"/>
<stop offset="1" stop-color="#D1E9F7"/>
</linearGradient>
<linearGradient id="paint5_linear_185_4051" x1="41.0809" y1="76.5017" x2="126.083" y2="76.5017" gradientUnits="userSpaceOnUse">
<stop stop-color="#E1EAEE"/>
<stop offset="1" stop-color="#C3D7D9"/>
</linearGradient>
<linearGradient id="paint6_linear_185_4051" x1="81.5626" y1="28.5049" x2="81.5626" y2="92.7558" gradientUnits="userSpaceOnUse">
<stop stop-color="#FEFEFE"/>
<stop offset="1" stop-color="#309ADC"/>
</linearGradient>
<linearGradient id="paint7_linear_185_4051" x1="41.3653" y1="69.0067" x2="74.4208" y2="22.7927" gradientUnits="userSpaceOnUse">
<stop stop-color="#0A72C7"/>
<stop offset="1" stop-color="#E9E9E9"/>
</linearGradient>
<linearGradient id="paint8_linear_185_4051" x1="128.868" y1="71.6621" x2="84.3669" y2="25.8327" gradientUnits="userSpaceOnUse">
<stop stop-color="#69B7F6"/>
<stop offset="1" stop-color="#E9E9E9"/>
</linearGradient>
<linearGradient id="paint9_linear_185_4051" x1="82.5818" y1="2.55554" x2="82.5818" y2="48.5566" gradientUnits="userSpaceOnUse">
<stop stop-color="#A9D7FC"/>
<stop offset="0.509615" stop-color="#109AF6"/>
<stop offset="1" stop-color="#455AFB"/>
</linearGradient>
<linearGradient id="paint10_linear_185_4051" x1="82.5818" y1="0" x2="82.5818" y2="46.001" gradientUnits="userSpaceOnUse">
<stop stop-color="white"/>
<stop offset="1" stop-color="#CDDCF7"/>
</linearGradient>
<linearGradient id="paint11_linear_185_4051" x1="82.5818" y1="0" x2="82.5818" y2="46.001" gradientUnits="userSpaceOnUse">
<stop stop-color="white"/>
<stop offset="1" stop-color="#CDDCF7"/>
</linearGradient>
<linearGradient id="paint12_linear_185_4051" x1="82.5818" y1="0" x2="82.5818" y2="46.001" gradientUnits="userSpaceOnUse">
<stop stop-color="white"/>
<stop offset="1" stop-color="#CDDCF7"/>
</linearGradient>
<linearGradient id="paint13_linear_185_4051" x1="112.176" y1="30.5767" x2="125.067" y2="93.7463" gradientUnits="userSpaceOnUse">
<stop stop-color="#FFF421"/>
<stop offset="0.956407" stop-color="#FC790E"/>
</linearGradient>
</defs>
</svg>
