<svg width="157" height="129" viewBox="0 0 157 129" fill="none" xmlns="http://www.w3.org/2000/svg">
<path d="M86.2042 72.0101C86.2042 74.5421 87.21 76.9703 89.0004 78.7607C90.7908 80.5511 93.219 81.5569 95.751 81.5569C98.2829 81.5569 100.711 80.5511 102.502 78.7607C104.292 76.9703 105.298 74.5421 105.298 72.0101C105.298 69.4781 104.292 67.0499 102.502 65.2595C100.711 63.4691 98.2829 62.4633 95.751 62.4633C93.219 62.4633 90.7908 63.4691 89.0004 65.2595C87.21 67.0499 86.2042 69.4781 86.2042 72.0101Z" fill="white"/>
<path d="M44.8509 72.0101C44.8509 74.5421 45.8567 76.9703 47.6471 78.7607C49.4375 80.5511 51.8657 81.5569 54.3977 81.5569C56.9297 81.5569 59.3579 80.5511 61.1483 78.7607C62.9387 76.9703 63.9445 74.5421 63.9445 72.0101C63.9445 69.4781 62.9387 67.0499 61.1483 65.2595C59.3579 63.4691 56.9297 62.4633 54.3977 62.4633C51.8657 62.4633 49.4375 63.4691 47.6471 65.2595C45.8567 67.0499 44.8509 69.4781 44.8509 72.0101Z" fill="white"/>
<path d="M58.1292 108.598C58.1292 108.598 55.3346 121.747 45.2709 118.08V129H104.829V118.08C104.829 118.08 95.7026 121.682 92.0034 108.598H58.1292Z" fill="#98C0E5"/>
<path d="M140.319 109.293H10.1206C9.05443 109.293 8.18213 108.42 8.18213 107.354V87.0329C8.18213 85.9668 9.05443 85.0945 10.1206 85.0945H140.319C141.385 85.0945 142.257 85.9668 142.257 87.0329V107.354C142.257 108.42 141.385 109.293 140.319 109.293Z" fill="#B8D3E9"/>
<path d="M142.257 93.1229H8.18213V18.2024C8.18213 16.7001 9.40981 15.4724 10.9121 15.4724H139.527C141.03 15.4724 142.257 16.7001 142.257 18.2024V93.1229Z" fill="#E2ECF4"/>
<path d="M72.2959 102.993C72.2959 103.73 72.5886 104.436 73.1097 104.957C73.6307 105.479 74.3374 105.771 75.0743 105.771C75.8112 105.771 76.5179 105.479 77.0389 104.957C77.56 104.436 77.8527 103.73 77.8527 102.993C77.8527 102.628 77.7809 102.267 77.6412 101.93C77.5016 101.592 77.2969 101.286 77.0389 101.028C76.7809 100.77 76.4746 100.566 76.1376 100.426C75.8005 100.286 75.4392 100.214 75.0743 100.214C74.7094 100.214 74.3481 100.286 74.011 100.426C73.674 100.566 73.3677 100.77 73.1097 101.028C72.8517 101.286 72.647 101.592 72.5074 101.93C72.3677 102.267 72.2959 102.628 72.2959 102.993Z" fill="white"/>
<rect y="20.8633" width="63.218" height="67.4016" rx="9" fill="#0E2027"/>
<path d="M24.0391 31.975C24.3086 32.2298 24.4822 32.5696 24.5307 32.9373C24.5792 33.305 24.4998 33.6781 24.3056 33.9941L24.1037 34.2566L20.2674 38.3313L24.1037 42.4099C24.3584 42.6807 24.512 43.0309 24.5385 43.4017C24.565 43.7725 24.4628 44.141 24.2491 44.4452L24.0351 44.6916C23.7644 44.9463 23.4141 45.0998 23.0433 45.1263C22.6725 45.1528 22.304 45.0506 21.9998 44.8369L21.7535 44.6229L17.3921 39.995C17.0136 39.5926 16.784 39.0728 16.7414 38.5219C16.6988 37.9711 16.8458 37.4222 17.1579 36.9663L17.3961 36.6715L21.7535 32.0437C22.0471 31.7323 22.4523 31.5502 22.8801 31.5373C23.3079 31.5244 23.7233 31.6819 24.0351 31.975H24.0391ZM39.0696 31.975C38.8001 32.2298 38.6266 32.5696 38.578 32.9373C38.5295 33.305 38.609 33.6781 38.8031 33.9941L39.005 34.2566L42.8414 38.3313L39.005 42.4099C38.7497 42.6802 38.5954 43.0302 38.5682 43.401C38.5409 43.7718 38.6425 44.1406 38.8556 44.4452L39.0696 44.6916C39.3403 44.9463 39.6906 45.0998 40.0614 45.1263C40.4322 45.1528 40.8007 45.0506 41.1049 44.8369L41.3553 44.6229L45.7126 39.995C46.0911 39.5926 46.3207 39.0728 46.3633 38.5219C46.4059 37.9711 46.2589 37.4222 45.9468 36.9663L45.7126 36.6715L41.3512 32.0437C41.0576 31.7323 40.6524 31.5502 40.2246 31.5373C39.7968 31.5244 39.3814 31.6819 39.0696 31.975ZM32.9355 31.9467C33.1244 31.5914 33.4392 31.3194 33.8181 31.184C34.1971 31.0486 34.6129 31.0595 34.9842 31.2146C35.3556 31.3697 35.6556 31.6578 35.8257 32.0226C35.9957 32.3873 36.0235 32.8024 35.9036 33.1865L35.7744 33.4894L30.1692 43.8031C29.9776 44.1533 29.663 44.42 29.2863 44.552C28.9096 44.6839 28.4973 44.6717 28.1291 44.5177C27.7608 44.3637 27.4626 44.0787 27.292 43.7179C27.1214 43.357 27.0905 42.9457 27.2051 42.5634L27.3303 42.2605L32.9355 31.9467Z" fill="#7AAAD3"/>
<path d="M6.69979 56.0294H33.6604V58.3535H6.69979V56.0294Z" fill="#E49191"/>
<path d="M6.69979 61.6073H55.043V63.9315H6.69979V61.6073Z" fill="#C7B87B"/>
<path d="M6.69979 67.2512H46.6759V69.5754H6.69979V67.2512Z" fill="#63B988"/>
<path d="M7.11201 72.2279H47.0881V74.5521H7.11201V72.2279Z" fill="#5B85AA"/>
<path d="M7.11201 77.7595H32.3992V80.1302H7.11201V77.7595Z" fill="#5B85AA"/>
<g filter="url(#filter0_d_338_2688)">
<path d="M127.492 28.6158C127.492 30.9554 128.935 32.9579 130.978 33.7834C130.55 35.3474 129.926 36.8513 129.123 38.26C127.094 37.3993 124.659 37.7956 123.005 39.4496C121.351 41.1035 120.955 43.5386 121.815 45.5672C120.407 46.3707 118.903 46.9943 117.339 47.4232C116.513 45.3793 114.511 43.937 112.171 43.937C109.832 43.937 107.829 45.3793 107.004 47.4232C105.44 46.9942 103.936 46.3707 102.527 45.5672C103.388 43.5385 102.991 41.1035 101.337 39.4495C99.6834 37.7956 97.2483 37.3993 95.2197 38.2599C94.4162 36.8513 93.7927 35.3473 93.3637 33.7834C95.4076 32.9578 96.8498 30.9554 96.8498 28.6158C96.8498 26.2761 95.4076 24.2737 93.3638 23.4482C93.7927 21.8842 94.4162 20.3803 95.2197 18.9716C97.2484 19.8323 99.6834 19.436 101.337 17.782C102.991 16.128 103.388 13.693 102.527 11.6644C103.936 10.8609 105.44 10.2373 107.004 9.80839C107.829 11.8522 109.832 13.2945 112.171 13.2945C114.511 13.2945 116.513 11.8523 117.339 9.80843C118.903 10.2373 120.407 10.8609 121.815 11.6644C120.955 13.693 121.351 16.1281 123.005 17.782C124.659 19.436 127.094 19.8323 129.123 18.9716C129.926 20.3803 130.55 21.8843 130.979 23.4482C128.935 24.2737 127.492 26.2762 127.492 28.6158Z" fill="#FAFDFE"/>
</g>
<path d="M101.424 28.6158C101.424 31.4661 102.556 34.1996 104.572 36.2151C106.587 38.2306 109.321 39.3628 112.171 39.3628C115.021 39.3628 117.755 38.2306 119.77 36.2151C121.786 34.1996 122.918 31.4661 122.918 28.6158C122.918 25.7655 121.786 23.0319 119.77 21.0165C117.755 19.001 115.021 17.8687 112.171 17.8687C109.321 17.8687 106.587 19.001 104.572 21.0165C102.556 23.0319 101.424 25.7655 101.424 28.6158Z" fill="#DBDFE3"/>
<path d="M108.141 28.6158C108.141 29.6846 108.566 30.7097 109.321 31.4655C110.077 32.2213 111.102 32.6459 112.171 32.6459C113.24 32.6459 114.265 32.2213 115.021 31.4655C115.777 30.7097 116.201 29.6846 116.201 28.6158C116.201 27.5469 115.777 26.5218 115.021 25.766C114.265 25.0102 113.24 24.5856 112.171 24.5856C111.102 24.5856 110.077 25.0102 109.321 25.766C108.566 26.5218 108.141 27.5469 108.141 28.6158Z" fill="#8898A4"/>
<rect x="90.2565" y="51.0124" width="3.1609" height="18.2066" rx="1.57911" transform="rotate(54.3863 90.2565 51.0124)" fill="url(#paint0_linear_338_2688)"/>
<rect x="105.508" y="75.9949" width="3.1609" height="30.9464" rx="1.57911" transform="rotate(110.435 105.508 75.9949)" fill="url(#paint1_linear_338_2688)"/>
<path d="M106.317 82.9788C109.213 82.4372 111.121 79.6507 110.579 76.755C110.038 73.8593 107.251 71.951 104.356 72.4926C101.46 73.0342 99.5516 75.8207 100.093 78.7164C100.635 81.612 103.421 83.5204 106.317 82.9788Z" fill="url(#paint2_radial_338_2688)"/>
<path d="M75.045 70.0239C77.9407 69.4823 79.849 66.6958 79.3074 63.8001C78.7658 60.9045 75.9793 58.9961 73.0836 59.5377C70.188 60.0793 68.2796 62.8658 68.8212 65.7615C69.3628 68.6572 72.1493 70.5655 75.045 70.0239Z" fill="url(#paint3_radial_338_2688)"/>
<path d="M94.0559 55.6149C96.9516 55.0733 98.86 52.2868 98.3183 49.3912C97.7767 46.4955 94.9902 44.5871 92.0946 45.1287C89.1989 45.6704 87.2905 48.4568 87.8322 51.3525C88.3738 54.2482 91.1602 56.1565 94.0559 55.6149Z" fill="url(#paint4_radial_338_2688)"/>
<g filter="url(#filter1_d_338_2688)">
<path d="M142.87 71.2694C143.318 72.9434 144.734 74.0995 146.355 74.2984C146.348 75.4996 146.19 76.6951 145.885 77.857C144.269 77.6302 142.602 78.3805 141.736 79.8809C140.87 81.3814 141.053 83.1995 142.058 84.486C141.204 85.3309 140.247 86.0653 139.211 86.672C138.228 85.368 136.519 84.72 134.845 85.1685C133.171 85.617 132.015 87.0328 131.816 88.6534C130.615 88.6463 129.419 88.4885 128.258 88.1837C128.484 86.5672 127.734 84.901 126.234 84.0348C124.733 83.1685 122.915 83.3518 121.629 84.3564C120.784 83.5026 120.049 82.5461 119.443 81.5094C120.747 80.5269 121.395 78.8178 120.946 77.1438C120.498 75.4699 119.082 74.3138 117.461 74.1149C117.468 72.9137 117.626 71.7182 117.931 70.5563C119.547 70.7832 121.214 70.0328 122.08 68.5324C122.946 67.0319 122.763 65.2138 121.758 63.9273C122.612 63.0824 123.568 62.348 124.605 61.7413C125.588 63.0453 127.297 63.6933 128.971 63.2448C130.645 62.7963 131.801 61.3805 132 59.76C133.201 59.767 134.396 59.9248 135.558 60.2296C135.331 61.8461 136.082 63.5123 137.582 64.3785C139.083 65.2448 140.901 65.0615 142.187 64.0569C143.032 64.9107 143.767 65.8672 144.373 66.9039C143.069 67.8863 142.421 69.5955 142.87 71.2694Z" fill="#FAFDFE"/>
</g>
<path d="M124.219 76.2669C124.765 78.3062 126.099 80.0449 127.928 81.1005C129.756 82.1561 131.929 82.4422 133.968 81.8958C136.008 81.3493 137.746 80.0152 138.802 78.1868C139.857 76.3584 140.144 74.1856 139.597 72.1463C139.051 70.107 137.717 68.3683 135.888 67.3127C134.06 66.2571 131.887 65.971 129.848 66.5174C127.808 67.0639 126.07 68.398 125.014 70.2264C123.958 72.0548 123.672 74.2276 124.219 76.2669Z" fill="#DBDFE3"/>
<path d="M129.025 74.9793C129.23 75.744 129.73 76.3961 130.416 76.7919C131.101 77.1878 131.916 77.295 132.681 77.0901C133.445 76.8852 134.097 76.3849 134.493 75.6993C134.889 75.0136 134.996 74.1988 134.792 73.4341C134.587 72.6694 134.086 72.0173 133.401 71.6215C132.715 71.2256 131.9 71.1184 131.135 71.3233C130.371 71.5282 129.719 72.0285 129.323 72.7141C128.927 73.3998 128.82 74.2146 129.025 74.9793Z" fill="#8898A4"/>
<defs>
<filter id="filter0_d_338_2688" x="83.5554" y="4.86788e-05" width="57.2315" height="57.2315" filterUnits="userSpaceOnUse" color-interpolation-filters="sRGB">
<feFlood flood-opacity="0" result="BackgroundImageFix"/>
<feColorMatrix in="SourceAlpha" type="matrix" values="0 0 0 0 0 0 0 0 0 0 0 0 0 0 0 0 0 0 127 0" result="hardAlpha"/>
<feOffset/>
<feGaussianBlur stdDeviation="4.9"/>
<feComposite in2="hardAlpha" operator="out"/>
<feColorMatrix type="matrix" values="0 0 0 0 0.357533 0 0 0 0 0.506035 0 0 0 0 0.625093 0 0 0 0.25 0"/>
<feBlend mode="normal" in2="BackgroundImageFix" result="effect1_dropShadow_338_2688"/>
<feBlend mode="normal" in="SourceGraphic" in2="effect1_dropShadow_338_2688" result="shape"/>
</filter>
<filter id="filter1_d_338_2688" x="107.653" y="49.9516" width="48.51" height="48.51" filterUnits="userSpaceOnUse" color-interpolation-filters="sRGB">
<feFlood flood-opacity="0" result="BackgroundImageFix"/>
<feColorMatrix in="SourceAlpha" type="matrix" values="0 0 0 0 0 0 0 0 0 0 0 0 0 0 0 0 0 0 127 0" result="hardAlpha"/>
<feOffset/>
<feGaussianBlur stdDeviation="4.9"/>
<feComposite in2="hardAlpha" operator="out"/>
<feColorMatrix type="matrix" values="0 0 0 0 0.357533 0 0 0 0 0.506035 0 0 0 0 0.625093 0 0 0 0.25 0"/>
<feBlend mode="normal" in2="BackgroundImageFix" result="effect1_dropShadow_338_2688"/>
<feBlend mode="normal" in="SourceGraphic" in2="effect1_dropShadow_338_2688" result="shape"/>
</filter>
<linearGradient id="paint0_linear_338_2688" x1="91.8369" y1="69.2189" x2="91.8369" y2="51.0437" gradientUnits="userSpaceOnUse">
<stop stop-color="#738995"/>
<stop offset="0.471154" stop-color="#B4BCC1"/>
<stop offset="0.985577" stop-color="#738995"/>
</linearGradient>
<linearGradient id="paint1_linear_338_2688" x1="107.089" y1="106.941" x2="107.089" y2="76.0482" gradientUnits="userSpaceOnUse">
<stop stop-color="#738995"/>
<stop offset="0.471154" stop-color="#B4BCC1"/>
<stop offset="0.985577" stop-color="#738995"/>
</linearGradient>
<radialGradient id="paint2_radial_338_2688" cx="0" cy="0" r="1" gradientUnits="userSpaceOnUse" gradientTransform="translate(90.5921 62.9715) rotate(43.0217) scale(28.8493 24.708)">
<stop offset="0.529" stop-color="#66BAFE"/>
<stop offset="1" stop-color="#0073CC"/>
</radialGradient>
<radialGradient id="paint3_radial_338_2688" cx="0" cy="0" r="1" gradientUnits="userSpaceOnUse" gradientTransform="translate(59.3201 50.0166) rotate(43.0217) scale(28.8493 24.708)">
<stop offset="0.529" stop-color="#66BAFE"/>
<stop offset="1" stop-color="#0073CC"/>
</radialGradient>
<radialGradient id="paint4_radial_338_2688" cx="0" cy="0" r="1" gradientUnits="userSpaceOnUse" gradientTransform="translate(78.3311 35.6076) rotate(43.0217) scale(28.8493 24.708)">
<stop offset="0.529" stop-color="#66BAFE"/>
<stop offset="1" stop-color="#0073CC"/>
</radialGradient>
</defs>
</svg>
