<svg width="149" height="134" viewBox="0 0 149 134" fill="none" xmlns="http://www.w3.org/2000/svg">
<rect x="14.8142" y="32.7282" width="121.562" height="92.5742" rx="8" fill="#DBEFFF"/>
<path d="M75.3615 56.1055C81.1714 56.1055 85.8813 51.3956 85.8813 45.5857C85.8813 39.7758 81.1714 35.0659 75.3615 35.0659C69.5515 35.0659 64.8417 39.7758 64.8417 45.5857C64.8417 51.3956 69.5515 56.1055 75.3615 56.1055Z" fill="#B3DAFA"/>
<path d="M117.441 56.1055C123.251 56.1055 127.96 51.3956 127.96 45.5857C127.96 39.7758 123.251 35.0659 117.441 35.0659C111.631 35.0659 106.921 39.7758 106.921 45.5857C106.921 51.3956 111.631 56.1055 117.441 56.1055Z" fill="#B3DAFA"/>
<path d="M33.2823 56.1055C39.0922 56.1055 43.8021 51.3956 43.8021 45.5857C43.8021 39.7758 39.0922 35.0659 33.2823 35.0659C27.4724 35.0659 22.7625 39.7758 22.7625 45.5857C22.7625 51.3956 27.4724 56.1055 33.2823 56.1055Z" fill="#B3DAFA"/>
<path d="M131.467 0H19.2559C15.3987 0 12.2427 3.15594 12.2427 7.01319V17.533H138.48V7.01319C138.48 3.15594 135.324 0 131.467 0ZM64.8417 17.533H85.8813V45.5858H64.8417V17.533ZM120.947 17.533H103.414L106.921 45.5858H127.96L120.947 17.533ZM29.7757 17.533H47.3087L43.8021 45.5858H22.7625L29.7757 17.533Z" fill="#DFF1FF"/>
<path d="M96.401 56.1055C102.211 56.1055 106.921 51.3956 106.921 45.5857C106.921 39.7758 102.211 35.0659 96.401 35.0659C90.5911 35.0659 85.8813 39.7758 85.8813 45.5857C85.8813 51.3956 90.5911 56.1055 96.401 56.1055Z" fill="#58A5E2"/>
<path d="M149 45.5857C149 51.5469 144.441 56.1055 138.48 56.1055C132.519 56.1055 127.96 51.5469 127.96 45.5857C127.96 39.6245 132.519 35.0659 138.48 35.0659L149 45.5857Z" fill="#58A5E2"/>
<path d="M54.3219 56.1055C60.1318 56.1055 64.8417 51.3956 64.8417 45.5857C64.8417 39.7758 60.1318 35.0659 54.3219 35.0659C48.512 35.0659 43.8021 39.7758 43.8021 45.5857C43.8021 51.3956 48.512 56.1055 54.3219 56.1055Z" fill="#58A5E2"/>
<path d="M1.72294 45.5857C1.72294 51.5469 6.28151 56.1055 12.2427 56.1055C18.2039 56.1055 22.7625 51.5469 22.7625 45.5857C22.7625 39.6245 18.2039 35.0659 12.2427 35.0659L1.72294 45.5857Z" fill="#58A5E2"/>
<path d="M103.414 17.533H85.8813V45.5858H106.921L103.414 17.533ZM138.48 17.533H120.947L127.96 45.5858H149L138.48 17.533ZM47.3087 17.533H64.8417V45.5858H43.8021L47.3087 17.533ZM12.2427 17.533H29.7757L22.7625 45.5858H1.72294L12.2427 17.533Z" fill="#7FC6FE"/>
<path d="M140.646 124.227C140.164 124.794 139.575 125.259 138.913 125.598C138.251 125.937 137.528 126.142 136.787 126.201C136.045 126.261 135.299 126.173 134.592 125.945C133.884 125.716 133.228 125.35 132.662 124.868C132.095 124.385 131.63 123.796 131.291 123.134C130.952 122.472 130.748 121.749 130.688 121.008C130.629 120.266 130.716 119.52 130.945 118.813C131.174 118.105 131.54 117.449 132.022 116.883C132.504 116.317 133.093 115.851 133.755 115.512C134.418 115.173 135.14 114.968 135.882 114.909C136.623 114.85 137.369 114.937 138.077 115.166C138.784 115.394 139.44 115.76 140.006 116.243C140.573 116.725 141.039 117.314 141.377 117.976C141.716 118.638 141.921 119.361 141.98 120.102C142.04 120.844 141.952 121.59 141.724 122.297C141.495 123.005 141.129 123.661 140.646 124.227Z" fill="#FD8D4B"/>
<path d="M109.318 100.488C108.664 101.256 107.866 101.887 106.968 102.346C106.07 102.805 105.091 103.083 104.086 103.163C103.081 103.244 102.07 103.126 101.111 102.816C100.152 102.505 99.2628 102.009 98.4952 101.356C97.7277 100.702 97.0964 99.9038 96.6373 99.0061C96.1783 98.1085 95.9006 97.1293 95.8201 96.1243C95.7395 95.1194 95.8577 94.1084 96.1678 93.1491C96.478 92.1899 96.974 91.3011 97.6277 90.5335C98.2813 89.7659 99.0797 89.1346 99.9773 88.6756C100.875 88.2165 101.854 87.9388 102.859 87.8582C103.864 87.7777 104.875 87.8958 105.834 88.2059C106.794 88.5161 107.682 89.0121 108.45 89.6658C109.218 90.3194 109.849 91.1178 110.308 92.0154C110.767 92.913 111.045 93.8923 111.125 94.8972C111.206 95.9022 111.088 96.9132 110.777 97.8724C110.467 98.8317 109.971 99.7205 109.318 100.488Z" fill="url(#paint0_linear_338_2739)"/>
<path d="M122.617 75.5369C121.417 74.5184 119.653 74.6797 118.64 75.8466L88.2389 111.576C87.2203 112.776 87.3816 114.541 88.5485 115.553C89.7489 116.572 91.5132 116.41 92.5256 115.243L122.921 79.5476C123.939 78.3472 123.818 76.5555 122.617 75.5369Z" fill="#FFDF78"/>
<path d="M125.846 122.895L123.384 120.812C122.875 120.372 122.1 120.437 121.693 120.952L114.346 129.593C113.905 130.102 113.971 130.877 114.486 131.284L116.948 133.367C117.456 133.807 118.232 133.742 118.638 133.227L125.986 124.586C126.42 124.111 126.354 123.336 125.846 122.895Z" fill="#FD8D4B"/>
<path d="M134.192 119.954C130.081 110.803 127.11 103.561 125.314 98.2356C123.517 92.9098 122.1 87.4107 121.107 81.6775L94.3792 113.087C97.7063 112.727 103.309 113.202 111.146 114.538C118.944 115.902 126.661 117.703 134.192 119.954Z" fill="#FFCC63"/>
<path d="M142.334 110.384L132.466 101.979C131.448 101.098 129.931 101.235 129.05 102.253L116.473 117.079C115.592 118.096 115.729 119.613 116.747 120.494L126.615 128.9C127.633 129.78 129.15 129.643 130.031 128.625L142.636 113.84C143.489 112.782 143.352 111.265 142.334 110.384Z" fill="#FDAD4A"/>
<path d="M124.275 101.999C123.707 100.75 122.42 97.1831 122.163 95.7483C122.084 95.4216 121.779 95.1921 121.453 95.2708C121.419 95.2646 121.413 95.2982 121.379 95.292C121.013 95.3981 120.765 95.8035 120.831 96.1973C121.158 97.8185 122.333 101.053 122.95 102.415C123.123 102.794 123.507 102.968 123.907 102.868C124.24 102.756 124.402 102.439 124.323 102.112C124.302 102.039 124.275 101.999 124.275 101.999ZM121.22 92.3833C120.872 91.0704 120.799 90.7101 120.759 89.4191C120.754 89.0712 120.455 88.8082 120.141 88.8198C120.107 88.8136 120.107 88.8136 120.068 88.841C119.674 88.9074 119.371 89.2333 119.398 89.6545C119.471 90.9517 119.51 91.3058 119.859 92.6187C119.959 93.0187 120.331 93.2605 120.724 93.1941C121.045 93.149 121.274 92.8443 121.235 92.4902C121.248 92.4231 121.248 92.4231 121.22 92.3833Z" fill="white"/>
<path d="M95.7983 86.8328C96.0034 87.177 95.8906 87.6223 95.5463 87.8274C95.2021 88.0324 94.7568 87.9196 94.5517 87.5754L91.5955 82.6126C91.3905 82.2684 91.5033 81.8231 91.8475 81.618C92.1918 81.413 92.6371 81.5258 92.8421 81.8701L95.7983 86.8328Z" fill="#FFCA70"/>
<path d="M100.211 85.1114C100.267 85.5081 99.9913 85.8754 99.5946 85.9319C99.1979 85.9883 98.8305 85.7125 98.7741 85.3158L97.9605 79.5969C97.9041 79.2002 98.1799 78.8328 98.5766 78.7764C98.9733 78.72 99.3406 78.9958 99.3971 79.3925L100.211 85.1114Z" fill="#FFCA70"/>
<path d="M92.9876 90.1011C93.3336 90.3032 93.4503 90.7475 93.2482 91.0935C93.0462 91.4395 92.6019 91.5562 92.2559 91.3541L87.2677 88.441C86.9217 88.2389 86.8051 87.7946 87.0071 87.4486C87.2092 87.1026 87.6535 86.9859 87.9995 87.188L92.9876 90.1011Z" fill="#FFCA70"/>
<path fill-rule="evenodd" clip-rule="evenodd" d="M30.3945 68.2067C30.3187 67.4524 29.9652 66.7532 29.4027 66.245C28.8403 65.7368 28.109 65.4557 27.3509 65.4565H17.87C17.0595 65.4565 16.2823 65.7784 15.7092 66.3515C15.1362 66.9246 14.8142 67.7018 14.8142 68.5122C14.8142 69.3227 15.1362 70.0999 15.7092 70.673C16.2823 71.246 17.0595 71.568 17.87 71.568H24.5885L25.6153 81.7783L25.6234 81.9901L27.5873 101.527C27.775 102.935 28.4714 104.227 29.5452 105.158C30.6191 106.09 31.9963 106.596 33.4176 106.583H57.2606C58.5219 106.636 59.7665 106.279 60.807 105.564C61.8474 104.849 62.6275 103.815 63.0299 102.618V102.61L68.082 87.4375C68.3704 86.562 68.4469 85.6264 68.3052 84.7156C68.1636 83.8047 67.8078 82.9405 67.2672 82.1938C66.7081 81.4082 65.9628 80.7736 65.0981 80.347C64.2335 79.9203 63.2764 79.7149 62.3128 79.7492H31.5516L30.3945 68.2067Z" fill="#94C5F6"/>
<path fill-rule="evenodd" clip-rule="evenodd" d="M39.9406 87.0383C41.3503 87.0383 42.4871 88.1791 42.4871 89.5848V97.7334C42.4871 98.4088 42.2188 99.0565 41.7412 99.5341C41.2637 100.012 40.616 100.28 39.9406 100.28C39.2652 100.28 38.6175 100.012 38.14 99.5341C37.6624 99.0565 37.3941 98.4088 37.3941 97.7334V89.5848C37.3941 88.1791 38.535 87.0383 39.9406 87.0383ZM40.3154 117.38C40.3154 116.75 40.1913 116.125 39.9501 115.543C39.7089 114.961 39.3554 114.432 38.9097 113.986C38.464 113.54 37.9349 113.187 37.3526 112.946C36.7703 112.704 36.1462 112.58 35.5159 112.58C34.8856 112.58 34.2615 112.704 33.6792 112.946C33.0969 113.187 32.5678 113.54 32.1221 113.986C31.6764 114.432 31.3229 114.961 31.0817 115.543C30.8405 116.125 30.7163 116.75 30.7163 117.38C30.7163 118.653 31.222 119.874 32.1221 120.774C33.0222 121.674 34.243 122.179 35.5159 122.179C36.7888 122.179 38.0096 121.674 38.9097 120.774C39.8098 119.874 40.3154 118.653 40.3154 117.38ZM61.282 117.38C61.282 116.107 60.7763 114.886 59.8762 113.986C58.9761 113.086 57.7553 112.58 56.4824 112.58C55.2095 112.58 53.9887 113.086 53.0886 113.986C52.1885 114.886 51.6828 116.107 51.6828 117.38C51.6828 118.653 52.1885 119.874 53.0886 120.774C53.9887 121.674 55.2095 122.179 56.4824 122.179C57.7553 122.179 58.9761 121.674 59.8762 120.774C60.7763 119.874 61.282 118.653 61.282 117.38ZM56.7472 89.5848C56.7472 89.2504 56.6814 88.9192 56.5534 88.6103C56.4254 88.3013 56.2378 88.0206 56.0014 87.7842C55.7649 87.5477 55.4842 87.3601 55.1753 87.2322C54.8663 87.1042 54.5352 87.0383 54.2008 87.0383C53.8664 87.0383 53.5352 87.1042 53.2263 87.2322C52.9173 87.3601 52.6366 87.5477 52.4001 87.7842C52.1637 88.0206 51.9761 88.3013 51.8481 88.6103C51.7202 88.9192 51.6543 89.2504 51.6543 89.5848V97.7334C51.6543 98.0679 51.7202 98.399 51.8481 98.7079C51.9761 99.0169 52.1637 99.2976 52.4001 99.5341C52.6366 99.7705 52.9173 99.9581 53.2263 100.086C53.5352 100.214 53.8664 100.28 54.2008 100.28C54.5352 100.28 54.8663 100.214 55.1753 100.086C55.4842 99.9581 55.7649 99.7705 56.0014 99.5341C56.2378 99.2976 56.4254 99.0169 56.5534 98.7079C56.6814 98.399 56.7472 98.0679 56.7472 97.7334V89.5848Z" fill="#2884C5"/>
<path d="M14.0895 77.5641C13.5863 77.5641 13.169 77.9814 13.169 78.4846C13.169 78.9878 13.5741 79.4051 14.0895 79.4051C14.605 79.4051 15.01 78.9878 15.01 78.4846C15.01 77.9814 14.605 77.5641 14.0895 77.5641Z" fill="#74C933"/>
<path d="M19.4283 75.3673C19.4283 73.8699 18.5324 72.9863 17.0473 72.9863H10.4076C10.248 72.9863 10.0885 73.0476 9.97802 73.1704L0.184096 82.9643C0.0736385 83.0748 0 83.2343 0 83.3939C0 83.5534 0.0613655 83.713 0.184096 83.8234L8.75071 92.39C8.87344 92.5128 9.03299 92.5741 9.18027 92.5741C9.32755 92.5741 9.49937 92.5128 9.60983 92.39L19.3056 82.6943C19.4283 82.5716 19.4897 82.4243 19.4897 82.2525C19.4897 82.2034 19.4283 76.3123 19.4283 75.3673ZM14.0895 80.6324C12.9113 80.6324 11.9417 79.6628 11.9417 78.4846C11.9417 77.3064 12.899 76.3368 14.0895 76.3368C15.28 76.3368 16.2373 77.3064 16.2373 78.4846C16.2373 79.6628 15.28 80.6324 14.0895 80.6324Z" fill="#74C933"/>
<path d="M25.9121 60.7978C28.7377 60.0272 31.7223 61.6453 33.5426 64.1373C35.3765 66.648 36.136 70.1772 34.3955 73.4097C32.9641 76.0677 29.8935 76.9801 26.8271 77.1144C23.7358 77.2499 20.4779 76.6063 18.4167 75.9721L18.6925 75.0781C20.6832 75.6906 23.8305 76.3097 26.786 76.1803C29.7663 76.0497 32.3849 75.1701 33.5718 72.9659C35.1039 70.1204 34.4607 66.9788 32.7883 64.6889C31.102 62.3802 28.4759 61.0681 26.1586 61.7C22.1846 62.7838 20.7174 64.5443 19.9572 65.4565L19.4897 65.4568L18.5546 65.4565C19.3529 64.4985 21.6577 61.9582 25.9121 60.7978Z" fill="#74C833"/>
<path d="M19.0222 71.5346C18.9058 71.651 18.7282 72.6742 18.6306 72.9363C18.5348 73.1938 18.5232 73.4412 18.6342 73.6632L17.7978 74.0814C17.5347 73.5554 17.6004 73.023 17.7539 72.6103C17.9057 72.2025 17.8918 71.7299 18.0871 71.5346H19.0222Z" fill="#74C833"/>
<defs>
<linearGradient id="paint0_linear_338_2739" x1="96.0103" y1="88.9314" x2="101.095" y2="98.9595" gradientUnits="userSpaceOnUse">
<stop stop-color="#EAF0F9"/>
<stop offset="1" stop-color="#A1B8C9"/>
</linearGradient>
</defs>
</svg>
