<svg preserveAspectRatio="none" overflow="visible" style="display: block;" width="48" height="48" viewBox="0 0 48 48" fill="none" xmlns="http://www.w3.org/2000/svg">
<g id="linux 2">
<path id="Vector" d="M24.6197 9.2953C24.2165 9.5578 23.9072 9.94218 23.7337 10.3922C23.5556 10.9734 23.5837 11.5922 23.804 12.1594C23.9868 12.7547 24.3525 13.275 24.8447 13.65C25.0978 13.8281 25.3884 13.9406 25.6978 13.9781C26.0072 14.0156 26.3165 13.9641 26.5931 13.8234C26.9212 13.6406 27.1837 13.3547 27.3384 13.0125C27.4884 12.6656 27.5728 12.2953 27.5822 11.9203C27.615 11.4422 27.554 10.9641 27.404 10.5094C27.24 10.0125 26.9212 9.58593 26.49 9.2953C26.2697 9.15468 26.0259 9.06093 25.7681 9.02343C25.5103 8.98593 25.2478 9.01405 25.004 9.1078C24.8681 9.16405 24.7368 9.23436 24.615 9.31874" fill="white"/>
<path id="Vector_2" d="M37.9777 28.4297C37.7387 27.1031 37.3637 25.8047 36.8621 24.5578C36.5199 23.6297 36.0559 22.7484 35.4793 21.9422C34.8981 21.1687 34.1621 20.5172 33.5949 19.7344C33.2949 19.3266 33.0418 18.8719 32.7278 18.4734C32.6012 18.2109 32.4793 17.9484 32.3574 17.6859C31.9824 16.8656 31.6403 16.0266 31.1949 15.2484C31.1246 15.1266 31.0496 15.0047 30.9793 14.8875C30.9231 14.1375 30.8434 13.3875 30.8012 12.6375C30.834 11.1328 30.7074 9.62344 30.4215 8.14219C30.2246 7.43437 29.9246 6.75469 29.5309 6.13594C29.0715 5.40469 28.4809 4.76719 27.7871 4.25625C26.6574 3.45469 25.3074 3.02344 23.9246 3.01875C22.9074 2.99531 21.8996 3.225 20.9949 3.69375C20.0434 4.21406 19.2746 5.01562 18.7918 5.98594C18.3418 6.96562 18.1027 8.025 18.0887 9.10312C18.0512 10.1625 18.1496 11.2125 18.1918 12.2719C18.234 13.3687 18.2106 14.4703 18.2996 15.5672C18.3277 15.9187 18.3699 16.2703 18.3699 16.6266C18.3699 16.8047 18.3606 16.9828 18.3559 17.1562L18.3418 17.1937C17.8637 18.0047 17.334 18.7875 16.7574 19.5328C16.3543 20.0437 15.9512 20.55 15.5434 21.0516C15.0137 21.6469 14.5637 22.3078 14.2074 23.0203C13.9684 23.6391 13.7762 24.2766 13.6262 24.9234L13.6121 24.975C13.3871 25.7203 13.1059 26.4422 12.7684 27.1406C12.7356 27.2062 12.7027 27.2766 12.6746 27.3375C12.4731 27.7547 12.2621 28.1719 12.0418 28.5797L11.7887 29.0531C11.6293 29.3391 11.4887 29.6344 11.3668 29.9344C11.2965 30.1172 11.2403 30.3047 11.2074 30.4969C11.1465 30.9047 11.1746 31.3172 11.2824 31.7109C11.3059 31.8094 11.3387 31.9078 11.3715 32.0062C11.4746 32.2969 11.5965 32.5828 11.7418 32.8547C11.8074 32.9812 11.8778 33.1031 11.9434 33.2297L12.0043 33.3187C12.0699 33.4359 12.1403 33.5531 12.2106 33.6656L12.2199 33.6797C12.2996 33.8109 12.3887 33.9375 12.4731 34.0641L12.4871 34.0828C12.5762 34.2047 12.6653 34.3312 12.759 34.4531C13.1059 35.8078 13.7434 37.0687 14.6199 38.1562C14.484 38.3953 14.3621 38.6297 14.2262 38.8641C13.7481 39.5578 13.3543 40.3031 13.0496 41.0859C12.9231 41.4891 12.8902 41.9156 12.9606 42.3328C13.0262 42.7547 13.2418 43.1344 13.5699 43.4109C13.7902 43.5797 14.0434 43.6969 14.3106 43.7531C14.5777 43.8094 14.8543 43.8375 15.1309 43.8234C16.1715 43.7437 17.2028 43.5375 18.1965 43.2187C18.7965 43.0594 19.3965 42.9187 20.0059 42.7969C20.6387 42.6516 21.2809 42.5625 21.9277 42.5344C22.0871 42.5391 22.2465 42.5297 22.4012 42.5203C22.8418 42.5672 23.2824 42.5859 23.7278 42.5672L23.8918 42.5578C24.0043 42.5719 24.1215 42.5766 24.2387 42.5859C25.0168 42.6281 25.7902 42.7078 26.559 42.825C27.234 42.9281 27.909 43.0594 28.5746 43.2234C29.6012 43.5328 30.6559 43.7391 31.7293 43.8281C32.0106 43.8422 32.2918 43.8187 32.5731 43.7625C32.8496 43.7062 33.1121 43.5844 33.3371 43.4156C33.6653 43.1437 33.8809 42.7641 33.9512 42.3422C34.0215 41.925 33.9887 41.4984 33.8621 41.0953C33.5528 40.3125 33.1543 39.5672 32.6668 38.8781C32.4981 38.5922 32.3387 38.2969 32.1699 38.0109C32.8965 37.2 33.5387 36.3094 34.0778 35.3625C34.4059 35.3812 34.7293 35.3437 35.0434 35.2406C35.8637 34.9641 36.5762 34.4297 37.0731 33.7172C37.2231 33.5062 37.3402 33.2719 37.4106 33.0234C37.734 32.5219 37.9543 31.9594 38.0574 31.3687C38.2074 30.3937 38.184 29.3953 37.9871 28.4297H37.9777Z" fill="#020204"/>
<path id="Vector_3" d="M19.9508 15.15C19.8054 15.3375 19.7023 15.5578 19.6508 15.7875C19.5992 16.0172 19.5664 16.2563 19.5617 16.4906C19.5758 16.9641 19.5383 17.4375 19.4445 17.9016C19.2804 18.3844 19.032 18.8297 18.7133 19.2281C18.1648 19.9172 17.7336 20.6906 17.4383 21.5156C17.2883 22.0266 17.2367 22.5609 17.2929 23.0953C16.7258 23.9344 16.2336 24.825 15.8258 25.7531C15.1976 27.1547 14.7945 28.65 14.6304 30.1781C14.4289 32.0578 14.7054 33.9563 15.4273 35.7C15.957 36.9563 16.7633 38.0813 17.7851 38.9859C18.3101 39.4406 18.8867 39.825 19.5054 40.1297C21.6945 41.1984 24.2586 41.175 26.4242 40.0641C27.507 39.4313 28.4961 38.6484 29.3586 37.7438C29.9164 37.2375 30.4133 36.6703 30.8492 36.0516C31.5758 34.7906 32.0023 33.375 32.0914 31.9219C32.5414 29.4094 32.2648 26.8219 31.2992 24.4594C30.9195 23.6719 30.4179 22.95 29.8086 22.3219C29.6445 21.2201 29.3257 20.147 28.8617 19.1344C28.5242 18.4078 28.1164 17.7141 27.8023 16.9688C27.6758 16.6641 27.5633 16.3547 27.4226 16.0594C27.2867 15.7594 27.0992 15.4828 26.8695 15.2484C26.6211 15.0188 26.3258 14.8453 26.0023 14.7469C25.6789 14.6438 25.3461 14.5875 25.0086 14.5781C24.3336 14.5453 23.6539 14.6297 22.9883 14.6063C22.4492 14.5828 21.9195 14.4891 21.3804 14.5219C21.1133 14.5359 20.8461 14.5875 20.5976 14.6859C20.3445 14.7844 20.1242 14.9438 19.9508 15.1547M20.1664 9.29063C19.9133 9.30938 19.6742 9.4172 19.4914 9.59063C19.3086 9.76407 19.1726 9.98438 19.0976 10.2234C18.9711 10.7109 18.9383 11.2219 19.0086 11.7234C19.0179 12.1781 19.0976 12.6328 19.2476 13.0641C19.332 13.275 19.4539 13.4719 19.6133 13.6359C19.7726 13.8 19.9742 13.9219 20.1945 13.9781C20.4054 14.0297 20.6258 14.0203 20.8273 13.9547C21.0289 13.8891 21.2164 13.7766 21.3664 13.6266C21.5867 13.4016 21.7461 13.125 21.8258 12.825C21.9054 12.525 21.9429 12.2109 21.9336 11.8969C21.9336 11.5078 21.8726 11.1188 21.7554 10.7438C21.6383 10.3688 21.4367 10.0266 21.1648 9.74063C21.0336 9.60469 20.8836 9.48751 20.7148 9.40313C20.5414 9.32345 20.3539 9.28126 20.1664 9.29063ZM24.6195 9.29063C24.2164 9.55313 23.907 9.93751 23.7336 10.3875C23.5554 10.9688 23.5836 11.5875 23.8039 12.1547C23.9867 12.75 24.3523 13.2703 24.8445 13.6453C25.0976 13.8234 25.3883 13.9359 25.6976 13.9734C26.007 14.0109 26.3164 13.9594 26.5929 13.8188C26.9211 13.6359 27.1836 13.35 27.3383 13.0078C27.4883 12.6609 27.5726 12.2906 27.582 11.9156C27.6148 11.4375 27.5539 10.9594 27.4039 10.5047C27.2398 10.0078 26.9211 9.58126 26.4898 9.29063C26.2695 9.15001 26.0258 9.05626 25.7679 9.01876C25.5101 8.98126 25.2476 9.00938 25.0039 9.10313C24.8679 9.15938 24.7367 9.22969 24.6148 9.31407" fill="white"/>
<path id="Vector_4" d="M25.5234 10.4813C25.3734 10.4906 25.2328 10.5375 25.1062 10.6172C24.9797 10.6969 24.8719 10.8047 24.7875 10.9266C24.6281 11.175 24.5391 11.4656 24.5344 11.7656C24.5203 11.9859 24.5531 12.2109 24.6234 12.4219C24.6937 12.6328 24.825 12.8203 24.9938 12.9609C25.1719 13.1063 25.3875 13.1906 25.6172 13.2047C25.8469 13.2141 26.0719 13.1531 26.2594 13.0219C26.4094 12.9141 26.5312 12.7781 26.6156 12.6141C26.7 12.4547 26.7516 12.2766 26.775 12.0984C26.8219 11.7797 26.7656 11.4516 26.625 11.1656C26.4797 10.875 26.2313 10.6547 25.9313 10.5375C25.8 10.4859 25.6641 10.4672 25.5234 10.4719" fill="#020204"/>
<path id="Vector_5" d="M20.1649 9.29533C19.9117 9.31408 19.6727 9.42189 19.4899 9.59533C19.307 9.76876 19.1711 9.98908 19.0961 10.2281C18.9695 10.7156 18.9367 11.2266 19.007 11.7281C19.0164 12.1828 19.0961 12.6375 19.2461 13.0688C19.3305 13.2844 19.4524 13.4766 19.6117 13.6406C19.7711 13.8047 19.9727 13.9266 20.193 13.9828C20.4039 14.0344 20.6242 14.025 20.8258 13.9594C21.0274 13.8938 21.2149 13.7813 21.3649 13.6313C21.5852 13.4063 21.7445 13.1297 21.8242 12.8297C21.9039 12.5297 21.9414 12.2156 21.932 11.9016C21.932 11.5125 21.8711 11.1235 21.7539 10.7485C21.6367 10.3735 21.4352 10.0313 21.1633 9.74533C21.032 9.60939 20.882 9.4922 20.7133 9.40783C20.5399 9.32814 20.3524 9.28595 20.1649 9.29533Z" fill="white"/>
<path id="Vector_6" d="M19.56 11.3812C19.499 11.6953 19.5131 12.0234 19.6115 12.3281C19.6865 12.5297 19.799 12.7125 19.949 12.8672C20.0428 12.9703 20.1506 13.0594 20.2772 13.1203C20.4037 13.1859 20.5443 13.2047 20.685 13.1719C20.8115 13.1391 20.9193 13.0641 20.999 12.9609C21.0787 12.8578 21.135 12.7406 21.1725 12.6187C21.2803 12.2531 21.2709 11.8641 21.1537 11.4984C21.0787 11.2312 20.9334 10.9875 20.7272 10.8047C20.6287 10.7203 20.5068 10.6547 20.3803 10.6219C20.249 10.5891 20.1131 10.5984 19.9865 10.6547C19.8553 10.7203 19.7475 10.8281 19.6818 10.9594C19.6162 11.0906 19.574 11.2312 19.5553 11.3766" fill="#020204"/>
<path id="Vector_7" d="M18.9648 15.3234C18.9742 15.3656 18.9883 15.4078 19.0117 15.4406C19.0539 15.5062 19.1055 15.5578 19.1711 15.6C19.232 15.6422 19.293 15.6797 19.3539 15.7172C19.6773 15.9375 19.9633 16.2094 20.193 16.5281C20.4742 16.9687 20.8258 17.3625 21.2242 17.7C21.5289 17.9109 21.8852 18.0375 22.2555 18.0703C22.6867 18.1031 23.1227 18.0516 23.5398 17.9203C23.9242 17.8078 24.2945 17.6484 24.6414 17.4375C25.2367 16.9594 25.8742 16.5375 26.5492 16.1859C26.7086 16.1297 26.868 16.0875 27.018 16.0172C27.1727 15.9516 27.3039 15.8391 27.3836 15.6891C27.4352 15.5391 27.468 15.3797 27.4727 15.2203C27.4961 15.0516 27.5523 14.8875 27.5805 14.7187C27.618 14.55 27.6039 14.3766 27.543 14.2125C27.4773 14.0859 27.3742 13.9828 27.2477 13.9172C27.1211 13.8562 26.9805 13.8187 26.8398 13.8141C26.5539 13.8234 26.2727 13.8516 25.9961 13.8984C25.6211 13.9312 25.2461 13.8844 24.8711 13.8984C24.407 13.9125 23.943 14.0156 23.4742 14.0344C22.9398 14.0625 22.4102 13.9781 21.8758 13.9547C21.6461 13.9406 21.4117 13.95 21.182 13.9875C20.9523 14.0203 20.732 14.1047 20.5398 14.2359C20.3617 14.3766 20.1977 14.5266 20.0383 14.6859C19.9539 14.7609 19.8602 14.8266 19.7617 14.8781C19.6586 14.9297 19.5508 14.9578 19.4336 14.9531C19.3773 14.9437 19.3164 14.9437 19.2602 14.9531C19.2273 14.9672 19.1945 14.9859 19.1711 15.0094L19.1008 15.0937C19.0539 15.1641 19.0117 15.2391 18.9789 15.3141" fill="#D99A03"/>
<path id="Vector_8" d="M20.143 14.1422C19.9555 14.2547 19.7727 14.3766 19.5898 14.5031C19.4914 14.5641 19.4117 14.6437 19.3508 14.7422C19.318 14.8172 19.3039 14.8969 19.3086 14.9766C19.3133 15.0562 19.3133 15.1359 19.3086 15.2156C19.3039 15.2672 19.2852 15.3234 19.2852 15.3797C19.2852 15.4078 19.2852 15.4359 19.2945 15.4594C19.3039 15.4875 19.3133 15.5109 19.332 15.5297C19.3555 15.5531 19.3883 15.5719 19.4258 15.5812C19.4586 15.5906 19.4961 15.5953 19.5336 15.6047C19.6977 15.6516 19.8477 15.7406 19.9695 15.8578C20.0961 15.9703 20.2086 16.1016 20.3445 16.2094C20.7195 16.4906 21.1742 16.6359 21.6383 16.6312C22.1023 16.6219 22.5617 16.5562 23.007 16.4391C23.3586 16.3641 23.7055 16.2703 24.043 16.1531C24.568 15.9562 25.0508 15.6703 25.468 15.3C25.6508 15.1219 25.843 14.9625 26.0492 14.8172C26.2367 14.7 26.457 14.6203 26.6445 14.5078C26.6633 14.4984 26.6773 14.4844 26.6961 14.475C26.7102 14.4609 26.7242 14.4469 26.7336 14.4281C26.7477 14.3953 26.7477 14.3578 26.7336 14.325C26.7242 14.2922 26.7102 14.2641 26.6914 14.2406C26.668 14.2125 26.6398 14.1844 26.6117 14.1609C26.3961 14.0016 26.1383 13.9125 25.8711 13.9031C25.5992 13.8844 25.3414 13.9031 25.0789 13.8516C24.8352 13.8 24.5961 13.7297 24.3617 13.6453C24.1133 13.5656 23.8602 13.5047 23.5977 13.4625C22.9883 13.3641 22.3695 13.3781 21.7648 13.5094C21.1977 13.6359 20.6492 13.8516 20.143 14.1422Z" fill="#604405"/>
<path id="Vector_9" d="M20.0809 13.5047C19.809 13.6875 19.5652 13.9125 19.3543 14.1656C19.2324 14.3062 19.134 14.4703 19.0684 14.6484C19.0262 14.7891 18.998 14.9344 18.9746 15.0797C18.9605 15.1312 18.9512 15.1875 18.9512 15.2437C18.9512 15.2719 18.9559 15.3 18.9652 15.3234C18.9746 15.3516 18.9887 15.375 19.0074 15.3937C19.0402 15.4266 19.0824 15.4453 19.1293 15.4547C19.1715 15.4641 19.2184 15.4641 19.2652 15.4687C19.4715 15.5016 19.6637 15.5859 19.8324 15.7078C20.0012 15.825 20.1605 15.9609 20.334 16.0734C20.7277 16.3078 21.1777 16.4344 21.6371 16.4437C22.0965 16.4531 22.5512 16.4062 22.9965 16.3078C23.3527 16.2422 23.7043 16.1437 24.0465 16.0125C24.5574 15.7922 25.0355 15.5062 25.4715 15.1594C25.673 15.0094 25.8699 14.85 26.0527 14.6766C26.1137 14.6156 26.1746 14.5547 26.2402 14.4984C26.3059 14.4422 26.3809 14.4 26.4605 14.3719C26.5871 14.3391 26.7184 14.3344 26.8496 14.3672C26.9434 14.3906 27.0418 14.4 27.1402 14.4C27.1918 14.4 27.2387 14.3906 27.2855 14.3766C27.3324 14.3578 27.3746 14.3297 27.4027 14.2922C27.4449 14.2406 27.4637 14.1797 27.4637 14.1141C27.4637 14.0484 27.4449 13.9875 27.4121 13.9312C27.3418 13.8234 27.234 13.7391 27.1168 13.6922C26.9527 13.6266 26.784 13.575 26.6105 13.5422C26.0809 13.4156 25.5652 13.2281 25.0777 12.9844C24.834 12.8625 24.6043 12.7312 24.3605 12.6047C24.1168 12.4687 23.8637 12.3516 23.6012 12.2672C22.9965 12.1031 22.3543 12.1312 21.7684 12.3516C21.1121 12.5812 20.5262 12.9797 20.0762 13.5094" fill="#F5BD0C"/>
<path id="Vector_10" d="M23.1337 12.7594C23.1665 12.8672 23.3352 12.8485 23.4337 12.8953C23.5321 12.9422 23.5884 13.0313 23.6821 13.0406C23.7805 13.05 23.9165 13.0078 23.9305 12.9188C23.9493 12.7969 23.7712 12.7219 23.6587 12.6797C23.5087 12.6094 23.3399 12.6047 23.1899 12.6703C23.1571 12.6844 23.1243 12.7266 23.1337 12.7594ZM21.5212 12.7031C21.3946 12.661 21.1883 12.8813 21.2493 12.9985C21.268 13.0313 21.3243 13.0688 21.3618 13.05C21.3993 13.0313 21.4696 12.9047 21.5305 12.8625C21.5774 12.825 21.568 12.7172 21.5212 12.7031Z" fill="#CD8907"/>
<path id="Vector_11" d="M41.6113 38.8969C41.5176 39.1406 41.3817 39.3656 41.2129 39.5672C40.8192 39.9891 40.341 40.3266 39.816 40.5609C38.9254 40.9734 38.0582 41.4328 37.2145 41.9344C36.666 42.3 36.1551 42.7125 35.6817 43.1719C35.2926 43.5797 34.8754 43.9547 34.4348 44.3062C33.9754 44.6437 33.4457 44.8734 32.8832 44.9625C32.1942 45.0516 31.4957 44.9437 30.8629 44.6578C30.4082 44.4844 30.0145 44.1797 29.7379 43.7766C29.5035 43.3453 29.3957 42.8625 29.4192 42.375C29.4473 41.5172 29.5504 40.6641 29.7285 39.8203C29.8504 39.1172 29.9723 38.4141 30.0473 37.7062C30.1785 36.4125 30.1926 35.1141 30.0942 33.8203C30.0707 33.6047 30.0707 33.3844 30.0942 33.1687C30.1223 32.7281 30.4926 32.3906 30.9379 32.3953C31.1395 32.3906 31.341 32.4094 31.5379 32.4469C32.0067 32.5031 32.4754 32.5828 32.9348 32.6906C33.2207 32.7656 33.5067 32.8687 33.7926 32.9484C34.2707 33.0891 34.777 33.1312 35.2738 33.0844C35.7942 32.9625 36.3238 32.8828 36.8582 32.8359C37.0785 32.8453 37.2988 32.8828 37.5051 32.9484C37.7207 33.0094 37.9223 33.1172 38.0863 33.2719C38.2035 33.3984 38.2973 33.5437 38.3582 33.7031C38.4473 33.9422 38.5035 34.1906 38.5223 34.4437C38.5317 34.6687 38.5504 34.8937 38.5785 35.1187C38.6582 35.4797 38.8317 35.8172 39.0754 36.0984C39.3238 36.3703 39.591 36.6234 39.8817 36.8484C40.1582 37.0922 40.4488 37.3172 40.7535 37.5234C40.8988 37.6219 41.0442 37.7109 41.1801 37.8187C41.3207 37.9219 41.4379 38.0531 41.527 38.2031C41.6395 38.4094 41.677 38.6484 41.6207 38.8781" fill="#F5BD0C"/>
<path id="Vector_12" d="M41.6113 38.8969C41.5175 39.1406 41.3816 39.3656 41.2128 39.5672C40.8191 39.9891 40.3409 40.3266 39.8159 40.5609C38.9253 40.9734 38.0581 41.4328 37.2144 41.9344C36.6659 42.3 36.155 42.7125 35.6816 43.1719C35.2925 43.5797 34.8753 43.9547 34.4347 44.3063C33.9753 44.6438 33.4456 44.8734 32.8831 44.9625C32.1941 45.0516 31.4956 44.9438 30.8628 44.6578C30.4081 44.4844 30.0144 44.1797 29.7378 43.7766C29.5034 43.3453 29.3956 42.8625 29.4191 42.375C29.4472 41.5172 29.5503 40.6641 29.7284 39.8203C29.8503 39.1172 29.9722 38.4141 30.0472 37.7063C30.1784 36.4125 30.1925 35.1141 30.0941 33.8203C30.0706 33.6047 30.0706 33.3844 30.0941 33.1688C30.1222 32.7281 30.4925 32.3906 30.9378 32.3953C31.1394 32.3906 31.3409 32.4094 31.5378 32.4469C32.0066 32.5031 32.4753 32.5828 32.9347 32.6906C33.2206 32.7656 33.5066 32.8688 33.7925 32.9484C34.2706 33.0891 34.7769 33.1313 35.2738 33.0844C35.7941 32.9625 36.3238 32.8828 36.8581 32.8359C37.0784 32.8453 37.2988 32.8828 37.505 32.9484C37.7206 33.0094 37.9222 33.1172 38.0863 33.2719C38.2034 33.3984 38.2972 33.5438 38.3581 33.7031C38.4472 33.9422 38.5034 34.1906 38.5222 34.4438C38.5316 34.6688 38.5503 34.8938 38.5784 35.1188C38.6581 35.4797 38.8316 35.8172 39.0753 36.0984C39.3238 36.3703 39.5909 36.6234 39.8816 36.8484C40.1581 37.0922 40.4488 37.3172 40.7534 37.5234C40.8988 37.6219 41.0441 37.7109 41.18 37.8188C41.3206 37.9219 41.4378 38.0531 41.5269 38.2031C41.6394 38.4094 41.6769 38.6484 41.6206 38.8781M12.1597 31.7016C12.3894 31.6125 12.6378 31.5891 12.8816 31.6359C13.1253 31.6828 13.355 31.7813 13.5566 31.9219C13.9456 32.2172 14.2831 32.5828 14.5503 32.9906C15.2113 33.9 15.8441 34.8281 16.4206 35.7938C16.8894 36.5766 17.3159 37.3828 17.855 38.1188C18.2066 38.5969 18.605 39.0422 18.9613 39.5203C19.3316 39.9891 19.6128 40.5234 19.7863 41.0906C19.9925 41.8453 19.9081 42.6469 19.5566 43.3453C19.3034 43.8328 18.9238 44.2406 18.4597 44.5219C17.9909 44.8031 17.4519 44.9438 16.9034 44.9297C16.0409 44.8125 15.2066 44.55 14.4378 44.1516C12.8019 43.5 11.0253 43.2938 9.33782 42.7875C8.81751 42.6328 8.31126 42.4453 7.78626 42.3047C7.55188 42.2484 7.32219 42.1781 7.09719 42.0844C6.87688 41.9906 6.68469 41.8313 6.55813 41.6297C6.46438 41.4656 6.41751 41.2781 6.4222 41.0906C6.42688 40.9031 6.46438 40.7203 6.53001 40.5516C6.65657 40.2 6.86282 39.8859 6.99876 39.5391C7.20501 38.9672 7.2847 38.3531 7.23313 37.7484C7.20501 37.1438 7.09719 36.5391 7.06438 35.9344C7.03626 35.6625 7.04563 35.3906 7.09251 35.1234C7.16282 34.5891 7.58001 34.1625 8.11907 34.0828C8.36751 34.0406 8.61595 34.0219 8.86438 34.0359C9.11282 34.05 9.36595 34.05 9.61438 34.0359C9.86282 34.0219 10.1113 33.9516 10.3316 33.8344C10.5331 33.7125 10.7113 33.5438 10.8472 33.3469C10.9831 33.15 11.105 32.9484 11.2175 32.7375C11.33 32.5266 11.4566 32.3297 11.6066 32.1422C11.7472 31.95 11.9394 31.8047 12.1597 31.7016Z" fill="#F5BD0C"/>
<path id="Vector_13" d="M12.1597 31.7062C12.3894 31.6172 12.6378 31.5937 12.8816 31.6406C13.1253 31.6875 13.355 31.7859 13.5566 31.9266C13.9456 32.2219 14.2831 32.5875 14.5503 32.9953C15.2113 33.9047 15.8441 34.8328 16.4206 35.7984C16.8894 36.5812 17.3159 37.3875 17.855 38.1234C18.2066 38.6016 18.605 39.0469 18.9613 39.525C19.3316 39.9937 19.6128 40.5281 19.7863 41.0953C19.9925 41.85 19.9081 42.6516 19.5566 43.35C19.3034 43.8375 18.9238 44.2453 18.4597 44.5266C17.9909 44.8078 17.4519 44.9484 16.9034 44.9344C16.0409 44.8172 15.2066 44.5547 14.4378 44.1562C12.8019 43.5047 11.0253 43.2984 9.33782 42.7922C8.81751 42.6375 8.31126 42.45 7.78626 42.3094C7.55188 42.2531 7.32219 42.1828 7.09719 42.0891C6.87688 41.9953 6.68469 41.8359 6.55813 41.6344C6.46438 41.4703 6.41751 41.2828 6.4222 41.0953C6.42688 40.9078 6.46438 40.725 6.53001 40.5562C6.65657 40.2047 6.86282 39.8906 6.99876 39.5437C7.20501 38.9719 7.2847 38.3578 7.23313 37.7531C7.20501 37.1484 7.09719 36.5484 7.06438 35.9391C7.03626 35.6672 7.04563 35.3953 7.09251 35.1281C7.16282 34.5937 7.58001 34.1672 8.11907 34.0875C8.36751 34.0453 8.61595 34.0266 8.86438 34.0406C9.11282 34.0547 9.36595 34.0547 9.61438 34.0406C9.86282 34.0266 10.1113 33.9562 10.3316 33.8391C10.5331 33.7172 10.7113 33.5484 10.8472 33.3516C10.9831 33.1547 11.105 32.9531 11.2175 32.7422C11.33 32.5312 11.4566 32.3344 11.6066 32.1469C11.7472 31.9547 11.9394 31.8047 12.1597 31.7062Z" fill="#F5BD0C"/>
<path id="Vector_14" d="M12.52 32.1C12.7263 32.0203 12.956 32.0063 13.1716 32.0578C13.3872 32.1094 13.5888 32.2078 13.7622 32.3484C14.095 32.6391 14.3763 32.9859 14.5872 33.375C15.1497 34.2844 15.6982 35.2031 16.2091 36.1406C16.5794 36.8578 16.9966 37.5516 17.456 38.2125C17.7747 38.6438 18.1403 39.0375 18.4685 39.4594C18.8107 39.8766 19.0685 40.35 19.2278 40.8609C19.4153 41.5313 19.3357 42.2484 19.0169 42.8719C18.7825 43.3125 18.431 43.6828 17.9997 43.9313C17.5685 44.1844 17.0716 44.3063 16.5747 44.2828C15.7919 44.1609 15.0325 43.9266 14.3153 43.5844C12.8903 43.0641 11.3388 42.9984 9.87629 42.5906C9.35129 42.45 8.84035 42.2578 8.31066 42.1266C8.07629 42.075 7.84191 42.0094 7.61691 41.925C7.39191 41.8406 7.19504 41.6813 7.06379 41.4797C6.97941 41.3203 6.93722 41.1422 6.9466 40.9641C6.95597 40.7859 6.99347 40.6078 7.0591 40.4391C7.18566 40.1063 7.38722 39.8016 7.51379 39.4688C7.69191 38.9531 7.75285 38.4094 7.6966 37.8656C7.6591 37.3266 7.56066 36.7922 7.53254 36.2484C7.51379 36.0094 7.52316 35.7656 7.56535 35.5266C7.60754 35.2875 7.72004 35.0672 7.88879 34.8891C8.08566 34.7109 8.32941 34.5938 8.59191 34.5609C8.85441 34.5281 9.11691 34.5281 9.37472 34.5609C9.63722 34.5938 9.89972 34.6031 10.1622 34.5984C10.6778 34.5984 11.1466 34.2984 11.3669 33.8297C11.4747 33.6188 11.5685 33.3984 11.6435 33.1781C11.7232 32.9531 11.831 32.7422 11.9575 32.5406C12.0888 32.3391 12.2763 32.1797 12.4966 32.0859" fill="#F5BD0C"/>
</g>
</svg>
