<svg width="64" height="64" viewBox="0 0 64 64" fill="none" xmlns="http://www.w3.org/2000/svg">
<g id="17CRM (1) 1" clip-path="url(#clip0_1121_2118)">
<path id="Vector" d="M0 33.3333C0 32.9797 0.140476 32.6406 0.390524 32.3905C0.640573 32.1405 0.979711 32 1.33333 32C1.68696 32 2.02609 32.1405 2.27614 32.3905C2.52619 32.6406 2.66667 32.9797 2.66667 33.3333C2.66667 48.7973 15.2027 61.3333 30.6667 61.3333C31.0203 61.3333 31.3594 61.4738 31.6095 61.7239C31.8595 61.9739 32 62.313 32 62.6667C32 63.0203 31.8595 63.3594 31.6095 63.6095C31.3594 63.8595 31.0203 64 30.6667 64C13.7307 64 0 50.2693 0 33.3333ZM64 30.6667C64 31.0203 63.8595 31.3594 63.6095 31.6095C63.3594 31.8595 63.0203 32 62.6667 32C62.313 32 61.9739 31.8595 61.7239 31.6095C61.4738 31.3594 61.3333 31.0203 61.3333 30.6667C61.3333 15.2027 48.7973 2.66667 33.3333 2.66667C32.9797 2.66667 32.6406 2.52619 32.3905 2.27614C32.1405 2.02609 32 1.68696 32 1.33333C32 0.979711 32.1405 0.640573 32.3905 0.390524C32.6406 0.140476 32.9797 0 33.3333 0C50.2693 0 64 13.7307 64 30.6667Z" fill="#FFF1BE"/>
<path id="Vector_2" d="M47.2106 39.9494L37.3333 44.3734L31.944 31.8081L42.3706 29.8748L47.2106 39.9494Z" fill="#A6D2FF"/>
<path id="Vector_3" d="M24.1707 29.7439L30.1627 28.1653L42.2427 37.6373L45.7467 40.8293C45.7467 40.8293 47.624 42.4559 45.7467 44.1786L38.7547 49.6053C38.7547 49.6053 36.5814 51.248 33.3414 49.2506L18.392 40.52L24.1707 29.7439Z" fill="#E4F3FF"/>
<path id="Vector_4" d="M20.64 42.0667L22.9253 39.9307C23.2975 39.5909 23.7692 39.3799 24.2706 39.329C24.772 39.2781 25.2765 39.3899 25.7093 39.648L35.5413 45.576C36.7627 46.312 36.936 47.9227 35.904 48.8747L34.6347 50.048C34.2954 50.3549 33.8734 50.5554 33.4211 50.6246C32.9689 50.6938 32.5063 50.6287 32.0907 50.4373L21.2347 45.4774C19.8453 44.84 19.536 43.0933 20.64 42.0667ZM26.0907 32.6667L28.2373 29.1467C28.4153 28.8622 28.684 28.6461 29 28.5334L33.6827 26.8267C34.2192 26.6303 34.8103 26.6456 35.336 26.8694L42.3653 29.872L34.688 31.9547C34.688 31.9547 32.3147 32.4614 30.8507 33.416C30.8507 33.416 28.3707 35.624 26.3813 33.848C26.3867 33.8534 25.76 33.248 26.088 32.6667H26.0907Z" fill="#A6D2FF"/>
<path id="Vector_5" d="M49.672 39.7599L47.912 40.5866C47.6918 40.6923 47.4395 40.71 47.2067 40.6362C46.9738 40.5623 46.7778 40.4025 46.6587 40.1893L40.8533 29.1679C40.7994 29.0634 40.7676 28.949 40.7597 28.8316C40.7519 28.7143 40.7682 28.5966 40.8077 28.4859C40.8472 28.3751 40.909 28.2736 40.9894 28.1878C41.0697 28.1019 41.1668 28.0334 41.2747 27.9866L43.0347 27.1599C43.2543 27.0548 43.5057 27.0371 43.7379 27.1104C43.9701 27.1837 44.1658 27.3425 44.2853 27.5546L50.0907 38.5733C50.1452 38.6779 50.1775 38.7927 50.1858 38.9104C50.1941 39.0281 50.1781 39.1462 50.1389 39.2575C50.0996 39.3687 50.0379 39.4707 49.9576 39.5572C49.8773 39.6436 49.7801 39.7126 49.672 39.7599Z" fill="#EDF7FF"/>
<path id="Vector_6" d="M59.2027 37.3359L51.008 41.1866C50.7878 41.2923 50.5355 41.31 50.3027 41.2362C50.0698 41.1623 49.8738 41.0025 49.7547 40.7893L42.216 26.4746C42.162 26.3703 42.13 26.2559 42.122 26.1387C42.114 26.0215 42.1301 25.9039 42.1693 25.7932C42.2086 25.6825 42.2701 25.581 42.3502 25.495C42.4302 25.409 42.527 25.3403 42.6347 25.2933L50.832 21.4426C51.0523 21.3369 51.3045 21.3192 51.5374 21.393C51.7703 21.4669 51.9662 21.6267 52.0854 21.8399L59.6214 36.1546C59.6753 36.2589 59.7073 36.3733 59.7154 36.4905C59.7234 36.6077 59.7073 36.7253 59.6681 36.836C59.6288 36.9467 59.5673 37.0482 59.4872 37.1342C59.4072 37.2202 59.3103 37.2889 59.2027 37.3359Z" fill="#66A7F4"/>
<path id="Vector_7" d="M16.4613 39.76L18.2213 40.5866C18.4416 40.6923 18.6938 40.71 18.9267 40.6362C19.1596 40.5624 19.3555 40.4026 19.4747 40.1893L25.28 29.1733C25.3339 29.0688 25.3658 28.9543 25.3736 28.837C25.3815 28.7197 25.3651 28.602 25.3256 28.4912C25.2861 28.3805 25.2243 28.279 25.144 28.1931C25.0636 28.1072 24.9665 28.0388 24.8587 27.992L23.0987 27.1653C22.879 27.0602 22.6276 27.0425 22.3954 27.1158C22.1632 27.1891 21.9675 27.3478 21.848 27.56L16.0427 38.5786C15.8107 39.0133 16 39.5386 16.4613 39.76Z" fill="#A6D2FF"/>
<path id="Vector_8" d="M6.93065 37.3359L15.1253 41.1866C15.3456 41.2923 15.5978 41.31 15.8307 41.2362C16.0635 41.1623 16.2595 41.0025 16.3786 40.7892L23.9173 26.4746C23.9713 26.3702 24.0033 26.2559 24.0113 26.1387C24.0194 26.0215 24.0033 25.9039 23.964 25.7932C23.9248 25.6824 23.8632 25.5809 23.7832 25.495C23.7031 25.409 23.6063 25.3403 23.4986 25.2932L15.3013 21.4399C15.0811 21.3342 14.8288 21.3165 14.596 21.3903C14.3631 21.4642 14.1671 21.624 14.048 21.8372L6.51198 36.1519C6.458 36.2563 6.426 36.3706 6.41796 36.4878C6.40993 36.605 6.42604 36.7226 6.46528 36.8333C6.50452 36.9441 6.56607 37.0456 6.64612 37.1315C6.72616 37.2175 6.82301 37.2862 6.93065 37.3332V37.3359Z" fill="#66A7F4"/>
<path id="Vector_9" d="M5.33331 10.6666C5.33331 12.0811 5.89522 13.4376 6.89541 14.4378C7.8956 15.438 9.25216 15.9999 10.6666 15.9999C12.0811 15.9999 13.4377 15.438 14.4379 14.4378C15.4381 13.4376 16 12.0811 16 10.6666C16 9.2521 15.4381 7.89554 14.4379 6.89535C13.4377 5.89515 12.0811 5.33325 10.6666 5.33325C9.25216 5.33325 7.8956 5.89515 6.89541 6.89535C5.89522 7.89554 5.33331 9.2521 5.33331 10.6666Z" fill="#5BADFF"/>
<path id="Vector_10" d="M48 53.3333C48 54.7478 48.5619 56.1044 49.5621 57.1046C50.5623 58.1048 51.9188 58.6667 53.3333 58.6667C54.7478 58.6667 56.1044 58.1048 57.1046 57.1046C58.1048 56.1044 58.6667 54.7478 58.6667 53.3333C58.6667 51.9188 58.1048 50.5623 57.1046 49.5621C56.1044 48.5619 54.7478 48 53.3333 48C51.9188 48 50.5623 48.5619 49.5621 49.5621C48.5619 50.5623 48 51.9188 48 53.3333Z" fill="#FFC13C"/>
</g>
<defs>
<clipPath id="clip0_1121_2118">
<rect width="64" height="64" fill="white"/>
</clipPath>
</defs>
</svg>
