<svg width="24" height="24" xmlns="http://www.w3.org/2000/svg" fill="none">
 <defs>
  <linearGradient y2="1" x2="0.5" y1="0" x1="0.5" id="paint0_linear_1810_702">
   <stop stop-color="#A2A4F4"/>
   <stop stop-color="#716AF6" offset="1"/>
  </linearGradient>
 </defs>
 <g>
  <title>Layer 1</title>
  <path id="svg_1" fill="url(#paint0_linear_1810_702)" d="m12.6749,10.3496l2.925,1.35l-2.925,0.9l0,-2.25zm-1.275,2.25l-3.45,-1.125l3.45,-1.2l0,2.325zm0,-3.59999l-5.25,1.87499l-5.775,-1.87499l11.025,-8.025l0,8.025zm-0.3,4.72499l-1.575,2.175l-2.025,-3.3l3.6,1.125zm0.975,0.75l3.375,4.725l-5.1,-2.475l1.725,-2.25zm-2.4,3.225l7.275,3.525l1.725,2.475l-13.35,0l4.35,-6zm3.3,-3.975l3.675,-1.125l0.075,6.225l-3.75,-5.1zm4.275,-2.625l-4.575,-2.02499l0,-8.025l11.025,7.95l-6.45,2.09999zm-17.1,-0.9l5.625,1.8l3,4.95l-4.5,6.075l-4.125,-12.825zm19.575,12.75l-1.8,-2.475l-0.075,-8.325l6,-1.95l-4.125,12.75z"/>
 </g>
</svg>