<svg width="32" height="32" viewBox="0 0 32 32" fill="none" xmlns="http://www.w3.org/2000/svg">
<g clip-path="url(#clip0_1743_1883)">
<path d="M30.3289 29.0524V5.77979C30.3289 4.45343 29.2621 3.36816 27.9581 3.36816H5.31803C4.0142 3.36816 2.94737 4.45343 2.94737 5.77979V29.0522H30.3289V29.0524Z" fill="#26282B"/>
<path d="M27.9581 3.36816H5.31803C4.0142 3.36816 2.94737 4.45343 2.94737 5.77979V8.67374H30.3289V5.77979C30.3289 4.45343 29.2621 3.36816 27.9581 3.36816Z" fill="#4B555D"/>
<path d="M19.1579 12.21H27.579V16.8415H19.1579V12.21Z" fill="#7E848C"/>
<path d="M19.1579 18.1055H27.579V25.2634H19.1579V18.1055Z" fill="#59616A"/>
<path d="M9.12025 7.16502C9.25946 7.16583 9.39746 7.1391 9.5263 7.08639C9.65514 7.03367 9.77229 6.95601 9.87101 6.85786C9.96974 6.75971 10.0481 6.64301 10.1015 6.51447C10.155 6.38593 10.1825 6.2481 10.1825 6.10889C10.1825 5.96968 10.155 5.83184 10.1015 5.7033C10.0481 5.57477 9.96974 5.45807 9.87101 5.35992C9.77229 5.26177 9.65514 5.1841 9.5263 5.13138C9.39746 5.07867 9.25946 5.05195 9.12025 5.05275C8.84121 5.05437 8.57414 5.16635 8.3774 5.36424C8.18065 5.56213 8.07021 5.82984 8.07021 6.10889C8.07021 6.38794 8.18065 6.65565 8.3774 6.85354C8.57414 7.05142 8.84121 7.16341 9.12025 7.16502Z" fill="#E6C029"/>
<path d="M6.10267 7.16502C6.24188 7.16583 6.37987 7.1391 6.50872 7.08639C6.63756 7.03367 6.75471 6.95601 6.85343 6.85786C6.95215 6.75971 7.0305 6.64301 7.08396 6.51447C7.13741 6.38593 7.16494 6.2481 7.16494 6.10889C7.16494 5.96968 7.13741 5.83184 7.08396 5.7033C7.0305 5.57477 6.95215 5.45807 6.85343 5.35992C6.75471 5.26177 6.63756 5.1841 6.50872 5.13138C6.37987 5.07867 6.24188 5.05195 6.10267 5.05275C5.82363 5.05437 5.55656 5.16635 5.35981 5.36424C5.16307 5.56213 5.05263 5.82984 5.05263 6.10889C5.05263 6.38794 5.16307 6.65565 5.35981 6.85354C5.55656 7.05142 5.82363 7.16341 6.10267 7.16502Z" fill="#EA7E7A"/>
<path d="M12.1378 7.16502C12.277 7.16583 12.415 7.1391 12.5439 7.08639C12.6727 7.03367 12.7899 6.95601 12.8886 6.85786C12.9873 6.75971 13.0657 6.64301 13.1191 6.51447C13.1726 6.38593 13.2001 6.2481 13.2001 6.10889C13.2001 5.96968 13.1726 5.83184 13.1191 5.7033C13.0657 5.57477 12.9873 5.45807 12.8886 5.35992C12.7899 5.26177 12.6727 5.1841 12.5439 5.13138C12.415 5.07867 12.277 5.05195 12.1378 5.05275C11.8588 5.05437 11.5917 5.16635 11.395 5.36424C11.1982 5.56213 11.0878 5.82984 11.0878 6.10889C11.0878 6.38794 11.1982 6.65565 11.395 6.85354C11.5917 7.05142 11.8588 7.16341 12.1378 7.16502Z" fill="#7FD162"/>
</g>
<g clip-path="url(#clip1_1743_1883)">
<path d="M9.74505 12.1521L11.4309 13.2824L13.6813 12.3908C14.0622 12.2405 14.1948 12.3709 14.0932 12.7887L13.4388 15.0972L14.9361 16.9062C15.1498 17.1692 14.9656 17.4993 14.6222 17.4728L12.3328 17.5664L11.0824 19.5389C10.9129 19.7998 10.6204 19.8631 10.4723 19.4999L9.64337 17.2783L7.38716 16.7043C6.95831 16.607 6.96863 16.2887 7.26779 16.0588L9.08631 14.6308L8.95737 12.606C8.93674 11.9465 9.23737 11.7837 9.74579 12.1521H9.74505ZM1.33473 13.9809L2.57631 14.3427L3.77074 13.3679C3.97337 13.2043 4.07874 13.2573 4.09789 13.5307L4.14358 15.0582L5.40137 15.8687C5.58189 15.9873 5.534 16.2239 5.32031 16.2732L3.94831 16.7706L3.5681 18.2089C3.51505 18.4005 3.35 18.4948 3.1901 18.3025L2.25947 17.1132L0.778419 17.1987C0.499893 17.2223 0.443893 17.027 0.582419 16.8303L1.41137 15.613L0.944209 14.4083C0.804945 14.0111 0.956735 13.8549 1.33547 13.9809H1.33473ZM10.8326 21.7163L11.6181 22.322L12.7447 21.9602C12.9348 21.8998 12.9953 21.9675 12.9319 22.168L12.5384 23.2725L13.2097 24.2031C13.3047 24.3387 13.2045 24.4934 13.038 24.4691L11.9187 24.4404L11.2445 25.3614C11.1539 25.4838 11.0087 25.5044 10.9483 25.3231L10.6167 24.2127L9.53431 23.8598C9.328 23.7986 9.34421 23.6431 9.49747 23.5414L10.4303 22.9041L10.4333 21.9123C10.4451 21.5895 10.5976 21.5203 10.8326 21.7163ZM8.38779 18.36C8.82989 18.8021 8.82989 19.519 8.38779 19.9619L2.50558 25.8448C2.29098 26.0464 2.00635 26.1566 1.71196 26.152C1.41756 26.1474 1.13651 26.0284 0.928312 25.8202C0.720116 25.612 0.601122 25.3309 0.596525 25.0365C0.591928 24.7421 0.702089 24.4575 0.903682 24.2429L6.78589 18.36C7.228 17.9179 7.94568 17.9179 8.38779 18.36Z" fill="url(#paint0_linear_1743_1883)"/>
</g>
<defs>
<linearGradient id="paint0_linear_1743_1883" x1="0.509651" y1="19.0555" x2="15.0275" y2="19.0555" gradientUnits="userSpaceOnUse">
<stop stop-color="#1C1CFE"/>
<stop offset="0.0625" stop-color="#0041FF"/>
<stop offset="0.125" stop-color="#0058FF"/>
<stop offset="0.1875" stop-color="#006AFF"/>
<stop offset="0.25" stop-color="#0079FF"/>
<stop offset="0.3125" stop-color="#0086FF"/>
<stop offset="0.375" stop-color="#0092FF"/>
<stop offset="0.4375" stop-color="#009DFF"/>
<stop offset="0.5" stop-color="#00A7FF"/>
<stop offset="0.5625" stop-color="#00B1F4"/>
<stop offset="0.625" stop-color="#00BAE3"/>
<stop offset="0.6875" stop-color="#00C3D1"/>
<stop offset="0.75" stop-color="#00CCC0"/>
<stop offset="0.8125" stop-color="#00D4AF"/>
<stop offset="0.875" stop-color="#00DBA0"/>
<stop offset="0.9375" stop-color="#00E294"/>
<stop offset="1" stop-color="#2CE88A"/>
</linearGradient>
<clipPath id="clip0_1743_1883">
<rect width="27.3684" height="25.6842" fill="white" transform="translate(2.94737 3.36816)"/>
</clipPath>
<clipPath id="clip1_1743_1883">
<rect width="14.7368" height="14.7368" fill="white" transform="translate(0.421051 11.7891)"/>
</clipPath>
</defs>
</svg>
