<svg width="24" height="25" viewBox="0 0 24 25" fill="none" xmlns="http://www.w3.org/2000/svg">
<g id="&#229;&#143;&#179;&#228;&#184;&#138;&#232;&#167;&#146;&#231;&#174;&#173;&#229;&#164;&#180; 1">
<g id="Vector">
<path d="M7.07447 19.3571C6.74585 19.6857 6.20121 19.6739 5.85798 19.3306C5.51817 18.9908 5.50316 18.4536 5.82174 18.1241L5.83152 18.1142L16.5273 7.41837C16.8559 7.08974 17.4005 7.10159 17.7438 7.44482C18.0836 7.78463 18.0986 8.32184 17.78 8.65141L17.7702 8.66132L7.07447 19.3571Z" fill="url(#paint0_linear_1221_1791)"/>
<path d="M18.5062 16.9402C18.5062 17.4255 18.1127 17.8191 17.6273 17.8191C17.1467 17.8191 16.7562 17.4334 16.7485 16.9547L16.7484 16.9402V7.53585C16.7484 7.05043 17.1419 6.65695 17.6273 6.65695C18.1078 6.65695 18.4983 7.04261 18.5061 7.52131L18.5062 7.53585V16.9402Z" fill="url(#paint1_linear_1221_1791)"/>
<path d="M8.25484 8.40918C7.76944 8.40918 7.37594 8.01569 7.37594 7.53027C7.37594 7.04973 7.7616 6.65926 8.24032 6.6515L8.25484 6.65137H17.6464C18.1318 6.65137 18.5253 7.04488 18.5253 7.53027C18.5253 8.01082 18.1396 8.40131 17.6609 8.40907L17.6464 8.40918H8.25484Z" fill="url(#paint2_linear_1221_1791)"/>
</g>
</g>
<defs>
<linearGradient id="paint0_linear_1221_1791" x1="-3.00018" y1="13.1237" x2="18.9998" y2="13.1181" gradientUnits="userSpaceOnUse">
<stop stop-color="#00FFC8"/>
<stop offset="1" stop-color="#1A4CFF"/>
</linearGradient>
<linearGradient id="paint1_linear_1221_1791" x1="-3.00018" y1="13.1237" x2="18.9998" y2="13.1181" gradientUnits="userSpaceOnUse">
<stop stop-color="#00FFC8"/>
<stop offset="1" stop-color="#1A4CFF"/>
</linearGradient>
<linearGradient id="paint2_linear_1221_1791" x1="-3.00018" y1="13.1237" x2="18.9998" y2="13.1181" gradientUnits="userSpaceOnUse">
<stop stop-color="#00FFC8"/>
<stop offset="1" stop-color="#1A4CFF"/>
</linearGradient>
</defs>
</svg>
