<svg width="64" height="64" viewBox="0 0 64 64" fill="none" xmlns="http://www.w3.org/2000/svg">
<g id="BEGIN_CHAT 1">
<path id="Vector" d="M40 38.6666C39.9999 39.5421 40.1723 40.4091 40.5073 41.218C40.8423 42.0269 41.3333 42.7619 41.9524 43.381C42.5715 44.0002 43.3064 44.4913 44.1153 44.8264C44.9242 45.1614 45.7911 45.3339 46.6667 45.3339C47.5422 45.3339 48.4092 45.1614 49.218 44.8264C50.0269 44.4913 50.7619 44.0002 51.3809 43.381C52 42.7619 52.4911 42.0269 52.826 41.218C53.161 40.4091 53.3334 39.5421 53.3333 38.6666C53.3334 37.791 53.161 36.9241 52.826 36.1152C52.4911 35.3062 52 34.5712 51.3809 33.9521C50.7619 33.333 50.0269 32.8419 49.218 32.5068C48.4092 32.1717 47.5422 31.9993 46.6667 31.9993C45.7911 31.9993 44.9242 32.1717 44.1153 32.5068C43.3064 32.8419 42.5715 33.333 41.9524 33.9521C41.3333 34.5712 40.8423 35.3062 40.5073 36.1152C40.1723 36.9241 39.9999 37.791 40 38.6666Z" fill="#B0D8F8"/>
<path id="Vector_2" d="M56.1334 50C54.2667 49.2 51.0667 48 46.6667 48C42.2667 48 38.9334 49.2 37.2 50C35.7334 50.8 34.6667 52.2667 34.6667 53.7333V58.6667H58.6667V54C58.6667 52.4 57.7334 50.9333 56.1334 50Z" fill="#B0D8F8"/>
<path id="Vector_3" d="M10.6667 38.6666C10.6666 39.5421 10.839 40.4091 11.174 41.218C11.509 42.0269 12 42.7619 12.6191 43.381C13.2381 44.0002 13.9731 44.4913 14.782 44.8264C15.5909 45.1614 16.4578 45.3339 17.3334 45.3339C18.2089 45.3339 19.0758 45.1614 19.8847 44.8264C20.6936 44.4913 21.4286 44.0002 22.0476 43.381C22.6667 42.7619 23.1577 42.0269 23.4927 41.218C23.8277 40.4091 24.0001 39.5421 24 38.6666C24.0001 37.791 23.8277 36.9241 23.4927 36.1152C23.1577 35.3062 22.6667 34.5712 22.0476 33.9521C21.4286 33.333 20.6936 32.8419 19.8847 32.5068C19.0758 32.1717 18.2089 31.9993 17.3334 31.9993C16.4578 31.9993 15.5909 32.1717 14.782 32.5068C13.9731 32.8419 13.2381 33.333 12.6191 33.9521C12 34.5712 11.509 35.3062 11.174 36.1152C10.839 36.9241 10.6666 37.791 10.6667 38.6666Z" fill="#B0D8F8"/>
<path id="Vector_4" d="M26.8 50C24.9333 49.2 21.7333 48 17.3333 48C12.9333 48 9.59998 49.2 7.86665 50C6.26665 50.9333 5.33331 52.4 5.33331 53.8667V58.6667H29.3333V54C29.3333 52.4 28.4 50.9333 26.8 50Z" fill="#B0D8F8"/>
<path id="Vector_5" d="M32 10.6667H53.3333C54.8 10.6667 56 11.8667 56 13.3334V32.0001L49.6 26.6667H32C30.5333 26.6667 29.3333 25.4667 29.3333 24.0001V13.3334C29.3333 11.8667 30.5333 10.6667 32 10.6667Z" fill="#FDDC89"/>
<path id="Vector_6" d="M32 5.33325H10.6667C9.2 5.33325 8 6.53325 8 7.99992V26.6666L14.4 21.3333H32C33.4667 21.3333 34.6667 20.1333 34.6667 18.6666V7.99992C34.6667 6.53325 33.4667 5.33325 32 5.33325Z" fill="#7FC1FF"/>
</g>
</svg>
