<svg width="64" height="64" viewBox="0 0 64 64" fill="none" xmlns="http://www.w3.org/2000/svg">
<g id="&#230;&#158;&#129;&#233;&#128;&#159;&#229;&#187;&#186;&#231;&#171;&#153; 1">
<path id="Vector" d="M57.542 3.00152C58.724 3.00273 59.8572 3.47967 60.693 4.32766C61.5287 5.17566 61.9988 6.32544 62 7.52468V44.9588C61.9988 46.158 61.5287 47.3078 60.693 48.1558C59.8572 49.0038 58.724 49.4807 57.542 49.4819H36.4588V57.7104H43.3529C43.7829 57.7104 44.1952 57.8837 44.4992 58.1922C44.8032 58.5006 44.974 58.919 44.974 59.3552C44.974 59.7914 44.8032 60.2098 44.4992 60.5183C44.1952 60.8267 43.7829 61 43.3529 61H20.6486C20.2186 61 19.8063 60.8267 19.5023 60.5183C19.1983 60.2098 19.0275 59.7914 19.0275 59.3552C19.0275 58.919 19.1983 58.5006 19.5023 58.1922C19.8063 57.8837 20.2186 57.7104 20.6486 57.7104H27.5427V49.4804H6.45801C5.27616 49.4788 4.14317 49.0017 3.30748 48.1538C2.47178 47.3059 2.00159 46.1564 2 44.9573V7.52316C2.00159 6.32404 2.47178 5.17449 3.30747 4.32658C4.14317 3.47868 5.27616 3.00161 6.45801 3H57.542V3.00152ZM57.1397 43.8881C57.5609 43.8751 57.9606 43.6962 58.254 43.3893C58.5474 43.0824 58.7115 42.6717 58.7115 42.2441C58.7115 41.8166 58.5474 41.4058 58.254 41.0989C57.9606 40.792 57.5609 40.6131 57.1397 40.6001H6.86028C6.43034 40.6001 6.01801 40.7734 5.71399 41.0818C5.40998 41.3903 5.23919 41.8087 5.23919 42.2449C5.23919 42.6811 5.40998 43.0995 5.71399 43.4079C6.01801 43.7164 6.43034 43.8897 6.86028 43.8897H57.1397V43.8881ZM38.7433 23.3512C39.4188 22.4785 39.0765 21.7734 37.9943 21.7734H34.1217L35.1694 13.3698C35.375 11.725 34.7191 11.4539 33.7104 12.7606L25.2582 23.6954C24.5827 24.568 24.9265 25.2731 26.0087 25.2731H29.8813L28.649 35.1662C28.5469 35.9871 28.8741 36.1257 29.377 35.4738L38.7448 23.3512H38.7433Z" fill="#5DB1FF"/>
</g>
</svg>
