<svg width="48" height="48" viewBox="0 0 48 48" fill="none" xmlns="http://www.w3.org/2000/svg">
<path d="M14.625 39.1875C13.8484 39.1875 13.2188 38.5579 13.2188 37.7812V34.4062C13.2188 33.6296 13.8484 33 14.625 33C15.4016 33 16.0312 33.6296 16.0312 34.4062V37.7812C16.0312 38.5579 15.4016 39.1875 14.625 39.1875ZM33.4688 39.1875C32.6921 39.1875 32.0625 38.5579 32.0625 37.7812V34.4062C32.0625 33.6296 32.6921 33 33.4688 33C34.2454 33 34.875 33.6296 34.875 34.4062V37.7812C34.875 38.5579 34.2454 39.1875 33.4688 39.1875Z" fill="url(#paint0_linear_69_1412)"/>
<path d="M34.875 34.2188H13.125C11.6258 34.2188 10.4062 32.9992 10.4062 31.5001V24.6563C10.4062 24.5513 10.4122 24.4477 10.4237 24.3458L10.4273 24.3135L10.4278 24.311C10.5264 23.5292 10.962 22.8289 11.623 22.3896L11.8777 22.2203L12.0392 21.9605L14.4133 18.1391L14.6251 17.7983V17.397C14.6251 15.7134 15.8448 14.3438 17.3438 14.3438H30.6563C32.1554 14.3438 33.3751 15.7134 33.3751 17.397V17.7983L33.587 18.1391L35.9611 21.9606L36.1224 22.2203L36.3772 22.3897C37.0382 22.8291 37.4738 23.5293 37.5724 24.311L37.5758 24.3383L37.5765 24.3456C37.588 24.4476 37.5939 24.5512 37.5939 24.6563V31.5C37.5938 32.9992 36.3741 34.2188 34.875 34.2188Z" fill="url(#paint1_linear_69_1412)"/>
<path fill-rule="evenodd" clip-rule="evenodd" d="M32.3922 18.8812L33.4174 20.5312H14.5824L15.6076 18.8812L16.0312 18.1995V17.397C16.0312 16.5042 16.6322 15.75 17.3437 15.75H30.6562C31.3676 15.75 31.9687 16.5042 31.9687 17.397V18.1995L32.3922 18.8812ZM9 24.6562C9 24.5044 9.00817 24.3545 9.0242 24.2069L9.02634 24.1875H9L9.03262 24.1349C9.04101 24.0684 9.05098 24.0024 9.0625 23.9369C9.15633 23.4034 9.35268 22.9051 9.63052 22.4633C9.75236 22.2696 9.88988 22.0866 10.0413 21.9164C10.1806 21.7597 10.3317 21.6137 10.4931 21.4798C10.6054 21.3866 10.7228 21.2993 10.8446 21.2183L13.2188 17.397C13.2188 14.9341 15.0656 12.9375 17.3438 12.9375H30.6562C32.9345 12.9375 34.7812 14.9341 34.7812 17.397L37.1553 21.2182C38.0065 21.784 38.6356 22.6575 38.8838 23.6799C38.9199 23.8286 38.9479 23.9804 38.9674 24.1349L39 24.1875H38.9738C38.9902 24.3331 38.9989 24.4795 38.9999 24.626L38.9999 24.6303C39 24.639 39 24.6476 39 24.6562V31.5C39 33.7782 37.1532 35.625 34.875 35.625H13.125C10.8468 35.625 9 33.7782 9 31.5V24.6562Z" fill="url(#paint2_linear_69_1412)"/>
<path d="M20.25 9.1875H27.75V12H20.25V9.1875ZM28.0312 29.5312H19.9688C19.1921 29.5312 18.5625 28.9016 18.5625 28.125C18.5625 27.3484 19.1921 26.7188 19.9688 26.7188H28.0312C28.8079 26.7188 29.4375 27.3484 29.4375 28.125C29.4375 28.9016 28.8079 29.5312 28.0312 29.5312Z" fill="url(#paint3_linear_69_1412)"/>
<path d="M13.2188 28.125C13.2188 28.5974 13.4064 29.0505 13.7405 29.3845C14.0745 29.7186 14.5276 29.9062 15 29.9062C15.4724 29.9062 15.9255 29.7186 16.2595 29.3845C16.5936 29.0505 16.7812 28.5974 16.7812 28.125C16.7812 27.6526 16.5936 27.1995 16.2595 26.8655C15.9255 26.5314 15.4724 26.3438 15 26.3438C14.5276 26.3438 14.0745 26.5314 13.7405 26.8655C13.4064 27.1995 13.2188 27.6526 13.2188 28.125Z" fill="url(#paint4_linear_69_1412)"/>
<path d="M31.2188 28.125C31.2187 28.3589 31.2648 28.5905 31.3543 28.8067C31.4439 29.0228 31.5751 29.2191 31.7405 29.3845C31.9059 29.5499 32.1022 29.6811 32.3183 29.7707C32.5345 29.8602 32.7661 29.9062 33 29.9062C33.2339 29.9062 33.4655 29.8602 33.6817 29.7707C33.8978 29.6811 34.0941 29.5499 34.2595 29.3845C34.4249 29.2191 34.5561 29.0228 34.6457 28.8067C34.7352 28.5905 34.7813 28.3589 34.7812 28.125C34.7813 27.8911 34.7352 27.6595 34.6457 27.4433C34.5561 27.2272 34.4249 27.0309 34.2595 26.8655C34.0941 26.7001 33.8978 26.5689 33.6817 26.4793C33.4655 26.3898 33.2339 26.3438 33 26.3438C32.7661 26.3438 32.5345 26.3898 32.3183 26.4793C32.1022 26.5689 31.9059 26.7001 31.7405 26.8655C31.5751 27.0309 31.4439 27.2272 31.3543 27.4433C31.2648 27.6595 31.2187 27.8911 31.2188 28.125Z" fill="url(#paint5_linear_69_1412)"/>
<defs>
<linearGradient id="paint0_linear_69_1412" x1="25.5" y1="33" x2="25.5" y2="39" gradientUnits="userSpaceOnUse">
<stop stop-color="#53C29C"/>
<stop offset="1" stop-color="#40B08A"/>
</linearGradient>
<linearGradient id="paint1_linear_69_1412" x1="24.0001" y1="14.3437" x2="24.0001" y2="34.2188" gradientUnits="userSpaceOnUse">
<stop stop-color="#E1F3ED"/>
<stop offset="1" stop-color="#C3EDE0"/>
</linearGradient>
<linearGradient id="paint2_linear_69_1412" x1="12.8647" y1="11.3592" x2="20.7176" y2="29.5917" gradientUnits="userSpaceOnUse">
<stop stop-color="#EAF7F2"/>
<stop offset="1" stop-color="#40B08A"/>
</linearGradient>
<linearGradient id="paint3_linear_69_1412" x1="24" y1="9.1875" x2="24" y2="29.5312" gradientUnits="userSpaceOnUse">
<stop stop-color="#E1F3ED"/>
<stop offset="1" stop-color="#C3EDE0"/>
</linearGradient>
<linearGradient id="paint4_linear_69_1412" x1="15" y1="26.3438" x2="15" y2="29.9062" gradientUnits="userSpaceOnUse">
<stop stop-color="#E1F3ED"/>
<stop offset="1" stop-color="#C3EDE0"/>
</linearGradient>
<linearGradient id="paint5_linear_69_1412" x1="33" y1="26.3438" x2="33" y2="29.9062" gradientUnits="userSpaceOnUse">
<stop stop-color="#E1F3ED"/>
<stop offset="1" stop-color="#C3EDE0"/>
</linearGradient>
</defs>
</svg>
