<svg width="14" height="14" xmlns="http://www.w3.org/2000/svg" fill="none">

 <g>
  <title>Layer 1</title>
  <rect id="svg_1" fill="#0087C2" rx="2" height="14" width="14"/>
  <path id="svg_2" fill="white" d="m5.42734,10.7532c-0.14649,0 -0.29297,-0.0562 -0.4043,-0.1676l-3.12656,-3.12652c-0.22383,-0.22383 -0.22383,-0.58594 0,-0.80976c0.22383,-0.22383 0.58594,-0.22383 0.80976,0l3.12657,3.12773c0.22382,0.22385 0.22382,0.58595 0,0.80975c-0.1125,0.1113 -0.25899,0.1664 -0.40547,0.1664z"/>
  <path id="svg_3" fill="white" d="m5.42733,10.7538c-0.14648,0 -0.29297,-0.0562 -0.4043,-0.1676c-0.22382,-0.2238 -0.22382,-0.5859 0,-0.80973l6.25427,-6.25313c0.2239,-0.22383 0.586,-0.22383 0.8098,0c0.2238,0.22383 0.2238,0.58594 0,0.80977l-6.2543,6.25309c-0.1125,0.1125 -0.25898,0.1676 -0.40547,0.1676z"/>
 </g>
</svg>