<svg width="64" height="64" viewBox="0 0 64 64" fill="none" xmlns="http://www.w3.org/2000/svg">
<g id="&#228;&#186;&#145;&#231;&#155;&#152; 1">
<path id="Vector" opacity="0.7" d="M48.6613 23.3814C47.936 14.8267 40.7467 8.10669 32 8.10669C23.2533 8.10669 16.064 14.8267 15.3386 23.3814C9.51465 25.1307 5.29065 30.5067 5.29065 36.8854C5.29065 44.672 11.6053 50.9867 19.392 50.9867H44.6507C52.4373 50.9867 58.752 44.672 58.752 36.8854C58.7307 30.5067 54.4853 25.1307 48.6613 23.3814ZM40.64 36.4587C39.2107 37.824 36.7573 39.5734 33.3013 40.128C32.5973 40.2347 31.9146 40.2987 31.2533 40.2987C26.7093 40.2987 23.36 37.9307 22.3573 37.12C21.2267 36.2027 21.0346 34.5387 21.952 33.408C22.8693 32.2774 24.5333 32.0854 25.664 33.0027C26.3893 33.6 29.0346 35.456 32.4693 34.9227C34.688 34.56 36.2453 33.344 36.9706 32.6614C38.0373 31.6587 39.7013 31.7014 40.704 32.7467C41.7493 33.7707 41.7066 35.456 40.64 36.4587Z" fill="#1890FF"/>
</g>
</svg>
