<svg width="1024" height="1024" xmlns="http://www.w3.org/2000/svg" p-id="3668" version="1.1" class="icon" t="1749541555283">

 <g>
  <title>Layer 1</title>
  <path id="svg_1" class="selected" data-spm-anchor-id="a313x.search_index.0.i8.662f3a81axzsZH" p-id="3669" fill="#8a8a8a" d="m536.38095,48.7619c256,0 463.2381,207.2381 463.2381,463.2381s-207.2381,463.23809 -463.2381,463.23809l-48.7619,0c-256,0.00001 -463.2381,-207.23809 -463.2381,-463.23809s207.2381,-463.23809 463.2381,-463.23809l48.7619,0m0,-24.38096l-48.7619,0c-268.19048,0 -487.61905,219.42857 -487.61905,487.61905s219.42857,487.61905 487.61905,487.61905l48.7619,0c268.19048,0 487.61905,-219.42857 487.61905,-487.61905s-219.42857,-487.61905 -487.61905,-487.61905z"/>
  <path id="svg_2" class="selected" data-spm-anchor-id="a313x.search_index.0.i10.662f3a81axzsZH" p-id="3670" fill="#8a8a8a" d="m687.54286,828.95238c-12.19048,0 -21.94286,-2.43809 -34.13334,-7.31429l-141.40952,-65.82857l-141.40952,65.82858c-24.38096,12.19047 -51.2,9.75238 -68.26667,-2.4381c-17.06667,-12.19048 -26.81905,-36.57143 -24.38095,-63.39048l17.06666,-156.03809l-104.83809,-114.59048c-17.06667,-21.94285 -24.38095,-46.32381 -17.06667,-68.26666c7.31429,-21.94286 26.81905,-36.57143 53.6381,-41.44762l153.6,-31.69524l75.58095,-136.53333c14.62857,-21.94286 34.13333,-36.57143 56.07619,-36.57143c21.94286,0 43.88571,14.62857 56.07619,39.00952l75.58095,136.53333l153.6,31.69524c26.81905,4.87619 46.32381,21.94286 53.6381,41.44762c7.31428,21.94286 0,43.88572 -19.50476,65.82857l-104.8381,114.59048l17.06667,156.03809c2.43809,26.81905 -4.87619,51.2 -24.38095,63.39048c-7.31429,7.31429 -19.50477,9.75238 -31.69524,9.75238zm-175.54286,-126.78095l160.91429,75.58095c9.75238,2.4381 17.06666,2.4381 19.50476,2.4381c2.43809,-2.4381 4.87619,-9.75239 2.43809,-19.50477l-19.50476,-177.98095l119.46667,-131.65714c7.31428,-7.31429 9.75238,-14.62857 7.31428,-17.06667c0,-2.43809 -7.31428,-7.31428 -17.06666,-9.75238l-175.54286,-34.13333l-87.77143,-156.0381c0,-9.75238 -7.31429,-14.62857 -9.75238,-14.62857c-2.43809,0 -9.75238,4.87619 -14.62857,14.62857l-87.77143,156.0381l-175.54286,34.13333c-9.75238,2.4381 -17.06666,4.87619 -17.06666,9.75238c0,2.4381 2.43809,9.75238 7.31428,17.06667l119.46667,131.65714l-19.50476,177.98095c-2.4381,9.75238 0,17.06667 2.43809,19.50477c2.4381,2.43809 9.75238,2.43809 19.50476,-2.4381l165.79048,-75.58095z"/>
 </g>
</svg>