<svg width="48" height="48" viewBox="0 0 48 48" fill="none" xmlns="http://www.w3.org/2000/svg">
<path d="M12.75 9.1875H35.25C37.3211 9.1875 39 10.8665 39 12.9375V35.4375C39 37.5086 37.3211 39.1875 35.25 39.1875H12.75C10.679 39.1875 9 37.5086 9 35.4375V12.9375C9 10.8665 10.679 9.1875 12.75 9.1875Z" fill="url(#paint0_linear_69_1491)"/>
<path d="M35.25 39.1875H12.75C10.6823 39.1875 9 37.5052 9 35.4375V12.9375C9 10.8698 10.6823 9.1875 12.75 9.1875H35.25C37.3177 9.1875 39 10.8698 39 12.9375V35.4375C39 37.5052 37.3177 39.1875 35.25 39.1875ZM12.75 12C12.2331 12 11.8125 12.4206 11.8125 12.9375V35.4375C11.8125 35.9544 12.2331 36.375 12.75 36.375H35.25C35.7669 36.375 36.1875 35.9544 36.1875 35.4375V12.9375C36.1875 12.4206 35.7669 12 35.25 12H12.75Z" fill="url(#paint1_linear_69_1491)"/>
<path d="M32.4715 18.8174C33.024 18.2715 33.0293 17.3811 32.4834 16.8287V16.8287C31.9375 16.2762 31.0471 16.2709 30.4946 16.8169L24.6596 22.5829C24.3072 22.9312 23.7389 22.927 23.3917 22.5736L20.738 19.8726L20.7296 19.8808L20.439 19.5618C20.0965 19.1857 19.5139 19.1585 19.1378 19.5011L15.6088 22.715C15.0346 23.2379 14.993 24.1273 15.516 24.7015V24.7015C16.0389 25.2757 16.9283 25.3172 17.5025 24.7943L19.0853 23.3528C19.4181 23.0497 19.9309 23.064 20.2463 23.385L23.1327 26.323C23.6016 26.8002 24.3685 26.807 24.8458 26.3382L25.4972 25.6982L25.5028 25.7038L32.4715 18.8174Z" fill="url(#paint2_linear_69_1491)"/>
<path d="M32.1881 33.0938H32.1912C32.9665 33.0938 33.5957 32.4663 33.5974 31.6906C33.599 30.914 32.9708 30.283 32.1941 30.2813L15.8683 30.2461H15.8652C15.0899 30.2461 14.4607 30.8738 14.459 31.6493C14.4573 32.426 15.0855 33.0569 15.8622 33.0586L32.1881 33.0938Z" fill="url(#paint3_linear_69_1491)"/>
<defs>
<linearGradient id="paint0_linear_69_1491" x1="12.8647" y1="7.10054" x2="15.3911" y2="35.7472" gradientUnits="userSpaceOnUse">
<stop stop-color="#FEEACD"/>
<stop offset="1" stop-color="#F9A94C"/>
</linearGradient>
<linearGradient id="paint1_linear_69_1491" x1="12.8647" y1="7.10054" x2="15.3911" y2="35.7472" gradientUnits="userSpaceOnUse">
<stop stop-color="#FEEACD"/>
<stop offset="1" stop-color="#F9A94C"/>
</linearGradient>
<linearGradient id="paint2_linear_69_1491" x1="19" y1="21.5" x2="26.5" y2="33" gradientUnits="userSpaceOnUse">
<stop stop-color="#FFF3E3"/>
<stop offset="1" stop-color="#F9DEBA"/>
</linearGradient>
<linearGradient id="paint3_linear_69_1491" x1="19" y1="21.5" x2="26.5" y2="33" gradientUnits="userSpaceOnUse">
<stop stop-color="#FFF3E3"/>
<stop offset="1" stop-color="#F9DEBA"/>
</linearGradient>
</defs>
</svg>
