<svg width="64" height="64" viewBox="0 0 64 64" fill="none" xmlns="http://www.w3.org/2000/svg">
<g id="&#229;&#174;&#162;&#230;&#156;&#141; (2) 1">
<path id="Vector" d="M31.0964 8.08447C21.4073 8.08447 17.1179 13.3274 17.1179 22.0629V46.5272H45.0749V22.0629C45.0749 13.3258 39.3583 8.08447 31.0964 8.08447Z" fill="#2A3D56"/>
<path id="Vector_2" d="M34.5921 34.2959H27.6005L25.855 41.2843V63.9999H36.3376V41.2843L34.5921 34.2959Z" fill="#E7C9B3"/>
<path id="Vector_3" d="M10.1279 50.0218C6.84275 53.3069 6.63208 64.0002 6.63208 64.0002H31.0964L24.1064 43.0317C24.1064 43.0317 11.7689 48.3792 10.1279 50.0218ZM52.0649 50.0218C50.4207 48.3776 38.0864 43.0317 38.0864 43.0317L31.0964 64.0002H55.5591C55.5591 64.0002 55.35 53.3069 52.0649 50.0218Z" fill="#84C8FF"/>
<path id="Vector_4" d="M36.3376 41.2842L31.0947 63.9998H32.8434L38.0863 51.7684L46.8219 50.0213L36.3376 41.2842ZM15.3707 50.0213L24.1063 51.7684L29.3492 63.9998H31.0963L25.8534 41.2842L15.3707 50.0213Z" fill="white"/>
<path id="Vector_5" d="M35.9053 18.5386C34.5367 21.5624 29.8197 23.81 24.1063 23.81H20.6375C20.7135 27.2345 21.0334 29.8908 22.3608 32.5471C24.1079 36.0429 27.6734 39.5372 31.0979 39.5372C34.5193 39.5372 38.0864 36.0414 39.8335 32.5471C41.3905 29.4362 41.56 26.3237 41.579 21.9789C41.4761 20.0148 37.768 18.5386 35.9053 18.5386Z" fill="#FFDEC8"/>
<path id="Vector_6" d="M46.4687 19.4762C44.9433 13.964 38.6408 9.83301 31.0963 9.83301C23.5519 9.83301 17.2493 13.964 15.724 19.4762C14.5582 20.1161 13.6221 21.038 13.6221 22.0628V25.5586C13.6221 27.4879 16.9341 29.0528 18.865 29.0528V22.0644C18.865 17.238 24.3407 13.3272 31.0963 13.3272C37.8519 13.3272 43.3277 17.2396 43.3277 22.0644V25.5586C43.3279 27.337 42.7856 29.0731 41.7733 30.5352C40.7609 31.9973 39.3266 33.1158 37.6619 33.7413C37.4242 33.3751 37.0986 33.0742 36.7149 32.8659C36.3312 32.6575 35.9015 32.5485 35.4649 32.5486H31.9707C31.2754 32.5486 30.6087 32.8248 30.117 33.3164C29.6254 33.808 29.3492 34.4748 29.3492 35.1701C29.3492 35.8653 29.6254 36.5321 30.117 37.0237C30.6087 37.5153 31.2754 37.7915 31.9707 37.7915H35.4649C35.7199 37.7915 35.967 37.7535 36.1999 37.6854C38.7053 37.3521 41.0461 36.2514 42.9009 34.5344C44.7557 32.8174 46.0336 30.5684 46.559 28.0961C47.6836 27.4593 48.5706 26.5597 48.5706 25.5602V22.0644C48.5706 21.038 47.6361 20.1161 46.4687 19.4762Z" fill="#2296F3"/>
</g>
</svg>
