<svg width="24" height="24" xmlns="http://www.w3.org/2000/svg" fill="none">
 <defs>
  <linearGradient y2="1" x2="0.5" y1="0" x1="0.5" id="paint0_linear_1810_549">
   <stop stop-color="#A8D12F"/>
   <stop stop-color="#23AB57" offset="1"/>
  </linearGradient>
 </defs>
 <g>
  <title>Layer 1</title>
  <path id="svg_1" fill="url(#paint0_linear_1810_549)" d="m21.1429,11.4286l-1.7143,0l0,-4.57146c0,-1.27472 -1.011,-2.28571 -2.2857,-2.28571l-4.5715,0l0,-1.71429c0,-1.58242 -1.2747,-2.85714 -2.85711,-2.85714c-1.58242,0 -2.85715,1.27472 -2.85715,2.85714l0,1.71429l-4.57143,0c-1.27472,0 -2.28571,1.01099 -2.28571,2.28571l0,4.35166l1.71429,0c1.71428,0 3.07692,1.3626 3.07692,3.0769c0,1.7143 -1.36264,3.0769 -3.07692,3.0769l-1.71429,0l0,4.3517c0,1.2747 1.01099,2.2857 2.28571,2.2857l4.35165,0l0,-1.7143c0,-1.7143 1.36264,-3.0769 3.07693,-3.0769c1.71431,0 3.07691,1.3626 3.07691,3.0769l0,1.7143l4.3517,0c1.2747,0 2.2857,-1.011 2.2857,-2.2857l0,-4.6154l1.7143,0c1.5824,0 2.8571,-1.2747 2.8571,-2.8571c0,-1.5385 -1.2747,-2.8132 -2.8571,-2.8132z"/>
 </g>
</svg>