<svg width="48" height="48" viewBox="0 0 48 48" fill="none" xmlns="http://www.w3.org/2000/svg">
<path d="M17.918 39.1875C17.9735 39.1942 18.0293 39.1975 18.0851 39.1976C18.2061 39.1976 18.3259 39.1819 18.4412 39.1517C18.7756 39.0738 19.0699 38.8764 19.2689 38.5965L38.5876 19.278C38.8513 19.0143 38.9994 18.6566 38.9994 18.2837C38.9994 17.9107 38.8513 17.5531 38.5876 17.2893L30.8974 9.59939C30.3483 9.0502 29.4578 9.0502 28.9087 9.59939L9.6117 28.8964C9.4591 29.0007 9.32853 29.134 9.22746 29.2888C9.1264 29.4435 9.05681 29.6166 9.02267 29.7983C8.9898 29.9484 8.9816 30.1028 8.99839 30.2555L8.98657 37.7498C8.98526 38.5251 9.61189 39.1552 10.3873 39.1582L17.918 39.1875Z" fill="url(#paint0_linear_69_1214)"/>
<path d="M17.6838 32.0037C17.4991 32.0039 17.3162 31.9676 17.1455 31.8969C16.9749 31.8263 16.8199 31.7225 16.6895 31.5917C16.1403 31.0426 16.1403 30.1522 16.6895 29.603L23.0525 23.24C23.6016 22.6908 24.492 22.6908 25.0412 23.24C25.5904 23.7891 25.5904 24.6795 25.0412 25.2287L18.6782 31.5917C18.5478 31.7225 18.3928 31.8262 18.2221 31.8969C18.0514 31.9676 17.8685 32.0039 17.6838 32.0037Z" fill="url(#paint1_linear_69_1214)"/>
<path d="M25.3146 13.1887L34.9978 22.872L33.0091 24.8607L23.3259 15.1774L25.3146 13.1887Z" fill="url(#paint2_linear_69_1214)"/>
<path d="M37.5923 39.1875H24C23.2234 39.1875 22.5938 38.5579 22.5938 37.7812C22.5938 37.0046 23.2234 36.375 24 36.375H37.5923C38.3689 36.375 38.9985 37.0046 38.9985 37.7812C38.9985 38.5579 38.369 39.1875 37.5923 39.1875Z" fill="url(#paint3_linear_69_1214)"/>
<defs>
<linearGradient id="paint0_linear_69_1214" x1="23.993" y1="9.1875" x2="23.993" y2="39.1976" gradientUnits="userSpaceOnUse">
<stop stop-color="#F8C6C6"/>
<stop offset="1" stop-color="#EA4C4C"/>
</linearGradient>
<linearGradient id="paint1_linear_69_1214" x1="20.8653" y1="22.8281" x2="20.8653" y2="32.0037" gradientUnits="userSpaceOnUse">
<stop stop-color="#FFFCFC"/>
<stop offset="1" stop-color="#F8C2C2"/>
</linearGradient>
<linearGradient id="paint2_linear_69_1214" x1="29.1619" y1="13.1887" x2="29.1619" y2="24.8607" gradientUnits="userSpaceOnUse">
<stop stop-color="#FFFCFC"/>
<stop offset="1" stop-color="#F8C2C2"/>
</linearGradient>
<linearGradient id="paint3_linear_69_1214" x1="30.7961" y1="36.375" x2="30.7961" y2="39.1875" gradientUnits="userSpaceOnUse">
<stop stop-color="#FFBEBE"/>
<stop offset="1" stop-color="#EB5252"/>
</linearGradient>
</defs>
</svg>
