<svg width="30" height="34" xmlns="http://www.w3.org/2000/svg" fill="none">

 <g>
  <title>Layer 1</title>
  <path id="svg_1" fill="#ACB3C0" d="m11.7086,0.54297l0,2.19428l-1.0972,0c-0.65828,0 -1.09713,0.43886 -1.09713,1.09715c0,0.65828 0.43885,1.09714 1.09713,1.09714l1.0972,0l0,2.19429l-1.0972,0c-0.65828,0 -1.09713,0.43885 -1.09713,1.09714c0,0.65829 0.43885,1.09714 1.09713,1.09714l1.0972,0l0,2.19429l-1.0972,0c-0.65828,0 -1.09713,0.4389 -1.09713,1.0971c0,0.6583 0.43885,1.0972 1.09713,1.0972l1.0972,0l0,2.1943l-1.0972,0c-0.65828,0 -1.09713,0.4388 -1.09713,1.0971c0,0.6583 0.43885,1.0972 1.09713,1.0972l2.1943,0c0.6583,0 1.0971,-0.4389 1.0971,-1.0972l0,-1.0971l1.0972,0c0.6583,0 1.0971,-0.4389 1.0971,-1.0972c0,-0.6583 -0.4388,-1.0971 -1.0971,-1.0971l-1.0972,0l0,-2.1943l1.0972,0c0.6583,0 1.0971,-0.4389 1.0971,-1.0971c0,-0.65833 -0.4388,-1.09719 -1.0971,-1.09719l-1.0972,0l0,-2.19428l1.0972,0c0.6583,0 1.0971,-0.43886 1.0971,-1.09715c0,-0.65828 -0.4388,-1.09714 -1.0971,-1.09714l-1.0972,0l0,-4.38857l6.5829,0l8.7771,8.77714l0,19.74859c0,2.4137 -1.9748,4.3886 -4.3885,4.3886l-19.74861,0c-2.41371,0 -4.38857,-1.9749 -4.38857,-4.3886l0,-24.13716c0,-2.41371 1.97486,-4.38857 4.38857,-4.38857l6.58291,0zm0,21.94283l2.1942,0l0,2.1943l-2.1942,0l0,-2.1943zm-1.0972,-2.1943c-0.65828,0 -1.09713,0.4389 -1.09713,1.0972l0,4.3886c0,0.6582 0.43885,1.0971 1.09713,1.0971l4.3886,0c0.6583,0 1.0971,-0.4389 1.0971,-1.0971l0,-4.3886c0,-0.6583 -0.4388,-1.0972 -1.0971,-1.0972l-4.3886,0z"/>
 </g>
</svg>