<svg width="64" height="64" viewBox="0 0 64 64" fill="none" xmlns="http://www.w3.org/2000/svg">
<g id="erp&#231;&#179;&#187;&#231;&#187;&#159; 1">
<path id="Vector" d="M10.2387 20.48H53.7587V38.4H10.2387V20.48Z" fill="#2E8DFC"/>
<path id="Vector_2" d="M61.2198 14.9491L48.7398 2.22716C48.5884 2.06623 48.4058 1.93784 48.2031 1.84981C48.0004 1.76178 47.7819 1.71597 47.561 1.71516H15.3971C15.1757 1.71303 14.9563 1.75751 14.7532 1.84572C14.5501 1.93393 14.3678 2.06389 14.2182 2.22716L1.73567 14.8889C1.42865 15.2168 1.25597 15.6481 1.25183 16.0972V44.238C1.25565 44.6877 1.42835 45.1194 1.73567 45.4476L14.1888 58.1427C14.3402 58.3036 14.5228 58.432 14.7255 58.52C14.9282 58.6081 15.1467 58.6539 15.3677 58.6547H47.4957C47.7143 58.6554 47.931 58.6131 48.1333 58.5301C48.3355 58.4471 48.5195 58.325 48.6746 58.1708L61.1878 45.4758C61.4952 45.1476 61.6679 44.7158 61.6717 44.2662V16.1574C61.6821 15.9359 61.6475 15.7146 61.5698 15.5069C61.4921 15.2992 61.3731 15.1094 61.2198 14.9491ZM17.3018 7.93596C17.4568 7.78181 17.6408 7.65974 17.843 7.57672C18.0453 7.4937 18.262 7.45136 18.4806 7.45212H44.4442C44.6628 7.45136 44.8795 7.4937 45.0817 7.57672C45.284 7.65974 45.468 7.78181 45.623 7.93596L54.2374 16.5504H8.68735L17.3018 7.93596ZM49.975 27.2806C49.9821 27.9557 49.8483 28.6249 49.5821 29.2454C49.3494 29.8394 48.9634 30.361 48.4634 30.7571C48.0509 31.086 47.5789 31.3324 47.0733 31.4828C46.3778 31.6277 45.6674 31.6888 44.9574 31.6646H42.752V36.7424H39.552V23.0796H44.841C45.7645 23.0345 46.688 23.1679 47.561 23.4726C48.2394 23.7636 48.8178 24.2469 49.225 24.8627C49.7491 25.5566 50.0144 26.4118 49.975 27.2806ZM37.28 36.7411H33.8048L31.7491 31.3305H29.4822V36.7411H26.3091V23.0796H32.1971C33.0904 23.0437 33.9825 23.177 34.8262 23.4726C35.5187 23.7423 36.0957 24.2447 36.4582 24.8934C36.8933 25.5795 37.1159 26.3788 37.0982 27.191C37.1218 27.9484 36.911 28.6946 36.4944 29.3276C36.0779 29.9606 35.4761 30.4496 34.7712 30.7276L37.28 36.7436V36.7411ZM23.0438 28.4902V31.0592H18.0262V34.0518H24.4032V36.7398H14.8198V23.0796H24.4019V25.6793H18.0275V28.4953L23.0438 28.4902ZM45.5923 52.4582C45.4372 52.6124 45.2533 52.7344 45.051 52.8174C44.8487 52.9005 44.6321 52.9428 44.4134 52.942H18.4806C18.262 52.9428 18.0453 52.9005 17.843 52.8174C17.6408 52.7344 17.4568 52.6124 17.3018 52.4582L8.68735 43.8438H54.2374L45.5923 52.4582ZM44.6861 25.5577H42.6611V29.1852H44.7168C45.012 29.219 45.3111 29.1879 45.593 29.0939C45.8749 28.9999 46.1329 28.8454 46.3488 28.6412C46.6618 28.2925 46.8342 27.84 46.8326 27.3715C46.841 27.1268 46.8 26.8829 46.712 26.6544C46.624 26.4259 46.4909 26.2175 46.3206 26.0416C45.8514 25.6895 45.2713 25.5178 44.6861 25.5577ZM32.8077 25.6179C32.3198 25.5404 31.8257 25.5087 31.3318 25.5232H29.4528V28.9792H31.3869C31.8438 29.0026 32.3018 28.9621 32.7475 28.8588C33.0566 28.742 33.3209 28.5306 33.5027 28.2547C33.716 27.943 33.8319 27.575 33.8355 27.1974C33.831 26.8302 33.715 26.4731 33.5027 26.1734C33.4321 26.0374 33.3338 25.9177 33.214 25.822C33.0943 25.7263 32.9559 25.6568 32.8077 25.6179Z" fill="#CEEAFF"/>
</g>
</svg>
