<svg width="14" height="16" xmlns="http://www.w3.org/2000/svg" fill="none">
 <g>
  <title>Layer 1</title>
  <path d="m6.375,13.7425l0,-12.46125c0,-0.1825 0.05854,-0.33229 0.17562,-0.44937c0.11709,-0.11709 0.26688,-0.17563 0.44938,-0.17563c0.1825,0 0.33229,0.05854 0.44938,0.17563c0.11708,0.11708 0.17562,0.26687 0.17562,0.44937l0,12.46125l4.5506,-4.84375c0.1304,-0.13042 0.2802,-0.19563 0.4494,-0.19563c0.1692,0 0.3156,0.06834 0.4394,0.205c0.1237,0.13667 0.1856,0.28959 0.1856,0.45875c0,0.16917 -0.0585,0.32542 -0.1756,0.46875l-5.62502,5.97688c-0.13042,0.1304 -0.28021,0.1956 -0.44938,0.1956c-0.16917,0 -0.31896,-0.0652 -0.44938,-0.1956l-5.62499,-5.97688c-0.11709,-0.14333 -0.17563,-0.29958 -0.17563,-0.46875c0,-0.16916 0.06188,-0.32208 0.18563,-0.45875c0.12375,-0.13666 0.2702,-0.205 0.43937,-0.205c0.16917,0 0.31896,0.06521 0.44938,0.19563l4.55062,4.84375z" fill="#374151" id="svg_1"/>
 </g>

</svg>