<svg width="64" height="64" viewBox="0 0 64 64" fill="none" xmlns="http://www.w3.org/2000/svg">
<g id="&#229;&#186;&#147;&#229;&#173;&#152;&#232;&#175;&#166;&#230;&#131;&#133; 1" clip-path="url(#clip0_1122_2410)">
<path id="Vector" d="M48.2178 37.2073C49.6269 37.2404 51.02 37.5139 52.3371 38.016V12.1324C52.2666 10.3096 51.5024 8.58257 50.2009 7.30452C48.8993 6.02647 47.1586 5.29394 45.3349 5.25673H38.3327C38.2947 3.85772 37.7154 2.52803 36.7167 1.54755C35.7181 0.56707 34.378 0.0122927 32.9785 0L22.2687 0C20.869 0.011918 19.5285 0.56653 18.5295 1.54705C17.5306 2.52757 16.9511 3.85747 16.9131 5.25673H9.91087C8.08711 5.29394 6.34646 6.02647 5.04488 7.30453C3.74331 8.58258 2.97916 10.3096 2.90869 12.1324V53.3833C2.97916 55.2061 3.74331 56.9331 5.04488 58.2111C6.34646 59.4892 8.08711 60.2217 9.91087 60.2589H35.4483C33.9012 57.8389 33.0461 55.0416 32.9756 52.1702C33.0723 48.1841 34.7177 44.3923 37.5628 41.5988C40.4079 38.8053 44.2291 37.2296 48.2163 37.2058L48.2178 37.2073ZM22.2672 3.63927H32.9771C33.1895 3.63923 33.3998 3.68104 33.5961 3.7623C33.7924 3.84357 33.9707 3.9627 34.121 4.1129C34.2712 4.2631 34.3904 4.44142 34.4717 4.63768C34.553 4.83394 34.5948 5.04429 34.5948 5.25673C34.5948 5.46916 34.553 5.67951 34.4717 5.87577C34.3904 6.07203 34.2712 6.25035 34.121 6.40055C33.9707 6.55075 33.7924 6.66989 33.5961 6.75115C33.3998 6.83242 33.1895 6.87422 32.9771 6.87418H22.2672C22.0548 6.87422 21.8444 6.83242 21.6482 6.75115C21.4519 6.66989 21.2735 6.55075 21.1233 6.40055C20.9731 6.25035 20.8539 6.07203 20.7726 5.87577C20.6913 5.67951 20.6495 5.46916 20.6495 5.25673C20.6495 5.04429 20.6913 4.83394 20.7726 4.63768C20.8539 4.44142 20.9731 4.2631 21.1233 4.1129C21.2735 3.9627 21.4519 3.84357 21.6482 3.7623C21.8444 3.68104 22.0548 3.63923 22.2672 3.63927ZM16.9116 23.0516H38.3312C38.7604 23.0516 39.172 23.2221 39.4755 23.5256C39.7789 23.8291 39.9494 24.2407 39.9494 24.6698C39.9494 25.099 39.7789 25.5106 39.4755 25.814C39.172 26.1175 38.7604 26.288 38.3312 26.288H16.9131C16.4839 26.288 16.0723 26.1175 15.7688 25.814C15.4654 25.5106 15.2949 25.099 15.2949 24.6698C15.2949 24.2407 15.4654 23.8291 15.7688 23.5256C16.0723 23.2221 16.4839 23.0516 16.9131 23.0516H16.9116ZM31.3291 42.8684H16.9116C16.6992 42.8684 16.4888 42.8266 16.2925 42.7453C16.0963 42.6641 15.9179 42.5449 15.7677 42.3947C15.6175 42.2445 15.4983 42.0662 15.417 41.87C15.3357 41.6737 15.2938 41.4633 15.2938 41.2509C15.2938 41.0385 15.3357 40.8281 15.417 40.6319C15.4983 40.4356 15.6175 40.2573 15.7677 40.1071C15.9179 39.9569 16.0963 39.8377 16.2925 39.7565C16.4888 39.6752 16.6992 39.6334 16.9116 39.6335H30.916C31.3398 39.6582 31.7403 39.8357 32.0433 40.1331C32.3463 40.4305 32.5313 40.8276 32.564 41.2509C32.564 42.0596 32.1509 42.8698 31.3276 42.8698L31.3291 42.8684ZM16.9116 34.7796C16.4824 34.7796 16.0708 34.6091 15.7674 34.3057C15.4639 34.0022 15.2934 33.5906 15.2934 33.1615C15.2934 32.7323 15.4639 32.3207 15.7674 32.0172C16.0708 31.7138 16.4824 31.5433 16.9116 31.5433H38.3312C38.7604 31.5433 39.172 31.7138 39.4755 32.0172C39.7789 32.3207 39.9494 32.7323 39.9494 33.1615C39.9494 33.5906 39.7789 34.0022 39.4755 34.3057C39.172 34.6091 38.7604 34.7796 38.3312 34.7796H16.9116Z" fill="#92CFFF"/>
<path id="Vector_2" d="M57.6928 44.4859C55.4843 42.3461 52.53 41.1497 49.455 41.1497C46.3799 41.1497 43.4256 42.3461 41.2171 44.4859C40.1411 45.5403 39.2863 46.7988 38.7028 48.1878C38.1192 49.5767 37.8186 51.0681 37.8186 52.5746C37.8186 54.0811 38.1192 55.5725 38.7028 56.9614C39.2863 58.3504 40.1411 59.6089 41.2171 60.6633C43.4256 62.8031 46.3799 63.9996 49.455 63.9996C52.53 63.9996 55.4843 62.8031 57.6928 60.6633C58.7688 59.6089 59.6236 58.3504 60.2072 56.9614C60.7907 55.5725 61.0913 54.0811 61.0913 52.5746C61.0913 51.0681 60.7907 49.5767 60.2072 48.1878C59.6236 46.7988 58.7688 45.5403 57.6928 44.4859ZM53.5735 52.1702V54.5964H50.279V55.4052H53.5735V57.427H50.279V59.8546H47.8062V57.427H44.5117V55.4052H47.8062V54.5964H44.5117V52.1702H46.5713L43.6884 46.5077H46.5713L48.631 50.1441C48.787 50.3019 48.9052 50.4931 48.9768 50.7032C49.0483 50.9133 49.0713 51.1369 49.0441 51.3572C49.0441 50.9528 49.4557 50.5484 49.4557 50.1441L51.5153 46.5077H54.3982L51.5153 52.1702H53.5735Z" fill="#FFC13C"/>
</g>
<defs>
<clipPath id="clip0_1122_2410">
<rect width="64" height="64" fill="white"/>
</clipPath>
</defs>
</svg>
