<svg width="64" height="64" viewBox="0 0 64 64" fill="none" xmlns="http://www.w3.org/2000/svg">
<g id="&#228;&#191;&#157;&#229;&#133;&#187;&#230;&#138;&#165;&#233;&#148;&#128;&#231;&#174;&#161;&#231;&#144;&#134; 1">
<path id="Vector" d="M57.7143 5H6.28571C5.15056 5 4.06176 5.44626 3.25828 6.24085C2.4548 7.03545 2.00227 8.11345 2 9.2383V10.3H2.00857L7.70857 13.1199C7.97496 13.2511 8.1991 13.4534 8.35579 13.704C8.51248 13.9546 8.59549 14.2435 8.59549 14.5383C8.59549 14.8331 8.51248 15.122 8.35579 15.3726C8.1991 15.6232 7.97496 15.8255 7.70857 15.9567L3.32429 17.2817C2.98233 17.3816 2.68373 17.5916 2.47571 17.8785C2.26769 18.1654 2.16213 18.5128 2.17571 18.8658C2.19837 19.1885 2.32016 19.4965 2.52472 19.7486C2.72929 20.0006 3.00681 20.1846 3.32 20.2757L7.70429 21.6007C7.97067 21.732 8.19482 21.9342 8.35151 22.1848C8.50819 22.4354 8.59121 22.7244 8.59121 23.0192C8.59121 23.3139 8.50819 23.6029 8.35151 23.8535C8.19482 24.1041 7.97067 24.3063 7.70429 24.4376L3.32857 25.7626C2.98735 25.8623 2.68929 26.0716 2.48134 26.3576C2.27339 26.6437 2.16738 26.9901 2.18 27.3424C2.20181 27.6658 2.32321 27.9748 2.52784 28.2277C2.73246 28.4806 3.01045 28.6652 3.32429 28.7566L7.70857 30.0816C7.97496 30.2128 8.1991 30.4151 8.35579 30.6657C8.51248 30.9163 8.59549 31.2052 8.59549 31.5C8.59549 31.7948 8.51248 32.0837 8.35579 32.3343C8.1991 32.5849 7.97496 32.7872 7.70857 32.9184L3.32857 34.2434C2.98735 34.3431 2.68929 34.5525 2.48134 34.8385C2.27339 35.1245 2.16738 35.4709 2.18 35.8232C2.20181 36.1467 2.32321 36.4557 2.52784 36.7085C2.73246 36.9614 3.01045 37.146 3.32429 37.2374L7.70857 38.5624C7.97496 38.6937 8.1991 38.8959 8.35579 39.1465C8.51248 39.3971 8.59549 39.6861 8.59549 39.9809C8.59549 40.2756 8.51248 40.5646 8.35579 40.8152C8.1991 41.0658 7.97496 41.268 7.70857 41.3993L3.32857 42.72C2.98661 42.8199 2.68801 43.0299 2.47999 43.3168C2.27197 43.6037 2.16641 43.9511 2.18 44.3041C2.20181 44.6275 2.32321 44.9365 2.52784 45.1894C2.73246 45.4423 3.01045 45.6269 3.32429 45.7183L7.70857 47.0433C7.97383 47.1749 8.19688 47.3771 8.35276 47.6273C8.50864 47.8774 8.5912 48.1656 8.5912 48.4596C8.5912 48.7536 8.50864 49.0417 8.35276 49.2919C8.19688 49.542 7.97383 49.7442 7.70857 49.8759L2.01286 52.6958V52.7C2.08863 54.1313 2.716 55.4791 3.76549 56.4653C4.81498 57.4515 6.20649 58.0009 7.65286 58H57.7143C58.8494 58 59.9382 57.5537 60.7417 56.7592C61.5452 55.9646 61.9977 54.8865 62 53.7617V9.2383C61.9977 8.11345 61.5452 7.03545 60.7417 6.24085C59.9382 5.44626 58.8494 5 57.7143 5ZM19.1429 55.2184C19.1429 55.5836 18.8429 55.8809 18.4743 55.8809H15.5257C15.3484 55.8809 15.1783 55.8111 15.053 55.6868C14.9276 55.5626 14.8571 55.3941 14.8571 55.2184V50.1817C14.8571 49.8164 15.1571 49.5192 15.5257 49.5192H18.4743C18.8429 49.5192 19.1429 49.8164 19.1429 50.1817V55.2184ZM19.1429 46.7375C19.1429 47.1027 18.8429 47.4 18.4743 47.4H15.5257C15.3484 47.4 15.1783 47.3302 15.053 47.206C14.9276 47.0817 14.8571 46.9132 14.8571 46.7375V41.7008C14.8571 41.3356 15.1571 41.0383 15.5257 41.0383H18.4743C18.8429 41.0383 19.1429 41.3356 19.1429 41.7008V46.7375ZM19.1429 38.2567C19.1429 38.6219 18.8429 38.9192 18.4743 38.9192H15.5257C15.3484 38.9192 15.1783 38.8494 15.053 38.7251C14.9276 38.6009 14.8571 38.4324 14.8571 38.2567V33.2242C14.8571 32.8547 15.1571 32.5617 15.5257 32.5617H18.4743C18.8429 32.5617 19.1429 32.859 19.1429 33.2242V38.2524V38.2567ZM19.1429 29.7758C19.1429 30.1453 18.8429 30.4383 18.4743 30.4383H15.5257C15.3484 30.4383 15.1783 30.3685 15.053 30.2443C14.9276 30.12 14.8571 29.9515 14.8571 29.7758V24.7476C14.8571 24.3824 15.1571 24.0851 15.5257 24.0851H18.4743C18.8429 24.0851 19.1429 24.3824 19.1429 24.7476V29.7801V29.7758ZM19.1429 21.2992C19.1429 21.6644 18.8429 21.9617 18.4743 21.9617H15.5257C15.4379 21.9617 15.351 21.9446 15.2699 21.9113C15.1887 21.878 15.115 21.8292 15.053 21.7677C14.9909 21.7061 14.9416 21.6331 14.908 21.5527C14.8744 21.4723 14.8571 21.3862 14.8571 21.2992V16.2625C14.8571 15.8973 15.1571 15.6 15.5257 15.6H18.4743C18.8429 15.6 19.1429 15.8973 19.1429 16.2625V21.2992ZM19.1429 12.8141C19.1429 13.1793 18.8429 13.4766 18.4743 13.4766H15.5257C15.3484 13.4766 15.1783 13.4068 15.053 13.2826C14.9276 13.1583 14.8571 12.9898 14.8571 12.8141V7.78165C14.8571 7.42067 15.1571 7.1234 15.5257 7.1234H18.4743C18.8429 7.1234 19.1429 7.42067 19.1429 7.78165V12.8183V12.8141ZM48.65 30.2217V33.4238H43.2071V36.1885H48.65V39.399H43.2071V44.0408H38.0557V39.399H32.4329V36.197H38.0557V33.4323H32.4329V30.226H37.04L30.9586 18.9847H36.3886L40.8371 29.0623H40.9014C41.0429 28.6801 41.2657 28.1365 41.57 27.4273L45.2471 18.9847H50.3986L44.1414 30.226H48.65V30.2217Z" fill="#FFDC91"/>
</g>
</svg>
