<svg width="16" height="16" xmlns="http://www.w3.org/2000/svg" fill="none">

 <g>
  <title>Layer 1</title>
  <path id="svg_1" fill="#7FD162" d="m5.90314,13.0043c-0.19532,0 -0.39063,-0.075 -0.53907,-0.2234l-4.16875,-4.16879c-0.29843,-0.29844 -0.29843,-0.78125 0,-1.07969c0.29844,-0.29844 0.78125,-0.29844 1.07969,0l4.16875,4.17028c0.29844,0.2985 0.29844,0.7813 0,1.0797c-0.15,0.1485 -0.34531,0.2219 -0.54062,0.2219z"/>
  <path id="svg_2" fill="#7FD162" d="m5.90309,13.0051c-0.19531,0 -0.39063,-0.075 -0.53906,-0.2235c-0.29844,-0.2984 -0.29844,-0.7812 0,-1.0796l8.33907,-8.33755c0.2984,-0.29843 0.7812,-0.29843 1.0797,0c0.2984,0.29844 0.2984,0.78125 0,1.07969l-8.33909,8.33746c-0.15,0.15 -0.34531,0.2235 -0.54062,0.2235z"/>
 </g>
</svg>