<svg width="64" height="64" viewBox="0 0 64 64" fill="none" xmlns="http://www.w3.org/2000/svg">
<g id="&#228;&#186;&#186;&#229;&#138;&#155;&#232;&#181;&#132;&#230;&#186;&#144; 1">
<path id="Vector" opacity="0.5" d="M2.10286 26.3955C2.10286 21.5041 6.09829 17.4995 10.9989 17.4995C15.8994 17.4995 19.904 21.5041 19.904 26.3955C19.904 31.2961 15.8994 35.3007 10.9989 35.3007C6.09829 35.3007 2.10286 31.2961 2.10286 26.3955ZM16.2469 38.5464C15.4971 40.4481 15.0491 42.5509 15.0491 44.8001V60.2972H0V48.1007C0 42.0481 4.94629 37.1018 10.9531 37.1018C12.9006 37.1018 14.6469 37.6504 16.2469 38.5464Z" fill="#189DFD"/>
<path id="Vector_2" d="M31.947 30.8496C35.7961 30.8496 39.2521 32.4039 41.803 34.9456C39.2978 32.4039 35.7961 30.8496 31.947 30.8496ZM18.7996 40.4496C19.5036 38.3468 20.6464 36.445 22.1458 34.9456C20.6007 36.445 19.5036 38.3468 18.7996 40.4496ZM45.1493 40.4496C45.5973 41.8485 45.899 43.3022 45.899 44.8016C45.899 43.2473 45.5973 41.8028 45.1493 40.4496Z" fill="#F2F2F2"/>
<path id="Vector_3" d="M31.9469 27.7515C25.7481 27.7515 20.6464 22.7047 20.6464 16.451C20.6464 10.1972 25.7024 5.15039 31.9469 5.15039C38.2007 5.15039 43.2475 10.1972 43.2475 16.451C43.2475 22.7047 38.2007 27.7515 31.9469 27.7515ZM31.7001 47.8475C31.7001 52.9035 34.0041 57.347 37.6521 60.3001H18.0498V44.803C18.0498 43.2487 18.3515 41.8041 18.7995 40.451C19.5035 38.3481 20.6464 36.4464 22.1458 34.947C24.6967 32.3961 28.1527 30.851 32.0018 30.851C35.1469 30.851 37.9995 31.9024 40.3492 33.6487C35.2018 36.3001 31.7001 41.6487 31.7001 47.8475Z" fill="#189DFD"/>
<path id="Vector_4" opacity="0.5" d="M56.9966 34.3041C59.904 32.8504 61.8514 29.8515 61.8514 26.3955C61.8514 21.5041 57.9017 17.4995 52.9463 17.4995C48.0549 17.4995 44.0503 21.4492 44.0503 26.3955C44.0503 28.3978 44.6994 30.1989 45.7966 31.6984C46.5463 31.5978 47.2503 31.5521 48 31.5521C51.3463 31.5521 54.4549 32.5487 56.9966 34.3041Z" fill="#189DFD"/>
<path id="Vector_5" d="M52.0265 54.5857L54.5042 52.108L61.7453 59.3583L59.2768 61.836L52.0265 54.5857ZM45.9465 35.5503C51.8528 35.5503 56.5979 40.3046 56.5522 46.1469C56.5522 51.9983 51.7979 56.7526 45.9465 56.7526C40.1042 56.7526 35.3499 51.9983 35.3499 46.1469C35.3499 40.3046 40.1042 35.5503 45.9465 35.5503ZM50.4996 43.6966L49.4025 42.8006C49.3457 42.7699 49.2808 42.7578 49.2168 42.766C49.1529 42.7742 49.0931 42.8023 49.0459 42.8463L46.6962 45.7994L46.1476 45.3514L44.9956 44.4463C44.9042 44.4006 44.7488 44.4006 44.7031 44.5012L44.3465 44.9034L43.8985 45.452L41.4025 48.5971C41.3476 48.6977 41.3476 48.8532 41.4482 48.8989L42.6002 49.804C42.7008 49.8497 42.8471 49.8497 42.9019 49.7491L45.2516 46.7503L45.8459 47.1983L46.9522 48.1034H46.9979C47.0985 48.1491 47.2539 48.1492 47.2996 48.0486V48.0029L50.5453 43.8977C50.6002 43.7971 50.6002 43.6509 50.4996 43.6966Z" fill="#AED8FF"/>
</g>
</svg>
