<svg width="32" height="33" viewBox="0 0 32 33" fill="none" xmlns="http://www.w3.org/2000/svg">
<g id="1&#231;&#189;&#145;&#231;&#171;&#153;&#229;&#187;&#186;&#231;&#171;&#153; 1" clip-path="url(#clip0_1115_1908)">
<path id="Vector" d="M14 23.3953H18L20 31.5726H12L14 23.3953Z" fill="#A8C0D9"/>
<path id="Vector_2" d="M4.53334 30.5508H27.4667C27.76 30.5508 28 30.7894 28 31.0841V32.5948H4V31.0841C4 30.7894 4.24 30.5508 4.53334 30.5508Z" fill="#E1E9F3"/>
<path id="Vector_3" d="M2.13334 0.595215H29.8667C31.2889 0.595215 32 1.29987 32 2.70917V24.9055C32 26.3148 31.2889 27.0195 29.8667 27.0195H2.13334C0.711115 27.0195 0 26.3148 0 24.9055V2.70917C0 1.29987 0.711115 0.595215 2.13334 0.595215Z" fill="#409FFF"/>
<path id="Vector_4" d="M0 23.2617H32V25.1284C32 25.6942 31.7752 26.2368 31.3751 26.6369C30.9751 27.037 30.4324 27.2617 29.8667 27.2617H2.13334C1.56755 27.2617 1.02493 27.037 0.624853 26.6369C0.224774 26.2368 8.28794e-06 25.6942 0 25.1284L0 23.2617Z" fill="#E1E9F3"/>
<path id="Vector_5" d="M3.7333 3.26172H28.2666C28.9777 3.26172 29.3333 3.61728 29.3333 4.32841V20.8617C29.3333 21.5728 28.9777 21.9284 28.2666 21.9284H3.7333C3.02217 21.9284 2.66661 21.5728 2.66661 20.8617V4.32841C2.66661 3.61728 3.02217 3.26172 3.7333 3.26172Z" fill="white"/>
<path id="Vector_6" d="M24.4573 19.6376L27.1707 22.4109C27.2074 22.4485 27.2323 22.496 27.2422 22.5476C27.252 22.5992 27.2464 22.6526 27.2261 22.701C27.2057 22.7494 27.1715 22.7908 27.1277 22.8198C27.0839 22.8489 27.0325 22.8643 26.98 22.8643H25.6307C25.5938 22.8644 25.5573 22.8721 25.5236 22.8871C25.4898 22.902 25.4596 22.9237 25.4347 22.9509L24.4613 24.0043C24.4248 24.0433 24.3775 24.0704 24.3254 24.0822C24.2733 24.0939 24.2188 24.0898 24.1691 24.0702C24.1194 24.0507 24.0767 24.0167 24.0465 23.9726C24.0164 23.9285 24.0002 23.8764 24 23.8229V19.8243C23.9999 19.7713 24.0157 19.7194 24.0453 19.6754C24.0748 19.6314 24.1168 19.5972 24.1659 19.5771C24.215 19.5571 24.2689 19.5522 24.3208 19.5629C24.3728 19.5737 24.4203 19.5997 24.4573 19.6376Z" fill="#FFC13C"/>
<path id="Vector_7" d="M7.6 6.46189C7.72302 6.4626 7.84497 6.43898 7.95883 6.3924C8.07269 6.34581 8.17622 6.27718 8.26346 6.19044C8.35071 6.1037 8.41994 6.00057 8.46718 5.88698C8.51443 5.77339 8.53875 5.65158 8.53875 5.52856C8.53875 5.40554 8.51443 5.28373 8.46718 5.17014C8.41994 5.05655 8.35071 4.95342 8.26346 4.86668C8.17622 4.77994 8.07269 4.7113 7.95883 4.66472C7.84497 4.61813 7.72302 4.59452 7.6 4.59523C7.3534 4.59666 7.11739 4.69562 6.94352 4.8705C6.76965 5.04538 6.67206 5.28196 6.67206 5.52856C6.67206 5.77516 6.76965 6.01174 6.94352 6.18662C7.11739 6.3615 7.3534 6.46046 7.6 6.46189Z" fill="#E6C029"/>
<path id="Vector_8" d="M4.93334 6.46189C5.05637 6.4626 5.17831 6.43898 5.29217 6.3924C5.40604 6.34581 5.50957 6.27718 5.59681 6.19044C5.68405 6.1037 5.75328 6.00057 5.80052 5.88698C5.84777 5.77339 5.87209 5.65158 5.87209 5.52856C5.87209 5.40554 5.84777 5.28373 5.80052 5.17014C5.75328 5.05655 5.68405 4.95342 5.59681 4.86668C5.50957 4.77994 5.40604 4.7113 5.29217 4.66472C5.17831 4.61813 5.05637 4.59452 4.93334 4.59523C4.68675 4.59666 4.45073 4.69562 4.27687 4.8705C4.103 5.04538 4.0054 5.28196 4.0054 5.52856C4.0054 5.77516 4.103 6.01174 4.27687 6.18662C4.45073 6.3615 4.68675 6.46046 4.93334 6.46189Z" fill="#EA7E7A"/>
<path id="Vector_9" d="M10.2667 6.46189C10.3897 6.4626 10.5116 6.43898 10.6255 6.3924C10.7393 6.34581 10.8429 6.27718 10.9301 6.19044C11.0174 6.1037 11.0866 6.00057 11.1338 5.88698C11.1811 5.77339 11.2054 5.65158 11.2054 5.52856C11.2054 5.40554 11.1811 5.28373 11.1338 5.17014C11.0866 5.05655 11.0174 4.95342 10.9301 4.86668C10.8429 4.77994 10.7393 4.7113 10.6255 4.66472C10.5116 4.61813 10.3897 4.59452 10.2667 4.59523C10.0201 4.59666 9.78405 4.69562 9.61018 4.8705C9.43631 5.04538 9.33871 5.28196 9.33871 5.52856C9.33871 5.77516 9.43631 6.01174 9.61018 6.18662C9.78405 6.3615 10.0201 6.46046 10.2667 6.46189Z" fill="#7FD162"/>
<path id="Rectangle 42" d="M4.12119 9.92832C4.12119 9.45971 4.4468 9.07983 4.84846 9.07983H14.0606C14.4622 9.07983 14.7879 9.45971 14.7879 9.92832V18.4132C14.7879 18.8818 14.4622 19.2617 14.0606 19.2617H4.84846C4.4468 19.2617 4.12119 18.8818 4.12119 18.4132V9.92832Z" fill="#9FA7B7" fill-opacity="0.35"/>
<path id="Rectangle 43" d="M16.9697 7.05956C16.9697 6.83641 17.2953 6.65552 17.6969 6.65552H26.9091C27.3107 6.65552 27.6363 6.83641 27.6363 7.05956V11.1C27.6363 11.3231 27.3107 11.504 26.9091 11.504H17.6969C17.2953 11.504 16.9697 11.3231 16.9697 11.1V7.05956Z" fill="#9FA7B7" fill-opacity="0.75"/>
<path id="Rectangle 44" d="M16.9697 13.9893C16.9697 13.9558 17.2953 13.9287 17.6969 13.9287H26.9091C27.3107 13.9287 27.6363 13.9558 27.6363 13.9893V14.5954C27.6363 14.6288 27.3107 14.656 26.9091 14.656H17.6969C17.2953 14.656 16.9697 14.6288 16.9697 14.5954V13.9893Z" fill="#BCD4EC"/>
<path id="Rectangle 45" d="M16.9697 15.6863C16.9697 15.6529 17.2953 15.6257 17.6969 15.6257H26.9091C27.3107 15.6257 27.6363 15.6529 27.6363 15.6863V16.2924C27.6363 16.3259 27.3107 16.353 26.9091 16.353H17.6969C17.2953 16.353 16.9697 16.3259 16.9697 16.2924V15.6863Z" fill="#BCD4EC"/>
<path id="Rectangle 46" d="M16.9697 17.3834C16.9697 17.3499 17.2953 17.3228 17.6969 17.3228H26.9091C27.3107 17.3228 27.6363 17.3499 27.6363 17.3834V17.9894C27.6363 18.0229 27.3107 18.05 26.9091 18.05H17.6969C17.2953 18.05 16.9697 18.0229 16.9697 17.9894V17.3834Z" fill="#BCD4EC"/>
</g>
<defs>
<clipPath id="clip0_1115_1908">
<rect width="32" height="32" fill="white" transform="translate(0 0.595215)"/>
</clipPath>
</defs>
</svg>
