<svg width="48" height="48" viewBox="0 0 48 48" fill="none" xmlns="http://www.w3.org/2000/svg">
<path d="M18.2812 31.8744V30.1933C18.2812 24.9527 14.987 23.8892 14.987 23.8892C14.987 23.8892 11.7188 25.0344 11.7188 30.1934V31.8745L18.2812 31.8744Z" fill="url(#paint0_linear_69_1598)"/>
<path d="M36.375 31.8744V30.1933C36.375 24.9527 33.0807 23.8892 33.0807 23.8892C33.0807 23.8892 29.8125 25.0344 29.8125 30.1934V31.8745L36.375 31.8744Z" fill="url(#paint1_linear_69_1598)"/>
<path fill-rule="evenodd" clip-rule="evenodd" d="M19.2187 31.4995V31.8744C19.2187 32.3922 18.799 32.8119 18.2812 32.8119H11.7188C11.201 32.8119 10.7812 32.3921 10.7812 31.8744V30.1933C10.7812 24.4357 14.5178 23.0602 14.6769 23.0044C14.7184 22.9899 14.7606 22.9784 14.8032 22.9698C15.3979 17.7307 17.3724 14.4237 19.0732 12.4854C21.3173 9.92772 23.5876 9.11191 23.6831 9.07835C23.8763 9.01069 24.0863 9.00809 24.2812 9.07094C24.3777 9.10216 26.6734 9.86397 28.941 12.3997C30.6617 14.3238 32.66 17.6378 33.2539 22.9678C33.2926 22.975 33.331 22.9847 33.3688 22.9969C33.5299 23.049 37.3125 24.3375 37.3125 30.1933V31.8744C37.3125 32.3922 36.8927 32.8119 36.375 32.8119H29.8125C29.2948 32.8119 28.875 32.3921 28.875 31.8744V31.4994L19.2187 31.4995ZM33.3507 30.9369H35.4375V30.1933C35.4375 27.0847 34.1914 25.6935 33.4098 25.1269C33.4223 25.4851 33.4287 25.8512 33.4287 26.2252V30.5619C33.4287 30.6952 33.4009 30.8221 33.3507 30.9369ZM14.7032 30.9369C14.7008 30.9315 14.6985 30.9261 14.6962 30.9206C14.6491 30.8068 14.6249 30.6849 14.625 30.5617C14.625 30.5397 14.6256 28.8484 14.625 26.2256C14.625 25.8656 14.6311 25.5129 14.643 25.1674C13.8565 25.774 12.6562 27.1914 12.6562 30.1934V30.9369H14.7032Z" fill="url(#paint2_linear_69_1598)"/>
<path d="M23.0559 40.5467L21.0672 38.5579C19.6026 37.0934 19.6026 34.7192 21.0672 33.2546C22.5316 31.7901 24.906 31.7901 26.3704 33.2546C27.8349 34.719 27.835 37.0934 26.3704 38.5579L24.3817 40.5467C24.0156 40.9128 23.422 40.9128 23.0559 40.5467Z" fill="url(#paint3_linear_69_1598)"/>
<path d="M14.652 37.6862L13.6079 36.6421C12.839 35.8733 12.839 34.6267 13.6079 33.8578C14.3766 33.0891 15.6232 33.0891 16.3921 33.8578C17.1609 34.6267 17.161 35.8733 16.3921 36.6421L15.3481 37.6862C15.3024 37.7319 15.2481 37.7682 15.1884 37.7929C15.1287 37.8177 15.0647 37.8304 15 37.8304C14.9354 37.8304 14.8714 37.8177 14.8117 37.7929C14.7519 37.7682 14.6977 37.7319 14.652 37.6862Z" fill="url(#paint4_linear_69_1598)"/>
<path d="M31.0453 36.6421L32.0894 37.6862C32.1351 37.7319 32.1894 37.7682 32.2491 37.7929C32.3088 37.8176 32.3728 37.8304 32.4374 37.8304C32.502 37.8304 32.566 37.8176 32.6257 37.7929C32.6855 37.7682 32.7397 37.7319 32.7854 37.6862L33.8295 36.6421C34.5982 35.8733 34.5983 34.6267 33.8295 33.8578C33.0607 33.0891 31.8141 33.0891 31.0453 33.8578C30.2766 34.6267 30.2766 35.8733 31.0453 36.6421Z" fill="url(#paint5_linear_69_1598)"/>
<path d="M24 16.5C25.0356 16.5 25.875 17.3394 25.875 18.375V22.125C25.875 23.1606 25.0356 24 24 24C22.9644 24 22.125 23.1606 22.125 22.125V18.375C22.125 17.3394 22.9644 16.5 24 16.5Z" fill="url(#paint6_linear_69_1598)"/>
<defs>
<linearGradient id="paint0_linear_69_1598" x1="33.5263" y1="13.3464" x2="16.904" y2="18.9442" gradientUnits="userSpaceOnUse">
<stop stop-color="#6685EF"/>
<stop offset="1" stop-color="#3150B7"/>
</linearGradient>
<linearGradient id="paint1_linear_69_1598" x1="33.5263" y1="13.3464" x2="16.904" y2="18.9442" gradientUnits="userSpaceOnUse">
<stop stop-color="#6685EF"/>
<stop offset="1" stop-color="#3150B7"/>
</linearGradient>
<linearGradient id="paint2_linear_69_1598" x1="33.5263" y1="13.3464" x2="16.904" y2="18.9442" gradientUnits="userSpaceOnUse">
<stop stop-color="#6685EF"/>
<stop offset="1" stop-color="#3150B7"/>
</linearGradient>
<linearGradient id="paint3_linear_69_1598" x1="19.1393" y1="38.9487" x2="22.3138" y2="31.3592" gradientUnits="userSpaceOnUse">
<stop stop-color="#8DA0D9"/>
<stop offset="1" stop-color="#CEDAFF"/>
</linearGradient>
<linearGradient id="paint4_linear_69_1598" x1="19.1393" y1="38.9487" x2="22.3138" y2="31.3592" gradientUnits="userSpaceOnUse">
<stop stop-color="#8DA0D9"/>
<stop offset="1" stop-color="#CEDAFF"/>
</linearGradient>
<linearGradient id="paint5_linear_69_1598" x1="19.1393" y1="38.9487" x2="22.3138" y2="31.3592" gradientUnits="userSpaceOnUse">
<stop stop-color="#8DA0D9"/>
<stop offset="1" stop-color="#CEDAFF"/>
</linearGradient>
<linearGradient id="paint6_linear_69_1598" x1="23.1966" y1="22.3792" x2="26.2255" y2="20.9114" gradientUnits="userSpaceOnUse">
<stop stop-color="#8DA0D9"/>
<stop offset="1" stop-color="#CEDAFF"/>
</linearGradient>
</defs>
</svg>
