<svg width="64" height="64" viewBox="0 0 64 64" fill="none" xmlns="http://www.w3.org/2000/svg">
<g id="icon-icon_json 1">
<path id="Vector" d="M13.3333 4H50.6667C56.8 4 60 7.2 60 13.3333V50.6667C60 56.8 56.8 60 50.6667 60H13.3333C7.2 60 4 56.8 4 50.6667V13.3333C4 7.2 7.2 4 13.3333 4Z" fill="white"/>
<path id="Vector_2" d="M58.6667 7.73331C57.3333 5.33331 54.6667 4 50.6667 4H13.3333C9.33331 4 6.66669 5.33331 5.33331 7.73331C4.53331 9.06669 4 10.9333 4 13.3333V16H60V13.3333C60 10.9333 59.4667 9.06669 58.6667 7.73331ZM52.5333 7.73331C53.6 7.73331 54.6667 8.53331 54.6667 9.6C54.6667 10.6667 53.8667 11.4667 52.5333 11.4667C51.4667 11.4667 50.4 10.6667 50.4 9.6C50.4 8.8 51.4667 7.73331 52.5333 7.73331ZM44.2667 7.73331C45.3333 7.73331 46.4 8.53331 46.4 9.6C46.4 10.6667 45.6 11.4667 44.2667 11.4667C42.9333 11.4667 42.4 10.6667 42.4 9.6C42.4 8.8 43.2 7.73331 44.2667 7.73331ZM10.4 7.73331H23.7333V11.4667H10.4V7.73331Z" fill="#2296F3"/>
<path id="Vector_3" d="M4 50.6667C4 56.8 7.2 60 13.3333 60H50.6667C56.8 60 60 56.8 60 50.6667V16H4V50.6667Z" fill="#9ED3FD"/>
<path id="Vector_4" d="M29.7605 36.82C28.7066 38.12 27.9162 39.68 27.9162 41.5C27.9162 43.32 28.4431 44.88 29.497 46.18C30.5509 47.48 32.1317 48 33.976 48C35.8204 48 37.4012 47.48 38.4551 46.18C39.509 44.88 40.2994 43.32 40.2994 41.5C40.2994 39.68 39.7725 38.12 38.7185 36.82C37.6647 35.52 36.0838 35 34.2395 35C32.6587 35 31.0778 35.52 29.7605 36.82ZM36.8743 38.38C37.4012 39.16 37.6647 40.2 37.6647 41.5C37.6647 42.8 37.4012 43.84 36.8743 44.62C36.3473 45.4 35.5569 45.66 34.503 45.66C33.4491 45.66 32.6587 45.4 32.1317 44.62C31.6048 43.84 31.3413 42.8 31.3413 41.5C31.3413 40.2 31.6048 39.16 32.1317 38.38C32.6587 37.6 33.7126 37.34 34.7664 37.34C35.5569 37.34 36.3473 37.6 36.8743 38.38ZM21.8563 48C23.4371 48 24.7545 47.74 25.5449 46.96C26.3353 46.44 26.8622 45.4 26.8622 44.1C26.8622 43.32 26.5988 42.54 26.0718 42.02C25.5449 41.5 24.7545 40.98 23.4371 40.2C22.3832 39.68 21.5928 39.42 21.3293 39.16C21.0659 38.9 20.8024 38.64 20.8024 38.38C20.8024 37.86 21.0659 37.6 21.3293 37.34C21.8563 37.08 22.3832 37.08 22.9101 37.08C23.9641 37.08 25.018 37.34 25.8084 37.86V35.26C25.2814 35.26 24.2276 35 23.1736 35C21.5928 35 20.5389 35.26 19.485 36.04C18.6946 36.56 18.1676 37.6 18.1676 38.64C18.1676 40.2 19.2215 41.5 21.0659 42.28C22.3832 42.8 23.1736 43.32 23.4371 43.58C23.7006 43.84 23.9641 44.1 23.9641 44.62C23.9641 45.14 23.7006 45.4 23.4371 45.66C23.1736 45.92 22.3832 45.92 21.8563 45.92C20.5389 45.92 19.485 45.4 18.4311 44.62V47.22C19.2215 47.74 20.2755 48 21.8563 48ZM51.3652 42.28V44.1C51.3652 43.84 51.1018 43.58 50.8383 43.06L45.5689 35.26H42.6706V47.74H45.3054V38.64C45.3054 38.9 45.5689 39.16 45.8323 39.68L51.1018 47.74H54V35.26H51.3652V42.28ZM14.7425 46.7C15.5329 45.66 16.0599 44.62 16.0599 42.8V35.26H13.4251V42.8C13.4251 44.88 12.8982 45.66 11.5808 45.66C11.0539 45.66 10.5269 45.4 10 45.14V47.74C10.2634 48 10.7904 48 11.5808 48C12.8982 48 13.9521 47.48 14.7425 46.7Z" fill="white"/>
</g>
</svg>
