<svg width="98" height="20" xmlns="http://www.w3.org/2000/svg" fill="none">
 <mask height="20" width="91" y="0" x="7" maskUnits="userSpaceOnUse" id="mask0_1810_649">
  <path id="svg_1" fill="white" d="m7.21826,0l90.78184,0l0,20l-90.78184,0l0,-20z"/>
 </mask>

 <g>
  <title>Layer 1</title>
  <g id="svg_2" mask="url(#mask0_1810_649)">
   <path id="svg_3" fill="#0087C2" d="m18.2648,18.0759l-9.10194,-6.0593l0,-11.03749c0,-0.54023 -0.43509,-0.97911 -0.97195,-0.97911c-0.53616,0 -0.97265,0.43888 -0.97265,0.97911l0,18.01219c0,0.5412 0.43649,0.9799 0.97265,0.9799c0.53686,0 0.97195,-0.4387 0.97195,-0.9799l0,-4.6278l7.95994,5.2996c0.4347,0.3171 1.0432,0.2191 1.3587,-0.2178c0.3156,-0.4385 0.2179,-1.0512 -0.2167,-1.3694zm76.4294,-1.4081c-1.1357,1.1425 -2.6957,1.8476 -4.4263,1.8476c-1.7319,0 -3.2919,-0.7051 -4.4276,-1.8476c-1.1336,-1.1444 -1.8323,-2.7169 -1.8323,-4.4622c0,-1.7446 0.6987,-3.31723 1.8323,-4.46224c1.1357,-1.14255 2.6957,-1.84674 4.4276,-1.84709c1.7306,0.00035 3.2906,0.70454 4.4263,1.84709c1.1333,1.14501 1.8328,2.71764 1.8337,4.46224c-0.0009,1.7453 -0.7004,3.3178 -1.8337,4.4622zm-4.4263,-12.25665c-4.2723,0.00089 -7.7329,3.48973 -7.7338,7.79445c0.0009,4.3056 3.4615,7.794 7.7338,7.7944c4.2707,-0.0004 7.7323,-3.4888 7.7323,-7.7944c0,-4.30472 -3.4616,-7.79356 -7.7323,-7.79445zm-11.6534,12.25665c-1.1356,1.1425 -2.6956,1.8476 -4.4267,1.8476c-1.7301,0 -3.291,-0.7051 -4.4276,-1.8476c-1.1339,-1.1444 -1.8318,-2.7169 -1.8318,-4.4622c0,-1.7446 0.6979,-3.31723 1.8318,-4.46224c1.1366,-1.14255 2.6975,-1.84674 4.4276,-1.84709c1.7311,0.00035 3.2911,0.70454 4.4267,1.84709c1.1336,1.14501 1.8324,2.71764 1.8338,4.46224c-0.0014,1.7453 -0.7002,3.3178 -1.8338,4.4622zm-4.4267,-12.25665c-4.2719,0.00089 -7.7325,3.48973 -7.7325,7.79445c0,4.3056 3.4606,7.794 7.7325,7.7944c4.2714,-0.0004 7.7325,-3.4888 7.7325,-7.7944c0,-4.30472 -3.4611,-7.79356 -7.7325,-7.79445zm-26.2801,12.25665c-1.1359,1.1425 -2.6959,1.8476 -4.4269,1.8476c-1.7311,0 -3.2911,-0.7051 -4.4273,-1.8476c-1.133,-1.1444 -1.832,-2.7169 -1.832,-4.4622c0,-1.7446 0.699,-3.31723 1.832,-4.46224c1.1362,-1.14255 2.6962,-1.84674 4.4273,-1.84709c1.731,0.00035 3.291,0.70454 4.4269,1.84709c1.1336,1.14501 1.8332,2.71764 1.834,4.46224c-0.0008,1.7453 -0.7004,3.3178 -1.834,4.4622zm-4.4269,-12.25665c-4.2714,0.00089 -7.732,3.48973 -7.7329,7.79445c0.0009,4.3056 3.4615,7.794 7.7329,7.7944c4.2719,-0.0004 7.7329,-3.4888 7.7329,-7.7944c0,-4.30472 -3.461,-7.79356 -7.7329,-7.79445zm-11.6529,12.25665c-1.1357,1.1425 -2.6953,1.8476 -4.4253,1.8476c-1.731,0 -3.2925,-0.7051 -4.4277,-1.8476c-1.1345,-1.1444 -1.8333,-2.7169 -1.8333,-4.4622c0,-1.7446 0.6988,-3.31723 1.8333,-4.46224c1.1352,-1.14255 2.6967,-1.84674 4.4277,-1.84709c1.73,0.00035 3.2896,0.70454 4.4253,1.84709c1.1338,1.14501 1.8332,2.71764 1.8339,4.46224c-0.0007,1.7453 -0.7001,3.3178 -1.8339,4.4622zm-4.4253,-12.25665c-4.2723,0.00089 -7.733,3.48973 -7.7344,7.79445c0.0014,4.3056 3.4621,7.794 7.7344,7.7944c4.2702,-0.0004 7.7315,-3.4888 7.7315,-7.7944c0,-4.30472 -3.4613,-7.79356 -7.7315,-7.79445zm30.4761,13.93635c-1.3696,0 -2.6298,-0.461 -3.6422,-1.2353l0,-9.70894c1.0124,-0.77458 2.2726,-1.23525 3.6422,-1.23525c3.3377,0 6.0428,2.72627 6.0428,6.09009c0,3.3633 -2.7051,6.0894 -6.0428,6.0894zm0,-13.80405c-1.3209,0 -2.5597,0.34196 -3.6422,0.93775l0,-4.50209c0,-0.54023 -0.4363,-0.97911 -0.9723,-0.97911c-0.5369,0 -0.9737,0.43888 -0.9737,0.97911l0,18.01219c0,0.5412 0.4368,0.9799 0.9737,0.9799c0.5223,0 0.9486,-0.4168 0.9703,-0.9388c1.083,0.5962 2.3224,0.9388 3.6442,0.9388c4.2264,0 7.6517,-3.4527 7.6517,-7.7131c0,-4.26099 -3.4253,-7.71465 -7.6517,-7.71465z" clip-rule="evenodd" fill-rule="evenodd"/>
  </g>
  <path id="svg_4" fill="#EF8200" d="m8.06173,9.81284c-4.40514,3.45286 -7.57519,7.09536 -8.06173,9.07016c0.77155,-1.856 3.39442,-4.7793 6.93008,-7.5502c4.81972,-3.77903 9.50552,-5.83709 10.46332,-4.59373c0.9121,1.18179 -1.8811,4.92573 -6.3062,8.54193c0.2494,-0.1881 0.4984,-0.3795 0.7501,-0.576c5.43,-4.2575 8.9876,-8.8048 7.9458,-10.15497c-1.0428,-1.35114 -6.2905,1.0046 -11.72137,5.26281z" clip-rule="evenodd" fill-rule="evenodd"/>
 </g>
</svg>