<svg width="48" height="48" viewBox="0 0 48 48" fill="none" xmlns="http://www.w3.org/2000/svg">
<path d="M16.5 9.1875H35.25C37.3211 9.1875 39 10.8665 39 12.9375V27.9375C39 30.0086 37.3211 31.6875 35.25 31.6875H16.5C14.429 31.6875 12.75 30.0086 12.75 27.9375V12.9375C12.75 10.8665 14.429 9.1875 16.5 9.1875Z" fill="url(#paint0_linear_69_1481)"/>
<path d="M35.25 31.6875H16.5C14.4323 31.6875 12.75 30.0052 12.75 27.9375V12.9375C12.75 10.8698 14.4323 9.1875 16.5 9.1875H35.25C37.3177 9.1875 39 10.8698 39 12.9375V27.9375C39 30.0052 37.3177 31.6875 35.25 31.6875ZM16.5 12C15.9831 12 15.5625 12.4206 15.5625 12.9375V27.9375C15.5625 28.4544 15.9831 28.875 16.5 28.875H35.25C35.7669 28.875 36.1875 28.4544 36.1875 27.9375V12.9375C36.1875 12.4206 35.7669 12 35.25 12H16.5Z" fill="url(#paint1_linear_69_1481)"/>
<path d="M12.75 16.6875H31.5C33.5711 16.6875 35.25 18.3665 35.25 20.4375V35.4375C35.25 37.5086 33.5711 39.1875 31.5 39.1875H12.75C10.679 39.1875 9 37.5086 9 35.4375V20.4375C9 18.3665 10.679 16.6875 12.75 16.6875Z" fill="url(#paint2_linear_69_1481)"/>
<path d="M31.5 39.1875H12.75C10.6823 39.1875 9 37.5052 9 35.4375V20.4375C9 18.3698 10.6823 16.6875 12.75 16.6875H31.5C33.5677 16.6875 35.25 18.3698 35.25 20.4375V35.4375C35.25 37.5052 33.5677 39.1875 31.5 39.1875ZM12.75 19.5C12.2331 19.5 11.8125 19.9206 11.8125 20.4375V35.4375C11.8125 35.9544 12.2331 36.375 12.75 36.375H31.5C32.0169 36.375 32.4375 35.9544 32.4375 35.4375V20.4375C32.4375 19.9206 32.0169 19.5 31.5 19.5H12.75Z" fill="url(#paint3_linear_69_1481)"/>
<path d="M19.3584 33.047C19.0634 33.047 18.7659 32.9546 18.5123 32.7631C17.8924 32.2953 17.7691 31.4135 18.237 30.7935L23.862 23.3404C24.3297 22.7206 25.2117 22.5972 25.8316 23.0651C26.4514 23.5329 26.5747 24.4147 26.1069 25.0347L20.4819 32.4878C20.3508 32.6617 20.1811 32.8028 19.9861 32.8999C19.7911 32.997 19.5762 33.0473 19.3584 33.047Z" fill="url(#paint4_linear_69_1481)"/>
<path d="M15.395 27.9375L16.7871 26.5454C17.3362 25.9962 17.3362 25.1058 16.7871 24.5567C16.2379 24.0075 15.3475 24.0075 14.7984 24.5567L12.4119 26.9431C12.1373 27.2177 12 27.5776 12 27.9375C12 28.2974 12.1373 28.6574 12.4119 28.932L14.7984 31.3184C14.9288 31.4492 15.0838 31.5529 15.2544 31.6236C15.4251 31.6943 15.608 31.7305 15.7927 31.7303C15.9774 31.7305 16.1604 31.6943 16.331 31.6236C16.5017 31.5529 16.6567 31.4491 16.7871 31.3184C17.3362 30.7693 17.3362 29.8788 16.7871 29.3296L15.395 27.9375Z" fill="url(#paint5_linear_69_1481)"/>
<path d="M32.3374 27.8026C32.3074 27.4889 32.1722 27.1833 31.932 26.9431L29.5455 24.5566C28.9963 24.0075 28.1058 24.0075 27.5567 24.5566C27.0075 25.1059 27.0075 25.9962 27.5567 26.5453L28.9488 27.9375L27.5567 29.3295C27.0075 29.8787 27.0075 30.769 27.5567 31.3183C27.6872 31.4491 27.8421 31.5528 28.0128 31.6235C28.1834 31.6942 28.3663 31.7304 28.5511 31.7302C28.7358 31.7304 28.9187 31.6942 29.0893 31.6235C29.26 31.5528 29.4149 31.4491 29.5454 31.3183L31.932 28.9319C32.1345 28.7293 32.2623 28.4804 32.3155 28.2194C32.3434 28.0822 32.3507 27.9416 32.3374 27.8026Z" fill="url(#paint6_linear_69_1481)"/>
<defs>
<linearGradient id="paint0_linear_69_1481" x1="25.875" y1="9.1875" x2="25.875" y2="31.6875" gradientUnits="userSpaceOnUse">
<stop stop-color="#E1F3ED"/>
<stop offset="1" stop-color="#C3EDE0"/>
</linearGradient>
<linearGradient id="paint1_linear_69_1481" x1="25.875" y1="9.1875" x2="25.875" y2="31.6875" gradientUnits="userSpaceOnUse">
<stop stop-color="#E1F3ED"/>
<stop offset="1" stop-color="#C3EDE0"/>
</linearGradient>
<linearGradient id="paint2_linear_69_1481" x1="12.3816" y1="15.1223" x2="20.8323" y2="32.4331" gradientUnits="userSpaceOnUse">
<stop stop-color="#EAF7F2"/>
<stop offset="1" stop-color="#40B08A"/>
</linearGradient>
<linearGradient id="paint3_linear_69_1481" x1="12.3816" y1="15.1223" x2="20.8323" y2="32.4331" gradientUnits="userSpaceOnUse">
<stop stop-color="#EAF7F2"/>
<stop offset="1" stop-color="#40B08A"/>
</linearGradient>
<linearGradient id="paint4_linear_69_1481" x1="22.1719" y1="22.7812" x2="22.1719" y2="33.047" gradientUnits="userSpaceOnUse">
<stop stop-color="#E1F3ED"/>
<stop offset="1" stop-color="#C3EDE0"/>
</linearGradient>
<linearGradient id="paint5_linear_69_1481" x1="22.1719" y1="22.7812" x2="22.1719" y2="33.047" gradientUnits="userSpaceOnUse">
<stop stop-color="#E1F3ED"/>
<stop offset="1" stop-color="#C3EDE0"/>
</linearGradient>
<linearGradient id="paint6_linear_69_1481" x1="22.1719" y1="22.7812" x2="22.1719" y2="33.047" gradientUnits="userSpaceOnUse">
<stop stop-color="#E1F3ED"/>
<stop offset="1" stop-color="#C3EDE0"/>
</linearGradient>
</defs>
</svg>
