<svg width="24" height="23" xmlns="http://www.w3.org/2000/svg" fill="none">
 <defs>
  <linearGradient y2="1" x2="0.5" y1="0" x1="0.5" id="paint0_linear_1810_678">
   <stop stop-color="#ABC1CE"/>
   <stop stop-color="#7D97AC" offset="1"/>
  </linearGradient>
 </defs>
 <g>
  <title>Layer 1</title>
  <path id="svg_1" fill="url(#paint0_linear_1810_678)" d="m23.5285,19.8643l-1.1971,0l0,-12.70851c-0.0002,-0.07314 -0.0221,-0.14458 -0.0631,-0.20519c-0.0411,-0.0606 -0.0992,-0.10762 -0.1671,-0.13505l-6.879,-2.93343c-0.3223,-0.13794 -0.7183,0 -0.7183,0.34024l0,15.63274l-0.838,0l0,-19.34781c0.0033,-0.0799 -0.0132,-0.15937 -0.048,-0.23142c-0.0347,-0.07204 -0.0867,-0.13444 -0.1513,-0.18169c-0.0646,-0.04725 -0.1398,-0.0779 -0.2191,-0.08925c-0.0793,-0.01135 -0.1601,-0.00304 -0.2354,0.02419l-10.46126,3.8438c-0.09294,0.0328 -0.17319,0.09396 -0.22938,0.17483c-0.05619,0.08087 -0.08548,0.17735 -0.08372,0.27576l0,15.54079l-1.75888,0c-0.26706,0 -0.47886,0.3494 -0.47886,0.7816l0,1.5725c0,0.4322 0.2118,0.7816 0.47886,0.7816l23.02204,0c0.2671,0 0.4789,-0.3494 0.4789,-0.7908l0,-1.5633c0.0276,-0.3862 -0.1842,-0.7816 -0.4513,-0.7816zm-6.5659,-10.74063c0,-0.54255 0.3224,-0.98394 0.7275,-0.98394l1.2709,0c0.4052,0 0.7275,0.4322 0.7275,0.98394l0,0.66209c0,0.54254 -0.3223,0.98394 -0.7275,0.98394l-1.2709,0c-0.3959,0 -0.7275,-0.4414 -0.7275,-0.98394l0,-0.66209zm0,5.03003c0,-0.5425 0.3224,-0.9931 0.7275,-0.9931l1.2709,0c0.4052,0 0.7275,0.4414 0.7275,0.9931l0,0.6529c0,0.5518 -0.3223,0.9932 -0.7275,0.9932l-1.2709,0c-0.3959,0 -0.7275,-0.4414 -0.7275,-0.9932l0,-0.6529zm-8.18659,-5.03003c0,-0.54255 0.32231,-0.98394 0.72749,-0.98394l1.2708,0c0.396,0 0.7275,0.4322 0.7275,0.98394l0,0.66209c0,0.54254 -0.3223,0.98394 -0.7275,0.98394l-1.2708,0c-0.40518,0 -0.72749,-0.4414 -0.72749,-0.98394l0,-0.66209zm0,5.03003c0,-0.5425 0.32231,-0.9931 0.72749,-0.9931l1.2708,0c0.396,0 0.7275,0.4414 0.7275,0.9931l0,0.6529c0,0.5518 -0.3223,0.9932 -0.7275,0.9932l-1.2708,0c-0.40518,0 -0.72749,-0.4414 -0.72749,-0.9932l0,-0.6529zm-4.30052,-5.03003c0,-0.54255 0.32231,-0.98394 0.72749,-0.98394l1.2432,0c0.40518,0 0.72749,0.4322 0.72749,0.98394l0,0.66209c0,0.54254 -0.32231,0.98394 -0.72749,0.98394l-1.2432,0c-0.39597,0 -0.72749,-0.4414 -0.72749,-0.98394l0,-0.66209zm0,5.03003c0,-0.5425 0.32231,-0.9931 0.72749,-0.9931l1.2432,0c0.40518,0 0.72749,0.4414 0.72749,0.9931l0,0.6529c0,0.5518 -0.32231,0.9932 -0.72749,0.9932l-1.2432,0c-0.39597,0 -0.72749,-0.4414 -0.72749,-0.9932l0,-0.6529z"/>
 </g>
</svg>