<svg width="64" height="64" viewBox="0 0 64 64" fill="none" xmlns="http://www.w3.org/2000/svg">
<g id="&#229;&#155;&#190;&#231;&#137;&#135;&#231;&#188;&#150;&#232;&#190;&#145; (1) 1">
<path id="Vector" d="M13.7316 15.2166C10.7493 15.2166 8.33258 17.6328 8.33258 20.6155C8.33258 23.5978 10.7493 26.0141 13.7316 26.0141C16.7142 26.0141 19.1305 23.5979 19.1305 20.6155C19.1387 17.6328 16.7225 15.2166 13.7316 15.2166ZM63.4023 33.5421L61.4931 31.6328C60.7324 30.8807 59.5075 30.8807 58.7472 31.6328L57.4373 32.9422L62.0928 37.5973L63.4023 36.2879C64.1626 35.519 64.1626 34.2941 63.4023 33.5421ZM38.0645 52.3239L37.8532 57.1906L42.7195 56.9794L61.1803 38.5186L56.5335 33.8631L38.0645 52.3239Z" fill="#FFC13C"/>
<path id="Vector_2" d="M48.2195 30.5851V11.4737C48.4563 8.9646 46.6143 6.73404 44.1053 6.48904H4.59002C2.06358 6.48079 0.010831 8.51666 0.00220604 11.0431C0.00220604 11.1866 0.0108935 11.3302 0.019081 11.4738V52.1974C-0.209044 54.715 1.64114 56.937 4.15889 57.1652C4.30239 57.1821 4.44646 57.1821 4.59002 57.1821H34.3384L34.465 52.2818L48.2282 38.265L48.2195 30.5851ZM45.7273 30.1713C42.4406 27.1127 38.1655 25.3466 33.6791 25.1862C29.1086 25.1862 24.5376 29.3429 19.9667 33.0776C16.6465 35.5698 12.9036 38.8987 10.411 38.8987C7.53846 38.6202 4.87714 37.2933 2.93402 35.156V11.4737C2.93402 10.5529 3.67739 9.80954 4.59821 9.80954H44.0714C44.9922 9.80954 45.7356 10.5529 45.7356 11.4737L45.7273 30.1713Z" fill="#54B3FF"/>
</g>
</svg>
