<svg width="24" height="23" xmlns="http://www.w3.org/2000/svg" fill="none">
 <defs>
  <linearGradient y2="1.21739" x2="1" y1="-0.1087" x1="0.39583" id="paint0_linear_1803_510">
   <stop stop-color="#3B8DFF"/>
   <stop stop-color="#235599" offset="1"/>
  </linearGradient>
 </defs>
 <g>
  <title>Layer 1</title>
  <path id="svg_1" fill="url(#paint0_linear_1803_510)" d="m22.2477,14.233l1.2133,1.1038c0.6627,0.6054 0.7227,1.6246 0.1334,2.3001l-3.6053,4.135l-2.3067,1.0707c-0.2981,0.1392 -0.6312,0.1876 -0.957,0.1391c-0.3259,-0.0486 -0.6299,-0.1919 -0.8736,-0.4119c-0.2437,-0.2199 -0.4161,-0.5066 -0.4953,-0.8237c-0.0793,-0.3171 -0.0619,-0.6504 0.05,-0.9577l0.86,-2.3927l3.6066,-4.0411l0.02,-0.0211c0.1479,-0.16 0.3261,-0.2896 0.5245,-0.3813c0.1984,-0.0916 0.4131,-0.1436 0.6318,-0.1529c0.2187,-0.0094 0.4371,0.0241 0.6427,0.0986c0.2056,0.0744 0.3944,0.1883 0.5556,0.3351zm-18.11442,0.0965c0.54326,0.0002 1.08115,0.1065 1.58297,0.3128c0.50181,0.2063 0.95772,0.5086 1.34167,0.8896c0.38395,0.3811 0.68843,0.8334 0.89604,1.3311c0.20761,0.4977 0.31429,1.0311 0.31394,1.5697c0,1.0872 -0.43534,2.13 -1.21037,2.8991c-0.77503,0.7691 -1.82633,1.2018 -2.92291,1.2028c-1.09682,-0.0007 -2.14847,-0.4332 -2.92378,-1.2023c-0.77531,-0.7692 -1.21084,-1.8121 -1.21084,-2.8996c-0.00035,-0.5386 0.10633,-1.072 0.31394,-1.5697c0.20761,-0.4977 0.51209,-0.95 0.89604,-1.3311c0.38395,-0.381 0.83985,-0.6833 1.34167,-0.8896c0.50182,-0.2063 1.03971,-0.3126 1.58297,-0.3128l-0.00134,0zm10.37322,3.3207c0.213,0.0012 0.4169,0.0863 0.5667,0.2365c0.1497,0.1502 0.2332,0.3533 0.2319,0.5645c-0.0012,0.2113 -0.087,0.4134 -0.2385,0.5619c-0.1516,0.1484 -0.3564,0.2312 -0.5694,0.23l-5.28931,0.029l-0.01867,0c-0.10549,-0.0006 -0.20983,-0.0218 -0.30706,-0.0624c-0.09723,-0.0405 -0.18545,-0.0997 -0.25961,-0.1741c-0.07416,-0.0744 -0.13282,-0.1625 -0.17262,-0.2594c-0.03981,-0.0969 -0.05998,-0.2005 -0.05937,-0.3051c0.00062,-0.1046 0.022,-0.2081 0.06294,-0.3045c0.04094,-0.0964 0.10062,-0.1838 0.17565,-0.2574c0.07503,-0.0735 0.16393,-0.1316 0.26163,-0.1711c0.0977,-0.0395 0.20228,-0.0595 0.30777,-0.0589l5.28925,-0.029l0.02,0l-0.0013,0zm1.0026,-9.03927l2.796,4.92807l0.0093,0.0172c0.0981,0.1848 0.119,0.4003 0.0582,0.6002c-0.0608,0.1999 -0.1984,0.3681 -0.3831,0.4684c-0.1848,0.1002 -0.4018,0.1245 -0.6044,0.0675c-0.2026,-0.057 -0.3745,-0.1906 -0.4786,-0.372l-2.7947,-4.92812l-0.0106,-0.01719c-0.0981,-0.18477 -0.119,-0.40034 -0.0582,-0.60023c0.0608,-0.19989 0.1984,-0.36809 0.3831,-0.46833c0.1848,-0.10024 0.4018,-0.12449 0.6044,-0.06753c0.2026,0.05696 0.3745,0.19057 0.4786,0.37203zm-5.90388,-0.67021c0.38132,0.2115 0.51998,0.68739 0.31599,1.06678l-0.00933,0.01718l-2.79597,4.92812c-0.10202,0.1851 -0.27403,0.3224 -0.47819,0.3818c-0.20416,0.0594 -0.42375,0.0359 -0.61046,-0.0652c-0.18671,-0.1012 -0.32525,-0.2717 -0.38513,-0.4741c-0.05989,-0.2025 -0.03622,-0.4202 0.0658,-0.6053l0.00933,-0.0185l2.79597,-4.92807c0.05162,-0.09116 0.12086,-0.17134 0.20376,-0.23597c0.0829,-0.06462 0.17782,-0.11241 0.27936,-0.14065c0.10153,-0.02823 0.20768,-0.03636 0.31238,-0.0239c0.1047,0.01245 0.2059,0.04524 0.29782,0.09649l-0.00133,0.00132zm2.49058,-7.94072c0.5434,0 1.0815,0.10615 1.5834,0.31239c0.502,0.20624 0.9581,0.50852 1.3422,0.88957c0.384,0.38106 0.6886,0.83341 0.8963,1.33122c0.2077,0.49781 0.3145,1.03131 0.3141,1.57003c0.0099,0.5446 -0.0898,1.0857 -0.2932,1.59168c-0.2034,0.50599 -0.5064,0.96674 -0.8914,1.35533c-0.385,0.3886 -0.8442,0.69726 -1.3508,0.90796c-0.5066,0.2107 -1.0505,0.31922 -1.5999,0.31922c-0.5494,0 -1.0933,-0.10852 -1.5999,-0.31922c-0.5066,-0.2107 -0.9658,-0.51936 -1.35078,-0.90796c-0.38497,-0.38859 -0.688,-0.84934 -0.89139,-1.35533c-0.20339,-0.50598 -0.30306,-1.04708 -0.29319,-1.59168c-0.00035,-0.5386 0.10632,-1.072 0.31393,-1.56972c0.20761,-0.49773 0.51209,-0.95002 0.89604,-1.33106c0.38395,-0.38103 0.83989,-0.68334 1.34169,-0.88966c0.5018,-0.20632 1.0397,-0.3126 1.5829,-0.31277z"/>
 </g>
</svg>