<svg width="48" height="48" viewBox="0 0 48 48" fill="none" xmlns="http://www.w3.org/2000/svg">
<path fill-rule="evenodd" clip-rule="evenodd" d="M19.3125 9.1875H12.75C10.679 9.1875 9 10.8665 9 12.9375V19.5C9 21.571 10.679 23.25 12.75 23.25H19.3125C21.3835 23.25 23.0625 21.571 23.0625 19.5V12.9375C23.0625 10.8665 21.3835 9.1875 19.3125 9.1875ZM19.3125 25.125H12.75C10.679 25.125 9 26.8039 9 28.875V35.4375C9 37.5086 10.679 39.1875 12.75 39.1875H19.3125C21.3835 39.1875 23.0625 37.5086 23.0625 35.4375V28.875C23.0625 26.8039 21.3835 25.125 19.3125 25.125ZM35.25 25.125H28.6875C26.6164 25.125 24.9375 26.8039 24.9375 28.875V35.4375C24.9375 37.5086 26.6164 39.1875 28.6875 39.1875H35.25C37.3211 39.1875 39 37.5086 39 35.4375V28.875C39 26.8039 37.3211 25.125 35.25 25.125Z" fill="url(#paint0_linear_69_1156)"/>
<path d="M28.6875 9.1875H35.25C37.3211 9.1875 39 10.8665 39 12.9375V19.5C39 21.571 37.3211 23.25 35.25 23.25H28.6875C26.6164 23.25 24.9375 21.571 24.9375 19.5V12.9375C24.9375 10.8665 26.6164 9.1875 28.6875 9.1875Z" fill="url(#paint1_linear_69_1156)"/>
<defs>
<linearGradient id="paint0_linear_69_1156" x1="24" y1="9.1875" x2="24" y2="39.1875" gradientUnits="userSpaceOnUse">
<stop stop-color="#F8C6C6"/>
<stop offset="1" stop-color="#EA4C4C"/>
</linearGradient>
<linearGradient id="paint1_linear_69_1156" x1="31.9688" y1="9.1875" x2="31.9688" y2="23.25" gradientUnits="userSpaceOnUse">
<stop stop-color="#FFFCFC"/>
<stop offset="1" stop-color="#F8C2C2"/>
</linearGradient>
</defs>
</svg>
