<svg width="24" height="24" xmlns="http://www.w3.org/2000/svg" fill="none">
 <defs>
  <clipPath id="clip0_1800_440">
   <rect id="svg_1" fill="white" height="24" width="24"/>
  </clipPath>
  <linearGradient y2="1" x2="0.5" y1="0" x1="0.5" id="paint0_linear_1800_440">
   <stop stop-color="#28ED6A"/>
   <stop stop-color="#009DFF" offset="1"/>
  </linearGradient>
 </defs>
 <g>
  <title>Layer 1</title>
  <g id="svg_2" clip-path="url(#clip0_1800_440)">
   <path id="svg_3" fill-opacity="0.65" fill="url(#paint0_linear_1800_440)" d="m22.6286,0.14941l-21.13031,0c-0.39739,0.00091 -0.77822,0.15929 -1.05906,0.44045c-0.28083,0.28116 -0.43878,0.66217 -0.43923,1.05955l0,15.73369c0,0.9 0.6,1.6492 1.49829,1.6492l20.97941,0c0.7492,0 1.4983,-0.6 1.4983,-1.4983l0,-16.03544c0.1509,-0.74915 -0.6,-1.34915 -1.3474,-1.34915zm-2.5475,8.69143l-3.7474,0l-2.5474,2.54916c-0.1492,0 -0.4492,0.1491 -0.7492,0c-0.3,-0.1509 -0.3,-0.1509 -0.3,-0.4509l-0.8982,-3.74569l-1.94919,7.78969c-0.14914,0.3 -0.44914,0.6 -0.6,0.6c-0.14914,0 -0.59828,-0.3 -0.74742,-0.6l-1.05086,-6.14226l-3.59486,0c-0.44914,0 -0.6,-0.29828 -0.6,-0.6c0,-0.29828 0.3,-0.74743 0.6,-0.74743l4.04572,0c0.3,0 0.6,0.3 0.6,0.6l0.74914,3.74569l1.94747,-7.79311c0,-0.3 0.3,-0.6 0.6,-0.6c0.3,0 0.6,0.3 0.6,0.6l1.0474,5.54571l1.8,-1.8c0.1491,-0.14914 0.2983,-0.14914 0.5983,-0.14914l4.0457,0c0.4491,0 0.6,0.3 0.6,0.6c0.1491,0.44914 -0.1509,0.6 -0.4492,0.6l0,-0.00172zm-0.1508,13.18796l-15.88459,0c-0.44914,0 -0.89828,0.4492 -0.89828,0.8983c0,0.4509 0.44914,1.0492 0.89828,1.0492l15.88459,0c0.4491,0 0.9,-0.4492 0.9,-0.8983c0,-0.4492 -0.4509,-1.0492 -0.9,-1.0492z"/>
  </g>
 </g>
</svg>