<svg width="1029" height="1024" xmlns="http://www.w3.org/2000/svg" p-id="4019" version="1.1" class="icon" t="1749541573572">

 <g>
  <title>Layer 1</title>
  <path id="svg_1" p-id="4020" fill="#f4ea2a" d="m785.06667,455.11111l-176.35556,-34.13333l-85.33333,-159.28889c0,-5.68889 -11.37778,-11.37778 -11.37778,-11.37778s-11.37778,5.68889 -17.06667,11.37778l-85.33333,159.28889l-176.35556,34.13333c-11.37777,0 -17.06666,5.68889 -17.06666,5.68889s0,11.37778 5.68889,17.06667l119.46666,136.53333l-17.06666,176.35556l0,17.06666l17.06666,0l170.66667,-73.95555l159.28889,73.95555l17.06667,0s5.68889,-11.37778 0,-17.06666l-17.06667,-176.35556l125.15555,-136.53333c5.68889,-5.68889 11.37778,-17.06667 5.68889,-17.06667c0,0 -5.68889,-5.68889 -17.06666,-5.68889z"/>
  <path id="svg_2" p-id="4021" fill="#1296db" d="m534.75556,39.82222l-45.51112,0c-267.37777,0 -489.24444,221.86667 -489.24444,489.24445s221.86667,489.24444 489.24444,489.24444l51.2,0c267.37778,0 489.24445,-221.86667 489.24445,-489.24444s-227.55556,-489.24445 -494.93333,-489.24445zm295.82222,472.17778l-102.4,113.77778l17.06666,153.6c0,28.44444 -5.68888,51.2 -22.75555,62.57778c-5.68889,5.68889 -17.06667,11.37777 -34.13333,11.37777c-11.37778,0 -22.75556,0 -34.13334,-5.68889l-142.22222,-62.57777l-142.22222,68.26666c-22.75556,11.37778 -51.2,11.37778 -68.26667,0c-17.06667,-11.37777 -28.44444,-34.13333 -22.75555,-62.57777l17.06666,-153.6l-108.08889,-125.15556c-17.06666,-17.06667 -22.75555,-45.51111 -17.06666,-68.26667c11.37777,-17.06666 28.44444,-34.13333 56.88889,-39.82222l153.6,-34.13333l73.95555,-130.84445c17.06667,-22.75555 34.13333,-34.13333 56.88889,-34.13333s45.51111,17.06667 56.88889,39.82222l73.95555,136.53334l153.6,28.44444c28.44445,5.68889 45.51112,22.75556 51.2,39.82222c11.37778,22.75556 5.68889,45.51111 -17.06666,62.57778z"/>
 </g>
</svg>