<svg width="64" height="64" viewBox="0 0 64 64" fill="none" xmlns="http://www.w3.org/2000/svg">
<g id="&#233;&#135;&#135;&#232;&#180;&#173;&#232;&#174;&#176;&#229;&#189;&#149;mdpi 1" clip-path="url(#clip0_1194_393)">
<path id="Vector" d="M7.57305 19.1559L25.0757 1.57098C25.7505 0.893008 26.4253 0.893008 27.1001 1.57098L28.3678 2.84466C29.0426 3.52263 29.0426 4.2006 28.3678 4.87857L10.8652 22.4634C10.1904 23.1414 9.51558 23.1414 8.84078 22.4634L7.57305 21.1898C6.89826 20.5118 6.89826 19.8338 7.57305 19.1559Z" fill="#2296F3"/>
<path id="Vector_2" d="M35.5298 2.77264L36.7849 1.51165C37.4639 0.829449 38.1429 0.829449 38.8219 1.51165L56.4419 19.2145C57.1209 19.8967 57.1209 20.5789 56.4419 21.2611L55.1868 22.5221C54.5078 23.2043 53.8288 23.2043 53.1498 22.5221L35.5298 4.81925C34.8508 4.13705 34.8508 3.45484 35.5298 2.77264Z" fill="#2296F3"/>
<path id="Vector_3" d="M62.7303 18.9414H57.1615C57.4701 19.3612 57.6188 19.8783 57.5803 20.3988C57.5419 20.9192 57.319 21.4086 56.9521 21.778L55.6968 23.0392C55.2899 23.4466 54.7389 23.6753 54.1645 23.6753C53.59 23.6753 53.039 23.4466 52.6321 23.0392L48.5535 18.9414H15.4L11.3802 22.9802C10.9748 23.3859 10.4258 23.6137 9.8536 23.6137C9.28136 23.6137 8.73243 23.3859 8.327 22.9802L7.06027 21.7062C6.70291 21.3479 6.48171 20.8752 6.43506 20.3702C6.3884 19.8652 6.51925 19.3597 6.80488 18.9414H1.28717C1.11813 18.9414 0.950756 18.9749 0.79459 19.0399C0.638423 19.1049 0.496527 19.2001 0.377003 19.3202C0.257478 19.4403 0.162666 19.5829 0.0979798 19.7398C0.0332936 19.8967 -7.91393e-09 20.0648 0 20.2346L0 22.9096C-7.91393e-09 23.0794 0.0332936 23.2476 0.0979798 23.4045C0.162666 23.5614 0.257478 23.704 0.377003 23.824C0.496527 23.9441 0.638423 24.0394 0.79459 24.1044C0.950756 24.1694 1.11813 24.2028 1.28717 24.2028H3.96877L5.82418 52.1712C6.02058 55.1327 7.33044 57.9083 9.48824 59.9354C11.646 61.9626 14.4903 63.0895 17.4444 63.0878H46.5807C49.5348 63.0895 52.3791 61.9626 54.5369 59.9354C56.6946 57.9083 58.0045 55.1327 58.2009 52.1712L60.0563 24.2028H62.7379C62.907 24.2028 63.0743 24.1694 63.2305 24.1044C63.3867 24.0394 63.5286 23.9441 63.6481 23.824C63.7676 23.704 63.8624 23.5614 63.9271 23.4045C63.9918 23.2476 64.0251 23.0794 64.0251 22.9096V20.2346C64.0251 20.0642 63.9915 19.8954 63.9264 19.738C63.8612 19.5806 63.7657 19.4377 63.6454 19.3175C63.525 19.1973 63.3822 19.1022 63.2252 19.0377C63.0681 18.9731 62.8999 18.9404 62.7303 18.9414ZM37.1695 54.7153C36.6588 55.1437 36.1264 55.5453 35.5746 55.9187C41.0808 50.08 38.85 42.8672 30.3136 38.4256L26.6449 42.3694L22.5586 32.1135L35.4558 32.8935L32.8394 35.7083C42.3948 40.4527 44.4596 48.5879 37.1695 54.7153Z" fill="#B0D8F8"/>
</g>
<defs>
<clipPath id="clip0_1194_393">
<rect width="64" height="64" fill="white"/>
</clipPath>
</defs>
</svg>
