<svg width="24" height="24" xmlns="http://www.w3.org/2000/svg" fill="none">
 <defs>
  <clipPath id="clip0_1785_627">
   <rect id="svg_1" fill="white" height="24" width="24"/>
  </clipPath>
  <linearGradient y2="1" x2="0.5" y1="0" x1="0.5" id="paint0_linear_1785_627">
   <stop stop-color="#FFD79A"/>
   <stop stop-color="#FFAA00" offset="1"/>
  </linearGradient>
 </defs>
 <g>
  <title>Layer 1</title>
  <g id="svg_2" clip-path="url(#clip0_1785_627)">
   <path id="svg_3" fill="url(#paint0_linear_1785_627)" d="m12,0c2.3734,0 4.6935,0.70379 6.6668,2.02236c1.9734,1.31858 3.5115,3.19273 4.4198,5.38544c0.9082,2.19271 1.1458,4.6055 0.6828,6.9333c-0.463,2.3278 -1.6059,4.466 -3.2841,6.1442c-1.6782,1.6782 -3.8164,2.8211 -6.1442,3.2841c-2.3278,0.463 -4.74059,0.2254 -6.9333,-0.6828c-2.19271,-0.9083 -4.06686,-2.4464 -5.38544,-4.4198c-1.31857,-1.9733 -2.02236,-4.2934 -2.02236,-6.6668c0,-3.1826 1.26428,-6.23484 3.51472,-8.48528c2.25044,-2.25044 5.30268,-3.51472 8.48528,-3.51472z"/>
   <path id="svg_4" fill="#D1D1D1" d="m5.69485,5.41113l-0.7416,0.37029l0.75188,-0.36754l-0.01028,-0.00275z"/>
   <path id="svg_5" fill="#D1D1D1" d="m5.69485,5.41113l-0.7416,0.37029l0.75188,-0.36754l-0.01028,-0.00275z"/>
   <path id="svg_6" fill="white" d="m11.0075,10.4112c0.0003,-0.4362 0.13,-0.86255 0.3726,-1.22509c0.2426,-0.36255 0.5873,-0.64502 0.9904,-0.81171c0.4031,-0.16669 0.8466,-0.21011 1.2744,-0.12478c0.4279,0.08534 0.8208,0.29561 1.1291,0.60422c0.3083,0.3086 0.5182,0.7017 0.6031,1.12959c0.085,0.42787 0.0411,0.87137 -0.1259,1.27437c-0.1671,0.4029 -0.4499,0.7473 -0.8127,0.9896c-0.3627,0.2423 -0.7892,0.3716 -1.2254,0.3715c-0.585,-0.001 -1.1458,-0.234 -1.5592,-0.6478c-0.4135,-0.4139 -0.646,-0.9749 -0.6464,-1.5599zm7.1249,-3.24031c0.0011,-0.32989 -0.1278,-0.64693 -0.3589,-0.8824c-0.231,-0.23548 -0.5455,-0.3704 -0.8754,-0.37554c-0.0216,-0.00069 -2.2001,-0.08092 -3.8455,-0.08092c-1.8936,0 -2.0647,0.09189 -2.2694,0.29657l-2.9283,2.93006l-3.75806,3.76114c-0.2361,0.2377 -0.3683,0.5594 -0.36759,0.8944c0.00071,0.3351 0.13426,0.6562 0.37137,0.8929l5.34377,5.3465c0.11744,0.1178 0.25704,0.2111 0.41075,0.2746c0.15376,0.0635 0.31846,0.0959 0.48476,0.0954c0.165,0.001 0.3286,-0.0308 0.4811,-0.0936c0.1526,-0.0629 0.2912,-0.1554 0.4076,-0.2723l4.1822,-4.1828l2.5052,-2.508c0.2212,-0.2201 0.429,-0.4289 0.2164,-6.0943"/>
  </g>
 </g>
</svg>