<svg width="24" height="22" xmlns="http://www.w3.org/2000/svg" fill="none">
 <defs>
  <linearGradient y2="1" x2="0.5" y1="0" x1="0.5" id="paint0_linear_1810_578">
   <stop stop-color="#FFB897"/>
   <stop stop-color="#FF3377" offset="1"/>
  </linearGradient>
 </defs>
 <g>
  <title>Layer 1</title>
  <path id="svg_1" fill="url(#paint0_linear_1810_578)" d="m19.3985,0.4392c-3.0391,-1.05035 -5.0297,0.01899 -6.0406,0.87636c-0.0032,0.00316 -0.0032,0.00632 -0.0063,0.00949l-1.8435,1.86343l-4.85439,4.90694c-0.28482,0.2879 -0.74804,0.2879 -1.03599,0c-0.28481,-0.2879 -0.28481,-0.75613 0,-1.04719l5.36148,-5.41947c-0.8607,-0.87002 -2.95148,-2.37596 -6.37868,-1.19272c-2.61343,1.13261 -8.05626,6.41604 -1.46477,12.95226c6.59148,6.5363 8.66655,8.3871 8.66655,8.3871l0.2003,0.2246l0.2003,-0.2246c0,0 2.0751,-1.8508 8.6666,-8.3871c6.5853,-6.53622 1.1393,-11.81648 -1.471,-12.9491z"/>
 </g>
</svg>