<svg width="48" height="48" viewBox="0 0 48 48" fill="none" xmlns="http://www.w3.org/2000/svg">
<path fill-rule="evenodd" clip-rule="evenodd" d="M20.9467 9.74157C20.385 9.37548 19.7676 9.20654 19.1624 9.20654C17.6853 9.20664 16.2817 10.2127 15.9442 11.8136L15.6336 13.2871C15.5024 13.9097 15.193 14.4807 14.7431 14.9306C14.2932 15.3805 13.7222 15.6899 13.0996 15.8211L11.6262 16.1317C9.36914 16.6074 8.29448 19.2019 9.55401 21.1342L10.3763 22.3957C10.7237 22.9287 10.9087 23.5512 10.9087 24.1875C10.9087 24.8237 10.7237 25.4462 10.3763 25.9793L9.55401 27.2408C8.29448 29.173 9.36914 31.7675 11.6262 32.2433L13.0996 32.5539C13.7222 32.685 14.2932 32.9944 14.7431 33.4443C15.1931 33.8942 15.5024 34.4652 15.6336 35.0878L15.9442 36.5612C16.2817 38.1624 17.6851 39.1684 19.1624 39.1684C19.7674 39.1684 20.3852 38.9994 20.9467 38.6334L22.2082 37.8111C22.7527 37.4561 23.3763 37.2786 24 37.2786C24.6236 37.2786 25.2472 37.4561 25.7917 37.8111L27.0532 38.6334C27.6148 38.9994 28.2324 39.1684 28.8375 39.1684C30.3147 39.1684 31.7182 38.1623 32.0556 36.5612L32.3662 35.0878C32.4974 34.4652 32.8067 33.8942 33.2566 33.4443C33.7065 32.9944 34.2775 32.685 34.9001 32.5539L36.3735 32.2433C38.6306 31.7676 39.7053 29.173 38.4458 27.2408L37.6235 25.9793C37.2761 25.4462 37.0911 24.8237 37.0911 24.1875C37.0911 23.5512 37.2761 22.9287 37.6235 22.3957L38.4458 21.1342C39.7052 19.2019 38.6306 16.6074 36.3735 16.1317L34.9001 15.8211C34.2775 15.6898 33.7065 15.3805 33.2567 14.9306C32.8068 14.4807 32.4974 13.9097 32.3662 13.2871L32.0556 11.8136C31.7182 10.2125 30.3148 9.20654 28.8375 9.20654C28.2325 9.20654 27.6147 9.37557 27.0532 9.74157L25.7917 10.5639C25.2588 10.9115 24.6362 11.0965 24 11.0963C23.3637 11.0964 22.7411 10.9115 22.2082 10.5639L20.9467 9.74157Z" fill="url(#paint0_linear_69_1274)"/>
<path d="M24 29.4375C21.1052 29.4375 18.75 27.0824 18.75 24.1875C18.75 21.2927 21.1052 18.9375 24 18.9375C26.8949 18.9375 29.25 21.2927 29.25 24.1875C29.25 27.0824 26.8949 29.4375 24 29.4375ZM24 21.75C22.656 21.75 21.5625 22.8435 21.5625 24.1875C21.5625 25.5316 22.656 26.625 24 26.625C25.3441 26.625 26.4375 25.5316 26.4375 24.1875C26.4375 22.8435 25.3441 21.75 24 21.75Z" fill="url(#paint1_linear_69_1274)"/>
<defs>
<linearGradient id="paint0_linear_69_1274" x1="12.8788" y1="7.12224" x2="25.1545" y2="28.676" gradientUnits="userSpaceOnUse">
<stop stop-color="#EAF7F2"/>
<stop offset="1" stop-color="#40B08A"/>
</linearGradient>
<linearGradient id="paint1_linear_69_1274" x1="24" y1="18.9375" x2="24" y2="29.4375" gradientUnits="userSpaceOnUse">
<stop stop-color="#E1F3ED"/>
<stop offset="1" stop-color="#C3EDE0"/>
</linearGradient>
</defs>
</svg>
