<svg width="20" height="20" xmlns="http://www.w3.org/2000/svg" fill="none">
 <defs>
  <linearGradient y2="0.47828" x2="1.07979" y1="0.47874" x1="-0.69204" id="paint0_linear_1810_661">
   <stop stop-color="#00FFC8"/>
   <stop stop-color="#1A4CFF" offset="1"/>
  </linearGradient>
  <linearGradient y2="0.57884" x2="1.28086" y1="0.57935" x1="-11.23508" id="paint1_linear_1810_661">
   <stop stop-color="#00FFC8"/>
   <stop stop-color="#1A4CFF" offset="1"/>
  </linearGradient>
  <linearGradient y2="3.67884" x2="1.04256" y1="3.68205" x1="-0.93064" id="paint2_linear_1810_661">
   <stop stop-color="#00FFC8"/>
   <stop stop-color="#1A4CFF" offset="1"/>
  </linearGradient>
 </defs>
 <g>
  <title>Layer 1</title>
  <path id="svg_1" fill="url(#paint0_linear_1810_661)" d="m5.8953,15.635c-0.27385,0.2738 -0.72772,0.264 -1.01374,-0.0221c-0.28318,-0.2831 -0.29568,-0.7308 -0.0302,-1.0054l0.00815,-0.0083l8.91309,-8.91316c0.2739,-0.27385 0.7278,-0.26398 1.0138,0.02205c0.2831,0.28317 0.2957,0.73084 0.0302,1.00548l-0.0082,0.00826l-8.9131,8.91317z"/>
  <path id="svg_2" fill="url(#paint1_linear_1810_661)" d="m15.4217,13.6209c0,0.4045 -0.3279,0.7324 -0.7324,0.7324c-0.4005,0 -0.7259,-0.3214 -0.7323,-0.7203l-0.0001,-0.0121l0,-7.83695c0,-0.40452 0.3279,-0.73242 0.7324,-0.73242c0.4004,0 0.7259,0.32138 0.7323,0.7203l0.0001,0.01212l0,7.83695z"/>
  <path id="svg_3" fill="url(#paint2_linear_1810_661)" d="m6.87894,6.51172c-0.4045,0 -0.73242,-0.32791 -0.73242,-0.73242c0,-0.40045 0.32139,-0.72585 0.72032,-0.73232l0.0121,-0.0001l7.82626,0c0.4046,0 0.7325,0.32792 0.7325,0.73242c0,0.40045 -0.3214,0.72586 -0.7203,0.73233l-0.0122,0.00009l-7.82626,0z"/>
 </g>
</svg>