<svg width="64" height="64" viewBox="0 0 64 64" fill="none" xmlns="http://www.w3.org/2000/svg">
<g id="&#229;&#133;&#177;&#228;&#186;&#171;&#230;&#150;&#135;&#230;&#161;&#163; 1">
<path id="Vector" d="M28.6755 3.55566C31.5911 3.55566 34.2933 5.13789 35.7902 7.71922L39.1467 13.5112H51.6124C56.4871 13.5112 60.4444 17.5859 60.4444 22.6134V51.3423C60.4444 56.3699 56.4871 60.4445 51.6089 60.4445H12.3911C7.51288 60.4445 3.55554 56.3699 3.55554 51.3423V12.6579C3.55554 7.63033 7.51288 3.55566 12.3911 3.55566H28.6755Z" fill="#FFDC91"/>
<path id="Vector_2" d="M39.0578 13.3652L39.1431 13.511H51.6089C56.4871 13.511 60.4444 17.5857 60.4444 22.6132V51.3421C60.4444 56.3697 56.4871 60.4443 51.6089 60.4443H12.3911C7.51288 60.4443 3.55554 56.3697 3.55554 51.3421V13.3652H39.0578Z" fill="#FFF4CE"/>
<path id="Vector_3" d="M36.5582 26.457C37.8916 26.457 39.0649 27.3495 39.4596 28.6615C39.6537 29.2958 39.645 29.9748 39.4346 30.604C39.2243 31.2331 38.8228 31.7808 38.2862 32.1708C37.7571 32.5505 37.1176 32.7455 36.4667 32.7255C35.8157 32.7056 35.1894 32.4719 34.6844 32.0606L29.2693 35.6126C29.4827 36.2917 29.5253 37.017 29.3902 37.7175L36.4693 41.2339C37.0315 40.5866 37.8133 40.1704 38.6642 40.0653C39.515 39.9603 40.3746 40.1739 41.0773 40.665C42.5351 41.6784 43.0507 43.6446 42.2862 45.2801C41.9327 46.0625 41.3048 46.6881 40.5211 47.0386C39.7375 47.3892 38.8526 47.4403 38.0338 47.1824C37.2101 46.9045 36.5122 46.3428 36.0647 45.5976C35.6172 44.8525 35.4493 43.9724 35.5911 43.1148L28.5084 39.5984C27.4418 40.9033 25.7067 41.4081 24.1351 40.8677C23.3571 40.5921 22.6786 40.0914 22.186 39.4291C21.6934 38.7668 21.409 37.973 21.3689 37.1486C21.3156 36.323 21.5076 35.5001 21.9207 34.7833C22.3338 34.0665 22.9496 33.4879 23.6907 33.1201C24.4234 32.7655 25.2476 32.6451 26.0511 32.7756C26.8546 32.906 27.5984 33.2808 28.1813 33.849L33.5964 30.2935C33.4937 29.8356 33.4926 29.3608 33.5934 28.9025C33.6941 28.4442 33.8942 28.0136 34.1795 27.641C34.4593 27.2742 34.8196 26.9767 35.2327 26.7714C35.6457 26.5661 36.1005 26.4585 36.5618 26.457H36.5582Z" fill="#2296F3"/>
</g>
</svg>
