<svg width="64" height="64" viewBox="0 0 64 64" fill="none" xmlns="http://www.w3.org/2000/svg">
<g id="&#229;&#161;&#171;&#229;&#134;&#153;&#232;&#161;&#168;&#229;&#141;&#149; 1">
<path id="Vector" d="M38.928 4.28809H11.216C9.30395 4.28809 7.75195 5.84009 7.75195 7.75209V56.2561C7.75195 58.1681 9.30395 59.7201 11.216 59.7201H52.784C54.696 59.7201 56.248 58.1681 56.248 56.2561V21.6161L38.928 4.28809Z" fill="#64BAFF"/>
<path id="Vector_2" d="M38.928 4.28809V18.1441C38.928 20.0561 40.48 21.6081 42.392 21.6081H56.248L38.928 4.28809Z" fill="#A2DBFF"/>
<path id="Vector_3" d="M42.392 21.6079L56.248 35.4639V21.6079H42.392Z" fill="#46A2EB"/>
<path id="Vector_4" d="M30.264 30.272H45.856V37.2H30.264V30.272ZM18.144 30.272H28.536V37.2H18.144V30.272ZM30.264 38.928H45.856V44.128H30.264V38.928ZM18.144 38.928H28.536V44.128H18.144V38.928ZM30.264 45.856H45.856V51.056H30.264V45.856ZM18.144 45.856H28.536V51.056H18.144V45.856Z" fill="white"/>
</g>
</svg>
