<svg width="92" height="26" xmlns="http://www.w3.org/2000/svg" fill="none">

 <g>
  <title>Layer 1</title>
  <path id="svg_1" fill="#4F9130" d="m18.0243,3.90039l1.5969,1.5444l1.6889,-0.0962c0,0 0.0946,0.767 0.1879,1.3975c0.7286,5.10001 1.4484,10.20121 2.1594,15.30361l-6.5715,1.3507l0.9384,-19.50001z"/>
  <path id="svg_2" fill="#293165" d="m62.8938,13.2927c0,-0.1001 0.0053,-0.1989 0,-0.299c-0.0341,-0.5681 -0.1458,-1.1076 -0.7517,-1.3182c-0.5809,-0.2015 -1.0633,0.052 -1.4076,0.5044c-0.3036,0.3978 -0.6256,0.8372 -0.7492,1.3104c-0.2996,1.1297 -0.4994,2.288 -0.7031,3.4398c-0.021,0.1235 0.1564,0.3523 0.2931,0.4225c0.7951,0.403 1.6823,0.0962 2.2592,-0.7618c0.659,-0.9794 1.0265,-2.1222 1.0607,-3.2981l-0.0014,0zm-5.0047,-3.75441l2.2868,0l-0.1249,1.59641c0,0 0.2905,-0.4732 0.3812,-0.5746c0.7912,-0.8905 1.7835,-1.287 2.9479,-1.1999c1.1829,0.0871 2.1305,1.1492 2.2869,2.6975c0.2103,2.093 -0.2799,4.0066 -1.5706,5.6823c-1.1132,1.4443 -3.0978,2.3686 -5.2782,1.573c-0.2208,1.079 -0.8017,4.0872 -0.8017,4.0872l-2.6154,-0.0104l2.488,-13.85151zm-21.0891,9.88781l0.7386,-4.0131l1.8861,-10.2128l2.7113,0.0195c0,0 -0.6782,3.62959 -1.0251,5.5055c0.4205,-0.325 0.7517,-0.624 1.1211,-0.8593c0.7714,-0.4914 1.6192,-0.6448 2.505,-0.4264c0.8162,0.2028 1.2722,0.8138 1.3747,1.6198c0.094,0.7045 0.0883,1.4186 -0.017,2.1216c-0.3273,2.0254 -1.1514,6.2192 -1.1514,6.2192l-2.6758,0c0,0 0.3219,-1.8044 0.4823,-2.691c0.1984,-1.1076 0.4114,-2.2139 0.598,-3.3254c0.0456,-0.3112 0.0575,-0.6262 0.0355,-0.9399c-0.0368,-0.6968 -0.5455,-1.0231 -1.1868,-0.7761c-0.6164,0.2392 -1.0225,0.7319 -1.2381,1.326c-0.2918,0.8216 -0.5296,1.664 -0.711,2.5181c-0.2497,1.131 -0.7268,3.926 -0.7268,3.926l-2.7206,-0.013l0,0.0013zm44.507,-2.2984c0.8148,-2.1502 2.5537,-6.7132 2.5537,-6.7132l2.8822,-0.0143c0,0 -3.1858,6.8354 -4.4423,9.3041c-0.7873,1.5496 -1.7704,2.9978 -3.2187,4.0261c-1.4654,0.871 -2.0608,0.9698 -2.0608,0.9698l-0.7925,-2.379c0,0 0.2182,-0.0429 0.4271,-0.117c1.0672,-0.3887 1.8663,-1.1115 2.4683,-2.0462c0.1577,-0.2457 0.2339,-0.6253 0.184,-0.9152c-0.4876,-2.7651 -1.5811,-8.8426 -1.5811,-8.8426l2.8625,0.0208l0.7176,6.7054m-31.6796,-1.6224c0,0.1456 -0.0065,0.2912 0.0027,0.4355c0.0473,0.7761 0.3732,1.2701 0.9463,1.4469c0.5125,0.156 1.1263,-0.0858 1.56,-0.6799c0.8832,-1.2103 1.1697,-2.5831 1.0146,-4.0456c-0.067,-0.6318 -0.4415,-1.0088 -1.0146,-1.0894c-0.7071,-0.0988 -1.1894,0.2886 -1.5561,0.819c-0.6453,0.936 -0.9069,1.9955 -0.9515,3.1135m0.9699,3.991c-2.0568,0.0585 -3.6038,-1.2168 -3.7549,-3.25c-0.1972,-2.6182 0.6703,-4.8282 3.0715,-6.1594c1.5022,-0.8346 3.128,-0.9451 4.6617,0.065c0.765,0.507 1.2131,1.2636 1.3432,2.1307c0.3483,2.3413 -0.2562,4.4031 -2.0699,6.0281c-0.9161,0.819 -2.0319,1.1557 -3.2516,1.1843m20.5397,-0.1716l1.4431,-7.5621l-1.2591,-0.0741l0.4389,-2.028l1.1816,0.00649c0,0 0.1301,-0.50699 0.1971,-0.79689c0.3956,-1.703 1.2486,-3.0225 3.057,-3.523c0.8793,-0.2418 1.7467,-0.1638 2.6602,0.1209l-0.5192,2.0891c-0.669,-0.0897 -1.3274,-0.23921 -1.8623,0.31199c-0.4679,0.4849 -0.6112,1.0803 -0.74,1.7797l1.8939,0l-0.4508,2.06181l-1.7743,0.0065l-1.4772,7.6154l-2.7889,-0.0078zm-35.2426,-7.5348c0,0 -0.8885,-0.2574 -1.3051,-0.2756c-0.4055,-0.0174 -0.8105,0.0422 -1.1934,0.1755c-0.5244,0.1885 -0.6545,0.767 -0.2944,1.1973c0.184,0.2184 0.439,0.3835 0.6756,0.5512c0.3062,0.2158 0.6321,0.403 0.941,0.6149c2.0358,1.404 1.242,4.2042 -0.7229,4.9946c-1.5771,0.637 -3.1306,0.585 -4.6893,-0.0286c-0.1406,-0.051 -0.273,-0.122 -0.393,-0.2106l0.6755,-1.7888c0,0 1.2946,0.5252 2.304,0.4914c0.5783,-0.0208 1.033,-0.2782 1.1526,-0.6734c0.1577,-0.5174 -0.1117,-0.8788 -0.4968,-1.17c-0.3141,-0.234 -0.6479,-0.4407 -0.9726,-0.6578c-0.9791,-0.6565 -1.5994,-1.5067 -1.4023,-2.7339c0.1972,-1.2142 0.9673,-2.0033 2.0897,-2.4401c1.2302,-0.4771 2.2001,-0.4459 3.4763,-0.1365c0.2655,0.065 0.7584,0.2587 0.7584,0.2587l-0.6033,1.8317zm34.7234,-2.1385l-1.911,9.6798l-2.7586,-0.0286l2.0687,-9.633l2.6022,-0.0182l-0.0013,0zm-1.0672,-1.1856c-0.7294,0.013 -1.2591,-0.52391 -1.2775,-1.29741c-0.021,-0.8801 0.6624,-1.60289 1.5272,-1.61719c0.8136,-0.013 1.3892,0.50829 1.4129,1.28179c0.0315,0.9529 -0.6401,1.61201 -1.6626,1.63281z"/>
  <path id="svg_3" fill="#89C228" d="m15.7609,4.72948c0,0 0.063,-1.118 -0.2655,-2.0774c0.6492,0.0052 1.1145,0.858 1.4194,1.7173l-1.1539,0.3601zm-0.9424,-1.9318c0.2471,0.6526 0.3023,1.5405 0.3076,2.1294l-2.2606,0.7046c0.4179,-1.3949 1.1066,-2.4609 1.953,-2.834zm-4.4725,3.6205c0.5231,-2.0917 2.3631,-4.7944 3.7352,-4.4421c0.1012,0.026 0.1893,0.0728 0.2721,0.1326c-1.3183,0.6214 -2.0004,2.379 -2.279,3.77l-1.7283,0.5395zm7.1891,-2.2425c-0.3298,-0.9997 -0.983,-2.2958 -2.1383,-2.2958c-0.0999,0 -0.1971,0.0065 -0.2918,0.0182c-0.1378,-0.18904 -0.32,-0.3422 -0.5308,-0.44635c-0.2108,-0.10415 -0.444,-0.15619 -0.6796,-0.15165c-2.8034,0 -4.08746,4.3199 -4.35689,5.369l-2.59177,0.8073l-1.68886,13.60712l12.20442,2.3166l0.9384,-19.49352l-0.8634,0.2691l-0.0014,0z"/>
  <path id="svg_4" fill="white" d="m15.7715,9.50001c0,0 -0.506,-0.4004 -2.0227,-0.4004c-1.5154,0 -4.37397,0.6981 -4.64866,4.09889c-0.20371,2.4973 2.62726,2.9978 2.52606,4.3979c-0.1012,1.3988 -2.32497,0.6981 -3.03206,-0.2015l-0.7084,2.0007c0,0 1.012,1.508 3.64056,1.4001c2.4249,-0.1001 3.2332,-1.9006 3.2332,-3.5984c0,-1.1999 -0.6099,-2.2438 -1.9202,-2.9991c-1.2131,-0.6994 -1.3143,-1.2987 -1.2131,-1.6991c0.1472,-0.5811 1.2144,-1.2987 3.1346,-0.3991l1.0093,-2.59869l0.0014,0l0,-0.0013z"/>
 </g>
</svg>