<svg width="58" height="23" xmlns="http://www.w3.org/2000/svg" fill="none">
 <defs>
  <clipPath id="clip0_1810_671">
   <rect id="svg_1" x="0.5" y="0" fill="white" height="23" width="57"/>
  </clipPath>
 </defs>
 <g>
  <title>Layer 1</title>
  <g id="svg_2" clip-path="url(#clip0_1810_671)">
   <path id="svg_3" fill="#293165" d="m22.2548,0.32437c0.1997,0 0.3973,0.03967 0.5818,0.11675c0.1844,0.07709 0.352,0.19006 0.4931,0.33249c0.1411,0.14242 0.2531,0.3115 0.3294,0.49757c0.0764,0.18607 0.1156,0.38549 0.1156,0.58687l0,20.95505l-2.5334,-1.5331l0,-18.39949l-18.20739,0l0,18.39999l-2.53391,1.5326l0,-20.95505c-0.00007,-0.20138 0.03919,-0.4008 0.11554,-0.58687c0.07635,-0.18607 0.18829,-0.35515 0.32942,-0.49757c0.14114,-0.14243 0.30871,-0.2554 0.49313,-0.33249c0.18443,-0.07708 0.38211,-0.11675 0.58174,-0.11675l20.23497,0zm19.1588,17.74393c0.1865,0 0.3699,0.0366 0.5503,0.1109c0.1803,0.0731 0.3415,0.1808 0.4834,0.322c0.1425,0.1411 0.2555,0.3126 0.3405,0.5149c0.085,0.2022 0.1275,0.4343 0.1275,0.6962l0,0.012c0,0.2578 -0.0425,0.4888 -0.1275,0.6932c-0.0776,0.1935 -0.1922,0.3697 -0.3374,0.5185c-0.2744,0.2786 -0.647,0.4363 -1.0363,0.4386c-0.1852,0.0032 -0.3691,-0.0322 -0.5401,-0.104c-0.171,-0.0717 -0.3255,-0.1784 -0.4538,-0.3131c-0.0773,-0.0797 -0.1477,-0.1659 -0.2104,-0.2577l0,1.5885l-0.4679,0l0,-4.1525l0.4679,0l0,0.6377c0.0648,-0.0941 0.1368,-0.1835 0.2156,-0.2697c0.1612,-0.1749 0.3645,-0.3047 0.5902,-0.3769c0.1197,-0.0387 0.2524,-0.0586 0.398,-0.0586zm-4.0004,0c0.218,-0.0015 0.434,0.0408 0.6356,0.1245c0.2015,0.0838 0.3845,0.2073 0.5381,0.3633c0.1451,0.1489 0.2591,0.323 0.3399,0.5211c0.0814,0.1986 0.1218,0.4104 0.1218,0.6351l0,0.0126c0,0.2247 -0.0415,0.437 -0.1244,0.6377c-0.0829,0.2002 -0.1979,0.3758 -0.3435,0.5269c-0.1462,0.1516 -0.3203,0.2713 -0.5234,0.3591c-0.2076,0.0889 -0.4311,0.1337 -0.6565,0.1317c-0.2235,0.0024 -0.4451,-0.0425 -0.6504,-0.1317c-0.1931,-0.0841 -0.3685,-0.2047 -0.5166,-0.3554c-0.1464,-0.1497 -0.2623,-0.327 -0.3409,-0.5217c-0.0816,-0.2014 -0.1228,-0.4171 -0.1213,-0.6346l0,-0.012c-0.0024,-0.4345 0.1635,-0.8527 0.4622,-1.1657c0.1456,-0.1516 0.3192,-0.2708 0.5198,-0.3591c0.2084,-0.0895 0.4331,-0.1343 0.6596,-0.1318zm18.6716,0.0183c0.4457,0 0.7846,0.1166 1.0157,0.3503c0.2187,0.2211 0.328,0.5311 0.328,0.932l0,1.9377l-0.4622,0l0,-0.472c-0.1212,0.1536 -0.2708,0.282 -0.4405,0.378c-0.1845,0.1076 -0.4145,0.162 -0.6902,0.162c-0.1461,0 -0.2902,-0.0209 -0.4316,-0.0617c-0.1363,-0.0378 -0.2642,-0.1011 -0.3773,-0.1866c-0.1088,-0.0833 -0.1989,-0.189 -0.2643,-0.31c-0.0693,-0.1322 -0.1039,-0.2801 -0.1005,-0.4297l0,-0.012c0,-0.172 0.0327,-0.322 0.0974,-0.4506c0.0648,-0.1291 0.157,-0.2362 0.2767,-0.322c0.1192,-0.0862 0.2617,-0.1516 0.4255,-0.1965c0.1777,-0.0462 0.3606,-0.0687 0.5441,-0.0669c0.2031,0 0.3782,0.0115 0.5259,0.0366c0.1482,0.024 0.2933,0.0569 0.4353,0.0977l0,-0.0972c0,-0.2802 -0.0814,-0.4924 -0.2436,-0.6367c-0.1621,-0.1443 -0.3912,-0.2169 -0.6871,-0.2169c-0.1865,0 -0.3554,0.0209 -0.5078,0.0617c-0.1535,0.0417 -0.3029,0.0972 -0.4467,0.1657l-0.1399,-0.3884c0.1747,-0.0837 0.3508,-0.1495 0.5291,-0.1997c0.1783,-0.0497 0.3835,-0.0748 0.614,-0.0748zm-9.8257,0c0.4456,0 0.7845,0.1166 1.0156,0.3503c0.2187,0.2211 0.328,0.5311 0.328,0.932l0,1.9377l-0.4617,0l0,-0.472c-0.1211,0.1536 -0.2707,0.282 -0.4404,0.378c-0.185,0.1076 -0.4146,0.162 -0.6908,0.162c-0.1456,0 -0.2896,-0.0209 -0.4316,-0.0617c-0.136,-0.0379 -0.2638,-0.1012 -0.3767,-0.1866c-0.1088,-0.0833 -0.1989,-0.189 -0.2643,-0.31c-0.0693,-0.1322 -0.104,-0.2801 -0.1005,-0.4297l0,-0.012c0,-0.172 0.0321,-0.322 0.0974,-0.4506c0.0648,-0.1291 0.157,-0.2362 0.2762,-0.322c0.1197,-0.0862 0.2617,-0.1516 0.4259,-0.1965c0.1777,-0.0462 0.3606,-0.0687 0.5441,-0.0669c0.2026,0 0.3783,0.0115 0.526,0.0366c0.1477,0.024 0.2927,0.0569 0.4347,0.0977l0,-0.0972c0,-0.2802 -0.0813,-0.4924 -0.2435,-0.6367c-0.1617,-0.1443 -0.3907,-0.2169 -0.6866,-0.2169c-0.1866,0 -0.356,0.0209 -0.5078,0.0617c-0.1537,0.0417 -0.3033,0.0971 -0.4472,0.1657l-0.1399,-0.3884c0.1746,-0.0837 0.3508,-0.1495 0.529,-0.1997c0.1788,-0.0497 0.3835,-0.0748 0.6141,-0.0748zm-16.2575,-1.1343c0.312,0 0.5851,0.0445 0.8177,0.1323c0.2332,0.0873 0.4591,0.2195 0.6778,0.3952l-0.2793,0.3737c-0.1786,-0.1514 -0.3811,-0.2715 -0.599,-0.3554c-0.2017,-0.0735 -0.4146,-0.1108 -0.6291,-0.1103c-0.2798,0 -0.5005,0.0663 -0.6627,0.1991c-0.1622,0.1333 -0.2436,0.298 -0.2436,0.4945l0,0.0115c0,0.1025 0.0166,0.1934 0.0487,0.2729c0.0327,0.0805 0.0912,0.1537 0.1762,0.2211c0.0855,0.0674 0.2021,0.1286 0.3524,0.184c0.1503,0.0554 0.343,0.1072 0.5783,0.1563c0.4741,0.1061 0.8239,0.2535 1.0483,0.4417c0.2254,0.1882 0.3373,0.4454 0.3373,0.7726l0,0.012c0.0026,0.1685 -0.0324,0.3355 -0.1026,0.4884c-0.0701,0.153 -0.1736,0.288 -0.3026,0.395c-0.1265,0.1061 -0.2793,0.1882 -0.4576,0.2457c-0.1782,0.057 -0.3731,0.0857 -0.5835,0.0857c-0.3188,0.0039 -0.6355,-0.0534 -0.9332,-0.1688c-0.2975,-0.1218 -0.5705,-0.2972 -0.8058,-0.5175l0.298,-0.3565c0.2228,0.2049 0.4477,0.357 0.6747,0.4568c0.2264,0.1004 0.4886,0.1506 0.7845,0.1506c0.2871,0 0.5171,-0.0685 0.6892,-0.2054c0.173,-0.1375 0.2591,-0.3121 0.2591,-0.5249l0,-0.0115c0,-0.0988 -0.0161,-0.1876 -0.0493,-0.2676c-0.0371,-0.0863 -0.0961,-0.1613 -0.171,-0.2174c-0.1024,-0.077 -0.2162,-0.1369 -0.3373,-0.1778c-0.1803,-0.0631 -0.3645,-0.1145 -0.5514,-0.1537c-0.2166,-0.0449 -0.4296,-0.1061 -0.6373,-0.1829c-0.162,-0.0591 -0.3134,-0.1444 -0.4482,-0.2525c-0.1127,-0.092 -0.2023,-0.2095 -0.2617,-0.3429c-0.0597,-0.1457 -0.0888,-0.3024 -0.0855,-0.46l0,-0.012c0,-0.1678 0.0347,-0.3241 0.1036,-0.4663c0.069,-0.1438 0.1686,-0.2705 0.2917,-0.3711c0.126,-0.1046 0.2736,-0.1861 0.4441,-0.2457c0.17,-0.0596 0.356,-0.0889 0.5591,-0.0889zm24.2105,1.184l0,0.3006l-2.0913,2.4714l2.0913,0l0,0.3989l-2.724,0l0,-0.3006l2.0856,-2.472l-2.0121,0l0,-0.3983l2.6505,0zm-3.2288,0l0,0.3006l-2.0908,2.4714l2.0908,0l0,0.3989l-2.724,0l0,-0.3006l2.0862,-2.472l-2.0127,0l0,-0.3983l2.6505,0zm-6.8451,-1.3068l0,4.4771l-0.4685,0l0,-4.4771l0.4685,0zm-11.2969,0l0,1.8583c0.1052,-0.1715 0.2425,-0.3178 0.4135,-0.4386c0.17,-0.1202 0.3907,-0.1803 0.6627,-0.1803c0.1902,0 0.3597,0.0303 0.5079,0.0914c0.1476,0.0612 0.273,0.148 0.3767,0.2609c0.1036,0.1129 0.1813,0.2457 0.2368,0.4014c0.0549,0.1558 0.0824,0.3278 0.0824,0.516l0,1.968l-0.4685,0l0,-1.8483c0,-0.2927 -0.0746,-0.5259 -0.2248,-0.6973c-0.1503,-0.1715 -0.3648,-0.2572 -0.6447,-0.2572c-0.1337,0 -0.2591,0.0235 -0.3736,0.0711c-0.116,0.047 -0.2161,0.1134 -0.301,0.2012c-0.0868,0.0901 -0.1541,0.1975 -0.1975,0.3152c-0.0466,0.1229 -0.0699,0.2567 -0.0699,0.4046l0,1.8107l-0.4685,0l0,-4.4766l0.4685,-0.0005zm23.2161,2.8828c-0.2907,0 -0.5161,0.0575 -0.6757,0.1741c-0.0751,0.0502 -0.1365,0.1188 -0.1783,0.1993c-0.0418,0.0805 -0.0629,0.1703 -0.0611,0.2612l0,0.0131c0,0.0967 0.0212,0.1856 0.0642,0.2645c0.0425,0.0794 0.0995,0.1458 0.1721,0.1986c0.0725,0.0528 0.1565,0.0941 0.2518,0.1218c0.0948,0.0293 0.1943,0.0429 0.2995,0.0429c0.1451,0 0.2814,-0.0204 0.4063,-0.0607c0.1254,-0.0407 0.2357,-0.0988 0.3306,-0.174c0.0943,-0.0753 0.1689,-0.1647 0.2243,-0.2687c0.0539,-0.1035 0.0814,-0.2185 0.0814,-0.345l0,-0.2927c-0.1319,-0.036 -0.2652,-0.0665 -0.3995,-0.0915c-0.1702,-0.0304 -0.3428,-0.0447 -0.5156,-0.0429zm-9.8253,0c-0.2912,0 -0.5166,0.0575 -0.6762,0.1741c-0.075,0.0503 -0.1362,0.1189 -0.178,0.1994c-0.0417,0.0805 -0.0627,0.1703 -0.0609,0.2611l0,0.0131c0,0.0967 0.0208,0.1856 0.0638,0.2645c0.0425,0.0794 0.1,0.1458 0.172,0.1986c0.0731,0.0528 0.157,0.0941 0.2518,0.1218c0.0949,0.0293 0.1949,0.0429 0.2995,0.0429c0.1451,0 0.2814,-0.0204 0.4063,-0.0607c0.1254,-0.0407 0.2358,-0.0988 0.3306,-0.174c0.0948,-0.0753 0.1689,-0.1647 0.2244,-0.2687c0.0544,-0.1035 0.0813,-0.2185 0.0813,-0.345l0,-0.2927c-0.1319,-0.036 -0.2651,-0.0665 -0.3995,-0.0915c-0.17,-0.0304 -0.3424,-0.0447 -0.5151,-0.0429zm-8.8313,-1.2263c-0.17,0 -0.3265,0.0324 -0.468,0.0978c-0.1372,0.0619 -0.2604,0.1518 -0.3616,0.2639c-0.1015,0.1138 -0.181,0.2457 -0.2343,0.3889c-0.057,0.1495 -0.0849,0.3079 -0.0849,0.4757l0,0.0126c0,0.1714 0.029,0.3319 0.088,0.4809c0.0586,0.1495 0.14,0.2791 0.2436,0.3899c0.1031,0.1098 0.2254,0.1981 0.3679,0.2635c0.1415,0.0653 0.2954,0.0988 0.4612,0.0988c0.171,0 0.3264,-0.0335 0.4684,-0.0993c0.1382,-0.0625 0.2625,-0.1522 0.3659,-0.2637c0.1034,-0.1116 0.1837,-0.2428 0.2362,-0.3861c0.057,-0.1463 0.085,-0.3047 0.085,-0.472l0,-0.012c0,-0.1715 -0.0295,-0.3325 -0.0881,-0.482c-0.1134,-0.2918 -0.3344,-0.528 -0.6166,-0.6591c-0.1454,-0.0662 -0.3033,-0.0995 -0.4627,-0.0978zm3.9278,0.0058c-0.1461,0 -0.2871,0.0298 -0.4229,0.0888c-0.2807,0.1234 -0.503,0.3521 -0.6197,0.6377c-0.0632,0.1495 -0.0943,0.3137 -0.0943,0.494l0,0.012c0,0.184 0.0311,0.3518 0.0948,0.5034c0.0622,0.1511 0.1472,0.2802 0.255,0.3863c0.1077,0.1067 0.2285,0.1893 0.3642,0.2483c0.1358,0.0591 0.2768,0.0889 0.4229,0.0889c0.1503,0 0.2933,-0.0277 0.4285,-0.0826c0.1363,-0.0554 0.2534,-0.1349 0.3524,-0.2394c0.1,-0.1046 0.1788,-0.2321 0.2373,-0.3832c0.0591,-0.1516 0.0881,-0.323 0.0881,-0.5154l0,-0.012c0,-0.1882 -0.029,-0.3581 -0.0881,-0.5091c-0.0539,-0.1435 -0.1353,-0.2749 -0.2394,-0.3869c-0.1005,-0.1058 -0.2215,-0.1898 -0.3555,-0.2467c-0.1339,-0.0569 -0.278,-0.0856 -0.4233,-0.0841zm-20.5708,-11.01182l0,2.55562l-5.0575,0l0,6.4102l-2.5339,1.5337l0,-8.96636c0,-0.20138 0.0394,-0.40079 0.1158,-0.58683c0.0764,-0.18605 0.1884,-0.35508 0.3296,-0.49746c0.1411,-0.14237 0.3088,-0.25529 0.4932,-0.33231c0.1845,-0.07702 0.3822,-0.11662 0.5818,-0.11656l6.071,0zm16.9176,-7.39502l-0.3534,0.989l3.4905,0l0,1.28957l-10.1678,-0.00052l-0.0446,0.95136c-0.0782,1.5691 -0.1865,3.13653 -0.3249,4.70141l-0.0549,0.59382c-0.314,3.2571 -0.713,5.4855 -1.2384,6.3355l-0.1374,0.2211l-1.085,-0.6822l0.1373,-0.2222c0.6653,-1.0742 1.2208,-6.43107 1.4561,-11.58882l0.0212,-0.49031l0.0197,-0.48823c0.0061,-0.16669 0.076,-0.32451 0.195,-0.44025c0.1191,-0.11573 0.2781,-0.18034 0.4434,-0.18023l5.6622,0l0.3513,-0.989l1.6297,0zm-0.9716,2.52582l-0.0005,1.64816l3.0143,0.00052l0,1.28957l-3.0143,-0.00052l0,1.67011l2.8251,0c0.3731,0 0.684,0.26973 0.7524,0.62571l0.0104,0.07265l0.0031,0.07423l0,6.07409c0,0.4015 -0.3037,0.7318 -0.6918,0.7689l-0.0741,0.0037l-6.527,0c-0.3985,0 -0.7255,-0.3063 -0.7622,-0.6984l-0.0037,-0.0742l0,-6.07409c0,-0.40145 0.3037,-0.73182 0.6918,-0.76841l0.0741,-0.00418l2.4241,0l0,-4.60784l1.2783,0zm20.1811,-2.51536l0,1.29009l-11.7803,-0.00053l0,12.11842l7.6551,0l-0.0016,-0.0209l-0.0005,-6.48708l-3.4112,0l0,0.96391c0,2.02609 -0.3715,3.51067 -1.1089,4.26177l-0.0777,0.0748c-0.0477,0.0437 -0.1097,0.0679 -0.1741,0.0679l-0.839,0c-0.0539,-0.0001 -0.1065,-0.0173 -0.1503,-0.049c-0.0438,-0.0318 -0.0767,-0.0765 -0.0941,-0.128c-0.0174,-0.0515 -0.0184,-0.1072 -0.003,-0.1594c0.0155,-0.0521 0.0468,-0.0981 0.0894,-0.1314l0.0155,-0.0157c0.0902,-0.1014 0.3089,-0.5316 0.5027,-1.0455l0.0761,-0.209c0.3032,-0.86986 0.4856,-1.79927 0.4856,-2.66595l0,-5.16402c0,-0.35651 0.286,-0.64505 0.6394,-0.64505l5.4373,0l0.5897,-0.27286c0.0486,-0.02251 0.103,-0.02927 0.1556,-0.01935c0.0526,0.00992 0.1009,0.03604 0.1382,0.07475l0.5384,0.55932c0.0284,0.02948 0.0495,0.0653 0.0617,0.10456c0.0121,0.03927 0.0148,0.08086 0.008,0.1214c-0.0068,0.04055 -0.023,0.0789 -0.0473,0.11193c-0.0242,0.03304 -0.0559,0.05983 -0.0924,0.0782l-0.9187,0.46366c-0.0886,0.04443 -0.1866,0.06796 -0.2855,0.06796l-4.9466,-0.00053l0,2.26498l5.8648,0c0.0606,-0.00002 0.1194,0.02142 0.1659,0.06058c0.0466,0.03916 0.0781,0.09357 0.089,0.15374l0.0042,0.04705l0,0.76684c0,0.06931 -0.0273,0.13579 -0.0759,0.18481c-0.0486,0.04901 -0.1145,0.07655 -0.1832,0.07655l-1.1752,0l0,6.48703c0,0.0073 0,0.0147 -0.0011,0.022l2.85,-0.0011l0,1.2896l-12.4192,0c-0.3524,0 -0.639,-0.2886 -0.639,-0.6445l0,-13.40746c0,-0.35546 0.2861,-0.64452 0.639,-0.64452l12.4192,0zm-17.7804,8.2685l-5.7,0l0,5.22728l5.7,0l0,-5.22728z"/>
  </g>
 </g>
</svg>