<svg width="64" height="64" viewBox="0 0 64 64" fill="none" xmlns="http://www.w3.org/2000/svg">
<g id="&#228;&#186;&#145;&#231;&#156;&#139;&#230;&#157;&#191; (1) 1">
<g id="Vector">
<path fill-rule="evenodd" clip-rule="evenodd" d="M15.5294 15.5294H17.2448H48.4706V48.4706H15.5294V15.5294ZM51.7647 4H12.2353C7.68694 4 4 7.68694 4 12.2353V51.7647C4 56.3131 7.68694 60 12.2353 60H51.7647C56.3131 60 60 56.3131 60 51.7647V12.2353C60 7.68694 56.3131 4 51.7647 4ZM29.5986 42.2941C30.2846 42.2941 30.628 41.9515 30.628 41.2647H30.6264V19.9905C30.6264 19.3036 30.2838 18.9611 29.5969 18.9611H19.9896C19.3028 18.9611 18.9602 19.3036 18.9602 19.9905V41.2647C18.9602 41.9515 19.3028 42.2941 19.9896 42.2941H29.5986Z" fill="#2296F3"/>
<path d="M45.0398 33.0294C45.0398 33.7154 44.6964 34.0588 44.0104 34.0588H34.4014C33.7146 34.0588 33.372 33.7154 33.372 33.0294V19.9905C33.372 19.3036 33.7146 18.9611 34.4014 18.9611H44.0087C44.6955 18.9611 45.0381 19.3036 45.0381 19.9905V33.0294H45.0398Z" fill="#FFC13C"/>
</g>
</g>
</svg>
