<svg width="48" height="48" viewBox="0 0 48 48" fill="none" xmlns="http://www.w3.org/2000/svg">
<path d="M9 13.0111V30.8886H11.8125V29.6349L19.1935 23.0549H20.5998V13.0119C20.6009 10.9073 18.8896 9.194 16.7842 9.19287H12.8149C11.7953 9.19334 10.8369 9.59093 10.1165 10.3122C9.396 11.0336 8.99944 11.9923 9 13.0111Z" fill="#FFCACA"/>
<path d="M24.9532 29.2497L25.9365 30.2551L37.9027 18.5525L37.9132 18.542C39.4022 17.0546 39.4036 14.6331 37.9156 13.1435L35.1089 10.3368C34.3881 9.61668 33.4302 9.22021 32.4114 9.22021H32.4094C31.3898 9.22068 30.4316 9.61828 29.7111 10.3396L29.6841 10.3673C29.5447 10.5148 15.7123 25.1451 12.6021 28.2554L14.5908 30.2441C14.8509 29.984 15.1817 29.6479 15.5701 29.2497H24.9532Z" fill="url(#paint0_linear_69_1322)"/>
<path d="M39 30.75C39 28.9897 37.5728 27.5625 35.8125 27.5625H12.1875C10.4271 27.5625 9 28.9897 9 30.75V36C9 37.7603 10.4271 39.1875 12.1875 39.1875H35.8125C37.5728 39.1875 39 37.7603 39 36V30.75Z" fill="url(#paint1_linear_69_1322)"/>
<path d="M13.5938 33.375C13.5938 33.8226 13.7715 34.2518 14.088 34.5682C14.4045 34.8847 14.8337 35.0625 15.2812 35.0625C15.7288 35.0625 16.158 34.8847 16.4745 34.5682C16.791 34.2518 16.9688 33.8226 16.9688 33.375C16.9688 32.9274 16.791 32.4982 16.4745 32.1818C16.158 31.8653 15.7288 31.6875 15.2812 31.6875C14.8337 31.6875 14.4045 31.8653 14.088 32.1818C13.7715 32.4982 13.5938 32.9274 13.5938 33.375Z" fill="url(#paint2_linear_69_1322)"/>
<path d="M30.0938 27.5624H32.9062V39.1874H30.0938V27.5624ZM9 15.2812H20.6719V18.0937H9V15.2812ZM27.1948 12.9263L35.3394 21.0525L33.3529 23.0435L25.2083 14.9172L27.1948 12.9263Z" fill="url(#paint3_linear_69_1322)"/>
<defs>
<linearGradient id="paint0_linear_69_1322" x1="25.8164" y1="9.22021" x2="25.8164" y2="30.2551" gradientUnits="userSpaceOnUse">
<stop stop-color="#FFCCCC"/>
<stop offset="1" stop-color="#F2B1B1"/>
</linearGradient>
<linearGradient id="paint1_linear_69_1322" x1="24" y1="27.5625" x2="24" y2="39.1875" gradientUnits="userSpaceOnUse">
<stop stop-color="#F8C6C6"/>
<stop offset="1" stop-color="#EA4C4C"/>
</linearGradient>
<linearGradient id="paint2_linear_69_1322" x1="15.2812" y1="31.6875" x2="15.2812" y2="35.0625" gradientUnits="userSpaceOnUse">
<stop stop-color="#FFFCFC"/>
<stop offset="1" stop-color="#F8C2C2"/>
</linearGradient>
<linearGradient id="paint3_linear_69_1322" x1="22.1697" y1="12.9263" x2="22.1697" y2="39.1874" gradientUnits="userSpaceOnUse">
<stop stop-color="#FFFCFC"/>
<stop offset="1" stop-color="#F8C2C2"/>
</linearGradient>
</defs>
</svg>
