<svg width="16" height="16" xmlns="http://www.w3.org/2000/svg" fill="none">
 <defs>
  <clipPath id="clip0_1810_692">
   <rect id="svg_1" fill="white" height="16" width="16"/>
  </clipPath>
 </defs>
 <g>
  <title>Layer 1</title>
  <g id="svg_2" clip-path="url(#clip0_1810_692)">
   <path id="svg_3" fill="#29B239" d="m2,0l12,0c1.3333,0 2,0.66667 2,2l0,12c0,1.3333 -0.6667,2 -2,2l-12,0c-1.33333,0 -2,-0.6667 -2,-2l0,-12c0,-1.33333 0.66667,-2 2,-2z"/>
   <path id="svg_4" fill="white" d="m8.00034,2c0.88059,-0.00018 1.73663,0.29023 2.43536,0.82618c0.6987,0.53595 1.201,1.28749 1.429,2.13805c0.2281,0.85055 0.169,1.75258 -0.1679,2.56617c-0.3369,0.81359 -0.9329,1.49327 -1.6955,1.9336l-0.001,1.536l-3.99996,0l0,-1.535c-0.76302,-0.44007 -1.35944,-1.11969 -1.69671,-1.93338c-0.33727,-0.81369 -0.39653,-1.71596 -0.16858,-2.56678c0.22794,-0.85082 0.73035,-1.6026 1.42925,-2.13869c0.69891,-0.53609 1.55521,-0.82649 2.43604,-0.82615z"/>
   <path id="svg_5" fill="white" d="m6.5,12l3,0l0,1l-3,0l0,-1z"/>
   <path id="svg_6" fill="#29B239" d="m8,4.5c0.13261,0 0.25979,0.05268 0.35355,0.14645c0.09377,0.09376 0.14645,0.22094 0.14645,0.35355c0,0.13261 -0.05268,0.25979 -0.14645,0.35355c-0.09376,0.09377 -0.22094,0.14645 -0.35355,0.14645c-0.39782,0 -0.77936,0.15804 -1.06066,0.43934c-0.2813,0.2813 -0.43934,0.66284 -0.43934,1.06066c0,0.13261 -0.05268,0.25979 -0.14645,0.35355c-0.09376,0.09377 -0.22094,0.14645 -0.35355,0.14645c-0.13261,0 -0.25979,-0.05268 -0.35355,-0.14645c-0.09377,-0.09376 -0.14645,-0.22094 -0.14645,-0.35355c0,-0.66304 0.26339,-1.29893 0.73223,-1.76777c0.46884,-0.46884 1.10473,-0.73223 1.76777,-0.73223z"/>
  </g>
 </g>
</svg>