<svg width="32" height="32" viewBox="0 0 32 32" fill="none" xmlns="http://www.w3.org/2000/svg">
<g id="fluent-emoji-flat:toolbox">
<g id="Group">
<path id="Vector" d="M19.54 8.25002C19.66 8.25002 19.75 8.35002 19.75 8.46002V10.63H12.25V8.46002C12.25 8.34002 12.35 8.25002 12.46 8.25002H19.54ZM19.54 6.00002H12.47C12.1461 5.9987 11.8251 6.06136 11.5255 6.1844C11.2259 6.30744 10.9535 6.48843 10.724 6.71699C10.4946 6.94556 10.3125 7.21719 10.1882 7.5163C10.064 7.81542 10 8.13613 10 8.46002V12.88H22V8.46002C22 7.10002 20.9 6.00002 19.54 6.00002Z" fill="#3A2813"/>
<path id="Vector_2" d="M28.44 29.99H3.56C2.7 29.99 2 29.29 2 28.43V18.005L2.991 17.548L2 17.004V13.12C2 11.39 3.4 10 5.12 10H26.87C28.6 10 29.99 11.4 29.99 13.12V17.018L29.247 17.518L29.99 18.005V28.44C30 29.29 29.3 29.99 28.44 29.99Z" fill="#FFCF55"/>
<path id="Vector_3" d="M30 17H2V18H30V17Z" fill="#FA814D"/>
<path id="Vector_4" d="M7 18.0301C7 18.5605 7.21071 19.0692 7.58579 19.4443C7.96086 19.8193 8.46957 20.0301 9 20.0301C10.1 20.0301 11 19.1301 10.99 18.0301V16.6801C10.99 16.3401 10.72 16.0601 10.37 16.0601H7.62C7.28 16.0601 7 16.3301 7 16.6801V18.0301ZM21 18.0301C21 18.5605 21.2107 19.0692 21.5858 19.4443C21.9609 19.8193 22.4696 20.0301 23 20.0301C24.1 20.0301 25 19.1301 24.99 18.0301V16.6801C24.99 16.3401 24.72 16.0601 24.37 16.0601H21.62C21.28 16.0601 21 16.3301 21 16.6801V18.0301ZM25.5 23.0501H6.5C6.22 23.0501 6 23.2701 6 23.5501C6 23.8301 6.22 24.0501 6.5 24.0501H25.5C25.78 24.0501 26 23.8301 26 23.5501C26 23.2801 25.78 23.0501 25.5 23.0501ZM6.5 26.0501H25.5C25.78 26.0501 26 26.2801 26 26.5501C26 26.8301 25.78 27.0501 25.5 27.0501H6.5C6.22 27.0501 6 26.8301 6 26.5501C6 26.2701 6.22 26.0501 6.5 26.0501Z" fill="#E7F8FF"/>
</g>
</g>
</svg>
