<svg width="56" height="42" viewBox="0 0 56 42" fill="none" xmlns="http://www.w3.org/2000/svg">
<path d="M28 0.000976562C31.6667 0.0849808 34.8442 1.23048 37.5322 3.43848C40.2201 5.64646 41.9392 8.5632 42.6885 12.1885C46.5216 12.6885 49.6777 14.303 52.1562 17.0322C54.6349 19.7616 55.916 23.085 56 27.001C55.8746 31.2514 54.4056 34.7828 51.5938 37.5947C48.7818 40.4066 45.2505 41.8756 41 42.001H30V30.001H38L28 18.001L18 30.001H26V42.001H15C10.7495 41.8756 7.21821 40.4066 4.40625 37.5947C1.59436 34.7828 0.125431 31.2514 0 27.001C0.084 23.0836 1.36508 19.7602 3.84375 17.0322C6.32232 14.3044 9.47841 12.6899 13.3115 12.1885C14.0622 8.5632 15.7812 5.64646 18.4678 3.43848C21.1544 1.23048 24.332 0.0849766 28 0.000976562Z" fill="#9FA7B7" fill-opacity="0.35"/>
</svg>
