<svg width="17" height="20" xmlns="http://www.w3.org/2000/svg" fill="none">

 <g>
  <title>Layer 1</title>
  <path id="svg_1" fill="#374151" d="m15.2639,1.42861c0.3838,0.35529 0.6895,0.65032 0.9169,0.88485c0.2275,0.23454 0.4018,0.43347 0.5224,0.59696c0.1209,0.1634 0.1953,0.30216 0.2238,0.41578c0.0284,0.11378 0.0427,0.21329 0.0427,0.29854l0,0.34122l-3.1557,0c-0.1422,0 -0.2665,-0.05336 -0.3731,-0.15997c-0.1066,-0.10665 -0.1955,-0.23099 -0.2665,-0.37314c-0.0711,-0.14216 -0.1245,-0.28786 -0.16,-0.43715c-0.0356,-0.14913 -0.0533,-0.26661 -0.0533,-0.35189l0,-2.64381l0.0639,0c0.1137,0 0.2311,0.01778 0.3519,0.05329c0.1208,0.03551 0.2593,0.1031 0.4157,0.20264c0.1564,0.09939 0.3519,0.24167 0.5864,0.42646c0.2346,0.1848 0.5295,0.43345 0.8849,0.74622zm-3.6462,1.23659c0,0.28443 0.0427,0.5793 0.1279,0.88485c0.0853,0.30583 0.2204,0.58999 0.4052,0.85293c0.1848,0.26291 0.4193,0.47978 0.7036,0.65044c0.2843,0.17049 0.6184,0.25577 1.0022,0.25577l3.113,0l0,12.02561c0,0.4123 -0.0817,0.7818 -0.245,1.1088c-0.1636,0.3269 -0.3803,0.6041 -0.6505,0.8315c-0.27,0.2274 -0.5686,0.4051 -0.8955,0.533c-0.327,0.128 -0.6468,0.1919 -0.9596,0.1919l-10.4907,0c-0.27005,0 -0.56504,-0.0781 -0.88485,-0.2344c-0.31997,-0.1564 -0.61839,-0.3626 -0.89569,-0.6185c-0.27714,-0.2558 -0.50813,-0.5472 -0.69292,-0.874c-0.18477,-0.3271 -0.27718,-0.6682 -0.27718,-1.0236l0,-14.49905c0,-0.29845 0.06759,-0.60767 0.20261,-0.92746c0.13499,-0.31984 0.31979,-0.6148 0.55432,-0.88488c0.23457,-0.27004 0.50103,-0.49389 0.7996,-0.67168c0.29854,-0.17763 0.61123,-0.26643 0.9383,-0.26643l8.14521,0l0,2.6652zm1.3434,13.3049c0.3695,0 0.6822,-0.1315 0.9381,-0.3944c0.2559,-0.2629 0.3838,-0.5792 0.3838,-0.9488c0,-0.3696 -0.128,-0.6824 -0.3838,-0.9382c-0.2559,-0.2558 -0.5686,-0.3838 -0.9381,-0.3838l-7.99609,0c-0.36959,0 -0.68239,0.128 -0.93829,0.3838c-0.25581,0.2559 -0.38382,0.5686 -0.38382,0.9382c0,0.3695 0.12801,0.6859 0.38382,0.9488c0.2559,0.2629 0.56874,0.3944 0.93829,0.3944l7.99609,0zm1.322,-6.65234c0,-0.36968 -0.1281,-0.68592 -0.3838,-0.94886c-0.256,-0.26303 -0.5687,-0.3945 -0.9382,-0.3945l-7.99609,0c-0.36959,0 -0.68239,0.13144 -0.93829,0.3945c-0.25581,0.26294 -0.38373,0.57918 -0.38373,0.94886c0,0.36947 0.12792,0.68224 0.38373,0.93804c0.2559,0.2558 0.56874,0.3838 0.93829,0.3838l7.99609,0c0.3695,0 0.6823,-0.128 0.9381,-0.3838c0.2558,-0.25589 0.3839,-0.56857 0.3839,-0.93804z"/>
 </g>
</svg>