<svg width="64" height="64" viewBox="0 0 64 64" fill="none" xmlns="http://www.w3.org/2000/svg">
<g id="&#231;&#153;&#189;&#230;&#157;&#191; 1">
<path id="Vector" d="M57.1767 16.0066H6.33333C5.73539 16.0708 5.17684 16.3489 4.75182 16.7941C4.32679 17.2393 4.06127 17.8243 4 18.4507V47.4619C4.05698 48.0899 4.32112 48.6775 4.74698 49.1235C5.17283 49.5696 5.73378 49.8463 6.33333 49.906H17.6967L13.6833 57.0671C13.2633 57.8981 13.6833 58.7535 14.08 58.7535L15.2933 59.5845C16.0867 60 16.9033 59.5845 16.9033 59.169L22.13 49.9793H41.87L46 59.169C46.3967 60 47.2133 60 48.0067 60L49.22 59.5845C50.0133 59.169 50.0133 58.338 50.0133 57.4826L46.7 49.9793H57.6667C58.2662 49.9196 58.8272 49.6429 59.253 49.1968C59.6789 48.7508 59.943 48.1632 60 47.5352V18.4507C59.9179 17.742 59.5793 17.0933 59.0539 16.6385C58.5286 16.1838 57.8566 15.9576 57.1767 16.0066Z" fill="#CDE6FF"/>
<path id="Vector 1 (Stroke)" fill-rule="evenodd" clip-rule="evenodd" d="M46.5719 25.7188C44.885 24.9425 42.5332 24.7128 39.6199 26.5335C37.7739 27.6873 36.7178 29.1301 36.2544 30.5974C37.5685 30.2312 38.7885 30.1297 39.9841 30.3214C41.2683 30.5273 42.455 31.0603 43.6446 31.8534C45.7015 33.2246 45.7649 35.7351 44.773 37.49C43.7435 39.3115 41.5122 40.547 38.7737 39.6341C36.2085 38.779 34.4385 36.3763 34.053 33.6188C31.9918 34.6414 29.4638 36.2465 26.1547 38.5106C22.0626 41.3105 18.2708 40.9102 15.9876 38.7343C13.7707 36.6216 13.2346 33.0209 15.2708 30.1121C15.5875 29.6596 16.211 29.5496 16.6635 29.8663C17.1159 30.183 17.226 30.8066 16.9092 31.259C15.4454 33.3502 15.8593 35.8493 17.3674 37.2865C18.8092 38.6605 21.5174 39.2602 25.0253 36.86C28.7335 34.3229 31.6191 32.4966 34.0439 31.4126C34.3582 29.0191 35.7485 26.5947 38.5599 24.8375C42.0467 22.6583 45.1115 22.8451 47.408 23.9019C48.5316 24.419 49.4464 25.132 50.1278 25.8308C50.7967 26.5168 51.2884 27.2388 51.5184 27.8137L49.6614 28.5565C49.5581 28.2981 49.2457 27.791 48.6958 27.2271C48.1584 26.6759 47.4399 26.1182 46.5719 25.7188ZM35.9793 32.7842C36.1088 35.0881 37.5285 37.1108 39.4062 37.7368C41.1677 38.324 42.4364 37.5595 43.0319 36.5059C43.665 35.3858 43.4784 34.1463 42.5352 33.5175C41.5137 32.8365 40.5948 32.4449 39.6675 32.2962C38.743 32.148 37.7408 32.2301 36.5366 32.5985C36.3547 32.6542 36.169 32.7161 35.9793 32.7842Z" fill="#2296F3"/>
<path id="Vector_2" d="M7.49963 11H56.5004C57.4286 10.9999 58.3187 10.6311 58.975 9.97472C59.6313 9.31836 60 8.42818 60 7.5C60 6.57182 59.6313 5.68164 58.975 5.02528C58.3187 4.36891 57.4286 4.00011 56.5004 4H7.49963C6.57143 4.00011 5.68129 4.36891 5.02499 5.02528C4.3687 5.68164 4 6.57182 4 7.5C4 8.42818 4.3687 9.31836 5.02499 9.97472C5.68129 10.6311 6.57143 10.9999 7.49963 11Z" fill="#2296F3"/>
</g>
</svg>
