<svg width="64" height="64" viewBox="0 0 64 64" fill="none" xmlns="http://www.w3.org/2000/svg">
<g id="&#229;&#183;&#165;&#228;&#189;&#156;&#230;&#181;&#129; 1">
<path id="Vector" d="M45.4444 5.55031C45.4689 6.98115 46.0545 8.3451 47.0751 9.3483C48.0956 10.3515 49.4694 10.9137 50.9004 10.9137C52.3315 10.9137 53.7053 10.3515 54.7258 9.3483C55.7463 8.3451 56.3319 6.98115 56.3565 5.55031C56.3689 4.82595 56.2369 4.10637 55.9683 3.43354C55.6997 2.76071 55.2998 2.14811 54.7919 1.63146C54.284 1.11482 53.6784 0.704473 53.0102 0.424367C52.3421 0.144261 51.6249 0 50.9004 0C50.176 0 49.4588 0.144261 48.7906 0.424367C48.1225 0.704473 47.5168 1.11482 47.009 1.63146C46.5011 2.14811 46.1012 2.76071 45.8326 3.43354C45.5639 4.10637 45.432 4.82595 45.4444 5.55031Z" fill="#1890FF"/>
<path id="Vector_2" d="M49.7016 6.23267H52.4244V34.8029C52.4244 36.449 51.7705 38.0276 50.6066 39.1915C49.4427 40.3555 47.864 41.0093 46.218 41.0093C44.572 41.0093 42.9933 40.3555 41.8294 39.1915C40.6655 38.0276 40.0116 36.449 40.0116 34.8029V20.2439C40.0098 19.345 39.6547 18.4827 39.023 17.8431C38.3912 17.2036 37.5334 16.838 36.6345 16.8252C35.7356 16.8123 34.8677 17.1533 34.218 17.7746C33.5683 18.3959 33.1887 19.2477 33.1613 20.1462V49.2963H30.4385V20.2487C30.4213 18.6167 31.0531 17.0447 32.195 15.8785C33.3368 14.7123 34.8952 14.0475 36.5272 14.0303C38.1592 14.0131 39.7312 14.6449 40.8974 15.7868C42.0636 16.9286 42.7284 18.487 42.7456 20.119V34.8029C42.7456 35.7251 43.112 36.6096 43.7641 37.2617C44.4162 37.9138 45.3006 38.2801 46.2228 38.2801C47.145 38.2801 48.0294 37.9138 48.6815 37.2617C49.3336 36.6096 49.7 35.7251 49.7 34.8029L49.7016 6.23267Z" fill="#1890FF"/>
<path id="Vector_3" d="M30.4962 20.5386H33.219V49.1104C33.219 50.7565 32.5651 52.3351 31.4012 53.499C30.2372 54.663 28.6586 55.3168 27.0126 55.3168C25.3665 55.3168 23.7879 54.663 22.624 53.499C21.4601 52.3351 20.8062 50.7565 20.8062 49.1104V34.5546C20.82 34.1002 20.7433 33.6476 20.5805 33.2231C20.4176 32.7986 20.1719 32.4108 19.8576 32.0822C19.5434 31.7537 19.1669 31.4909 18.7501 31.3094C18.3333 31.1278 17.8845 31.031 17.4299 31.0246C16.9753 31.0182 16.524 31.1024 16.1022 31.2722C15.6805 31.442 15.2968 31.6941 14.9734 32.0137C14.6501 32.3333 14.3936 32.7141 14.2189 33.1338C14.0442 33.5536 13.9548 34.0039 13.9559 34.4585V63.6086H11.2331V34.5546C11.2159 32.9226 11.8477 31.3506 12.9896 30.1844C14.1314 29.0182 15.6898 28.3534 17.3218 28.3362C18.9538 28.319 20.5258 28.9508 21.692 30.0927C22.8582 31.2345 23.523 32.7929 23.5402 34.4249V49.1104C23.5402 50.0327 23.9065 50.9171 24.5586 51.5692C25.2107 52.2213 26.0952 52.5876 27.0174 52.5876C27.9396 52.5876 28.824 52.2213 29.4761 51.5692C30.1282 50.9171 30.4946 50.0327 30.4946 49.1104L30.4962 20.5386Z" fill="#1890FF"/>
<path id="Vector_4" d="M7.50288 58.4497C7.49046 59.1741 7.62242 59.8937 7.89104 60.5665C8.15966 61.2393 8.55956 61.8519 9.06743 62.3686C9.5753 62.8852 10.181 63.2956 10.8491 63.5757C11.5172 63.8558 12.2344 64 12.9589 64C13.6834 64 14.4006 63.8558 15.0687 63.5757C15.7368 63.2956 16.3425 62.8852 16.8504 62.3686C17.3582 61.8519 17.7582 61.2393 18.0268 60.5665C18.2954 59.8937 18.4273 59.1741 18.4149 58.4497C18.4273 57.7254 18.2954 57.0058 18.0268 56.333C17.7582 55.6601 17.3582 55.0475 16.8504 54.5309C16.3425 54.0142 15.7368 53.6039 15.0687 53.3238C14.4006 53.0437 13.6834 52.8994 12.9589 52.8994C12.2344 52.8994 11.5172 53.0437 10.8491 53.3238C10.181 53.6039 9.5753 54.0142 9.06743 54.5309C8.55956 55.0475 8.15966 55.6601 7.89104 56.333C7.62242 57.0058 7.49046 57.7254 7.50288 58.4497Z" fill="#C2E9FF"/>
<path id="Vector_5" d="M26.4728 32.2227C26.4728 33.6699 27.0478 35.0579 28.0711 36.0813C29.0945 37.1046 30.4824 37.6795 31.9297 37.6795C33.3769 37.6795 34.7649 37.1046 35.7882 36.0813C36.8116 35.0579 37.3865 33.6699 37.3865 32.2227C37.3865 31.5061 37.2454 30.7965 36.9711 30.1345C36.6969 29.4724 36.2949 28.8709 35.7882 28.3641C35.2815 27.8574 34.68 27.4555 34.0179 27.1812C33.3559 26.907 32.6463 26.7659 31.9297 26.7659C31.2131 26.7659 30.5035 26.907 29.8414 27.1812C29.1794 27.4555 28.5778 27.8574 28.0711 28.3641C27.5644 28.8709 27.1624 29.4724 26.8882 30.1345C26.614 30.7965 26.4728 31.5061 26.4728 32.2227Z" fill="#FFC13C"/>
</g>
</svg>
