<svg width="203" height="74" viewBox="0 0 203 74" fill="none" xmlns="http://www.w3.org/2000/svg">
<path d="M147.701 55.9583L141.199 24.4862H140.707V55.9583H132.019V17.7109H147.701L152.891 45.0851L153.001 45.6315L153.11 45.0851L158.301 17.7109H173.982V55.9583H165.294V24.4862H164.857L158.301 55.9583H147.701Z" fill="#2296F3"/>
<path d="M107.106 56.668C94.8664 56.668 87.5994 49.3463 87.5994 37.2711C87.5994 24.9773 94.8664 17 107.106 17C119.345 17 126.557 24.9773 126.557 37.2711C126.557 49.4556 119.345 56.668 107.106 56.668ZM97.1612 37.2711C97.1612 45.1391 100.822 50.002 107.106 50.002C113.28 50.002 116.995 45.1391 116.995 37.2711C116.995 34.7031 116.613 32.3536 115.848 30.3319C114.318 26.234 111.203 23.7752 107.106 23.7752C101.095 23.7752 97.1612 29.2938 97.1612 37.2711Z" fill="#2296F3"/>
<path d="M71.6671 56.668C58.7176 56.668 50.2485 49.0731 50.2485 37.3257C50.2485 33.1185 51.1228 29.4577 52.9258 26.3979C56.4774 20.333 63.1434 17 71.3939 17C75.4918 17 80.0268 17.8742 82.7041 19.1309V25.9062C79.0433 24.5402 75.6011 23.8845 72.432 23.8845C64.8372 23.8845 59.7011 28.3103 59.7011 37.3257C59.7011 39.7299 60.3021 41.8608 61.4495 43.6639C63.799 47.3793 67.7877 49.4556 72.1588 49.7288L73.3609 49.7834C76.6938 49.7834 80.1361 48.7453 82.7041 47.1608V54.701C79.5897 56.1762 76.2021 56.668 71.6671 56.668Z" fill="#2296F3"/>
<path d="M44 37.5C44 41.6421 40.6421 45 36.5 45C32.3579 45 29 41.6421 29 37.5C29 33.3579 32.3579 30 36.5 30C40.6421 30 44 33.3579 44 37.5Z" fill="url(#paint0_linear_830_1589)"/>
<defs>
<linearGradient id="paint0_linear_830_1589" x1="32.5" y1="31" x2="40.5" y2="45" gradientUnits="userSpaceOnUse">
<stop stop-color="#63C4FB"/>
<stop offset="1" stop-color="#0E8DF3"/>
</linearGradient>
</defs>
</svg>
