<svg width="88" height="88" viewBox="0 0 88 88" fill="none" xmlns="http://www.w3.org/2000/svg">
<g clip-path="url(#clip0_364_2264)">
<path d="M9.27113 20.8456H78.7386C79.0049 20.8372 79.2639 20.7567 79.4879 20.6126C79.712 20.4686 79.8928 20.2663 80.0109 20.0275C80.129 19.7888 80.18 19.5224 80.1585 19.2569C80.137 18.9913 80.0438 18.7366 79.8889 18.5199C75.8176 12.795 70.4358 8.1271 64.1928 4.90608C57.9497 1.68507 51.0267 0.00439453 44.0017 0.00439453C36.9768 0.00439453 30.0537 1.68507 23.8107 4.90608C17.5677 8.1271 12.1858 12.795 8.1146 18.5199C7.9571 18.7365 7.86199 18.9921 7.83961 19.2589C7.81724 19.5258 7.86846 19.7937 7.98769 20.0334C8.10693 20.2732 8.28962 20.4757 8.51591 20.6189C8.74219 20.7621 9.0034 20.8405 9.27113 20.8456Z" fill="#56AAFF"/>
<path fill-rule="evenodd" clip-rule="evenodd" d="M9.25856 27.7911C6.80559 27.7993 4.45545 28.7775 2.72092 30.512C0.986397 32.2465 0.00828433 34.5966 0 37.0496L0 55.573C0.012571 60.6832 4.14844 64.8127 9.25856 64.8316H78.7386C81.1916 64.8233 83.5417 63.8452 85.2763 62.1107C87.0108 60.3761 87.9889 58.026 87.9972 55.573V37.0496C87.9889 34.5966 87.0108 32.2465 85.2763 30.512C83.5417 28.7775 81.1916 27.7993 78.7386 27.7911H9.25856ZM27.7882 55.573C27.6299 56.1718 27.2581 56.692 26.743 57.0358C26.2279 57.3796 25.6049 57.5233 24.9912 57.4398C24.3856 57.474 23.7853 57.3104 23.2808 56.9737C22.7763 56.637 22.3949 56.1454 22.1941 55.573L18.932 44.9191L15.6698 55.573C15.4409 56.1211 15.055 56.5893 14.5606 56.9185C14.0663 57.2478 13.4856 57.4235 12.8916 57.4235C12.2976 57.4235 11.7169 57.2478 11.2226 56.9185C10.7282 56.5893 10.3423 56.1211 10.1134 55.573L6.64379 40.2992V39.3627C6.87635 38.2062 7.33519 37.5022 8.5043 37.5022C9.08496 37.4824 9.65097 37.6868 10.0851 38.0729C10.5192 38.4591 10.7881 38.9974 10.8362 39.5764L13.1619 51.3932L16.6378 39.3501C16.7963 38.9099 17.0766 38.5238 17.446 38.2367C17.8155 37.9497 18.2588 37.7734 18.7245 37.7285C19.2154 37.668 19.7102 37.8049 20.1003 38.1089C20.4903 38.4129 20.7438 38.8594 20.805 39.3501L24.2809 51.3869L26.6066 39.5827C26.8391 38.1936 27.5368 37.5022 28.6934 37.5022C28.9437 37.4778 29.1964 37.5092 29.4332 37.594C29.67 37.6789 29.8851 37.8152 30.063 37.9931C30.2409 38.1709 30.3771 38.386 30.462 38.6228C30.5469 38.8596 30.5783 39.1123 30.5539 39.3627C30.3842 40.8838 29.4602 46.283 27.7882 55.5793V55.573ZM52.8234 55.573C52.6651 56.1718 52.2933 56.692 51.7782 57.0358C51.2631 57.3796 50.6401 57.5233 50.0264 57.4398C49.4208 57.474 48.8205 57.3104 48.316 56.9737C47.8115 56.637 47.4301 56.1454 47.2293 55.573L43.9609 44.9191L40.705 55.573C40.4761 56.1211 40.0902 56.5893 39.5958 56.9185C39.1015 57.2478 38.5208 57.4235 37.9268 57.4235C37.3328 57.4235 36.7521 57.2478 36.2578 56.9185C35.7634 56.5893 35.3775 56.1211 35.1486 55.573L31.6727 40.2992V39.3627C31.9053 38.2062 32.3641 37.5022 33.5395 37.5022C34.1191 37.4841 34.6835 37.6892 35.1163 38.0752C35.549 38.4611 35.8171 38.9985 35.8651 39.5764L38.2033 51.3932L41.6729 39.3501C41.831 38.9108 42.1104 38.5253 42.4786 38.2383C42.8468 37.9513 43.2889 37.7745 43.7535 37.7285C43.997 37.6977 44.2442 37.7152 44.481 37.78C44.7177 37.8449 44.9394 37.9558 45.1332 38.1065C45.327 38.2571 45.4893 38.4445 45.6106 38.6579C45.7319 38.8713 45.8099 39.1065 45.8402 39.3501L49.3098 51.3869L51.6418 39.5827C51.8743 38.1936 52.572 37.5022 53.7286 37.5022C53.9789 37.4778 54.2316 37.5092 54.4684 37.594C54.7052 37.6789 54.9203 37.8152 55.0982 37.9931C55.2761 38.1709 55.4123 38.386 55.4972 38.6228C55.5821 38.8596 55.6135 39.1123 55.5891 39.3627C55.4319 41.814 54.508 47.2196 52.8234 55.5793V55.573ZM78.0409 55.573C77.8825 56.1718 77.5108 56.692 76.9957 57.0358C76.4806 57.3796 75.8575 57.5233 75.2439 57.4398C74.6383 57.474 74.038 57.3104 73.5335 56.9737C73.029 56.637 72.6476 56.1454 72.4468 55.573L69.1846 44.9191L65.9225 55.573C65.6936 56.1211 65.3076 56.5893 64.8133 56.9185C64.3189 57.2478 63.7382 57.4235 63.1443 57.4235C62.5503 57.4235 61.9696 57.2478 61.4752 56.9185C60.9809 56.5893 60.595 56.1211 60.3661 55.573L56.8965 40.2992V39.3627C57.129 38.2062 57.5879 37.5022 58.757 37.5022C59.3376 37.4824 59.9036 37.6868 60.3377 38.0729C60.7719 38.4591 61.0408 38.9974 61.0889 39.5764L63.4145 51.3932L66.8904 39.3501C67.049 38.9099 67.3293 38.5238 67.6987 38.2367C68.0681 37.9497 68.5115 37.7734 68.9772 37.7285C69.4681 37.668 69.9629 37.8049 70.3529 38.1089C70.743 38.4129 70.9965 38.8594 71.0577 39.3501L74.5336 51.3869L76.8592 39.5827C77.0981 38.1936 77.7895 37.5022 78.946 37.5022C79.1969 37.4768 79.4503 37.5074 79.6879 37.5918C79.9255 37.6763 80.1414 37.8124 80.32 37.9904C80.4986 38.1684 80.6354 38.3838 80.7207 38.6211C80.8059 38.8585 80.8374 39.1117 80.8128 39.3627C80.8128 41.1541 79.8889 46.5596 78.0472 55.5793L78.0409 55.573Z" fill="#1E83D9"/>
<path d="M75.0176 71.7834H12.967C12.6951 71.7781 12.428 71.8558 12.2014 72.0061C11.9747 72.1564 11.7992 72.3722 11.6982 72.6247C11.5972 72.8772 11.5755 73.1545 11.636 73.4197C11.6964 73.6848 11.8362 73.9253 12.0368 74.109C16.1259 78.492 21.0729 81.987 26.5704 84.3765C32.0678 86.7661 37.998 87.9993 43.9923 87.9993C49.9866 87.9993 55.9168 86.7661 61.4142 84.3765C66.9117 81.987 71.8587 78.492 75.9478 74.109C76.1484 73.9253 76.2882 73.6848 76.3486 73.4197C76.4091 73.1545 76.3874 72.8772 76.2864 72.6247C76.1854 72.3722 76.0099 72.1564 75.7832 72.0061C75.5566 71.8558 75.2895 71.7781 75.0176 71.7834Z" fill="#2296F3"/>
</g>
<defs>
<clipPath id="clip0_364_2264">
<rect width="88" height="88" fill="white"/>
</clipPath>
</defs>
</svg>
