<svg width="88" height="88" viewBox="0 0 88 88" fill="none" xmlns="http://www.w3.org/2000/svg">
<path d="M84.6621 72.4001C84.5147 74.4516 82.5862 76.2951 80.4106 76.4924C56.1844 78.6412 31.8155 78.6412 7.58927 76.4924C5.41333 76.2947 3.48524 74.4512 3.33777 72.4001C2.16352 55.7261 3.48902 39.0522 7.31461 22.3782C7.79483 20.3267 9.78824 18.5028 11.7112 18.3275C33.195 16.4221 54.8053 16.4221 76.2891 18.3275C78.2117 18.5028 80.2054 20.3264 80.6856 22.3782C84.5109 39.0522 85.8364 55.7261 84.6621 72.4001Z" fill="#2296F3"/>
<path opacity="0.3" d="M76.2893 18.3278C69.231 17.7026 62.156 17.2821 55.0733 17.0669C48.6432 26.9552 40.5069 37.298 32.1538 47.4406C41.5622 57.0148 51.696 66.8484 60.9893 76.0214C68.6131 75.7264 76.228 75.234 83.8263 74.5446C84.3017 73.9104 84.6083 73.1717 84.6627 72.4007C85.8369 55.7267 84.5117 39.0528 80.6862 22.3785C80.2052 20.3267 78.2115 18.5031 76.2893 18.3278Z" fill="#14589C"/>
<path d="M76.3554 18.3333C54.8722 16.424 33.2621 16.4201 11.7782 18.3217C10.363 18.4478 8.92611 19.4687 8.06055 20.809C16.412 31.4701 28.5106 43.909 41.0117 56.3377C42.5751 57.8921 45.1199 57.8924 46.6833 56.3383C59.2889 43.8107 71.4945 31.2621 79.873 20.5251C78.9934 19.3337 77.6655 18.4506 76.3554 18.3333Z" fill="#56AAFF"/>
</svg>
