<svg width="88" height="88" viewBox="0 0 88 88" fill="none" xmlns="http://www.w3.org/2000/svg">
<path fill-rule="evenodd" clip-rule="evenodd" d="M8.16078 52.6124C13.1002 72.4069 44.5229 81.0532 80.4592 74.273C48.5916 82.8737 7.73694 76.6604 2.66836 54.8792C-0.91957 39.4607 10.1376 25.2542 31.0385 14.6719C14.2335 25.6684 4.89469 39.5237 8.16078 52.6124Z" fill="url(#paint0_linear_830_1607)"/>
<path d="M20.0862 37.4586L63.7822 10.7829C64.4811 10.3562 65.3937 10.5769 65.8204 11.2759C65.824 11.2818 65.8276 11.2877 65.8311 11.2937L81.0632 37.0502C81.4759 37.7481 81.2516 38.6481 80.5595 39.0706L36.8636 65.7463C36.1646 66.173 35.2521 65.9523 34.8253 65.2533C34.8217 65.2474 34.8182 65.2415 34.8146 65.2355L19.5825 39.479C19.1698 38.7811 19.3942 37.8811 20.0862 37.4586Z" fill="url(#paint1_linear_830_1607)"/>
<mask id="mask0_830_1607" style="mask-type:luminance" maskUnits="userSpaceOnUse" x="19" y="10" width="63" height="56">
<path d="M20.0862 37.4586L63.7822 10.7829C64.4811 10.3562 65.3937 10.5769 65.8204 11.2759C65.824 11.2818 65.8276 11.2877 65.8311 11.2937L81.0632 37.0502C81.4759 37.7481 81.2516 38.6481 80.5595 39.0706L36.8636 65.7463C36.1646 66.173 35.2521 65.9523 34.8253 65.2533C34.8217 65.2474 34.8182 65.2415 34.8146 65.2355L19.5825 39.479C19.1698 38.7811 19.3942 37.8811 20.0862 37.4586Z" fill="white"/>
</mask>
<g mask="url(#mask0_830_1607)">
<path d="M69.7143 3.88867L69.2231 5.33774L67.132 11.4967L52.8815 42.3943L52.7188 42.747L52.3317 42.7156L18.7848 39.9985L13.2023 39.4607L11.54 39.3006L12.9665 38.4322L68.4073 4.68425L69.7143 3.88867ZM67.6796 6.42722L14.9696 38.5132L18.883 38.8908L52.0336 41.5732L66.1005 11.0853L67.6796 6.42722Z" fill="white"/>
</g>
<mask id="mask1_830_1607" style="mask-type:luminance" maskUnits="userSpaceOnUse" x="19" y="10" width="63" height="56">
<path d="M20.0862 37.4586L63.7822 10.7829C64.4811 10.3562 65.3937 10.5769 65.8204 11.2759C65.824 11.2818 65.8276 11.2877 65.8311 11.2937L81.0632 37.0502C81.4759 37.7481 81.2516 38.6481 80.5595 39.0706L36.8636 65.7463C36.1646 66.173 35.2521 65.9523 34.8253 65.2533C34.8217 65.2474 34.8182 65.2415 34.8146 65.2355L19.5825 39.479C19.1698 38.7811 19.3942 37.8811 20.0862 37.4586Z" fill="white"/>
</mask>
<g mask="url(#mask1_830_1607)">
<path d="M56.8303 31.2246L57.2926 31.3643L81.1991 38.5853L82.3489 38.9326L81.3402 39.5846L36.5349 68.5439L35.4585 69.2395L35.6858 67.9782L40.5194 41.153L40.6088 40.6568L41.1113 40.6973L52.035 41.5746L56.6273 31.6629L56.8303 31.2246ZM57.431 32.5686L52.8813 42.3963L52.7184 42.748L52.3321 42.7169L41.523 41.8446L37.005 66.9146L79.727 39.3006L57.431 32.5686Z" fill="white"/>
</g>
<defs>
<linearGradient id="paint0_linear_830_1607" x1="1539.65" y1="687.393" x2="2896.67" y2="5428.25" gradientUnits="userSpaceOnUse">
<stop stop-color="#AFFEFF"/>
<stop offset="1" stop-color="#3CBFF9"/>
</linearGradient>
<linearGradient id="paint1_linear_830_1607" x1="6298.28" y1="-2974.92" x2="3435.65" y2="2892.83" gradientUnits="userSpaceOnUse">
<stop stop-color="#AFFEFF"/>
<stop offset="1" stop-color="#3CBFF9"/>
</linearGradient>
</defs>
</svg>
