<svg width="203" height="74" viewBox="0 0 203 74" fill="none" xmlns="http://www.w3.org/2000/svg">
<mask id="mask0_830_1624" style="mask-type:luminance" maskUnits="userSpaceOnUse" x="14" y="16" width="189" height="42">
<path d="M14.9519 16H203V58H14.9519V16Z" fill="white"/>
</mask>
<g mask="url(#mask0_830_1624)">
<path fill-rule="evenodd" clip-rule="evenodd" d="M37.834 53.9594L18.98 41.2348V18.0561C18.98 16.9217 18.0787 16 16.9667 16C15.8561 16 14.9519 16.9217 14.9519 18.0561V55.8818C14.9519 57.0183 15.8561 57.9394 16.9667 57.9394C18.0787 57.9394 18.98 57.0183 18.98 55.8818V46.1633L35.4685 57.2925C36.3688 57.9583 37.6293 57.7526 38.283 56.8352C38.9366 55.9142 38.7343 54.6275 37.834 53.9594ZM196.152 51.0024C193.799 53.4015 190.568 54.8824 186.983 54.8824C183.396 54.8824 180.164 53.4015 177.812 51.0024C175.464 48.5992 174.016 45.2969 174.016 41.6317C174.016 37.9681 175.464 34.6656 177.812 32.2611C180.164 29.8617 183.396 28.3829 186.983 28.3822C190.568 28.3829 193.799 29.8617 196.152 32.2611C198.5 34.6656 199.948 37.9681 199.95 41.6317C199.948 45.2969 198.5 48.5992 196.152 51.0024ZM186.983 25.2634C178.133 25.2653 170.965 32.5919 170.963 41.6317C170.965 50.6736 178.133 57.9991 186.983 58C195.83 57.9991 203 50.6736 203 41.6317C203 32.5919 195.83 25.2653 186.983 25.2634ZM162.844 51.0024C160.492 53.4015 157.26 54.8824 153.674 54.8824C150.091 54.8824 146.857 53.4015 144.503 51.0024C142.154 48.5992 140.708 45.2969 140.708 41.6317C140.708 37.9681 142.154 34.6656 144.503 32.2611C146.857 29.8617 150.091 28.3829 153.674 28.3822C157.26 28.3829 160.492 29.8617 162.844 32.2611C165.192 34.6656 166.64 37.9681 166.643 41.6317C166.64 45.2969 165.192 48.5992 162.844 51.0024ZM153.674 25.2634C144.826 25.2653 137.657 32.5919 137.657 41.6317C137.657 50.6736 144.826 57.9991 153.674 58C162.522 57.9991 169.692 50.6736 169.692 41.6317C169.692 32.5919 162.522 25.2653 153.674 25.2634ZM99.2372 51.0024C96.8842 53.4015 93.6528 54.8824 90.0672 54.8824C86.4814 54.8824 83.2499 53.4015 80.8964 51.0024C78.5494 48.5992 77.1014 45.2969 77.1014 41.6317C77.1014 37.9681 78.5494 34.6656 80.8964 32.2611C83.2499 29.8617 86.4814 28.3829 90.0672 28.3822C93.6528 28.3829 96.8842 29.8617 99.2372 32.2611C101.585 34.6656 103.035 37.9681 103.036 41.6317C103.035 45.2969 101.585 48.5992 99.2372 51.0024ZM90.0672 25.2634C81.2192 25.2653 74.0509 32.5919 74.0489 41.6317C74.0509 50.6736 81.2192 57.9991 90.0672 58C98.916 57.9991 106.085 50.6736 106.085 41.6317C106.085 32.5919 98.916 25.2653 90.0672 25.2634ZM65.9289 51.0024C63.5764 53.4015 60.3459 54.8824 56.7623 54.8824C53.1767 54.8824 49.9422 53.4015 47.5906 51.0024C45.2405 48.5992 43.7931 45.2969 43.7931 41.6317C43.7931 37.9681 45.2405 34.6656 47.5906 32.2611C49.9422 29.8617 53.1767 28.3829 56.7623 28.3822C60.3459 28.3829 63.5764 29.8617 65.9289 32.2611C68.2776 34.6656 69.7264 37.9681 69.7279 41.6317C69.7264 45.2969 68.2776 48.5992 65.9289 51.0024ZM56.7623 25.2634C47.9125 25.2653 40.744 32.5919 40.7411 41.6317C40.744 50.6736 47.9125 57.9991 56.7623 58C65.6077 57.9991 72.7775 50.6736 72.7775 41.6317C72.7775 32.5919 65.6077 25.2653 56.7623 25.2634ZM119.891 54.5297C117.054 54.5297 114.444 53.5616 112.347 51.9357V31.5468C114.444 29.9202 117.054 28.9528 119.891 28.9528C126.805 28.9528 132.408 34.678 132.408 41.7419C132.408 48.8049 126.805 54.5297 119.891 54.5297ZM119.891 25.5413C117.155 25.5413 114.589 26.2594 112.347 27.5105V18.0561C112.347 16.9217 111.443 16 110.333 16C109.221 16 108.316 16.9217 108.316 18.0561V55.8818C108.316 57.0183 109.221 57.9394 110.333 57.9394C111.415 57.9394 112.298 57.0643 112.343 55.9681C114.586 57.22 117.153 57.9394 119.891 57.9394C128.646 57.9394 135.741 50.6888 135.741 41.7419C135.741 32.7939 128.646 25.5413 119.891 25.5413Z" fill="#0087C2"/>
</g>
<path fill-rule="evenodd" clip-rule="evenodd" d="M16.6993 36.608C7.57437 43.8591 1.00784 51.5083 0 55.6554C1.59822 51.7578 7.0313 45.6188 14.3552 39.8C24.3389 31.864 34.0451 27.5421 36.0291 30.1531C37.9184 32.6349 32.1326 40.4971 22.9664 48.0912C23.483 47.6961 23.9987 47.2942 24.5202 46.8817C35.7679 37.9409 43.1373 28.3915 40.9793 25.5561C38.8191 22.7187 27.949 27.6658 16.6993 36.608Z" fill="#EF8200"/>
</svg>
