<svg width="203" height="74" viewBox="0 0 203 74" fill="none" xmlns="http://www.w3.org/2000/svg">
<path fill-rule="evenodd" clip-rule="evenodd" d="M8 29.5372L15.7686 14H31.3058L23.5372 29.5372H8ZM23.5372 45.4628L8 29.5372V45.4628H23.5372ZM39.4628 45.4628L23.5372 29.5372H39.4628V45.4628ZM39.4628 45.4628H23.5372L15.7686 60.6116L31.3058 61L39.4628 45.4628Z" fill="#121838"/>
<path d="M184.306 51.9125C182.266 51.9125 180.502 51.4791 179.013 50.6122C177.533 49.7366 176.391 48.5195 175.585 46.961C174.78 45.3937 174.377 43.5768 174.377 41.5104C174.377 39.4265 174.78 37.6052 175.585 36.0467C176.391 34.4793 177.533 33.2623 179.013 32.3954C180.502 31.5198 182.266 31.082 184.306 31.082C186.346 31.082 188.106 31.5198 189.586 32.3954C191.075 33.2623 192.222 34.4793 193.027 36.0467C193.833 37.6052 194.235 39.4265 194.235 41.5104C194.235 43.5768 193.833 45.3937 193.027 46.961C192.222 48.5195 191.075 49.7366 189.586 50.6122C188.106 51.4791 186.346 51.9125 184.306 51.9125ZM184.332 47.5783C185.261 47.5783 186.036 47.3156 186.657 46.7902C187.279 46.2561 187.747 45.5294 188.063 44.61C188.387 43.6906 188.548 42.6443 188.548 41.471C188.548 40.2977 188.387 39.2514 188.063 38.332C187.747 37.4126 187.279 36.6859 186.657 36.1517C186.036 35.6176 185.261 35.3506 184.332 35.3506C183.396 35.3506 182.608 35.6176 181.968 36.1517C181.338 36.6859 180.861 37.4126 180.537 38.332C180.222 39.2514 180.064 40.2977 180.064 41.471C180.064 42.6443 180.222 43.6906 180.537 44.61C180.861 45.5294 181.338 46.2561 181.968 46.7902C182.608 47.3156 183.396 47.5783 184.332 47.5783Z" fill="#121838"/>
<path d="M159.491 51.8994C158.204 51.8994 157.057 51.6761 156.05 51.2295C155.043 50.7742 154.246 50.1044 153.659 49.22C153.081 48.3269 152.792 47.2149 152.792 45.884C152.792 44.7632 152.998 43.822 153.41 43.0602C153.821 42.2984 154.382 41.6855 155.091 41.2214C155.8 40.7574 156.606 40.4071 157.508 40.1707C158.418 39.9343 159.373 39.768 160.371 39.6716C161.544 39.5491 162.49 39.4352 163.208 39.3302C163.926 39.2163 164.447 39.05 164.771 38.8311C165.095 38.6122 165.257 38.2882 165.257 37.8592V37.7803C165.257 36.9485 164.994 36.305 164.469 35.8497C163.952 35.3943 163.216 35.1667 162.262 35.1667C161.255 35.1667 160.454 35.39 159.859 35.8365C159.263 36.2743 158.869 36.8259 158.676 37.4914L153.502 37.0711C153.764 35.8453 154.281 34.7858 155.052 33.8927C155.822 32.9908 156.816 32.2991 158.033 31.8175C159.259 31.3272 160.677 31.082 162.288 31.082C163.409 31.082 164.482 31.2134 165.506 31.4761C166.539 31.7387 167.454 32.1459 168.251 32.6975C169.057 33.2491 169.691 33.9584 170.156 34.8252C170.62 35.6833 170.852 36.7121 170.852 37.9117V51.5185H165.546V48.7209H165.388C165.064 49.3514 164.631 49.9074 164.088 50.3889C163.545 50.8618 162.892 51.2339 162.131 51.5053C161.369 51.768 160.489 51.8994 159.491 51.8994ZM161.093 48.038C161.916 48.038 162.643 47.876 163.273 47.552C163.904 47.2193 164.399 46.7727 164.758 46.2123C165.117 45.652 165.296 45.0172 165.296 44.3079V42.1671C165.121 42.2809 164.88 42.386 164.574 42.4823C164.276 42.5699 163.939 42.653 163.562 42.7319C163.186 42.8019 162.809 42.8676 162.433 42.9289C162.056 42.9814 161.715 43.0296 161.408 43.0733C160.752 43.1696 160.178 43.3229 159.688 43.533C159.197 43.7432 158.817 44.0277 158.545 44.3867C158.274 44.737 158.138 45.1748 158.138 45.7001C158.138 46.4619 158.414 47.0442 158.965 47.4469C159.526 47.841 160.235 48.038 161.093 48.038Z" fill="#121838"/>
<path d="M129.393 51.5202V24.623H140.162C142.141 24.623 143.791 24.9164 145.113 25.503C146.435 26.0896 147.429 26.9039 148.095 27.9458C148.76 28.979 149.093 30.1697 149.093 31.5181C149.093 32.5687 148.883 33.4925 148.462 34.2892C148.042 35.0772 147.464 35.7251 146.729 36.233C146.002 36.732 145.17 37.0866 144.233 37.2968V37.5594C145.258 37.6032 146.216 37.8921 147.11 38.4262C148.011 38.9603 148.742 39.7089 149.303 40.672C149.863 41.6264 150.143 42.7646 150.143 44.0867C150.143 45.5139 149.789 46.7878 149.08 47.9085C148.379 49.0205 147.342 49.9004 145.967 50.5483C144.592 51.1963 142.898 51.5202 140.884 51.5202H129.393ZM135.079 46.871H139.715C141.3 46.871 142.456 46.5689 143.183 45.9648C143.909 45.3519 144.273 44.5376 144.273 43.522C144.273 42.7778 144.093 42.1211 143.734 41.552C143.375 40.9829 142.863 40.5363 142.198 40.2124C141.541 39.8884 140.757 39.7264 139.847 39.7264H135.079V46.871ZM135.079 35.8784H139.295C140.074 35.8784 140.766 35.7426 141.37 35.4712C141.983 35.191 142.465 34.797 142.815 34.2892C143.174 33.7814 143.353 33.1729 143.353 32.4637C143.353 31.4918 143.008 30.7082 142.316 30.1128C141.633 29.5174 140.661 29.2197 139.4 29.2197H135.079V35.8784Z" fill="#121838"/>
<path d="M116.378 51.9125C114.303 51.9125 112.516 51.4922 111.019 50.6516C109.531 49.8023 108.383 48.6027 107.578 47.0529C106.772 45.4944 106.37 43.6512 106.37 41.5235C106.37 39.4484 106.772 37.6271 107.578 36.0598C108.383 34.4925 109.517 33.271 110.98 32.3954C112.451 31.5198 114.176 31.082 116.154 31.082C117.485 31.082 118.724 31.2966 119.871 31.7256C121.027 32.1459 122.034 32.7807 122.892 33.63C123.759 34.4793 124.433 35.5476 124.915 36.8347C125.396 38.1131 125.637 39.6103 125.637 41.3265V42.8632H108.602V39.3958H120.37C120.37 38.5903 120.195 37.8767 119.845 37.255C119.495 36.6333 119.009 36.1474 118.387 35.7971C117.774 35.4381 117.061 35.2586 116.246 35.2586C115.397 35.2586 114.644 35.4556 113.987 35.8497C113.339 36.2349 112.832 36.7559 112.464 37.4126C112.096 38.0605 111.908 38.7829 111.899 39.5797V42.8763C111.899 43.8745 112.083 44.737 112.451 45.4637C112.827 46.1905 113.357 46.7508 114.04 47.1449C114.723 47.5389 115.533 47.7359 116.47 47.7359C117.091 47.7359 117.66 47.6483 118.177 47.4732C118.694 47.2981 119.136 47.0354 119.504 46.6852C119.871 46.3349 120.152 45.9059 120.344 45.398L125.519 45.7395C125.256 46.9829 124.718 48.0686 123.903 48.9967C123.098 49.9161 122.056 50.6341 120.778 51.1507C119.508 51.6586 118.041 51.9125 116.378 51.9125Z" fill="#121838"/>
<path d="M103.756 31.3487V35.5514H91.6077V31.3487H103.756ZM94.3657 26.5156H99.9605V45.3226C99.9605 45.8392 100.039 46.242 100.197 46.5309C100.354 46.8111 100.573 47.0081 100.854 47.1219C101.143 47.2357 101.475 47.2926 101.852 47.2926C102.114 47.2926 102.377 47.2707 102.64 47.227C102.902 47.1744 103.104 47.135 103.244 47.1088L104.124 51.2721C103.844 51.3596 103.45 51.4603 102.942 51.5741C102.434 51.6967 101.817 51.7711 101.09 51.7974C99.7416 51.8499 98.5596 51.6704 97.544 51.2589C96.5371 50.8474 95.7534 50.2082 95.1931 49.3414C94.6327 48.4746 94.3569 47.3802 94.3657 46.0581V26.5156Z" fill="#121838"/>
<path d="M82.9496 51.5197V31.3468H88.5445V51.5197H82.9496ZM85.7602 28.7464C84.9284 28.7464 84.2148 28.4706 83.6194 27.919C83.0328 27.3587 82.7395 26.6889 82.7395 25.9096C82.7395 25.1391 83.0328 24.4781 83.6194 23.9265C84.2148 23.3661 84.9284 23.0859 85.7602 23.0859C86.592 23.0859 87.3012 23.3661 87.8878 23.9265C88.4832 24.4781 88.7809 25.1391 88.7809 25.9096C88.7809 26.6889 88.4832 27.3587 87.8878 27.919C87.3012 28.4706 86.592 28.7464 85.7602 28.7464Z" fill="#121838"/>
<path d="M73.4123 32.3572C73.3073 31.2978 72.8564 30.4748 72.0596 29.8881C71.2628 29.3015 70.1815 29.0082 68.8157 29.0082C67.8876 29.0082 67.1039 29.1395 66.4648 29.4022C65.8256 29.6561 65.3353 30.0107 64.9938 30.466C64.6611 30.9213 64.4948 31.4379 64.4948 32.0157C64.4773 32.4973 64.5779 32.9176 64.7968 33.2765C65.0245 33.6355 65.3353 33.9463 65.7293 34.209C66.1233 34.4629 66.5786 34.6862 67.0952 34.8788C67.6118 35.0627 68.1634 35.2203 68.75 35.3516L71.1665 35.9295C72.3398 36.1922 73.4167 36.5424 74.3973 36.9802C75.378 37.4179 76.2273 37.9564 76.9452 38.5956C77.6632 39.2347 78.2192 39.9877 78.6132 40.8545C79.0159 41.7213 79.2217 42.7151 79.2304 43.8358C79.2217 45.4818 78.8014 46.909 77.9696 48.1173C77.1466 49.3168 75.9558 50.2492 74.3973 50.9147C72.8476 51.5713 70.9783 51.8997 68.7894 51.8997C66.618 51.8997 64.7268 51.567 63.1158 50.9015C61.5135 50.2361 60.2614 49.2511 59.3596 47.9465C58.4665 46.6332 57.9981 45.009 57.9543 43.074H63.4572C63.5185 43.9759 63.7768 44.7289 64.2321 45.333C64.6961 45.9284 65.3134 46.3793 66.0839 46.6857C66.8632 46.9834 67.7431 47.1323 68.7237 47.1323C69.6868 47.1323 70.523 46.9922 71.2322 46.712C71.9502 46.4318 72.5061 46.0422 72.9001 45.5431C73.2941 45.0441 73.4911 44.4706 73.4911 43.8226C73.4911 43.2185 73.3117 42.7107 72.9527 42.2992C72.6024 41.8877 72.0859 41.5374 71.4029 41.2485C70.7288 40.9596 69.9013 40.6969 68.9207 40.4605L65.992 39.725C63.7243 39.1734 61.9338 38.311 60.6204 37.1378C59.3071 35.9645 58.6548 34.3841 58.6635 32.3966C58.6548 30.7681 59.0882 29.3453 59.9638 28.1283C60.8481 26.9112 62.0607 25.9612 63.6017 25.2783C65.1427 24.5954 66.8938 24.2539 68.8551 24.2539C70.8513 24.2539 72.5937 24.5954 74.0821 25.2783C75.5793 25.9612 76.7438 26.9112 77.5756 28.1283C78.4074 29.3453 78.8364 30.7549 78.8627 32.3572H73.4123Z" fill="#121838"/>
</svg>
