<svg width="97" height="20" viewBox="0 0 96.25 20" fill="none" xmlns="http://www.w3.org/2000/svg" role="img" aria-labelledby="kooboo-logo-title">
    <title id="kooboo-logo-title">Kooboo</title>
    <path transform="translate(7.09 0)" fill-rule="evenodd" clip-rule="evenodd" d="M10.8493 18.0759L1.90987 12.0166V0.97911C1.90987 0.438884 1.48255 0 0.955278 0C0.428693 0 0 0.438884 0 0.97911V18.9913C0 19.5325 0.428693 19.9712 0.955278 19.9712C1.48255 19.9712 1.90987 19.5325 1.90987 18.9913V14.3635L9.72768 19.6631C10.1546 19.9802 10.7522 19.8822 11.0621 19.4453C11.3721 19.0068 11.2761 18.3941 10.8493 18.0759ZM85.9138 16.6678C84.7984 17.8103 83.2662 18.5154 81.5666 18.5154C79.8655 18.5154 78.3334 17.8103 77.218 16.6678C76.1047 15.5234 75.4184 13.9509 75.4184 12.2056C75.4184 10.461 76.1047 8.88837 77.218 7.74336C78.3334 6.60081 79.8655 5.89662 81.5666 5.89627C83.2662 5.89662 84.7984 6.60081 85.9138 7.74336C87.0269 8.88837 87.7139 10.461 87.7147 12.2056C87.7139 13.9509 87.0269 15.5234 85.9138 16.6678ZM81.5666 4.41115C77.3706 4.41204 73.9718 7.90088 73.9708 12.2056C73.9718 16.5112 77.3706 19.9996 81.5666 20C85.7609 19.9996 89.1608 16.5112 89.1608 12.2056C89.1608 7.90088 85.7609 4.41204 81.5666 4.41115ZM70.1213 16.6678C69.0059 17.8103 67.4737 18.5154 65.7736 18.5154C64.0744 18.5154 62.5414 17.8103 61.425 16.6678C60.3114 15.5234 59.6259 13.9509 59.6259 12.2056C59.6259 10.461 60.3114 8.88837 61.425 7.74336C62.5414 6.60081 64.0744 5.89662 65.7736 5.89627C67.4737 5.89662 69.0059 6.60081 70.1213 7.74336C71.2346 8.88837 71.9209 10.461 71.9223 12.2056C71.9209 13.9509 71.2346 15.5234 70.1213 16.6678ZM65.7736 4.41115C61.578 4.41204 58.1792 7.90088 58.1792 12.2056C58.1792 16.5112 61.578 19.9996 65.7736 20C69.9687 19.9996 73.368 16.5112 73.368 12.2056C73.368 7.90088 69.9687 4.41204 65.7736 4.41115ZM39.9629 16.6678C38.8472 17.8103 37.3151 18.5154 35.615 18.5154C33.9148 18.5154 32.3827 17.8103 31.2668 16.6678C30.154 15.5234 29.4674 13.9509 29.4674 12.2056C29.4674 10.461 30.154 8.88837 31.2668 7.74336C32.3827 6.60081 33.9148 5.89662 35.615 5.89627C37.3151 5.89662 38.8472 6.60081 39.9629 7.74336C41.0762 8.88837 41.7633 10.461 41.7641 12.2056C41.7633 13.9509 41.0762 15.5234 39.9629 16.6678ZM35.615 4.41115C31.4198 4.41204 28.0211 7.90088 28.0201 12.2056C28.0211 16.5112 31.4198 19.9996 35.615 20C39.8106 19.9996 43.2098 16.5112 43.2098 12.2056C43.2098 7.90088 39.8106 4.41204 35.615 4.41115ZM24.1701 16.6678C23.0547 17.8103 21.523 18.5154 19.8239 18.5154C18.1238 18.5154 16.5902 17.8103 15.4752 16.6678C14.361 15.5234 13.6747 13.9509 13.6747 12.2056C13.6747 10.461 14.361 8.88837 15.4752 7.74336C16.5902 6.60081 18.1238 5.89662 19.8239 5.89627C21.523 5.89662 23.0547 6.60081 24.1701 7.74336C25.2837 8.88837 25.9707 10.461 25.9714 12.2056C25.9707 13.9509 25.2837 15.5234 24.1701 16.6678ZM19.8239 4.41115C15.6279 4.41204 12.229 7.90088 12.2276 12.2056C12.229 16.5112 15.6279 19.9996 19.8239 20C24.0178 19.9996 27.4173 16.5112 27.4173 12.2056C27.4173 7.90088 24.0178 4.41204 19.8239 4.41115ZM49.7558 18.3475C48.4106 18.3475 47.1729 17.8865 46.1786 17.1122V7.40326C47.1729 6.62868 48.4106 6.16801 49.7558 6.16801C53.0339 6.16801 55.6906 8.89428 55.6906 12.2581C55.6906 15.6214 53.0339 18.3475 49.7558 18.3475ZM49.7558 4.54345C48.4584 4.54345 47.2418 4.88541 46.1786 5.4812V0.97911C46.1786 0.438884 45.7501 0 45.2236 0C44.6964 0 44.2673 0.438884 44.2673 0.97911V18.9913C44.2673 19.5325 44.6964 19.9712 45.2236 19.9712C45.7366 19.9712 46.1554 19.5544 46.1766 19.0324C47.2403 19.6286 48.4576 19.9712 49.7558 19.9712C53.9066 19.9712 57.2708 16.5185 57.2708 12.2581C57.2708 7.99711 53.9066 4.54345 49.7558 4.54345Z" fill="#192845"/>
    <path transform="translate(0 4.17)" fill-rule="evenodd" clip-rule="evenodd" d="M7.91776 5.6439C3.5913 9.09676 0.477854 12.7392 0 14.714C0.757777 12.8581 3.3338 9.93475 6.80632 7.16385C11.54 3.38483 16.1421 1.32676 17.0828 2.57012C17.9786 3.75192 15.2353 7.49584 10.8892 11.112C11.1342 10.9239 11.3787 10.7325 11.6259 10.5361C16.9589 6.27859 20.453 1.73125 19.4298 0.381084C18.4056 -0.970054 13.2517 1.38568 7.91776 5.6439Z" fill="#192845"/>
</svg>
