<svg width="24" height="24" viewBox="0 0 24 24" fill="none" xmlns="http://www.w3.org/2000/svg">
<path d="M4.6502 12.75H20.9834C21.1823 12.75 21.3731 12.671 21.5137 12.5303C21.6544 12.3897 21.7334 12.1989 21.7334 12C21.7334 11.8011 21.6544 11.6103 21.5137 11.4697C21.3731 11.329 21.1823 11.25 20.9834 11.25H4.6502C4.45129 11.25 4.26052 11.329 4.11987 11.4697C3.97922 11.6103 3.9002 11.8011 3.9002 12C3.9002 12.1989 3.97922 12.3897 4.11987 12.5303C4.26052 12.671 4.45129 12.75 4.6502 12.75Z" fill="#374151"/>
<path d="M9.99742 18.72C10.1458 18.72 10.2908 18.676 10.4142 18.5936C10.5375 18.5112 10.6337 18.3941 10.6905 18.257C10.7472 18.12 10.7621 17.9691 10.7331 17.8236C10.7042 17.6781 10.6327 17.5445 10.5278 17.4396L5.09422 12L10.5278 6.56639C10.5975 6.49673 10.6527 6.41404 10.6904 6.32304C10.7281 6.23203 10.7475 6.13449 10.7475 6.03599C10.7475 5.93748 10.7281 5.83994 10.6904 5.74894C10.6527 5.65793 10.5975 5.57524 10.5278 5.50559C10.4582 5.43593 10.3755 5.38068 10.2845 5.34299C10.1935 5.30529 10.0959 5.28589 9.99742 5.28589C9.89891 5.28589 9.80137 5.30529 9.71037 5.34299C9.61936 5.38068 9.53667 5.43593 9.46702 5.50559L2.97382 12L9.46702 18.4944C9.5361 18.5652 9.61856 18.6216 9.7096 18.6604C9.80065 18.6991 9.89848 18.7194 9.99742 18.72Z" fill="#374151"/>
</svg>
