<svg width="41" height="40" viewBox="0 0 41 40" fill="none" xmlns="http://www.w3.org/2000/svg">
<path d="M5.83529 35.407C5.92216 35.6531 6.08559 35.8666 6.30279 36.0177C6.51998 36.1688 6.78011 36.25 7.04688 36.25C12.9006 36.25 17.582 35.1031 20.9621 32.8398C25.046 30.1055 27.245 25.7922 27.518 20L33.9531 20C34.204 20 34.4494 19.9281 34.6588 19.7933C34.8682 19.6585 35.0324 19.4666 35.131 19.2416C35.2297 19.0165 35.2585 18.7682 35.2138 18.5273C35.1691 18.2865 35.0529 18.0637 34.8796 17.8867L21.4265 4.13672C21.3069 4.01453 21.1631 3.91727 21.0038 3.85082C20.8446 3.78437 20.6732 3.75012 20.5 3.75012C20.3268 3.75012 20.1554 3.78437 19.9962 3.85082C19.8369 3.91727 19.6931 4.01453 19.5735 4.13672L6.12037 17.8867C5.9471 18.0637 5.83092 18.2865 5.78623 18.5273C5.74154 18.7682 5.77031 19.0165 5.86897 19.2416C5.96764 19.4666 6.13185 19.6585 6.34124 19.7933C6.55064 19.9281 6.79599 20 7.04688 20L13.4347 20C13.3258 23.5156 12.742 26.1719 11.6217 28.2867C10.411 30.5719 8.60199 32.2289 6.25651 34.0148C6.04622 34.1751 5.89246 34.3953 5.81666 34.6449C5.74086 34.8945 5.74682 35.1609 5.83369 35.407L5.83529 35.407Z" fill="url(#paint0_linear_816_18495)"/>
<defs>
<linearGradient id="paint0_linear_816_18495" x1="19.7235" y1="36.25" x2="19.7235" y2="3.75012" gradientUnits="userSpaceOnUse">
<stop stop-color="#1146FF"/>
<stop offset="0.490385" stop-color="#01A3FF"/>
<stop offset="1" stop-color="#00E69B"/>
</linearGradient>
</defs>
</svg>
