<svg width="50" height="50" viewBox="0 0 50 50" fill="none" xmlns="http://www.w3.org/2000/svg">
<path d="M7.11623 44.2588C7.22216 44.5664 7.42147 44.8333 7.68634 45.0221C7.95121 45.211 8.26844 45.3125 8.59377 45.3125C15.7324 45.3125 21.4414 43.8789 25.5635 41.0498C30.544 37.6318 33.2256 32.2402 33.5586 25L41.4063 25C41.7122 25 42.0114 24.9101 42.2668 24.7416C42.5221 24.5731 42.7224 24.3333 42.8427 24.052C42.9631 23.7707 42.9981 23.4602 42.9436 23.1592C42.8891 22.8581 42.7474 22.5797 42.5361 22.3584L26.1299 5.1709C25.984 5.01816 25.8087 4.89659 25.6145 4.81353C25.4203 4.73047 25.2112 4.68765 25 4.68765C24.7888 4.68765 24.5798 4.73047 24.3856 4.81353C24.1914 4.89659 24.016 5.01816 23.8701 5.1709L7.46388 22.3584C7.25258 22.5797 7.11089 22.8581 7.05639 23.1592C7.00189 23.4602 7.03698 23.7707 7.1573 24.052C7.27762 24.3333 7.47788 24.5731 7.73324 24.7416C7.9886 24.9101 8.28781 25 8.59377 25L16.3838 25C16.251 29.3945 15.5391 32.7148 14.1729 35.3584C12.6963 38.2148 10.4903 40.2861 7.6299 42.5186C7.37346 42.7188 7.18594 42.9942 7.0935 43.3061C7.00106 43.6181 7.00833 43.9511 7.11428 44.2588L7.11623 44.2588Z" fill="url(#paint0_linear_552_264)"/>
<defs>
<linearGradient id="paint0_linear_552_264" x1="24.0531" y1="45.3125" x2="24.0531" y2="4.68765" gradientUnits="userSpaceOnUse">
<stop stop-color="#1146FF"/>
<stop offset="0.490385" stop-color="#01A3FF"/>
<stop offset="1" stop-color="#00E69B"/>
</linearGradient>
</defs>
</svg>
