<svg width="16" height="16" viewBox="0 0 16 16" fill="none" xmlns="http://www.w3.org/2000/svg">
<path d="M8.00001 5.63636C7.85535 5.63636 7.71661 5.57889 7.61431 5.4766C7.51202 5.37431 7.45455 5.23557 7.45455 5.0909V3.99999C7.45455 3.85533 7.51202 3.71659 7.61431 3.6143C7.71661 3.51201 7.85535 3.45454 8.00001 3.45454C8.14467 3.45454 8.28341 3.51201 8.3857 3.6143C8.488 3.71659 8.54546 3.85533 8.54546 3.99999V5.0909C8.54546 5.23557 8.488 5.37431 8.3857 5.4766C8.28341 5.57889 8.14467 5.63636 8.00001 5.63636ZM4.52874 5.21199L5.30001 5.98327C5.35299 6.03335 5.39539 6.09355 5.4247 6.16031C5.45402 6.22706 5.46965 6.29901 5.47068 6.37191C5.47171 6.44481 5.45812 6.51718 5.4307 6.58473C5.40329 6.65229 5.36261 6.71367 5.31107 6.76523C5.25953 6.8168 5.19817 6.8575 5.13063 6.88495C5.06309 6.9124 4.99073 6.92603 4.91783 6.92503C4.84493 6.92403 4.77297 6.90843 4.7062 6.87915C4.63943 6.84987 4.57921 6.8075 4.5291 6.75454L3.75746 5.98327C3.70537 5.93295 3.66381 5.87276 3.63523 5.80622C3.60664 5.73967 3.59159 5.66809 3.59096 5.59567C3.59033 5.52324 3.60413 5.45142 3.63156 5.38438C3.65899 5.31735 3.69949 5.25645 3.7507 5.20523C3.80192 5.15402 3.86282 5.11352 3.92985 5.08609C3.99689 5.05867 4.06871 5.04486 4.14114 5.04549C4.21356 5.04612 4.28514 5.06117 4.35168 5.08976C4.41823 5.11834 4.47842 5.1599 4.52874 5.21199ZM3.63637 8.90909C3.78104 8.90909 3.91977 8.96655 4.02207 9.06884C4.12436 9.17114 4.18183 9.30988 4.18183 9.45454C4.18183 9.5992 4.12436 9.73794 4.02207 9.84023C3.91977 9.94253 3.78104 9.99999 3.63637 9.99999H2.54546C2.4008 9.99999 2.26206 9.94253 2.15977 9.84023C2.05748 9.73794 2.00001 9.5992 2.00001 9.45454C2.00001 9.30988 2.05748 9.17114 2.15977 9.06884C2.26206 8.96655 2.4008 8.90909 2.54546 8.90909H3.63637ZM13.4546 8.90909C13.5992 8.90909 13.738 8.96655 13.8402 9.06884C13.9425 9.17114 14 9.30988 14 9.45454C14 9.5992 13.9425 9.73794 13.8402 9.84023C13.738 9.94253 13.5992 9.99999 13.4546 9.99999H12.3636C12.219 9.99999 12.0802 9.94253 11.978 9.84023C11.8757 9.73794 11.8182 9.5992 11.8182 9.45454C11.8182 9.30988 11.8757 9.17114 11.978 9.06884C12.0802 8.96655 12.219 8.90909 12.3636 8.90909H13.4546ZM12.2426 5.21199C12.3448 5.31428 12.4023 5.453 12.4023 5.59763C12.4023 5.74227 12.3448 5.88098 12.2426 5.98327L11.4713 6.75454C11.4207 6.80535 11.3606 6.84566 11.2945 6.87317C11.2283 6.90068 11.1573 6.91485 11.0856 6.91485C11.014 6.91485 10.943 6.90068 10.8768 6.87317C10.8107 6.84566 10.7506 6.80535 10.7 6.75454C10.5978 6.65225 10.5403 6.51354 10.5403 6.3689C10.5403 6.22427 10.5978 6.08555 10.7 5.98327L11.4713 5.21199C11.5736 5.10974 11.7123 5.05229 11.8569 5.05229C12.0016 5.05229 12.1403 5.10974 12.2426 5.21199ZM13.1709 13.4545C14.0609 12.311 14.5446 10.9036 14.5455 9.45454C14.5455 5.84545 11.6095 2.90909 8.00001 2.90909C4.39092 2.90909 1.45455 5.84545 1.45455 9.45454C1.45455 10.9051 1.93964 12.3084 2.8291 13.4545H13.1709ZM8.00001 1.81818C12.2175 1.81818 15.6364 5.23708 15.6364 9.45454C15.6364 11.4131 14.8927 13.1938 13.68 14.5454H2.32001C1.10728 13.1938 0.363281 11.4131 0.363281 9.45454C0.363645 5.23708 3.78292 1.81818 8.00001 1.81818ZM7.48583 8.94036C7.76946 8.65636 9.00146 7.88508 9.28583 8.16872C9.56946 8.45308 8.79819 9.68472 8.51419 9.96872C8.4471 10.0382 8.36685 10.0936 8.27812 10.1317C8.18939 10.1698 8.09396 10.1899 7.99739 10.1907C7.90082 10.1916 7.80506 10.1732 7.71568 10.1366C7.6263 10.1 7.5451 10.046 7.47681 9.97774C7.40853 9.90945 7.35452 9.82825 7.31796 9.73887C7.28139 9.64949 7.26299 9.55372 7.26383 9.45716C7.26467 9.36059 7.28473 9.26516 7.32284 9.17643C7.36096 9.0877 7.41636 9.00745 7.48583 8.94036Z" fill="#192845"/>
</svg>
