<svg width="32" height="32" viewBox="0 0 32 32" fill="none" xmlns="http://www.w3.org/2000/svg">
<path d="M16 1.0672C16.5868 1.06778 17.157 1.26181 17.6222 1.61925C18.0875 1.97668 18.422 2.47757 18.5738 3.04433C18.7256 3.61108 18.6863 4.21208 18.4619 4.75423C18.2376 5.29638 17.8407 5.74943 17.3328 6.0432V9.0672H26.2672C27.6624 9.0672 28.8064 10.1392 28.9232 11.504L28.9328 11.7328V16.3856C27.1549 15.2323 25.0293 14.7379 22.9249 14.9881C20.8205 15.2383 18.87 16.2173 17.412 17.7553C15.9541 19.2933 15.0805 21.2932 14.943 23.408C14.8055 25.5228 15.4127 27.6189 16.6592 29.3328H5.73445C4.33925 29.3328 3.19525 28.2608 3.07845 26.896L3.06885 26.6672V11.7328C3.06885 10.3376 4.14085 9.1936 5.50565 9.0768L5.73445 9.0672H14.6688V6.0432C14.2969 5.82872 13.9823 5.52763 13.7516 5.1655C13.521 4.80338 13.3812 4.39093 13.344 3.9632L13.3344 3.7328C13.3344 2.2608 14.5296 1.0672 16.0016 1.0672H16Z" fill="url(#paint0_linear_389_7563)"/>
<path d="M24.0001 17.6C25.6975 17.6 27.3253 18.2743 28.5256 19.4745C29.7258 20.6748 30.4001 22.3026 30.4001 24C30.4001 25.6974 29.7258 27.3253 28.5256 28.5255C27.3253 29.7257 25.6975 30.4 24.0001 30.4C22.3027 30.4 20.6748 29.7257 19.4746 28.5255C18.2744 27.3253 17.6001 25.6974 17.6001 24C17.6001 22.3026 18.2744 20.6748 19.4746 19.4745C20.6748 18.2743 22.3027 17.6 24.0001 17.6ZM26.7009 19.44C26.5363 19.3801 26.3615 19.3532 26.1865 19.361C26.0115 19.3687 25.8397 19.4108 25.681 19.485C25.5223 19.5591 25.3797 19.6638 25.2615 19.7931C25.1433 19.9224 25.0518 20.0737 24.9921 20.2384L23.1681 23.6496L23.1201 23.8096C23.0407 24.1418 23.0919 24.4918 23.263 24.7873C23.4342 25.0829 23.7123 25.3014 24.0399 25.3979C24.3675 25.4944 24.7197 25.4614 25.0237 25.3058C25.3277 25.1502 25.5604 24.8838 25.6737 24.5616L27.4977 21.1504L27.5457 20.9904C27.6178 20.6736 27.5718 20.3414 27.4162 20.0562C27.2607 19.771 27.0063 19.5524 26.7009 19.4416V19.44Z" fill="url(#paint1_linear_389_7563)"/>
<defs>
<linearGradient id="paint0_linear_389_7563" x1="16.0008" y1="1.0672" x2="16.0008" y2="29.3328" gradientUnits="userSpaceOnUse">
<stop stop-color="#F6D47E"/>
<stop offset="1" stop-color="#F17603"/>
</linearGradient>
<linearGradient id="paint1_linear_389_7563" x1="24.0001" y1="17.6" x2="24.0001" y2="30.4" gradientUnits="userSpaceOnUse">
<stop stop-color="#F6D47E"/>
<stop offset="1" stop-color="#F17603"/>
</linearGradient>
</defs>
</svg>
