<svg width="32" height="32" viewBox="0 0 32 32" fill="none" xmlns="http://www.w3.org/2000/svg">
<path d="M25.0669 3.20001H6.93353C4.87486 3.20001 3.2002 4.87468 3.2002 6.93335V11.104H28.8002V6.93335C28.8002 4.87468 27.1255 3.20001 25.0669 3.20001ZM7.14686 7.82935C6.75006 8.26988 6.00553 8.23148 5.64286 7.82935C5.26526 7.49015 5.19166 6.77655 5.64286 6.32535C6.03753 5.93068 6.7522 5.93068 7.14686 6.32535C7.57033 6.70615 7.5618 7.45601 7.14686 7.82935ZM11.4135 7.82935C11.0167 8.26988 10.2722 8.23148 9.90953 7.82935C9.80829 7.73201 9.72775 7.61523 9.67273 7.48601C9.61771 7.35679 9.58935 7.21779 9.58935 7.07735C9.58935 6.9369 9.61771 6.7979 9.67273 6.66868C9.72775 6.53946 9.80829 6.42268 9.90953 6.32535C10.0081 6.22621 10.1252 6.14753 10.2543 6.09384C10.3834 6.04015 10.5217 6.01252 10.6615 6.01252C10.8013 6.01252 10.9397 6.04015 11.0688 6.09384C11.1978 6.14753 11.315 6.22621 11.4135 6.32535C11.5148 6.42268 11.5953 6.53946 11.6503 6.66868C11.7053 6.7979 11.7337 6.9369 11.7337 7.07735C11.7337 7.21779 11.7053 7.35679 11.6503 7.48601C11.5953 7.61523 11.5148 7.73201 11.4135 7.82935ZM15.6909 7.82935C15.3325 8.22721 14.6413 8.28375 14.1869 7.82935C13.7773 7.46028 13.7527 6.75841 14.1869 6.32535C14.2856 6.22659 14.4029 6.14825 14.5319 6.0948C14.6609 6.04136 14.7992 6.01385 14.9389 6.01385C15.0785 6.01385 15.2168 6.04136 15.3458 6.0948C15.4749 6.14825 15.5921 6.22659 15.6909 6.32535C16.0866 6.68161 16.1335 7.43148 15.6909 7.82935ZM3.2002 25.0667C3.2002 27.1253 4.87486 28.8 6.93353 28.8H25.0669C27.1255 28.8 28.8002 27.1253 28.8002 25.0667V13.2373H3.2002V25.0667ZM13.1202 18.3467H18.8589C20.3202 18.3467 21.5255 19.552 21.5255 21.0133C21.5255 22.4853 20.3202 23.68 18.8589 23.68H13.1202C12.77 23.68 12.4232 23.611 12.0997 23.477C11.7762 23.343 11.4822 23.1466 11.2346 22.899C10.987 22.6513 10.7905 22.3574 10.6565 22.0338C10.5225 21.7103 10.4535 21.3635 10.4535 21.0133C10.4535 19.552 11.6482 18.3467 13.1202 18.3467Z" fill="url(#paint0_linear_389_7652)"/>
<defs>
<linearGradient id="paint0_linear_389_7652" x1="16.0002" y1="3.20001" x2="16.0002" y2="28.8" gradientUnits="userSpaceOnUse">
<stop stop-color="#4BC2F9"/>
<stop offset="1" stop-color="#1146FF"/>
</linearGradient>
</defs>
</svg>
