<svg width="16" height="16" viewBox="0 0 16 16" fill="none" xmlns="http://www.w3.org/2000/svg">
<path d="M4.82503 12.7716C4.32041 12.7716 3.79446 12.594 3.30503 12.258C3.26091 12.2278 3.22333 12.1895 3.19445 12.1451C3.16557 12.1008 3.14596 12.0513 3.13673 11.9995C3.12751 11.9477 3.12886 11.8947 3.1407 11.8434C3.15254 11.7922 3.17465 11.7437 3.20575 11.7008C3.23662 11.6577 3.27593 11.621 3.32143 11.5928C3.36692 11.5646 3.41769 11.5454 3.47082 11.5364C3.52394 11.5274 3.57837 11.5287 3.63096 11.5403C3.68355 11.5519 3.73326 11.5736 3.77723 11.604C4.02216 11.7716 4.40205 11.9716 4.82544 11.9716C5.29272 11.9716 5.91549 11.4956 6.51775 11.0344C7.27221 10.4592 8.05005 9.86521 8.81559 9.86521C9.97826 9.86521 10.8874 10.7104 11.0983 10.924C11.1421 10.9593 11.1778 11.0031 11.2033 11.0526C11.2287 11.1022 11.2432 11.1564 11.2459 11.2117C11.2485 11.267 11.2393 11.3223 11.2187 11.374C11.1982 11.4256 11.1668 11.4725 11.1266 11.5116C11.0461 11.5885 10.9377 11.6312 10.825 11.6304C10.7694 11.6295 10.7145 11.6177 10.6637 11.5956C10.6129 11.5736 10.5671 11.5417 10.5292 11.502C10.521 11.4936 9.73415 10.6652 8.81518 10.6652C8.33272 10.6652 7.63816 11.1952 7.02523 11.6632C6.27898 12.2336 5.57539 12.7716 4.82503 12.7716Z" fill="#272635"/>
<path d="M11.6771 14.5H1.45108C1.06632 14.4995 0.697489 14.3502 0.425465 14.0849C0.153441 13.8196 0.000434124 13.4599 0 13.0848V6.3152C0.000434124 5.94006 0.153441 5.5804 0.425465 5.31511C0.697489 5.04981 1.06632 4.90052 1.45108 4.9H11.6771C12.0619 4.90052 12.4307 5.04981 12.7027 5.31511C12.9748 5.5804 13.1278 5.94006 13.1282 6.3152V13.0848C13.1278 13.4599 12.9748 13.8196 12.7027 14.0849C12.4307 14.3502 12.0619 14.4995 11.6771 14.5ZM1.45108 5.7C1.10318 5.7 0.820512 5.976 0.820512 6.3152V13.0848C0.820512 13.424 1.10318 13.7 1.45108 13.7H11.6771C12.025 13.7 12.3077 13.424 12.3077 13.0848V6.3152C12.3077 5.976 12.025 5.7 11.6771 5.7H1.45108Z" fill="#272635"/>
<path d="M14.6096 12.1H14.359C14.2502 12.1 14.1458 12.0579 14.0689 11.9828C13.9919 11.9078 13.9487 11.8061 13.9487 11.7C13.9487 11.5939 13.9919 11.4922 14.0689 11.4172C14.1458 11.3421 14.2502 11.3 14.359 11.3H14.6096C15.1795 11.3 15.1795 11.0548 15.1795 10.9084V3.6676C15.1795 3.5124 15.1795 3.3 14.6096 3.3H4.10626C3.72554 3.3 3.69231 3.36 3.69231 3.6676V5.3C3.69231 5.35253 3.6817 5.40454 3.66108 5.45307C3.64047 5.50161 3.61025 5.5457 3.57215 5.58284C3.53406 5.61999 3.48883 5.64945 3.43905 5.66955C3.38928 5.68966 3.33593 5.7 3.28206 5.7C3.22818 5.7 3.17483 5.68966 3.12506 5.66955C3.07528 5.64945 3.03006 5.61999 2.99196 5.58284C2.95387 5.5457 2.92365 5.50161 2.90303 5.45307C2.88241 5.40454 2.8718 5.35253 2.8718 5.3V3.6676C2.8718 2.8928 3.28739 2.5 4.10626 2.5H14.6101C15.4802 2.5 16 2.9364 16 3.6676V10.9084C16 11.6432 15.4671 12.1 14.6096 12.1ZM3.95898 9.8248C3.12944 9.8248 2.45416 9.1664 2.45416 8.3564C2.45416 7.5464 3.12944 6.888 3.95898 6.888C4.78934 6.888 5.46503 7.5464 5.46503 8.3564C5.46503 9.1664 4.78975 9.8248 3.95898 9.8248ZM3.95898 7.688C3.77716 7.688 3.60279 7.75842 3.47423 7.88377C3.34567 8.00912 3.27344 8.17913 3.27344 8.3564C3.27344 8.53367 3.34567 8.70368 3.47423 8.82903C3.60279 8.95438 3.77716 9.0248 3.95898 9.0248C4.33682 9.0248 4.64452 8.7248 4.64452 8.3564C4.64452 7.988 4.33682 7.688 3.95898 7.688Z" fill="#272635"/>
<path d="M14.359 12.1L13.5385 12.1C13.4297 12.1 13.3253 12.0578 13.2484 11.9828C13.1714 11.9078 13.1282 11.8061 13.1282 11.7C13.1282 11.5939 13.1714 11.4922 13.2484 11.4171C13.3253 11.3421 13.4297 11.3 13.5385 11.3L14.359 11.3C14.4678 11.3 14.5721 11.3421 14.6491 11.4171C14.726 11.4922 14.7692 11.5939 14.7692 11.7C14.7692 11.8061 14.726 11.9078 14.6491 11.9828C14.5721 12.0578 14.4678 12.1 14.359 12.1Z" fill="#272635"/>
</svg>
