<svg width="16" height="16" viewBox="0 0 16 16" fill="none" xmlns="http://www.w3.org/2000/svg">
<path d="M13.7647 15H2.23531C1.55406 15 1 14.4459 1 13.7647V2.23531C1 1.55406 1.55406 1 2.23531 1H13.7647C14.4459 1 15 1.55406 15 2.23531V13.7647C15 14.4459 14.4459 15 13.7647 15ZM2.23531 1.82359C2.00828 1.82359 1.82359 2.00828 1.82359 2.23531V13.7647C1.82359 13.9917 2.00828 14.1764 2.23531 14.1764H13.7647C13.9917 14.1764 14.1764 13.9917 14.1764 13.7647V2.23531C14.1764 2.00828 13.9917 1.82359 13.7647 1.82359H2.23531Z" fill="#192845"/>
<path d="M14.5883 4.70594H1.41172C1.18437 4.70594 1 4.52156 1 4.29422V2.23531C1 1.55406 1.55406 1 2.23531 1H13.7647C14.4459 1 15 1.55406 15 2.23531V4.29406C15 4.52156 14.8156 4.70594 14.5883 4.70594ZM1.82359 3.88234H14.1766V2.23531C14.1766 2.00828 13.9919 1.82359 13.7648 1.82359H2.23531C2.00828 1.82359 1.82359 2.00828 1.82359 2.23531V3.88234Z" fill="#192845"/>
<path d="M2.64722 2.85297C2.64722 2.96217 2.69059 3.06689 2.76781 3.1441C2.84502 3.22131 2.94974 3.26469 3.05894 3.26469C3.16813 3.26469 3.27285 3.22131 3.35006 3.1441C3.42728 3.06689 3.47065 2.96217 3.47065 2.85297C3.47065 2.74378 3.42728 2.63906 3.35006 2.56184C3.27285 2.48463 3.16813 2.44125 3.05894 2.44125C2.94974 2.44125 2.84502 2.48463 2.76781 2.56184C2.69059 2.63906 2.64722 2.74378 2.64722 2.85297Z" fill="#192845"/>
<path d="M3.88232 2.85297C3.88232 2.96217 3.9257 3.06689 4.00291 3.1441C4.08013 3.22131 4.18485 3.26469 4.29404 3.26469C4.40324 3.26469 4.50796 3.22131 4.58517 3.1441C4.66238 3.06689 4.70576 2.96217 4.70576 2.85297C4.70576 2.74378 4.66238 2.63906 4.58517 2.56184C4.50796 2.48463 4.40324 2.44125 4.29404 2.44125C4.18485 2.44125 4.08013 2.48463 4.00291 2.56184C3.9257 2.63906 3.88232 2.74378 3.88232 2.85297Z" fill="#192845"/>
<path d="M5.11768 2.85297C5.11768 2.96217 5.16105 3.06689 5.23827 3.1441C5.31548 3.22131 5.4202 3.26469 5.52939 3.26469C5.63859 3.26469 5.74331 3.22131 5.82052 3.1441C5.89774 3.06689 5.94111 2.96217 5.94111 2.85297C5.94111 2.74378 5.89774 2.63906 5.82052 2.56184C5.74331 2.48463 5.63859 2.44125 5.52939 2.44125C5.4202 2.44125 5.31548 2.48463 5.23827 2.56184C5.16105 2.63906 5.11768 2.74378 5.11768 2.85297Z" fill="#192845"/>
<path d="M3.88236 8.13734C3.65502 8.13734 3.47064 7.95297 3.47064 7.72563C3.47064 7.49828 3.65502 7.31391 3.88236 7.31391V7.31375H9.64705C9.87439 7.31375 10.0588 7.49813 10.0588 7.72547V7.72563C10.0588 7.9525 9.87517 8.13656 9.6483 8.13734C9.64783 8.13719 9.64752 8.13703 9.64705 8.13734H3.88236ZM12.1177 11.5686H3.88236C3.65502 11.5686 3.47064 11.3842 3.47064 11.1569C3.47064 10.9295 3.65502 10.7452 3.88236 10.7452H12.1177C12.345 10.7452 12.5294 10.9295 12.5294 11.1569C12.5294 11.3842 12.345 11.5686 12.1177 11.5686Z" fill="#192845"/>
</svg>
