<svg width="32" height="32" viewBox="0 0 32 32" fill="none" xmlns="http://www.w3.org/2000/svg">
<path d="M28.3509 26.6667V9.82455C28.3509 9.20701 27.8457 8.70174 27.2281 8.70174H17.1229V4.21051C17.1229 3.59297 16.6176 3.08771 16.0001 3.08771H4.77198C4.15444 3.08771 3.64917 3.59297 3.64917 4.21051V26.6667H2.52637V28.9123H29.4737V26.6667H28.3509ZM12.6316 21.8947H8.1404V19.6491H12.6316V21.8947ZM12.6316 17.4035H8.1404V15.1579H12.6316V17.4035ZM12.6316 12.9123H8.1404V10.6667H12.6316V12.9123ZM23.8597 21.8947H19.3685V19.6491H23.8597V21.8947ZM23.8597 17.4035H19.3685V15.1579H23.8597V17.4035Z" fill="url(#paint0_linear_389_7694)"/>
<defs>
<linearGradient id="paint0_linear_389_7694" x1="16.0001" y1="3.08771" x2="16.0001" y2="28.9123" gradientUnits="userSpaceOnUse">
<stop stop-color="#74A2C1"/>
<stop offset="1" stop-color="#345A67"/>
</linearGradient>
</defs>
</svg>
