<svg width="16" height="16" viewBox="0 0 16 16" fill="none" xmlns="http://www.w3.org/2000/svg">
<path d="M14.1928 12.6232L13.8096 5.39281C13.7488 4.25601 12.8328 3.36481 11.724 3.36481H10.9168C10.7128 2.05281 9.46959 1.04001 7.96959 1.04001C6.46959 1.04001 5.22719 2.05281 5.02319 3.36481H4.21519C3.10639 3.36481 2.19119 4.25601 2.13039 5.39281L1.74719 12.6232C1.7313 12.9177 1.77528 13.2125 1.87648 13.4895C1.97769 13.7666 2.134 14.0203 2.33599 14.2352C2.52785 14.4395 2.75965 14.6021 3.017 14.713C3.27435 14.8239 3.55175 14.8808 3.83199 14.88H12.108C12.3885 14.8804 12.666 14.823 12.9234 14.7115C13.1807 14.6001 13.4124 14.4368 13.604 14.232C13.8054 14.0173 13.9614 13.7642 14.0626 13.4877C14.1638 13.2112 14.208 12.9172 14.1928 12.6232ZM7.96959 2.00001C8.92959 2.00001 9.73679 2.58481 9.93839 3.36481H5.99999C6.20319 2.58481 7.00879 2.00001 7.96959 2.00001ZM12.9072 13.5752C12.8049 13.685 12.681 13.7726 12.5434 13.8324C12.4058 13.8923 12.2573 13.9232 12.1072 13.9232H3.83199C3.6819 13.9232 3.53341 13.8923 3.39578 13.8324C3.25815 13.7726 3.13432 13.685 3.03199 13.5752C2.9194 13.4548 2.83237 13.3128 2.77613 13.1579C2.7199 13.0029 2.69563 12.8382 2.70479 12.6736L3.08959 5.44001C3.12239 4.81281 3.61679 4.32001 4.21519 4.32001H4.99279V6.51041C4.99279 6.63771 5.04336 6.7598 5.13337 6.84982C5.22339 6.93984 5.34548 6.99041 5.47279 6.99041C5.60009 6.99041 5.72218 6.93984 5.8122 6.84982C5.90222 6.7598 5.95279 6.63771 5.95279 6.51041V4.32481H9.98719V6.51041C9.98719 6.63771 10.0378 6.7598 10.1278 6.84982C10.2178 6.93984 10.3399 6.99041 10.4672 6.99041C10.5945 6.99041 10.7166 6.93984 10.8066 6.84982C10.8966 6.7598 10.9472 6.63771 10.9472 6.51041V4.32481H11.724C12.3224 4.32481 12.8176 4.81601 12.8504 5.44481L13.2344 12.6752C13.2433 12.8395 13.2189 13.004 13.1627 13.1586C13.1065 13.3133 13.0196 13.455 12.9072 13.5752Z" fill="#192845"/>
<path d="M10.4672 10.3384H5.1816C5.0543 10.3384 4.93221 10.389 4.84219 10.479C4.75217 10.569 4.7016 10.6911 4.7016 10.8184C4.7016 10.9457 4.75217 11.0678 4.84219 11.1578C4.93221 11.2478 5.0543 11.2984 5.1816 11.2984H10.4672C10.5945 11.2984 10.7166 11.2478 10.8066 11.1578C10.8966 11.0678 10.9472 10.9457 10.9472 10.8184C10.9472 10.6911 10.8966 10.569 10.8066 10.479C10.7166 10.389 10.5945 10.3384 10.4672 10.3384Z" fill="#192845"/>
</svg>
